<?xml version="1.0" encoding="UTF-8"?>
<svg width="270.73mm" height="127.57mm" version="1.1" viewBox="0 0 270.73 127.57" xmlns="http://www.w3.org/2000/svg"><defs><radialGradient id="radialGradient35177" cx="204.19" cy="251.98" r="32.205" gradientTransform="matrix(1.4227 0 0 1.4227 -86.308 -106.51)" gradientUnits="userSpaceOnUse"><stop stop-color="#003380" offset="0"/><stop stop-color="#003380" stop-opacity="0" offset="1"/></radialGradient><clipPath id="clipPath83103"><path class="powerclip" d="m153.38 201.17h101.63v101.63h-101.63zm72.223 50.817a21.406 21.406 0 0 0-21.406-21.406 21.406 21.406 0 0 0-21.406 21.406 21.406 21.406 0 0 0 21.406 21.406 21.406 21.406 0 0 0 21.406-21.406z" fill="#fff" stop-color="#000000"/></clipPath></defs><g transform="translate(17.018 -174.78)"><g stroke-opacity=".5"><g fill="#003380" opacity=".9" stop-color="#000000" stroke-width=".26458" style="white-space:pre" aria-label="free ministry"><path d="m190.76 280.39v-0.4892h-0.79237v-0.39274c0-0.45131 0.23771-0.69936 0.64768-0.69936 0.12058 0 0.24804 0.0103 0.34451 0.031l0.0344-0.52021c-0.1447-0.0344-0.29628-0.0551-0.44097-0.0551-0.76137 0-1.223 0.44097-1.223 1.2437v0.39274h-0.58912v0.4892h0.58912v3.2384h0.63734v-3.2384z"/><path d="m192.96 280.45c0.12058 0 0.20326 7e-3 0.31006 0.0276l3e-3 -0.59256c-0.0448-0.0207-0.19293-0.0482-0.2825-0.0482-0.40652 0-0.69936 0.19292-0.88539 0.49609l-0.0138-0.42719h-0.62012v3.7276h0.63734v-2.6458c0.13781-0.32728 0.41686-0.53743 0.85094-0.53743z"/><path d="m196.75 282.98-0.38585-0.30661c-0.23427 0.30661-0.53399 0.50643-0.98186 0.50643-0.67868 0-1.0852-0.54777-1.1059-1.2334h2.5218v-0.28594c0-1.0439-0.46509-1.8259-1.5331-1.8259-0.83716 0-1.6295 0.7028-1.6295 1.9189v0.14469c0 1.0508 0.67179 1.8018 1.7122 1.8018 0.73725 0 1.161-0.3514 1.4022-0.72003zm-1.4848-2.6217c0.65112 0 0.86472 0.52366 0.89572 1.0198v0.0482h-1.8638c0.0861-0.68902 0.46164-1.068 0.96807-1.068z"/><path d="m200.49 282.98-0.38585-0.30661c-0.23426 0.30661-0.53399 0.50643-0.98185 0.50643-0.67869 0-1.0852-0.54777-1.1059-1.2334h2.5218v-0.28594c0-1.0439-0.46508-1.8259-1.5331-1.8259-0.83716 0-1.6295 0.7028-1.6295 1.9189v0.14469c0 1.0508 0.6718 1.8018 1.7122 1.8018 0.73725 0 1.161-0.3514 1.4022-0.72003zm-1.4848-2.6217c0.65112 0 0.86472 0.52366 0.89572 1.0198v0.0482h-1.8638c0.0861-0.68902 0.46165-1.068 0.96808-1.068z"/><path d="m204.52 280.37c0.48232 0 0.79582 0.22394 0.79582 0.80616v2.4529h0.63734v-2.4736c0.0482-0.43409 0.34451-0.78549 0.86128-0.78549 0.48576 0 0.79581 0.17915 0.79581 0.80271v2.4564h0.64079v-2.4495c0-0.94051-0.45131-1.347-1.2506-1.347-0.53743 0-0.93706 0.24116-1.1851 0.59945-0.19637-0.42031-0.58911-0.59945-1.068-0.59945-0.48232 0-0.8475 0.1757-1.1024 0.47542l-0.0172-0.40652h-0.60634v3.7276h0.64079v-2.732c0.14125-0.3135 0.40308-0.5271 0.85783-0.5271z"/><path d="m209.22 278.91c0 0.19981 0.12746 0.35829 0.37551 0.35829 0.2446 0 0.37896-0.15848 0.37896-0.35829 0-0.20671-0.13436-0.36863-0.37896-0.36863-0.24805 0-0.37551 0.16192-0.37551 0.36863zm0.68902 0.98874h-0.64079v3.7276h0.64079z"/><path d="m212.48 280.37c0.48231 0 0.74414 0.22738 0.74414 0.8096v2.4495h0.64079v-2.4426c0-0.97841-0.46165-1.3539-1.1954-1.3539-0.46164 0-0.8475 0.19981-1.1128 0.53399l-0.0207-0.46509h-0.60289v3.7276h0.63734v-2.6631c0.1757-0.3514 0.49954-0.59601 0.90951-0.59601z"/><path d="m214.84 278.91c0 0.19981 0.12747 0.35829 0.37552 0.35829 0.2446 0 0.37896-0.15848 0.37896-0.35829 0-0.20671-0.13436-0.36863-0.37896-0.36863-0.24805 0-0.37552 0.16192-0.37552 0.36863zm0.68902 0.98874h-0.64079v3.7276h0.64079z"/><path d="m218.72 282.64c0 0.30662-0.28249 0.53399-0.8027 0.53399-0.39619 0-0.85783-0.16881-0.88539-0.69591h-0.64079c0 0.61668 0.53743 1.2196 1.5262 1.2196 0.86816 0 1.44-0.45131 1.44-1.1059 0-0.59944-0.42375-0.90261-1.3402-1.1128-0.7028-0.15848-0.85782-0.29973-0.85782-0.57534 0-0.27216 0.21015-0.54777 0.74069-0.54777 0.50299 0 0.78204 0.33418 0.78204 0.64079h0.63734c0-0.64079-0.5271-1.1644-1.4194-1.1644-0.83716 0-1.3815 0.49954-1.3815 1.0886 0 0.61323 0.51332 0.90262 1.3436 1.0749 0.73725 0.14814 0.85782 0.36863 0.85782 0.64423z"/><path d="m221.77 283.63-3e-3 -0.52021c-0.0586 0.0138-0.19292 0.0413-0.29972 0.0413-0.2136 0-0.40997-0.062-0.40997-0.44442v-2.3151h0.69591v-0.4892h-0.69591v-0.90606h-0.63734v0.90606h-0.68213v0.4892h0.68213v2.3117c0 0.74758 0.38585 0.99563 0.85783 0.99563 0.22737 0 0.39274-0.0379 0.49265-0.0689z"/><path d="m223.99 280.45c0.12058 0 0.20326 7e-3 0.31006 0.0276l3e-3 -0.59256c-0.0448-0.0207-0.19292-0.0482-0.2825-0.0482-0.40652 0-0.69935 0.19292-0.88539 0.49609l-0.0138-0.42719h-0.62011v3.7276h0.63734v-2.6458c0.1378-0.32728 0.41686-0.53743 0.85094-0.53743z"/><path d="m226.22 284.2 1.4952-4.3029h-0.68213l-0.86472 2.7905-0.93362-2.7905h-0.69591l1.3298 3.6863-0.13781 0.37896c-0.15503 0.46164-0.37207 0.60978-0.80615 0.60978-0.031 0-0.13436-7e-3 -0.17225-0.0138l3e-3 0.51676c0.0655 0.0207 0.25494 0.0551 0.35829 0.0551 0.67524 0 0.96807-0.56155 1.1059-0.93017z"/></g><path d="m-15.04 174.78h266.78c1.0954 0 1.9773 0.66706 1.9773 1.4957v124.58c0 0.8286-0.88189 1.4957-1.9773 1.4957h-266.78c-1.0954 0-1.9773-0.66707-1.9773-1.4957v-124.58c0-0.8286 0.88189-1.4957 1.9773-1.4957z" fill="#f2f0d9" stop-color="#000000" stroke-width="1.3422"/><g stroke-width=".26458"><g stop-color="#000000" style="white-space:pre" aria-label="God"><path d="m108.51 193.31h-2.3688v0.9095h1.1245v1.0377c-0.13229 0.12815-0.39687 0.29765-0.99219 0.29765-0.92604 0-1.418-0.65732-1.418-1.91v-0.36794c0-1.2485 0.45475-1.91 1.2981-1.91 0.74828 0 1.0501 0.39274 1.1452 1.0005h1.2072c-0.1323-1.17-0.82269-2.0009-2.3854-2.0009-1.5255 0-2.5259 1.0625-2.5259 2.9187v0.35967c0 1.8562 1.0542 2.9104 2.6128 2.9104 1.3229 0 2.0174-0.50436 2.3027-0.84336z"/><path d="m109.24 194.29c0 1.3022 0.76895 2.2738 2.1249 2.2738 1.3518 0 2.1125-0.97152 2.1125-2.2738v-0.0868c0-1.3022-0.76068-2.2779-2.1208-2.2779-1.3477 0-2.1167 0.97565-2.1167 2.2779zm1.1989-0.0868c0-0.71107 0.24804-1.3146 0.91777-1.3146 0.678 0 0.92604 0.60358 0.92604 1.3146v0.0868c0 0.72761-0.25218 1.3105-0.91777 1.3105-0.678 0-0.92604-0.58291-0.92604-1.3105z"/><path d="m116.98 196.48h1.079v-6.35h-1.1989v2.2779c-0.26872-0.30592-0.62012-0.48369-1.0749-0.48369-1.1162 0-1.757 0.92604-1.757 2.2862v0.0868c0 1.3022 0.64079 2.2655 1.7487 2.2655 0.49609 0 0.86817-0.21084 1.1452-0.55811zm-1.7529-2.1828v-0.0868c0-0.74001 0.23565-1.3188 0.8599-1.3188 0.3762 0 0.62839 0.1695 0.77308 0.46302v1.7735c-0.14469 0.28939-0.40101 0.46302-0.78135 0.46302-0.62838 0-0.85163-0.57464-0.85163-1.294z"/></g><g stop-color="#000000" style="white-space:pre" aria-label="church regulars"><path d="m-5.1143 252.29c-0.70693 0-0.84749-0.60771-0.84749-1.2981v-0.11575c0-0.66973 0.14469-1.2981 0.84336-1.2981 0.48783 0 0.74828 0.3514 0.75654 0.78549h1.1245c-0.012402-1.0749-0.76068-1.7487-1.8604-1.7487-1.3808 0-2.0629 0.99633-2.0629 2.2614v0.11575c0 1.2692 0.68213 2.2614 2.0671 2.2614 1.0335 0 1.8438-0.68213 1.8562-1.6288h-1.1245c-0.00827 0.40514-0.31419 0.66559-0.75241 0.66559z"/><path d="m-0.62879 249.58c0.45889 0 0.7152 0.1819 0.7152 0.76068v2.8277h1.1989v-2.8195c0-1.265-0.59531-1.7363-1.4759-1.7363-0.48783 0-0.90124 0.21084-1.1948 0.56638v-2.3606h-1.1948v6.35h1.1948v-3.1874c0.14469-0.24805 0.38861-0.40101 0.75654-0.40101z"/><path d="m4.9027 253.17h1.1245v-4.4731h-1.1989v3.1585c-0.14056 0.26459-0.40514 0.42582-0.83923 0.42582-0.36794 0-0.63252-0.18604-0.63252-0.68213v-2.9022h-1.1948v2.8939c0 1.1824 0.59945 1.6619 1.4841 1.6619 0.54157 0 0.94671-0.20257 1.2237-0.54157z"/><path d="m9.012 249.78c0.13229 0 0.31006 0.0207 0.43408 0.0331l0.012402-1.1452c-0.086817-0.0331-0.24391-0.0538-0.36794-0.0538-0.43822 0-0.77721 0.23152-0.99632 0.61599l-0.037207-0.5333h-1.1286v4.4731h1.1989v-2.9311c0.13643-0.29765 0.42581-0.45888 0.8847-0.45888z"/><path d="m11.803 252.29c-0.70693 0-0.84749-0.60771-0.84749-1.2981v-0.11575c0-0.66973 0.1447-1.2981 0.84336-1.2981 0.48783 0 0.74828 0.3514 0.75654 0.78549h1.1245c-0.0124-1.0749-0.76068-1.7487-1.8604-1.7487-1.3808 0-2.0629 0.99633-2.0629 2.2614v0.11575c0 1.2692 0.68213 2.2614 2.0671 2.2614 1.0335 0 1.8438-0.68213 1.8562-1.6288h-1.1245c-0.0083 0.40514-0.31419 0.66559-0.75241 0.66559z"/><path d="m16.288 249.58c0.45889 0 0.7152 0.1819 0.7152 0.76068v2.8277h1.1989v-2.8195c0-1.265-0.59531-1.7363-1.4759-1.7363-0.48783 0-0.90124 0.21084-1.1948 0.56638v-2.3606h-1.1948v6.35h1.1948v-3.1874c0.14469-0.24805 0.38861-0.40101 0.75654-0.40101z"/><path d="m23.295 249.78c0.13229 0 0.31006 0.0207 0.43408 0.0331l0.0124-1.1452c-0.08682-0.0331-0.24391-0.0538-0.36794-0.0538-0.43822 0-0.77721 0.23152-0.99632 0.61599l-0.03721-0.5333h-1.1286v4.4731h1.1989v-2.9311c0.13642-0.29765 0.42581-0.45888 0.8847-0.45888z"/><path d="m28.033 252.44-0.59118-0.65319c-0.26458 0.33486-0.64079 0.50022-1.079 0.50022-0.61185 0-1.0005-0.3886-1.0831-0.96738h2.8484v-0.5085c0-1.3229-0.68626-2.1994-1.972-2.1994-1.2816 0-2.0877 0.95912-2.0877 2.311v0.16123c0 1.1948 0.82682 2.1663 2.22 2.1663 0.8723 0 1.4593-0.40514 1.7446-0.81028zm-1.8852-2.865c0.55397 0 0.79375 0.35554 0.80615 0.8351v0.0909h-1.6619c0.08268-0.55398 0.34727-0.92605 0.85576-0.92605z"/><path d="m32.721 253.02v-4.3202h-1.0831l-0.04547 0.42168c-0.26045-0.31833-0.62425-0.50437-1.1493-0.50437-1.1245 0-1.8149 0.92605-1.8149 2.2862v0.0868c0 1.3022 0.69453 2.2655 1.8066 2.2655 0.46716 0 0.82269-0.17363 1.0873-0.47129v0.23978c0 0.62839-0.37207 0.97979-1.0046 0.97979-0.43822 0-0.81029-0.18604-1.0873-0.4961l-0.52917 0.72761c0.38447 0.47956 1.1245 0.69866 1.666 0.69866 1.2816 0 2.1539-0.68626 2.1539-1.9141zm-2.898-2.0298v-0.0868c0-0.74001 0.29766-1.3188 0.92191-1.3188 0.3762 0 0.62425 0.14883 0.77721 0.40928v1.8769c-0.14883 0.25632-0.40101 0.41342-0.78548 0.41342-0.62839 0-0.91364-0.57465-0.91364-1.294z"/><path d="m36.355 253.17h1.1245v-4.4731h-1.1989v3.1585c-0.14056 0.26459-0.40514 0.42582-0.83923 0.42582-0.36794 0-0.63252-0.18604-0.63252-0.68213v-2.9022h-1.1948v2.8939c0 1.1824 0.59945 1.6619 1.4841 1.6619 0.54157 0 0.94671-0.20257 1.2237-0.54157z"/><path d="m39.646 246.82h-1.1989v6.35h1.1989z"/><path d="m43.218 253.17h1.2072v-0.0703c-0.11576-0.22738-0.17777-0.51263-0.17777-1.0211v-1.8934c0-1.0459-0.76068-1.571-1.7942-1.571-1.1576 0-1.9017 0.64493-1.9017 1.4221h1.1948c0-0.33486 0.24391-0.53743 0.64079-0.53743 0.45475 0 0.66146 0.26458 0.66146 0.67799v0.26045h-0.5333c-1.3601 0-2.0629 0.53744-2.0629 1.4759 0 0.77721 0.66146 1.3394 1.5172 1.3394 0.5333 0 0.89297-0.21497 1.1286-0.48369 0.02894 0.15296 0.07028 0.29352 0.11989 0.40101zm-0.98805-0.83096c-0.3638 0-0.58291-0.21497-0.58291-0.51263 0-0.39274 0.27699-0.69453 0.91364-0.69453h0.48783v0.77722c-0.12402 0.2191-0.41755 0.42994-0.81856 0.42994z"/><path d="m47.248 249.78c0.13229 0 0.31006 0.0207 0.43408 0.0331l0.0124-1.1452c-0.08682-0.0331-0.24391-0.0538-0.36794-0.0538-0.43822 0-0.77721 0.23152-0.99632 0.61599l-0.03721-0.5333h-1.1286v4.4731h1.1989v-2.9311c0.13643-0.29765 0.42581-0.45888 0.8847-0.45888z"/><path d="m50.68 251.93c0 0.27698-0.23978 0.47129-0.69453 0.47129-0.42581 0-0.79788-0.18604-0.81856-0.65733h-1.1369c0 0.72761 0.678 1.509 1.9306 1.509 1.1493 0 1.881-0.57877 1.881-1.3684 0-0.88883-0.71934-1.2154-1.6867-1.4056-0.62425-0.11989-0.83509-0.27285-0.83509-0.5333 0-0.27285 0.23564-0.48369 0.63252-0.48369 0.47129 0 0.68213 0.25218 0.68213 0.59531h1.1948c0-0.83509-0.71107-1.4428-1.8728-1.4428-1.1162 0-1.7818 0.64493-1.7818 1.3891 0 0.77308 0.67386 1.1617 1.5916 1.356 0.74828 0.16123 0.91364 0.31832 0.91364 0.57051z"/></g><g transform="rotate(30)" fill="#050" opacity=".9" stop-color="#000000" style="white-space:pre" aria-label="stipend"><path d="m230.29 108.7c0 0.30661-0.2825 0.53399-0.80271 0.53399-0.39618 0-0.85783-0.16881-0.88539-0.69591h-0.64079c0 0.61667 0.53744 1.2196 1.5262 1.2196 0.86817 0 1.44-0.45131 1.44-1.1059 0-0.59944-0.42374-0.90261-1.3401-1.1128-0.7028-0.15848-0.85783-0.29973-0.85783-0.57533 0-0.27217 0.21015-0.54777 0.7407-0.54777 0.50298 0 0.78203 0.33417 0.78203 0.64078h0.63735c0-0.64078-0.5271-1.1644-1.4194-1.1644-0.83716 0-1.3815 0.49954-1.3815 1.0886 0 0.61323 0.51332 0.90262 1.3436 1.0749 0.73725 0.14814 0.85783 0.36863 0.85783 0.64424z"/><path d="m233.34 109.69-3e-3 -0.52021c-0.0586 0.0138-0.19293 0.0413-0.29973 0.0413-0.21359 0-0.40996-0.062-0.40996-0.44442v-2.3151h0.69591v-0.48921h-0.69591v-0.90606h-0.63735v0.90606h-0.68213v0.48921h0.68213v2.3117c0 0.74758 0.38585 0.99563 0.85783 0.99563 0.22738 0 0.39274-0.0379 0.49265-0.0689z"/><path d="m234.07 104.97c0 0.19982 0.12746 0.35829 0.37551 0.35829 0.2446 0 0.37896-0.15847 0.37896-0.35829 0-0.20671-0.13436-0.36863-0.37896-0.36863-0.24805 0-0.37551 0.16192-0.37551 0.36863zm0.68902 0.98874h-0.64079v3.7276h0.64079z"/><path d="m237.48 109.75c0.92328 0 1.4469-0.80271 1.4469-1.8914v-0.0723c0-1.1369-0.51677-1.9017-1.4573-1.9017-0.46853 0-0.82682 0.16881-1.0783 0.47887l-0.031-0.40997h-0.58567v5.1608h0.64079v-1.7949c0.2515 0.27561 0.6029 0.43064 1.0645 0.43064zm-0.19637-3.328c0.69591 0 1.0025 0.62356 1.0025 1.3643v0.0723c0 0.7407-0.30661 1.3677-0.99563 1.3677-0.44097 0-0.70625-0.2136-0.87506-0.50643v-1.7846c0.16537-0.29628 0.43753-0.51332 0.86817-0.51332z"/><path d="m242.69 109.03-0.38585-0.30662c-0.23427 0.30662-0.534 0.50643-0.98186 0.50643-0.67868 0-1.0852-0.54777-1.1059-1.2333h2.5218v-0.28595c0-1.0439-0.46509-1.8259-1.5331-1.8259-0.83716 0-1.6295 0.7028-1.6295 1.9189v0.14469c0 1.0508 0.67179 1.8018 1.7122 1.8018 0.73725 0 1.161-0.3514 1.4022-0.72002zm-1.4848-2.6217c0.65112 0 0.86472 0.52365 0.89572 1.0197v0.0482h-1.8638c0.0861-0.68902 0.46164-1.068 0.96807-1.068z"/><path d="m245.03 106.43c0.48231 0 0.74414 0.22737 0.74414 0.80959v2.4495h0.64079v-2.4426c0-0.9784-0.46165-1.3539-1.1954-1.3539-0.46165 0-0.8475 0.19982-1.1128 0.53399l-0.0207-0.46509h-0.60289v3.7276h0.63734v-2.6631c0.1757-0.3514 0.49954-0.596 0.90951-0.596z"/><path d="m249.79 109.69h0.58567v-5.2917h-0.64079v1.9361c-0.2446-0.28249-0.58222-0.44097-1.0335-0.44097-0.88883 0-1.4745 0.76481-1.4745 1.9017v0.0723c0 1.0886 0.59256 1.8914 1.4676 1.8914 0.46853 0 0.81993-0.16881 1.0645-0.46853zm-1.9224-1.8225v-0.0723c0-0.7407 0.29628-1.3643 0.99219-1.3643 0.43752 0 0.71313 0.22393 0.87505 0.53054v1.7157c-0.16881 0.3135-0.43753 0.54088-0.88194 0.54088-0.68902 0-0.9853-0.60978-0.9853-1.3505z"/></g><g transform="rotate(-30)" fill="#050" opacity=".9" stop-color="#000000" style="white-space:pre" aria-label="offerings"><path d="m-67.52 218.11c0 1.0783 0.65112 1.8914 1.6984 1.8914 1.0439 0 1.695-0.81305 1.695-1.8914v-0.0792c0-1.0783-0.65112-1.8948-1.7019-1.8948-1.0404 0-1.6915 0.81648-1.6915 1.8948zm0.63734-0.0792c0-0.73036 0.3514-1.3712 1.0542-1.3712 0.70624 0 1.0611 0.64079 1.0611 1.3712v0.0792c0 0.74069-0.35484 1.3677-1.0542 1.3677-0.70969 0-1.0611-0.62701-1.0611-1.3677z"/><path d="m-61.584 216.69v-0.4892h-0.79237v-0.39274c0-0.45131 0.23771-0.69936 0.64768-0.69936 0.12058 0 0.24805 0.0103 0.34451 0.031l0.03445-0.52021c-0.14469-0.0344-0.29628-0.0551-0.44097-0.0551-0.76137 0-1.223 0.44097-1.223 1.2437v0.39274h-0.58911v0.4892h0.58911v3.2384h0.63734v-3.2384z"/><path d="m-59.131 216.69v-0.4892h-0.79237v-0.39274c0-0.45131 0.23771-0.69936 0.64768-0.69936 0.12058 0 0.24805 0.0103 0.34451 0.031l0.03445-0.52021c-0.14469-0.0344-0.29628-0.0551-0.44097-0.0551-0.76137 0-1.223 0.44097-1.223 1.2437v0.39274h-0.58911v0.4892h0.58911v3.2384h0.63734v-3.2384z"/><path d="m-55.555 219.28-0.38585-0.30661c-0.23427 0.30661-0.53399 0.50643-0.98185 0.50643-0.67868 0-1.0852-0.54777-1.1059-1.2334h2.5218v-0.28594c0-1.0439-0.46509-1.8259-1.5331-1.8259-0.83716 0-1.6295 0.7028-1.6295 1.9189v0.14469c0 1.0508 0.67179 1.8018 1.7122 1.8018 0.73725 0 1.161-0.3514 1.4022-0.72003zm-1.4848-2.6217c0.65112 0 0.86472 0.52366 0.89572 1.0198v0.0482h-1.8638c0.08613-0.68902 0.46164-1.068 0.96807-1.068z"/><path d="m-53.274 216.75c0.12058 0 0.20326 7e-3 0.31006 0.0276l0.0034-0.59255c-0.04479-0.0207-0.19292-0.0482-0.2825-0.0482-0.40652 0-0.69935 0.19292-0.88539 0.49609l-0.01378-0.42719h-0.62012v3.7276h0.63734v-2.6458c0.1378-0.32728 0.41686-0.53744 0.85094-0.53744z"/><path d="m-52.368 215.22c0 0.19981 0.12747 0.35829 0.37552 0.35829 0.2446 0 0.37896-0.15848 0.37896-0.35829 0-0.20671-0.13436-0.36863-0.37896-0.36863-0.24805 0-0.37552 0.16192-0.37552 0.36863zm0.68902 0.98874h-0.64079v3.7276h0.64079z"/><path d="m-49.109 216.67c0.48231 0 0.74414 0.22738 0.74414 0.8096v2.4495h0.64079v-2.4426c0-0.97841-0.46164-1.3539-1.1954-1.3539-0.46164 0-0.8475 0.19981-1.1128 0.53399l-0.02067-0.46509h-0.60289v3.7276h0.63734v-2.6631c0.1757-0.3514 0.49954-0.596 0.90951-0.596z"/><path d="m-43.766 219.85v-3.6484h-0.57878l-0.03101 0.41341c-0.2446-0.31006-0.59256-0.48231-1.0645-0.48231-0.90951 0-1.4711 0.76481-1.4711 1.9017v0.0724c0 1.0886 0.56844 1.8914 1.4642 1.8914 0.45475 0 0.79926-0.15848 1.0439-0.44442v0.32728c0 0.65113-0.38585 0.99564-0.98874 0.99564-0.33762 0-0.68902-0.12403-0.99908-0.50299l-0.33418 0.37896c0.33418 0.48576 0.99563 0.64768 1.3815 0.64768 0.93018 0 1.5779-0.56155 1.5779-1.5503zm-2.508-1.7432v-0.0724c0-0.7407 0.29283-1.3643 0.98874-1.3643 0.44442 0 0.72003 0.23082 0.88194 0.53744v1.6984c-0.16536 0.32039-0.43408 0.55122-0.88884 0.55122-0.68902 0-0.98185-0.60979-0.98185-1.3505z"/><path d="m-40.627 218.94c0 0.30661-0.2825 0.53399-0.80271 0.53399-0.39619 0-0.85783-0.16881-0.88539-0.69591h-0.64079c0 0.61667 0.53744 1.2196 1.5262 1.2196 0.86816 0 1.4401-0.45131 1.4401-1.1059 0-0.59945-0.42375-0.90262-1.3401-1.1128-0.7028-0.15847-0.85783-0.29972-0.85783-0.57533 0-0.27216 0.21015-0.54777 0.7407-0.54777 0.50298 0 0.78204 0.33418 0.78204 0.64079h0.63734c0-0.64079-0.5271-1.1644-1.4194-1.1644-0.83716 0-1.3815 0.49954-1.3815 1.0886 0 0.61322 0.51332 0.90261 1.3436 1.0749 0.73725 0.14814 0.85783 0.36862 0.85783 0.64423z"/></g></g></g><g opacity=".5"><path d="m40.099 238.31 53.004-30.602" color="#000000" fill="#8a0" stroke-width="2.065" style="-inkscape-stroke:none"/><g fill="#050"><path d="m92.586 206.81-53.004 30.602 1.0332 1.7891 53.004-30.602z" color="#000000" style="-inkscape-stroke:none"/><g fill-rule="evenodd"><path d="m97.23 205.32-4.1227 7.1491-4.13-7.1534z" color="#000000" stroke-width=".826pt" style="-inkscape-stroke:none"/><path d="m88.023 204.77 5.084 8.8047 5.0762-8.8008h-0.95312zm1.9082 1.1016 6.3438 4e-3 -3.168 5.4961z" color="#000000" style="-inkscape-stroke:none"/></g><path d="m124.5 204.77-1.0312 1.7871 53.002 30.602 1.0332-1.7871z" color="#000000" style="-inkscape-stroke:none"/><g fill-rule="evenodd"><path d="m181.12 238.65-8.2527 4e-3 4.13-7.1534z" color="#000000" stroke-width=".826pt" style="-inkscape-stroke:none"/><path d="m176.99 230.4-5.084 8.8066 10.16-6e-3 -0.47656-0.82422zm0 2.2031 3.1719 5.498-6.3477 4e-3z" color="#000000" style="-inkscape-stroke:none"/></g></g></g><path transform="translate(3.7042 -1.0583)" d="m250.01 251.98a45.817 45.817 0 0 1-45.817 45.817 45.817 45.817 0 0 1-45.817-45.817 45.817 45.817 0 0 1 45.817-45.817 45.817 45.817 0 0 1 45.817 45.817z" clip-path="url(#clipPath83103)" fill="url(#radialGradient35177)" opacity=".50968" stop-color="#000000"/><g stop-color="#000000" stroke-opacity=".5" stroke-width=".26458" style="white-space:pre" aria-label="pastor"><path d="m198.05 254.09c1.1204 0 1.7363-0.97978 1.7363-2.282v-0.0868c0-1.3601-0.61185-2.2696-1.7487-2.2696-0.49196 0-0.85576 0.19017-1.1245 0.51677l-0.0455-0.43408h-1.1121v6.1929h1.1989v-2.1125c0.26872 0.29765 0.62425 0.47542 1.0955 0.47542zm-0.32246-3.6711c0.62012 0 0.86403 0.56224 0.86403 1.3022v0.0868c0 0.72347-0.23151 1.3188-0.85576 1.3188-0.39688 0-0.64079-0.1695-0.78135-0.44235v-1.8314c0.14056-0.28112 0.38447-0.43408 0.77308-0.43408z"/><path d="m203.12 254.01h1.2072v-0.0703c-0.11575-0.22738-0.17776-0.51263-0.17776-1.0211v-1.8934c0-1.0459-0.76068-1.571-1.7942-1.571-1.1576 0-1.9017 0.64492-1.9017 1.4221h1.1948c0-0.33486 0.24391-0.53744 0.64078-0.53744 0.45476 0 0.66146 0.26459 0.66146 0.678v0.26045h-0.5333c-1.3601 0-2.0629 0.53743-2.0629 1.4759 0 0.77721 0.66146 1.3394 1.5172 1.3394 0.5333 0 0.89297-0.21497 1.1286-0.48369 0.0289 0.15296 0.0703 0.29352 0.11989 0.40101zm-0.98805-0.83096c-0.3638 0-0.58291-0.21497-0.58291-0.51263 0-0.39274 0.27698-0.69453 0.91364-0.69453h0.48782v0.77721c-0.12402 0.21911-0.41754 0.42995-0.81855 0.42995z"/><path d="m207.49 252.77c0 0.27699-0.23978 0.47129-0.69453 0.47129-0.42581 0-0.79788-0.18603-0.81855-0.65732h-1.1369c0 0.7276 0.678 1.509 1.9306 1.509 1.1493 0 1.881-0.57878 1.881-1.3684 0-0.88884-0.71934-1.2154-1.6867-1.4056-0.62425-0.11989-0.83509-0.27285-0.83509-0.5333 0-0.27285 0.23564-0.48369 0.63252-0.48369 0.47129 0 0.68213 0.25218 0.68213 0.59531h1.1948c0-0.83509-0.71107-1.4428-1.8728-1.4428-1.1162 0-1.7818 0.64492-1.7818 1.3891 0 0.77308 0.67386 1.1617 1.5916 1.356 0.74828 0.16123 0.91364 0.31832 0.91364 0.5705z"/><path d="m211.66 253.98v-0.90537c-0.0827 0.0165-0.20257 0.0331-0.34727 0.0331-0.30592 0-0.45888-0.0868-0.45888-0.46302v-2.2366h0.76067v-0.87229h-0.76067v-1.1038h-1.1948v1.1038h-0.65733v0.87229h0.65733v2.3606c0 0.95085 0.50023 1.3229 1.2816 1.3229 0.28939 0 0.5209-0.0455 0.71934-0.11162z"/><path d="m211.97 251.82c0 1.3022 0.76895 2.2738 2.1249 2.2738 1.3518 0 2.1125-0.97152 2.1125-2.2738v-0.0868c0-1.3022-0.76068-2.2779-2.1208-2.2779-1.3477 0-2.1167 0.97565-2.1167 2.2779zm1.1989-0.0868c0-0.71107 0.24805-1.3146 0.91778-1.3146 0.67799 0 0.92604 0.60358 0.92604 1.3146v0.0868c0 0.7276-0.25218 1.3105-0.91777 1.3105-0.678 0-0.92605-0.58291-0.92605-1.3105z"/><path d="m219.03 250.62c0.13229 0 0.31005 0.0207 0.43408 0.0331l0.0124-1.1452c-0.0868-0.0331-0.24391-0.0537-0.36794-0.0537-0.43821 0-0.77721 0.23151-0.99632 0.61599l-0.0372-0.5333h-1.1286v4.4731h1.1989v-2.9311c0.13643-0.29766 0.42582-0.45889 0.88471-0.45889z"/></g></g><g transform="translate(17.018 -174.78)" fill="#003380" opacity=".9" stop-color="#000000" stroke-opacity=".5" stroke-width=".26458" style="white-space:pre" aria-label="free ministry"><path d="m190.76 280.39v-0.4892h-0.79237v-0.39274c0-0.45131 0.23771-0.69936 0.64768-0.69936 0.12058 0 0.24804 0.0103 0.34451 0.031l0.0344-0.52021c-0.1447-0.0344-0.29628-0.0551-0.44097-0.0551-0.76137 0-1.223 0.44097-1.223 1.2437v0.39274h-0.58912v0.4892h0.58912v3.2384h0.63734v-3.2384z"/><path d="m192.96 280.45c0.12058 0 0.20326 7e-3 0.31006 0.0276l3e-3 -0.59256c-0.0448-0.0207-0.19293-0.0482-0.2825-0.0482-0.40652 0-0.69936 0.19292-0.88539 0.49609l-0.0138-0.42719h-0.62012v3.7276h0.63734v-2.6458c0.13781-0.32728 0.41686-0.53743 0.85094-0.53743z"/><path d="m196.75 282.98-0.38585-0.30661c-0.23427 0.30661-0.53399 0.50643-0.98186 0.50643-0.67868 0-1.0852-0.54777-1.1059-1.2334h2.5218v-0.28594c0-1.0439-0.46509-1.8259-1.5331-1.8259-0.83716 0-1.6295 0.7028-1.6295 1.9189v0.14469c0 1.0508 0.67179 1.8018 1.7122 1.8018 0.73725 0 1.161-0.3514 1.4022-0.72003zm-1.4848-2.6217c0.65112 0 0.86472 0.52366 0.89572 1.0198v0.0482h-1.8638c0.0861-0.68902 0.46164-1.068 0.96807-1.068z"/><path d="m200.49 282.98-0.38585-0.30661c-0.23426 0.30661-0.53399 0.50643-0.98185 0.50643-0.67869 0-1.0852-0.54777-1.1059-1.2334h2.5218v-0.28594c0-1.0439-0.46508-1.8259-1.5331-1.8259-0.83716 0-1.6295 0.7028-1.6295 1.9189v0.14469c0 1.0508 0.6718 1.8018 1.7122 1.8018 0.73725 0 1.161-0.3514 1.4022-0.72003zm-1.4848-2.6217c0.65112 0 0.86472 0.52366 0.89572 1.0198v0.0482h-1.8638c0.0861-0.68902 0.46165-1.068 0.96808-1.068z"/><path d="m204.52 280.37c0.48232 0 0.79582 0.22394 0.79582 0.80616v2.4529h0.63734v-2.4736c0.0482-0.43409 0.34451-0.78549 0.86128-0.78549 0.48576 0 0.79581 0.17915 0.79581 0.80271v2.4564h0.64079v-2.4495c0-0.94051-0.45131-1.347-1.2506-1.347-0.53743 0-0.93706 0.24116-1.1851 0.59945-0.19637-0.42031-0.58911-0.59945-1.068-0.59945-0.48232 0-0.8475 0.1757-1.1024 0.47542l-0.0172-0.40652h-0.60634v3.7276h0.64079v-2.732c0.14125-0.3135 0.40308-0.5271 0.85783-0.5271z"/><path d="m209.22 278.91c0 0.19981 0.12746 0.35829 0.37551 0.35829 0.2446 0 0.37896-0.15848 0.37896-0.35829 0-0.20671-0.13436-0.36863-0.37896-0.36863-0.24805 0-0.37551 0.16192-0.37551 0.36863zm0.68902 0.98874h-0.64079v3.7276h0.64079z"/><path d="m212.48 280.37c0.48231 0 0.74414 0.22738 0.74414 0.8096v2.4495h0.64079v-2.4426c0-0.97841-0.46165-1.3539-1.1954-1.3539-0.46164 0-0.8475 0.19981-1.1128 0.53399l-0.0207-0.46509h-0.60289v3.7276h0.63734v-2.6631c0.1757-0.3514 0.49954-0.59601 0.90951-0.59601z"/><path d="m214.84 278.91c0 0.19981 0.12747 0.35829 0.37552 0.35829 0.2446 0 0.37896-0.15848 0.37896-0.35829 0-0.20671-0.13436-0.36863-0.37896-0.36863-0.24805 0-0.37552 0.16192-0.37552 0.36863zm0.68902 0.98874h-0.64079v3.7276h0.64079z"/><path d="m218.72 282.64c0 0.30662-0.28249 0.53399-0.8027 0.53399-0.39619 0-0.85783-0.16881-0.88539-0.69591h-0.64079c0 0.61668 0.53743 1.2196 1.5262 1.2196 0.86816 0 1.44-0.45131 1.44-1.1059 0-0.59944-0.42375-0.90261-1.3402-1.1128-0.7028-0.15848-0.85782-0.29973-0.85782-0.57534 0-0.27216 0.21015-0.54777 0.74069-0.54777 0.50299 0 0.78204 0.33418 0.78204 0.64079h0.63734c0-0.64079-0.5271-1.1644-1.4194-1.1644-0.83716 0-1.3815 0.49954-1.3815 1.0886 0 0.61323 0.51332 0.90262 1.3436 1.0749 0.73725 0.14814 0.85782 0.36863 0.85782 0.64423z"/><path d="m221.77 283.63-3e-3 -0.52021c-0.0586 0.0138-0.19292 0.0413-0.29972 0.0413-0.2136 0-0.40997-0.062-0.40997-0.44442v-2.3151h0.69591v-0.4892h-0.69591v-0.90606h-0.63734v0.90606h-0.68213v0.4892h0.68213v2.3117c0 0.74758 0.38585 0.99563 0.85783 0.99563 0.22737 0 0.39274-0.0379 0.49265-0.0689z"/><path d="m223.99 280.45c0.12058 0 0.20326 7e-3 0.31006 0.0276l3e-3 -0.59256c-0.0448-0.0207-0.19292-0.0482-0.2825-0.0482-0.40652 0-0.69935 0.19292-0.88539 0.49609l-0.0138-0.42719h-0.62011v3.7276h0.63734v-2.6458c0.1378-0.32728 0.41686-0.53743 0.85094-0.53743z"/><path d="m226.22 284.2 1.4952-4.3029h-0.68213l-0.86472 2.7905-0.93362-2.7905h-0.69591l1.3298 3.6863-0.13781 0.37896c-0.15503 0.46164-0.37207 0.60978-0.80615 0.60978-0.031 0-0.13436-7e-3 -0.17225-0.0138l3e-3 0.51676c0.0655 0.0207 0.25494 0.0551 0.35829 0.0551 0.67524 0 0.96807-0.56155 1.1059-0.93017z"/></g></svg>
