<?xml version="1.0" encoding="UTF-8"?>
<svg width="270.73mm" height="67.427mm" version="1.1" viewBox="0 0 270.73 67.427" xmlns="http://www.w3.org/2000/svg"><g stroke-opacity=".5"><path d="m1.978 0h266.78c1.0954 0 1.9773 0.35256 1.9773 0.7905v65.846c0 0.43794-0.88189 0.7905-1.9773 0.7905h-266.78c-1.0954 0-1.9773-0.35256-1.9773-0.7905v-65.846c0-0.43794 0.88189-0.7905 1.9773-0.7905z" fill="#f2f0d9" stop-color="#000000" stroke-width=".97577"/><g transform="translate(17.018,-217.47)" stop-color="#000000" stroke-width=".26458" style="white-space:pre" aria-label="giver"><path d="m17.444 253.02v-4.3202h-1.0831l-0.04547 0.42168c-0.26045-0.31833-0.62425-0.50437-1.1493-0.50437-1.1245 0-1.8149 0.92605-1.8149 2.2862v0.0868c0 1.3022 0.69453 2.2655 1.8066 2.2655 0.46716 0 0.82269-0.17363 1.0873-0.47129v0.23978c0 0.62839-0.37207 0.97979-1.0046 0.97979-0.43822 0-0.81029-0.18604-1.0873-0.4961l-0.52917 0.72761c0.38447 0.47956 1.1245 0.69866 1.666 0.69866 1.2816 0 2.1539-0.68626 2.1539-1.9141zm-2.898-2.0298v-0.0868c0-0.74001 0.29766-1.3188 0.92191-1.3188 0.3762 0 0.62425 0.14883 0.77721 0.40928v1.8769c-0.14883 0.25632-0.40101 0.41342-0.78548 0.41342-0.62839 0-0.91364-0.57465-0.91364-1.294z"/><path d="m18.353 247.54c0 0.35554 0.26045 0.61599 0.66973 0.61599s0.66973-0.26045 0.66973-0.61599c0-0.35966-0.26045-0.62011-0.66973-0.62011s-0.66973 0.26045-0.66973 0.62011zm1.2733 1.1576h-1.1989v4.4731h1.1989z"/><path d="m24.36 248.7h-1.2485l-0.82682 3.0055-0.83096-3.0055h-1.2526l1.5131 4.4731h1.1369z"/><path d="m28.643 252.44-0.59118-0.65319c-0.26458 0.33486-0.64079 0.50022-1.079 0.50022-0.61185 0-1.0005-0.3886-1.0831-0.96738h2.8484v-0.5085c0-1.3229-0.68626-2.1994-1.972-2.1994-1.2816 0-2.0877 0.95912-2.0877 2.311v0.16123c0 1.1948 0.82682 2.1663 2.22 2.1663 0.8723 0 1.4593-0.40514 1.7446-0.81028zm-1.8852-2.865c0.55397 0 0.79375 0.35554 0.80615 0.8351v0.0909h-1.6619c0.08268-0.55398 0.34727-0.92605 0.85576-0.92605z"/><path d="m31.495 249.78c0.13229 0 0.31006 0.0207 0.43408 0.0331l0.0124-1.1452c-0.08682-0.0331-0.24391-0.0538-0.36794-0.0538-0.43822 0-0.77721 0.23152-0.99632 0.61599l-0.03721-0.5333h-1.1286v4.4731h1.1989v-2.9311c0.13643-0.29765 0.42581-0.45888 0.8847-0.45888z"/></g><g transform="translate(17.018,-217.47)" fill="#050" opacity=".9" stop-color="#000000" stroke-width=".26458" style="white-space:pre" aria-label="obligated to pay"><path d="m86.456 236.74c0 1.0783 0.65112 1.8914 1.6984 1.8914 1.0439 0 1.695-0.81305 1.695-1.8914v-0.0792c0-1.0783-0.65112-1.8948-1.7019-1.8948-1.0404 0-1.6915 0.81649-1.6915 1.8948zm0.63734-0.0792c0-0.73036 0.3514-1.3712 1.0542-1.3712 0.70624 0 1.0611 0.64079 1.0611 1.3712v0.0792c0 0.7407-0.35484 1.3677-1.0542 1.3677-0.70969 0-1.0611-0.627-1.0611-1.3677z"/><path d="m93.804 236.74v-0.0724c0-1.1369-0.52021-1.9017-1.4573-1.9017-0.46853 0-0.81649 0.16881-1.0611 0.47198v-1.9672h-0.64079v5.2917h0.58567l0.03445-0.43064c0.2446 0.32039 0.60289 0.49954 1.0887 0.49954 0.92329 0 1.4504-0.80271 1.4504-1.8914zm-1.6158-1.4366c0.72347 0 0.97496 0.62357 0.97496 1.3643v0.0724c0 0.7407-0.27905 1.3505-0.96807 1.3505-0.46164 0-0.74414-0.25838-0.90951-0.58567v-1.6226c0.15848-0.32728 0.44097-0.57878 0.90262-0.57878z"/><path d="m95.303 233.27h-0.64079v5.2917h0.64079z"/><path d="m96.329 233.84c0 0.19981 0.12747 0.35829 0.37552 0.35829 0.2446 0 0.37896-0.15848 0.37896-0.35829 0-0.20671-0.13436-0.36863-0.37896-0.36863-0.24805 0-0.37552 0.16192-0.37552 0.36863zm0.68902 0.98874h-0.64079v3.7276h0.64079z"/><path d="m101.04 238.48v-3.6484h-0.57878l-0.031 0.41341c-0.24461-0.31006-0.59256-0.48231-1.0645-0.48231-0.90951 0-1.4711 0.76481-1.4711 1.9017v0.0724c0 1.0886 0.56844 1.8914 1.4642 1.8914 0.45475 0 0.79926-0.15848 1.0439-0.44442v0.32728c0 0.65113-0.38585 0.99564-0.98875 0.99564-0.33762 0-0.68902-0.12403-0.99908-0.50299l-0.33418 0.37896c0.33418 0.48576 0.99563 0.64768 1.3815 0.64768 0.93018 0 1.5779-0.56155 1.5779-1.5503zm-2.508-1.7432v-0.0724c0-0.74069 0.29283-1.3643 0.98874-1.3643 0.44442 0 0.72003 0.23083 0.88195 0.53744v1.6984c-0.16537 0.3204-0.43409 0.55122-0.88884 0.55122-0.68902 0-0.98185-0.60978-0.98185-1.3505z"/><path d="m104.3 238.56h0.6649v-0.0551c-0.0861-0.19981-0.13091-0.50987-0.13091-0.75792v-1.7363c0-0.83371-0.57534-1.2471-1.3849-1.2471-0.90262 0-1.4814 0.56844-1.4814 1.1024h0.63734c0-0.31006 0.32384-0.58911 0.80615-0.58911 0.51677 0 0.78548 0.28594 0.78548 0.72691v0.29628h-0.63045c-1.0232 0-1.6778 0.42375-1.6778 1.223 0 0.62012 0.49954 1.1059 1.2609 1.1059 0.46165 0 0.82338-0.21015 1.0611-0.46165 0.0172 0.15159 0.0482 0.29973 0.0896 0.39275zm-1.0576-0.48921c-0.47198 0-0.71313-0.27905-0.71313-0.6339 0-0.46164 0.40996-0.68902 1.1403-0.68902h0.5271v0.76826c-0.1378 0.27905-0.49265 0.55466-0.95429 0.55466z"/><path d="m107.42 238.56-3e-3 -0.52021c-0.0586 0.0138-0.19293 0.0413-0.29972 0.0413-0.2136 0-0.40997-0.062-0.40997-0.44442v-2.3151h0.69591v-0.4892h-0.69591v-0.90606h-0.63734v0.90606h-0.68213v0.4892h0.68213v2.3117c0 0.74759 0.38585 0.99564 0.85783 0.99564 0.22737 0 0.39274-0.0379 0.49264-0.0689z"/><path d="m111.1 237.91-0.38585-0.30661c-0.23427 0.30661-0.53399 0.50643-0.98185 0.50643-0.67869 0-1.0852-0.54777-1.1059-1.2334h2.5218v-0.28594c0-1.0439-0.46509-1.8259-1.5331-1.8259-0.83716 0-1.6295 0.7028-1.6295 1.9189v0.14469c0 1.0508 0.6718 1.8018 1.7122 1.8018 0.73726 0 1.161-0.3514 1.4022-0.72003zm-1.4848-2.6217c0.65113 0 0.86472 0.52366 0.89573 1.0198v0.0482h-1.8638c0.0861-0.68902 0.46164-1.068 0.96807-1.068z"/><path d="m114.3 238.56h0.58567v-5.2917h-0.64079v1.9361c-0.2446-0.2825-0.58222-0.44097-1.0335-0.44097-0.88884 0-1.4745 0.76481-1.4745 1.9017v0.0724c0 1.0886 0.59255 1.8914 1.4676 1.8914 0.46853 0 0.81993-0.16881 1.0645-0.46854zm-1.9224-1.8225v-0.0724c0-0.74069 0.29628-1.3643 0.99219-1.3643 0.43753 0 0.71314 0.22393 0.87506 0.53055v1.7157c-0.16881 0.3135-0.43753 0.54088-0.88195 0.54088-0.68902 0-0.9853-0.60978-0.9853-1.3505z"/><path d="m119.2 238.56-3e-3 -0.52021c-0.0586 0.0138-0.19293 0.0413-0.29972 0.0413-0.2136 0-0.40997-0.062-0.40997-0.44442v-2.3151h0.69591v-0.4892h-0.69591v-0.90606h-0.63734v0.90606h-0.68213v0.4892h0.68213v2.3117c0 0.74759 0.38585 0.99564 0.85783 0.99564 0.22737 0 0.39274-0.0379 0.49264-0.0689z"/><path d="m119.69 236.74c0 1.0783 0.65113 1.8914 1.6984 1.8914 1.0439 0 1.695-0.81305 1.695-1.8914v-0.0792c0-1.0783-0.65113-1.8948-1.7019-1.8948-1.0404 0-1.6916 0.81649-1.6916 1.8948zm0.63735-0.0792c0-0.73036 0.3514-1.3712 1.0542-1.3712 0.70624 0 1.0611 0.64079 1.0611 1.3712v0.0792c0 0.7407-0.35485 1.3677-1.0542 1.3677-0.70969 0-1.0611-0.627-1.0611-1.3677z"/><path d="m127.34 238.63c0.92328 0 1.4469-0.80271 1.4469-1.8914v-0.0724c0-1.1369-0.51677-1.9017-1.4573-1.9017-0.46853 0-0.82682 0.16881-1.0783 0.47887l-0.031-0.40997h-0.58567v5.1608h0.64079v-1.7949c0.25149 0.27561 0.60289 0.43064 1.0645 0.43064zm-0.19637-3.328c0.6959 0 1.0025 0.62357 1.0025 1.3643v0.0724c0 0.7407-0.30662 1.3677-0.99563 1.3677-0.44098 0-0.70625-0.21359-0.87506-0.50643v-1.7846c0.16537-0.29628 0.43753-0.51332 0.86817-0.51332z"/><path d="m131.9 238.56h0.66491v-0.0551c-0.0861-0.19981-0.13092-0.50987-0.13092-0.75792v-1.7363c0-0.83371-0.57533-1.2471-1.3849-1.2471-0.90261 0-1.4814 0.56844-1.4814 1.1024h0.63735c0-0.31006 0.32383-0.58911 0.80615-0.58911 0.51676 0 0.78548 0.28594 0.78548 0.72691v0.29628h-0.63045c-1.0232 0-1.6778 0.42375-1.6778 1.223 0 0.62012 0.49953 1.1059 1.2609 1.1059 0.46164 0 0.82338-0.21015 1.0611-0.46165 0.0172 0.15159 0.0482 0.29973 0.0896 0.39275zm-1.0576-0.48921c-0.47198 0-0.71314-0.27905-0.71314-0.6339 0-0.46164 0.40997-0.68902 1.1403-0.68902h0.5271v0.76826c-0.1378 0.27905-0.49265 0.55466-0.95429 0.55466z"/><path d="m134.65 239.14 1.4952-4.3029h-0.68213l-0.86472 2.7905-0.93363-2.7905h-0.69591l1.3298 3.6862-0.1378 0.37897c-0.15503 0.46164-0.37207 0.60978-0.80615 0.60978-0.031 0-0.13436-7e-3 -0.17226-0.0138l3e-3 0.51676c0.0654 0.0207 0.25493 0.0551 0.35829 0.0551 0.67524 0 0.96807-0.56155 1.1059-0.93017z"/></g></g><g transform="translate(17.018,-217.47)" opacity=".5"><path d="m66.709 244.6v2.0645h82.369v-2.0645z" color="#000000" fill="#050" style="-inkscape-stroke:none"/><g fill="#050" fill-rule="evenodd"><path d="m153.84 245.63-7.1449 4.13v-8.26z" color="#000000" stroke-width=".826pt" style="-inkscape-stroke:none"/><path d="m146.15 240.55v10.17l8.7969-5.0859-0.82617-0.47656zm1.1016 1.9102 5.4922 3.1738-5.4922 3.1758z" color="#000000" style="-inkscape-stroke:none"/></g><g fill="#003380"><path d="m154.94 256.22-82.37 1e-5" color="#000000" stroke-width="2.065" style="-inkscape-stroke:none"/><path d="m72.574 255.18v2.0664h82.371v-2.0664z" color="#000000" style="-inkscape-stroke:none"/><g fill-rule="evenodd"><path d="m67.809 256.22 7.1449-4.13v8.26z" color="#000000" stroke-width=".826pt" style="-inkscape-stroke:none"/><path d="m75.504 251.13-8.7949 5.084 0.82422 0.47656 7.9707 4.6074zm-1.1016 1.9082v6.3516l-5.4941-3.1758z" color="#000000" style="-inkscape-stroke:none"/></g></g></g><g transform="translate(17.018,-217.47)" stop-color="#000000" stroke-opacity=".5" stroke-width=".26458" style="white-space:pre" aria-label="minister"><path d="m194.38 250.42c0.42168 0 0.67799 0.15296 0.67799 0.74414v2.8443h1.1948v-3.0882c0.12816-0.30592 0.37207-0.50022 0.74001-0.50022 0.41341 0 0.66973 0.14056 0.66973 0.73587v2.8525h1.1989v-2.8484c0-1.2526-0.56638-1.7074-1.4345-1.7074-0.60358 0-1.0542 0.26045-1.3436 0.68213-0.22324-0.47542-0.65319-0.68213-1.1865-0.68213-0.5581 0-0.98805 0.21498-1.2816 0.57464l-0.0413-0.49195h-1.1245v4.4731h1.1989v-3.1667c0.14469-0.26045 0.38447-0.42168 0.73174-0.42168z"/><path d="m199.78 248.38c0 0.35554 0.26045 0.61599 0.66973 0.61599s0.66973-0.26045 0.66973-0.61599c0-0.35967-0.26045-0.62011-0.66973-0.62011s-0.66973 0.26044-0.66973 0.62011zm1.2733 1.1576h-1.1989v4.4731h1.1989z"/><path d="m203.96 250.42c0.45889 0 0.71107 0.16536 0.71107 0.73587v2.8525h1.1989v-2.8484c0-1.2609-0.56637-1.7074-1.4139-1.7074-0.5333 0-0.97978 0.21498-1.2857 0.59532l-0.0413-0.51263h-1.1203v4.4731h1.1948v-3.1585c0.15296-0.26458 0.40514-0.42994 0.75654-0.42994z"/><path d="m206.76 248.38c0 0.35554 0.26045 0.61599 0.66973 0.61599s0.66972-0.26045 0.66972-0.61599c0-0.35967-0.26044-0.62011-0.66972-0.62011s-0.66973 0.26044-0.66973 0.62011zm1.2733 1.1576h-1.1989v4.4731h1.1989z"/><path d="m211.44 252.77c0 0.27699-0.23978 0.47129-0.69454 0.47129-0.42581 0-0.79788-0.18603-0.81855-0.65732h-1.1369c0 0.7276 0.67799 1.509 1.9306 1.509 1.1493 0 1.881-0.57878 1.881-1.3684 0-0.88884-0.71933-1.2154-1.6867-1.4056-0.62425-0.11989-0.83509-0.27285-0.83509-0.5333 0-0.27285 0.23565-0.48369 0.63252-0.48369 0.47129 0 0.68213 0.25218 0.68213 0.59531h1.1948c0-0.83509-0.71107-1.4428-1.8728-1.4428-1.1162 0-1.7818 0.64492-1.7818 1.3891 0 0.77308 0.67386 1.1617 1.5916 1.356 0.74827 0.16123 0.91364 0.31832 0.91364 0.5705z"/><path d="m215.61 253.98v-0.90537c-0.0827 0.0165-0.20257 0.0331-0.34726 0.0331-0.30593 0-0.45889-0.0868-0.45889-0.46302v-2.2366h0.76068v-0.87229h-0.76068v-1.1038h-1.1948v1.1038h-0.65732v0.87229h0.65732v2.3606c0 0.95085 0.50023 1.3229 1.2816 1.3229 0.28939 0 0.5209-0.0455 0.71933-0.11162z"/><path d="m220.04 253.28-0.59118-0.65319c-0.26458 0.33487-0.64078 0.50023-1.079 0.50023-0.61185 0-1.0005-0.3886-1.0831-0.96738h2.8484v-0.5085c0-1.3229-0.68627-2.1994-1.972-2.1994-1.2816 0-2.0877 0.95912-2.0877 2.311v0.16123c0 1.1948 0.82683 2.1663 2.22 2.1663 0.8723 0 1.4594-0.40514 1.7446-0.81029zm-1.8852-2.8649c0.55398 0 0.79376 0.35554 0.80616 0.83509v0.0909h-1.6619c0.0827-0.55397 0.34727-0.92604 0.85576-0.92604z"/><path d="m222.89 250.62c0.13229 0 0.31006 0.0207 0.43409 0.0331l0.0124-1.1452c-0.0868-0.0331-0.24392-0.0537-0.36794-0.0537-0.43822 0-0.77721 0.23151-0.99632 0.61599l-0.0372-0.5333h-1.1286v4.4731h1.1989v-2.9311c0.13643-0.29766 0.42582-0.45889 0.8847-0.45889z"/></g><g transform="translate(-1.3508 -12.255)" fill="#003380" opacity=".9" stop-color="#000000" stroke-opacity=".5" stroke-width=".26458" style="white-space:pre" aria-label="restricted ministry"><path d="m102.87 59.212c0.12058 0 0.20326 0.0069 0.31006 0.02756l3e-3 -0.59256c-0.0448-0.02067-0.19292-0.04823-0.2825-0.04823-0.40652 0-0.69935 0.19292-0.88539 0.49609l-0.0138-0.42719h-0.62011v3.7276h0.63734v-2.6458c0.1378-0.32728 0.41686-0.53744 0.85094-0.53744z"/><path d="m106.66 61.744-0.38585-0.30661c-0.23427 0.30661-0.53399 0.50643-0.98185 0.50643-0.67869 0-1.0852-0.54777-1.1059-1.2333h2.5218v-0.28594c0-1.0439-0.46509-1.8259-1.5331-1.8259-0.83716 0-1.6295 0.7028-1.6295 1.9189v0.14469c0 1.0508 0.6718 1.8018 1.7122 1.8018 0.73726 0 1.161-0.3514 1.4022-0.72002zm-1.4848-2.6217c0.65113 0 0.86472 0.52366 0.89573 1.0197v0.04823h-1.8638c0.0861-0.68902 0.46164-1.068 0.96807-1.068z"/><path d="m109.62 61.407c0 0.30661-0.28249 0.53399-0.8027 0.53399-0.39619 0-0.85783-0.16881-0.88539-0.69591h-0.64079c0 0.61667 0.53743 1.2196 1.5262 1.2196 0.86816 0 1.44-0.45131 1.44-1.1059 0-0.59945-0.42375-0.90262-1.3402-1.1128-0.7028-0.15847-0.85783-0.29972-0.85783-0.57533 0-0.27216 0.21016-0.54777 0.7407-0.54777 0.50299 0 0.78204 0.33418 0.78204 0.64079h0.63734c0-0.64079-0.5271-1.1644-1.4194-1.1644-0.83716 0-1.3815 0.49954-1.3815 1.0886 0 0.61323 0.51332 0.90262 1.3436 1.0749 0.73726 0.14814 0.85783 0.36862 0.85783 0.64423z"/><path d="m112.67 62.395-3e-3 -0.52021c-0.0586 0.01378-0.19293 0.04134-0.29972 0.04134-0.2136 0-0.40997-0.06201-0.40997-0.44442v-2.3151h0.69591v-0.4892h-0.69591v-0.90606h-0.63734v0.90606h-0.68213v0.4892h0.68213v2.3117c0 0.74759 0.38585 0.99563 0.85783 0.99563 0.22737 0 0.39274-0.0379 0.49265-0.0689z"/><path d="m114.89 59.212c0.12058 0 0.20326 0.0069 0.31006 0.02756l3e-3 -0.59256c-0.0448-0.02067-0.19292-0.04823-0.2825-0.04823-0.40652 0-0.69935 0.19292-0.88539 0.49609l-0.0138-0.42719h-0.62011v3.7276h0.63734v-2.6458c0.1378-0.32728 0.41686-0.53744 0.85094-0.53744z"/><path d="m115.79 57.679c0 0.19982 0.12747 0.35829 0.37551 0.35829 0.24461 0 0.37896-0.15848 0.37896-0.35829 0-0.2067-0.13435-0.36862-0.37896-0.36862-0.24804 0-0.37551 0.16192-0.37551 0.36862zm0.68902 0.98874h-0.64079v3.7276h0.64079z"/><path d="m119 61.941c-0.79237 0-1.0198-0.68213-1.0198-1.3367v-0.14469c0-0.64768 0.23427-1.3367 1.0198-1.3367 0.50987 0 0.84405 0.36863 0.8785 0.82682h0.60634c-0.0345-0.76826-0.61323-1.3505-1.4848-1.3505-1.1197 0-1.6571 0.86127-1.6571 1.8604v0.14469c0 0.99908 0.53399 1.8604 1.6571 1.8604 0.78893 0 1.4504-0.58222 1.4848-1.2471h-0.60634c-0.0345 0.4203-0.42375 0.72347-0.8785 0.72347z"/><path d="m122.78 62.395-3e-3 -0.52021c-0.0586 0.01378-0.19293 0.04134-0.29973 0.04134-0.21359 0-0.40996-0.06201-0.40996-0.44442v-2.3151h0.69591v-0.4892h-0.69591v-0.90606h-0.63735v0.90606h-0.68213v0.4892h0.68213v2.3117c0 0.74759 0.38585 0.99563 0.85783 0.99563 0.22738 0 0.39274-0.0379 0.49265-0.0689z"/><path d="m126.46 61.744-0.38586-0.30661c-0.23426 0.30661-0.53399 0.50643-0.98185 0.50643-0.67868 0-1.0852-0.54777-1.1059-1.2333h2.5218v-0.28594c0-1.0439-0.46509-1.8259-1.5331-1.8259-0.83716 0-1.6295 0.7028-1.6295 1.9189v0.14469c0 1.0508 0.67179 1.8018 1.7122 1.8018 0.73725 0 1.161-0.3514 1.4022-0.72002zm-1.4848-2.6217c0.65112 0 0.86472 0.52366 0.89572 1.0197v0.04823h-1.8638c0.0861-0.68902 0.46164-1.068 0.96807-1.068z"/><path d="m129.65 62.395h0.58566v-5.2917h-0.64078v1.9361c-0.24461-0.2825-0.58223-0.44097-1.0335-0.44097-0.88884 0-1.4745 0.76481-1.4745 1.9017v0.07235c0 1.0886 0.59256 1.8914 1.4676 1.8914 0.46853 0 0.81993-0.16881 1.0645-0.46853zm-1.9224-1.8225v-0.07235c0-0.7407 0.29628-1.3643 0.99219-1.3643 0.43753 0 0.71314 0.22393 0.87506 0.53054v1.7157c-0.16881 0.3135-0.43753 0.54088-0.88195 0.54088-0.68902 0-0.9853-0.60978-0.9853-1.3505z"/><path d="m134.47 59.136c0.48232 0 0.79582 0.22393 0.79582 0.80615v2.4529h0.63734v-2.4736c0.0482-0.43408 0.34451-0.78548 0.86128-0.78548 0.48576 0 0.79582 0.17914 0.79582 0.80271v2.4564h0.64079v-2.4495c0-0.94051-0.45131-1.347-1.2506-1.347-0.53743 0-0.93706 0.24116-1.1851 0.59945-0.19637-0.4203-0.58911-0.59945-1.068-0.59945-0.48231 0-0.84749 0.1757-1.1024 0.47542l-0.0172-0.40652h-0.60633v3.7276h0.64078v-2.732c0.14125-0.3135 0.40308-0.5271 0.85783-0.5271z"/><path d="m139.17 57.679c0 0.19982 0.12747 0.35829 0.37551 0.35829 0.2446 0 0.37896-0.15848 0.37896-0.35829 0-0.2067-0.13436-0.36862-0.37896-0.36862-0.24804 0-0.37551 0.16192-0.37551 0.36862zm0.68902 0.98874h-0.64079v3.7276h0.64079z"/><path d="m142.43 59.136c0.48231 0 0.74414 0.22738 0.74414 0.8096v2.4495h0.64079v-2.4426c0-0.97841-0.46164-1.3539-1.1954-1.3539-0.46164 0-0.84749 0.19982-1.1128 0.53399l-0.0207-0.46509h-0.60289v3.7276h0.63735v-2.6631c0.1757-0.3514 0.49953-0.596 0.9095-0.596z"/><path d="m144.78 57.679c0 0.19982 0.12747 0.35829 0.37552 0.35829 0.2446 0 0.37896-0.15848 0.37896-0.35829 0-0.2067-0.13436-0.36862-0.37896-0.36862-0.24805 0-0.37552 0.16192-0.37552 0.36862zm0.68902 0.98874h-0.64079v3.7276h0.64079z"/><path d="m148.66 61.407c0 0.30661-0.28249 0.53399-0.8027 0.53399-0.39619 0-0.85783-0.16881-0.88539-0.69591h-0.64079c0 0.61667 0.53743 1.2196 1.5262 1.2196 0.86816 0 1.44-0.45131 1.44-1.1059 0-0.59945-0.42375-0.90262-1.3402-1.1128-0.7028-0.15847-0.85783-0.29972-0.85783-0.57533 0-0.27216 0.21016-0.54777 0.7407-0.54777 0.50299 0 0.78204 0.33418 0.78204 0.64079h0.63734c0-0.64079-0.5271-1.1644-1.4194-1.1644-0.83716 0-1.3815 0.49954-1.3815 1.0886 0 0.61323 0.51332 0.90262 1.3436 1.0749 0.73726 0.14814 0.85783 0.36862 0.85783 0.64423z"/><path d="m151.71 62.395-3e-3 -0.52021c-0.0586 0.01378-0.19292 0.04134-0.29972 0.04134-0.2136 0-0.40997-0.06201-0.40997-0.44442v-2.3151h0.69591v-0.4892h-0.69591v-0.90606h-0.63734v0.90606h-0.68213v0.4892h0.68213v2.3117c0 0.74759 0.38585 0.99563 0.85783 0.99563 0.22738 0 0.39274-0.0379 0.49265-0.0689z"/><path d="m153.93 59.212c0.12058 0 0.20326 0.0069 0.31006 0.02756l3e-3 -0.59256c-0.0448-0.02067-0.19292-0.04823-0.2825-0.04823-0.40652 0-0.69935 0.19292-0.88539 0.49609l-0.0138-0.42719h-0.62011v3.7276h0.63734v-2.6458c0.1378-0.32728 0.41686-0.53744 0.85094-0.53744z"/><path d="m156.17 62.971 1.4952-4.3029h-0.68213l-0.86472 2.7905-0.93362-2.7905h-0.69591l1.3298 3.6863-0.1378 0.37896c-0.15503 0.46164-0.37208 0.60978-0.80616 0.60978-0.031 0-0.13436-0.0069-0.17225-0.01378l3e-3 0.51676c0.0655 0.02067 0.25494 0.05512 0.35829 0.05512 0.67524 0 0.96808-0.56155 1.1059-0.93018z"/></g></svg>
