<?xml version="1.0" encoding="UTF-8"?>
<svg width="270.73mm" height="94.817mm" version="1.1" viewBox="0 0 270.73 94.817" xmlns="http://www.w3.org/2000/svg"><path d="m1.9773 0h266.78c1.0954 0 1.9773 0.49579 1.9773 1.1117v92.594c0 0.61586-0.88189 1.1117-1.9773 1.1117h-266.78c-1.0954 0-1.9773-0.4958-1.9773-1.1117v-92.594c0-0.61585 0.88189-1.1117 1.9773-1.1117z" fill="#f2f0d9" stop-color="#000000" stroke-opacity=".5" stroke-width="1.1571"/><g transform="translate(17.017 -174.78)" stroke-opacity=".5" stroke-width=".26458"><g stop-color="#000000" style="white-space:pre" aria-label="God"><path d="m108.51 193.31h-2.3688v0.9095h1.1245v1.0377c-0.13229 0.12815-0.39687 0.29765-0.99219 0.29765-0.92604 0-1.418-0.65732-1.418-1.91v-0.36794c0-1.2485 0.45475-1.91 1.2981-1.91 0.74828 0 1.0501 0.39274 1.1452 1.0005h1.2072c-0.1323-1.17-0.82269-2.0009-2.3854-2.0009-1.5255 0-2.5259 1.0625-2.5259 2.9187v0.35967c0 1.8562 1.0542 2.9104 2.6128 2.9104 1.3229 0 2.0174-0.50436 2.3027-0.84336z"/><path d="m109.24 194.29c0 1.3022 0.76895 2.2738 2.1249 2.2738 1.3518 0 2.1125-0.97152 2.1125-2.2738v-0.0868c0-1.3022-0.76068-2.2779-2.1208-2.2779-1.3477 0-2.1167 0.97565-2.1167 2.2779zm1.1989-0.0868c0-0.71107 0.24804-1.3146 0.91777-1.3146 0.678 0 0.92604 0.60358 0.92604 1.3146v0.0868c0 0.72761-0.25218 1.3105-0.91777 1.3105-0.678 0-0.92604-0.58291-0.92604-1.3105z"/><path d="m116.98 196.48h1.079v-6.35h-1.1989v2.2779c-0.26872-0.30592-0.62012-0.48369-1.0749-0.48369-1.1162 0-1.757 0.92604-1.757 2.2862v0.0868c0 1.3022 0.64079 2.2655 1.7487 2.2655 0.49609 0 0.86817-0.21084 1.1452-0.55811zm-1.7529-2.1828v-0.0868c0-0.74001 0.23565-1.3188 0.8599-1.3188 0.3762 0 0.62839 0.1695 0.77308 0.46302v1.7735c-0.14469 0.28939-0.40101 0.46302-0.78135 0.46302-0.62838 0-0.85163-0.57464-0.85163-1.294z"/></g><g stop-color="#000000" style="white-space:pre" aria-label="giver"><path d="m17.444 253.02v-4.3202h-1.0831l-0.04547 0.42168c-0.26045-0.31833-0.62425-0.50437-1.1493-0.50437-1.1245 0-1.8149 0.92605-1.8149 2.2862v0.0868c0 1.3022 0.69453 2.2655 1.8066 2.2655 0.46716 0 0.82269-0.17363 1.0873-0.47129v0.23978c0 0.62839-0.37207 0.97979-1.0046 0.97979-0.43822 0-0.81029-0.18604-1.0873-0.4961l-0.52917 0.72761c0.38447 0.47956 1.1245 0.69866 1.666 0.69866 1.2816 0 2.1539-0.68626 2.1539-1.9141zm-2.898-2.0298v-0.0868c0-0.74001 0.29766-1.3188 0.92191-1.3188 0.3762 0 0.62425 0.14883 0.77721 0.40928v1.8769c-0.14883 0.25632-0.40101 0.41342-0.78548 0.41342-0.62839 0-0.91364-0.57465-0.91364-1.294z"/><path d="m18.353 247.54c0 0.35554 0.26045 0.61599 0.66973 0.61599s0.66973-0.26045 0.66973-0.61599c0-0.35966-0.26045-0.62011-0.66973-0.62011s-0.66973 0.26045-0.66973 0.62011zm1.2733 1.1576h-1.1989v4.4731h1.1989z"/><path d="m24.36 248.7h-1.2485l-0.82682 3.0055-0.83096-3.0055h-1.2526l1.5131 4.4731h1.1369z"/><path d="m28.643 252.44-0.59118-0.65319c-0.26458 0.33486-0.64079 0.50022-1.079 0.50022-0.61185 0-1.0005-0.3886-1.0831-0.96738h2.8484v-0.5085c0-1.3229-0.68626-2.1994-1.972-2.1994-1.2816 0-2.0877 0.95912-2.0877 2.311v0.16123c0 1.1948 0.82682 2.1663 2.22 2.1663 0.8723 0 1.4593-0.40514 1.7446-0.81028zm-1.8852-2.865c0.55397 0 0.79375 0.35554 0.80615 0.8351v0.0909h-1.6619c0.08268-0.55398 0.34727-0.92605 0.85576-0.92605z"/><path d="m31.495 249.78c0.13229 0 0.31006 0.0207 0.43408 0.0331l0.0124-1.1452c-0.08682-0.0331-0.24391-0.0538-0.36794-0.0538-0.43822 0-0.77721 0.23152-0.99632 0.61599l-0.03721-0.5333h-1.1286v4.4731h1.1989v-2.9311c0.13643-0.29765 0.42581-0.45888 0.8847-0.45888z"/></g><g transform="rotate(-30)" fill="#050" opacity=".9" stop-color="#000000" style="white-space:pre" aria-label="obligated to give"><path d="m-79.035 218.11c0 1.0783 0.65112 1.8914 1.6984 1.8914 1.0439 0 1.695-0.81305 1.695-1.8914v-0.0792c0-1.0783-0.65112-1.8948-1.7019-1.8948-1.0404 0-1.6915 0.81648-1.6915 1.8948zm0.63734-0.0792c0-0.73036 0.3514-1.3712 1.0542-1.3712 0.70624 0 1.0611 0.64079 1.0611 1.3712v0.0792c0 0.74069-0.35484 1.3677-1.0542 1.3677-0.70969 0-1.0611-0.62701-1.0611-1.3677z"/><path d="m-71.687 218.11v-0.0724c0-1.1369-0.52021-1.9017-1.4573-1.9017-0.46853 0-0.81649 0.16881-1.0611 0.47198v-1.9672h-0.64079v5.2917h0.58567l0.03445-0.43063c0.2446 0.32039 0.60289 0.49954 1.0887 0.49954 0.92329 0 1.4504-0.80271 1.4504-1.8914zm-1.6158-1.4366c0.72347 0 0.97496 0.62356 0.97496 1.3643v0.0724c0 0.74069-0.27905 1.3505-0.96807 1.3505-0.46164 0-0.74414-0.25839-0.90951-0.58567v-1.6226c0.15847-0.32729 0.44097-0.57878 0.90262-0.57878z"/><path d="m-70.188 214.64h-0.64079v5.2917h0.64079z"/><path d="m-69.161 215.22c0 0.19981 0.12747 0.35829 0.37552 0.35829 0.2446 0 0.37896-0.15848 0.37896-0.35829 0-0.20671-0.13436-0.36863-0.37896-0.36863-0.24805 0-0.37552 0.16192-0.37552 0.36863zm0.68902 0.98874h-0.64079v3.7276h0.64079z"/><path d="m-64.455 219.85v-3.6484h-0.57878l-0.03101 0.41341c-0.2446-0.31006-0.59256-0.48231-1.0645-0.48231-0.90951 0-1.4711 0.76481-1.4711 1.9017v0.0724c0 1.0886 0.56844 1.8914 1.4642 1.8914 0.45475 0 0.79926-0.15848 1.0439-0.44442v0.32728c0 0.65113-0.38585 0.99564-0.98874 0.99564-0.33762 0-0.68902-0.12403-0.99908-0.50299l-0.33417 0.37896c0.33417 0.48576 0.99563 0.64768 1.3815 0.64768 0.93018 0 1.5779-0.56155 1.5779-1.5503zm-2.508-1.7432v-0.0724c0-0.7407 0.29283-1.3643 0.98874-1.3643 0.44442 0 0.72003 0.23082 0.88194 0.53744v1.6984c-0.16536 0.32039-0.43408 0.55122-0.88884 0.55122-0.68902 0-0.98185-0.60979-0.98185-1.3505z"/><path d="m-61.186 219.93h0.6649v-0.0551c-0.08613-0.19981-0.13091-0.50987-0.13091-0.75792v-1.7363c0-0.83371-0.57533-1.2471-1.3849-1.2471-0.90262 0-1.4814 0.56844-1.4814 1.1024h0.63734c0-0.31006 0.32384-0.58911 0.80615-0.58911 0.51676 0 0.78548 0.28594 0.78548 0.72691v0.29628h-0.63045c-1.0232 0-1.6778 0.42375-1.6778 1.223 0 0.62012 0.49954 1.1059 1.2609 1.1059 0.46164 0 0.82338-0.21015 1.0611-0.46165 0.01722 0.15159 0.04823 0.29973 0.08957 0.39274zm-1.0576-0.4892c-0.47198 0-0.71314-0.27905-0.71314-0.6339 0-0.46164 0.40997-0.68902 1.1403-0.68902h0.5271v0.76826c-0.1378 0.27905-0.49265 0.55466-0.95429 0.55466z"/><path d="m-58.071 219.93-0.0034-0.52021c-0.05857 0.0138-0.19293 0.0413-0.29972 0.0413-0.2136 0-0.40997-0.062-0.40997-0.44442v-2.3151h0.69591v-0.4892h-0.69591v-0.90606h-0.63734v0.90606h-0.68213v0.4892h0.68213v2.3117c0 0.74759 0.38585 0.99564 0.85783 0.99564 0.22738 0 0.39274-0.0379 0.49265-0.0689z"/><path d="m-54.392 219.28-0.38585-0.30661c-0.23427 0.30661-0.53399 0.50643-0.98185 0.50643-0.67868 0-1.0852-0.54777-1.1059-1.2334h2.5218v-0.28594c0-1.0439-0.46509-1.8259-1.5331-1.8259-0.83716 0-1.6295 0.7028-1.6295 1.9189v0.14469c0 1.0508 0.67179 1.8018 1.7122 1.8018 0.73725 0 1.161-0.3514 1.4022-0.72003zm-1.4848-2.6217c0.65112 0 0.86472 0.52366 0.89572 1.0198v0.0482h-1.8638c0.08613-0.68902 0.46164-1.068 0.96807-1.068z"/><path d="m-51.195 219.93h0.58567v-5.2917h-0.64079v1.9362c-0.2446-0.2825-0.58222-0.44097-1.0335-0.44097-0.88884 0-1.4745 0.76481-1.4745 1.9017v0.0724c0 1.0886 0.59256 1.8914 1.4676 1.8914 0.46853 0 0.81993-0.16881 1.0645-0.46854zm-1.9224-1.8224v-0.0724c0-0.7407 0.29628-1.3643 0.99219-1.3643 0.43753 0 0.71314 0.22393 0.87506 0.53055v1.7157c-0.16881 0.3135-0.43753 0.54088-0.88194 0.54088-0.68902 0-0.9853-0.60979-0.9853-1.3505z"/><path d="m-46.293 219.93-0.0034-0.52021c-0.05857 0.0138-0.19292 0.0413-0.29972 0.0413-0.2136 0-0.40997-0.062-0.40997-0.44442v-2.3151h0.69591v-0.4892h-0.69591v-0.90606h-0.63734v0.90606h-0.68213v0.4892h0.68213v2.3117c0 0.74759 0.38585 0.99564 0.85783 0.99564 0.22738 0 0.39274-0.0379 0.49265-0.0689z"/><path d="m-45.8 218.11c0 1.0783 0.65112 1.8914 1.6984 1.8914 1.0439 0 1.695-0.81305 1.695-1.8914v-0.0792c0-1.0783-0.65112-1.8948-1.7019-1.8948-1.0404 0-1.6915 0.81648-1.6915 1.8948zm0.63734-0.0792c0-0.73036 0.3514-1.3712 1.0542-1.3712 0.70624 0 1.0611 0.64079 1.0611 1.3712v0.0792c0 0.74069-0.35484 1.3677-1.0542 1.3677-0.70969 0-1.0611-0.62701-1.0611-1.3677z"/><path d="m-36.863 219.85v-3.6484h-0.57878l-0.03101 0.41341c-0.2446-0.31006-0.59256-0.48231-1.0645-0.48231-0.90951 0-1.4711 0.76481-1.4711 1.9017v0.0724c0 1.0886 0.56844 1.8914 1.4642 1.8914 0.45475 0 0.79926-0.15848 1.0439-0.44442v0.32728c0 0.65113-0.38585 0.99564-0.98874 0.99564-0.33762 0-0.68902-0.12403-0.99908-0.50299l-0.33417 0.37896c0.33417 0.48576 0.99563 0.64768 1.3815 0.64768 0.93018 0 1.5779-0.56155 1.5779-1.5503zm-2.508-1.7432v-0.0724c0-0.7407 0.29283-1.3643 0.98874-1.3643 0.44442 0 0.72002 0.23082 0.88194 0.53744v1.6984c-0.16536 0.32039-0.43408 0.55122-0.88884 0.55122-0.68902 0-0.98185-0.60979-0.98185-1.3505z"/><path d="m-35.892 215.22c0 0.19981 0.12747 0.35829 0.37552 0.35829 0.2446 0 0.37896-0.15848 0.37896-0.35829 0-0.20671-0.13436-0.36863-0.37896-0.36863-0.24805 0-0.37552 0.16192-0.37552 0.36863zm0.68902 0.98874h-0.64079v3.7276h0.64079z"/><path d="m-31.375 216.2h-0.65112l-0.92329 2.856-0.9474-2.856h-0.65457l1.3505 3.7276h0.48576z"/><path d="m-27.858 219.28-0.38585-0.30661c-0.23427 0.30661-0.53399 0.50643-0.98185 0.50643-0.67868 0-1.0852-0.54777-1.1059-1.2334h2.5218v-0.28594c0-1.0439-0.46509-1.8259-1.5331-1.8259-0.83716 0-1.6295 0.7028-1.6295 1.9189v0.14469c0 1.0508 0.67179 1.8018 1.7122 1.8018 0.73725 0 1.161-0.3514 1.4022-0.72003zm-1.4848-2.6217c0.65112 0 0.86472 0.52366 0.89573 1.0198v0.0482h-1.8638c0.08613-0.68902 0.46164-1.068 0.96807-1.068z"/></g></g><g transform="translate(-7e-4)" opacity=".5"><path d="m57.117 63.53 53.004-30.602" color="#000000" fill="#8a0" stroke-width="2.065" style="-inkscape-stroke:none"/><path d="m109.61 32.033-53.004 30.604 1.0312 1.7871 53.004-30.602z" color="#000000" fill="#050" style="-inkscape-stroke:none"/><g fill="#050" fill-rule="evenodd"><path d="m114.25 30.545-4.1226 7.1491-4.13-7.1534z" color="#000000" stroke-width=".826pt" style="-inkscape-stroke:none"/><path d="m105.04 29.99 5.0859 8.8066 5.0742-8.8027h-0.95312zm1.9082 1.1016 6.3457 0.0039-3.168 5.4961z" color="#000000" style="-inkscape-stroke:none"/></g></g></svg>
