<?xml version="1.0" encoding="UTF-8"?>
<svg width="270.73mm" height="127.57mm" version="1.1" viewBox="0 0 270.73 127.57" xmlns="http://www.w3.org/2000/svg"><defs><radialGradient id="radialGradient35177" cx="204.19" cy="251.98" r="32.205" gradientTransform="matrix(1.4227,0,0,1.4227,-86.308,-106.51)" gradientUnits="userSpaceOnUse"><stop stop-color="#003380" offset="0"/><stop stop-color="#003380" stop-opacity="0" offset="1"/></radialGradient><clipPath id="clipPath83103"><path class="powerclip" d="m153.38 201.17h101.63v101.63h-101.63zm72.223 50.817a21.406 21.406 0 0 0-21.406-21.406 21.406 21.406 0 0 0-21.406 21.406 21.406 21.406 0 0 0 21.406 21.406 21.406 21.406 0 0 0 21.406-21.406z" fill="#fff" stop-color="#000000"/></clipPath></defs><g transform="translate(17.018,-174.78)" stroke-opacity=".5"><path d="m-15.04 174.78h266.78c1.0954 0 1.9773 0.66706 1.9773 1.4957v124.58c0 0.8286-0.88189 1.4957-1.9773 1.4957h-266.78c-1.0954 0-1.9773-0.66707-1.9773-1.4957v-124.58c0-0.8286 0.88189-1.4957 1.9773-1.4957z" fill="#f2f0d9" stop-color="#000000" stroke-width="1.3422"/><g stroke-width=".26458"><g stop-color="#000000" style="white-space:pre" aria-label="God"><path d="m108.51 193.31h-2.3688v0.9095h1.1245v1.0377c-0.13229 0.12815-0.39687 0.29765-0.99219 0.29765-0.92604 0-1.418-0.65732-1.418-1.91v-0.36794c0-1.2485 0.45475-1.91 1.2981-1.91 0.74828 0 1.0501 0.39274 1.1452 1.0005h1.2072c-0.1323-1.17-0.82269-2.0009-2.3854-2.0009-1.5255 0-2.5259 1.0625-2.5259 2.9187v0.35967c0 1.8562 1.0542 2.9104 2.6128 2.9104 1.3229 0 2.0174-0.50436 2.3027-0.84336z"/><path d="m109.24 194.29c0 1.3022 0.76895 2.2738 2.1249 2.2738 1.3518 0 2.1125-0.97152 2.1125-2.2738v-0.0868c0-1.3022-0.76068-2.2779-2.1208-2.2779-1.3477 0-2.1167 0.97565-2.1167 2.2779zm1.1989-0.0868c0-0.71107 0.24804-1.3146 0.91777-1.3146 0.678 0 0.92604 0.60358 0.92604 1.3146v0.0868c0 0.72761-0.25218 1.3105-0.91777 1.3105-0.678 0-0.92604-0.58291-0.92604-1.3105z"/><path d="m116.98 196.48h1.079v-6.35h-1.1989v2.2779c-0.26872-0.30592-0.62012-0.48369-1.0749-0.48369-1.1162 0-1.757 0.92604-1.757 2.2862v0.0868c0 1.3022 0.64079 2.2655 1.7487 2.2655 0.49609 0 0.86817-0.21084 1.1452-0.55811zm-1.7529-2.1828v-0.0868c0-0.74001 0.23565-1.3188 0.8599-1.3188 0.3762 0 0.62839 0.1695 0.77308 0.46302v1.7735c-0.14469 0.28939-0.40101 0.46302-0.78135 0.46302-0.62838 0-0.85163-0.57464-0.85163-1.294z"/></g><g stop-color="#000000" style="white-space:pre" aria-label="Israelites"><path d="m6.6183 247.15h-1.2402v6.0193h1.2402z"/><path d="m10.116 251.93c0 0.27698-0.23978 0.47129-0.69453 0.47129-0.42581 0-0.79788-0.18604-0.81856-0.65733h-1.1369c0 0.72761 0.678 1.509 1.9306 1.509 1.1493 0 1.881-0.57877 1.881-1.3684 0-0.88883-0.71934-1.2154-1.6867-1.4056-0.62425-0.11989-0.83509-0.27285-0.83509-0.5333 0-0.27285 0.23564-0.48369 0.63252-0.48369 0.47129 0 0.68213 0.25218 0.68213 0.59531h1.1948c0-0.83509-0.71107-1.4428-1.8728-1.4428-1.1162 0-1.7818 0.64493-1.7818 1.3891 0 0.77308 0.67386 1.1617 1.5916 1.356 0.74828 0.16123 0.91364 0.31832 0.91364 0.57051z"/><path d="m14.134 249.78c0.13229 0 0.31006 0.0207 0.43408 0.0331l0.0124-1.1452c-0.08682-0.0331-0.24391-0.0538-0.36794-0.0538-0.43822 0-0.77721 0.23152-0.99632 0.61599l-0.03721-0.5333h-1.1286v4.4731h1.1989v-2.9311c0.13643-0.29765 0.42581-0.45888 0.8847-0.45888z"/><path d="m17.611 253.17h1.2072v-0.0703c-0.11576-0.22738-0.17777-0.51263-0.17777-1.0211v-1.8934c0-1.0459-0.76068-1.571-1.7942-1.571-1.1576 0-1.9017 0.64493-1.9017 1.4221h1.1948c0-0.33486 0.24391-0.53743 0.64079-0.53743 0.45475 0 0.66146 0.26458 0.66146 0.67799v0.26045h-0.5333c-1.3601 0-2.0629 0.53744-2.0629 1.4759 0 0.77721 0.66146 1.3394 1.5172 1.3394 0.5333 0 0.89297-0.21497 1.1286-0.48369 0.02894 0.15296 0.07028 0.29352 0.11989 0.40101zm-0.98805-0.83096c-0.3638 0-0.58291-0.21497-0.58291-0.51263 0-0.39274 0.27698-0.69453 0.91364-0.69453h0.48783v0.77722c-0.12402 0.2191-0.41755 0.42994-0.81856 0.42994z"/><path d="m23.366 252.44-0.59118-0.65319c-0.26458 0.33486-0.64079 0.50022-1.079 0.50022-0.61185 0-1.0005-0.3886-1.0831-0.96738h2.8484v-0.5085c0-1.3229-0.68626-2.1994-1.972-2.1994-1.2816 0-2.0877 0.95912-2.0877 2.311v0.16123c0 1.1948 0.82682 2.1663 2.22 2.1663 0.8723 0 1.4593-0.40514 1.7446-0.81028zm-1.8852-2.865c0.55397 0 0.79375 0.35554 0.80615 0.8351v0.0909h-1.6619c0.08268-0.55398 0.34727-0.92605 0.85576-0.92605z"/><path d="m25.4 246.82h-1.1989v6.35h1.1989z"/><path d="m26.371 247.54c0 0.35554 0.26045 0.61599 0.66973 0.61599s0.66973-0.26045 0.66973-0.61599c0-0.35966-0.26045-0.62011-0.66973-0.62011s-0.66973 0.26045-0.66973 0.62011zm1.2733 1.1576h-1.1989v4.4731h1.1989z"/><path d="m30.865 253.14v-0.90537c-0.08268 0.0165-0.20257 0.0331-0.34727 0.0331-0.30592 0-0.45889-0.0868-0.45889-0.46302v-2.2366h0.76068v-0.8723h-0.76068v-1.1038h-1.1948v1.1038h-0.65732v0.8723h0.65732v2.3606c0 0.95084 0.50023 1.3229 1.2816 1.3229 0.28939 0 0.5209-0.0455 0.71934-0.11162z"/><path d="m35.293 252.44-0.59118-0.65319c-0.26458 0.33486-0.64079 0.50022-1.079 0.50022-0.61185 0-1.0005-0.3886-1.0831-0.96738h2.8484v-0.5085c0-1.3229-0.68626-2.1994-1.972-2.1994-1.2816 0-2.0877 0.95912-2.0877 2.311v0.16123c0 1.1948 0.82682 2.1663 2.22 2.1663 0.8723 0 1.4593-0.40514 1.7446-0.81028zm-1.8852-2.865c0.55397 0 0.79375 0.35554 0.80615 0.8351v0.0909h-1.6619c0.08268-0.55398 0.34727-0.92605 0.85576-0.92605z"/><path d="m38.484 251.93c0 0.27698-0.23978 0.47129-0.69453 0.47129-0.42581 0-0.79788-0.18604-0.81856-0.65733h-1.1369c0 0.72761 0.678 1.509 1.9306 1.509 1.1493 0 1.881-0.57877 1.881-1.3684 0-0.88883-0.71934-1.2154-1.6867-1.4056-0.62425-0.11989-0.83509-0.27285-0.83509-0.5333 0-0.27285 0.23564-0.48369 0.63252-0.48369 0.47129 0 0.68213 0.25218 0.68213 0.59531h1.1948c0-0.83509-0.71107-1.4428-1.8728-1.4428-1.1162 0-1.7818 0.64493-1.7818 1.3891 0 0.77308 0.67386 1.1617 1.5916 1.356 0.74828 0.16123 0.91364 0.31832 0.91364 0.57051z"/></g><g transform="rotate(30)" fill="#050" opacity=".9" stop-color="#000000" style="white-space:pre" aria-label="sacrificed food"><path d="m218.49 108.7c0 0.30661-0.2825 0.53399-0.80271 0.53399-0.39619 0-0.85783-0.16881-0.88539-0.69591h-0.64079c0 0.61667 0.53744 1.2196 1.5262 1.2196 0.86816 0 1.44-0.45131 1.44-1.1059 0-0.59944-0.42375-0.90261-1.3401-1.1128-0.7028-0.15848-0.85783-0.29973-0.85783-0.57533 0-0.27217 0.21015-0.54777 0.74069-0.54777 0.50299 0 0.78204 0.33417 0.78204 0.64078h0.63734c0-0.64078-0.5271-1.1644-1.4194-1.1644-0.83715 0-1.3815 0.49954-1.3815 1.0886 0 0.61323 0.51332 0.90262 1.3436 1.0749 0.73725 0.14814 0.85783 0.36863 0.85783 0.64424z"/><path d="m222.27 109.69h0.6649v-0.0551c-0.0861-0.19982-0.13091-0.50988-0.13091-0.75792v-1.7363c0-0.83372-0.57533-1.2471-1.3849-1.2471-0.90262 0-1.4814 0.56844-1.4814 1.1024h0.63734c0-0.31006 0.32384-0.58911 0.80615-0.58911 0.51677 0 0.78549 0.28594 0.78549 0.72692v0.29627h-0.63046c-1.0232 0-1.6778 0.42375-1.6778 1.223 0 0.62012 0.49954 1.1059 1.2609 1.1059 0.46164 0 0.82337-0.21015 1.0611-0.46164 0.0172 0.15158 0.0482 0.29972 0.0896 0.39274zm-1.0576-0.48921c-0.47197 0-0.71313-0.27905-0.71313-0.63389 0-0.46165 0.40997-0.68902 1.1403-0.68902h0.5271v0.76825c-0.13781 0.27906-0.49265 0.55466-0.9543 0.55466z"/><path d="m225.29 109.23c-0.79237 0-1.0198-0.68213-1.0198-1.3367v-0.1447c0-0.64767 0.23427-1.3367 1.0198-1.3367 0.50987 0 0.84405 0.36862 0.8785 0.82682h0.60634c-0.0345-0.76826-0.61323-1.3505-1.4848-1.3505-1.1197 0-1.6571 0.86128-1.6571 1.8604v0.1447c0 0.99908 0.53399 1.8604 1.6571 1.8604 0.78893 0 1.4504-0.58222 1.4848-1.2471h-0.60634c-0.0344 0.4203-0.42375 0.72347-0.8785 0.72347z"/><path d="m228.98 106.5c0.12058 0 0.20326 7e-3 0.31006 0.0276l3e-3 -0.59256c-0.0448-0.0207-0.19292-0.0482-0.28249-0.0482-0.40653 0-0.69936 0.19293-0.88539 0.4961l-0.0138-0.4272h-0.62012v3.7276h0.63734v-2.6458c0.1378-0.32728 0.41686-0.53743 0.85094-0.53743z"/><path d="m229.89 104.97c0 0.19982 0.12747 0.35829 0.37552 0.35829 0.2446 0 0.37896-0.15847 0.37896-0.35829 0-0.20671-0.13436-0.36863-0.37896-0.36863-0.24805 0-0.37552 0.16192-0.37552 0.36863zm0.68902 0.98874h-0.64079v3.7276h0.64079z"/><path d="m233.21 106.45v-0.48921h-0.76137v-0.32384c0-0.49609 0.22393-0.74069 0.77171-0.74069 0.33072 0 0.61322 0.093 0.82337 0.1757l0.1068-0.53744c-0.33417-0.12058-0.64423-0.21015-0.97496-0.21015-0.84405 0-1.3643 0.46509-1.3643 1.3126v0.32384h-0.58911v0.48921h0.58911v3.2384h0.63734v-3.2384zm1.254-0.48921h-0.63735v3.7276h0.63735z"/><path d="m237 109.23c-0.79238 0-1.0198-0.68213-1.0198-1.3367v-0.1447c0-0.64767 0.23426-1.3367 1.0198-1.3367 0.50987 0 0.84405 0.36862 0.8785 0.82682h0.60633c-0.0345-0.76826-0.61322-1.3505-1.4848-1.3505-1.1197 0-1.6571 0.86128-1.6571 1.8604v0.1447c0 0.99908 0.53399 1.8604 1.6571 1.8604 0.78892 0 1.4504-0.58222 1.4848-1.2471h-0.60633c-0.0344 0.4203-0.42375 0.72347-0.8785 0.72347z"/><path d="m242.15 109.03-0.38585-0.30662c-0.23427 0.30662-0.53399 0.50643-0.98186 0.50643-0.67868 0-1.0852-0.54777-1.1059-1.2333h2.5218v-0.28595c0-1.0439-0.46509-1.8259-1.5331-1.8259-0.83716 0-1.6295 0.7028-1.6295 1.9189v0.14469c0 1.0508 0.67179 1.8018 1.7122 1.8018 0.73725 0 1.161-0.3514 1.4022-0.72002zm-1.4848-2.6217c0.65113 0 0.86472 0.52365 0.89573 1.0197v0.0482h-1.8638c0.0861-0.68902 0.46164-1.068 0.96807-1.068z"/><path d="m245.35 109.69h0.58566v-5.2917h-0.64078v1.9361c-0.24461-0.28249-0.58222-0.44097-1.0335-0.44097-0.88884 0-1.4745 0.76481-1.4745 1.9017v0.0723c0 1.0886 0.59255 1.8914 1.4676 1.8914 0.46853 0 0.81993-0.16881 1.0645-0.46853zm-1.9224-1.8225v-0.0723c0-0.7407 0.29628-1.3643 0.99219-1.3643 0.43753 0 0.71314 0.22393 0.87506 0.53054v1.7157c-0.16881 0.3135-0.43753 0.54088-0.88195 0.54088-0.68902 0-0.9853-0.60978-0.9853-1.3505z"/><path d="m250.42 106.45v-0.48921h-0.79237v-0.39274c0-0.45131 0.23771-0.69935 0.64767-0.69935 0.12058 0 0.24805 0.0103 0.34451 0.031l0.0344-0.52021c-0.14469-0.0345-0.29627-0.0551-0.44097-0.0551-0.76136 0-1.223 0.44097-1.223 1.2437v0.39274h-0.58911v0.48921h0.58911v3.2384h0.63735v-3.2384z"/><path d="m250.96 107.86c0 1.0783 0.65112 1.8914 1.6984 1.8914 1.0439 0 1.695-0.81304 1.695-1.8914v-0.0792c0-1.0783-0.65113-1.8948-1.7019-1.8948-1.0404 0-1.6915 0.81649-1.6915 1.8948zm0.63734-0.0792c0-0.73036 0.3514-1.3711 1.0542-1.3711 0.70624 0 1.0611 0.64078 1.0611 1.3711v0.0792c0 0.7407-0.35485 1.3677-1.0542 1.3677-0.70969 0-1.0611-0.62701-1.0611-1.3677z"/><path d="m254.98 107.86c0 1.0783 0.65113 1.8914 1.6984 1.8914 1.0439 0 1.695-0.81304 1.695-1.8914v-0.0792c0-1.0783-0.65112-1.8948-1.7019-1.8948-1.0404 0-1.6916 0.81649-1.6916 1.8948zm0.63735-0.0792c0-0.73036 0.3514-1.3711 1.0542-1.3711 0.70624 0 1.0611 0.64078 1.0611 1.3711v0.0792c0 0.7407-0.35485 1.3677-1.0542 1.3677-0.70969 0-1.0611-0.62701-1.0611-1.3677z"/><path d="m261.58 109.69h0.58567v-5.2917h-0.64079v1.9361c-0.2446-0.28249-0.58222-0.44097-1.0335-0.44097-0.88883 0-1.4745 0.76481-1.4745 1.9017v0.0723c0 1.0886 0.59256 1.8914 1.4676 1.8914 0.46853 0 0.81993-0.16881 1.0645-0.46853zm-1.9224-1.8225v-0.0723c0-0.7407 0.29628-1.3643 0.99219-1.3643 0.43752 0 0.71313 0.22393 0.87505 0.53054v1.7157c-0.16881 0.3135-0.43753 0.54088-0.88194 0.54088-0.68902 0-0.9853-0.60978-0.9853-1.3505z"/></g></g></g><g transform="translate(17.018,-174.78)" opacity=".5"><path d="m40.099 238.31 53.004-30.602" color="#000000" fill="#8a0" stroke-width="2.065" style="-inkscape-stroke:none"/><g fill="#050"><path d="m92.586 206.81-53.004 30.602 1.0332 1.7891 53.004-30.602z" color="#000000" style="-inkscape-stroke:none"/><g fill-rule="evenodd"><path d="m97.23 205.32-4.1227 7.1491-4.13-7.1534z" color="#000000" stroke-width=".826pt" style="-inkscape-stroke:none"/><path d="m88.023 204.77 5.084 8.8047 5.0762-8.8008h-0.95312zm1.9082 1.1016 6.3438 4e-3 -3.168 5.4961z" color="#000000" style="-inkscape-stroke:none"/></g><path d="m124.5 204.77-1.0312 1.7871 53.002 30.602 1.0332-1.7871z" color="#000000" style="-inkscape-stroke:none"/><g fill-rule="evenodd"><path d="m181.12 238.65-8.2527 4e-3 4.13-7.1534z" color="#000000" stroke-width=".826pt" style="-inkscape-stroke:none"/><path d="m176.99 230.4-5.084 8.8066 10.16-6e-3 -0.47656-0.82422zm0 2.2031 3.1719 5.498-6.3477 4e-3z" color="#000000" style="-inkscape-stroke:none"/></g></g></g><path transform="translate(20.722 -175.84)" d="m250.01 251.98a45.817 45.817 0 0 1-45.817 45.817 45.817 45.817 0 0 1-45.817-45.817 45.817 45.817 0 0 1 45.817-45.817 45.817 45.817 0 0 1 45.817 45.817z" clip-path="url(#clipPath83103)" fill="url(#radialGradient35177)" opacity=".50968" stop-color="#000000"/><g stroke-opacity=".5"><g transform="translate(17.018,-174.78)" stop-color="#000000" stroke-width=".26458" style="white-space:pre" aria-label="priests"><path d="m197.59 254.09c1.1203 0 1.7363-0.97978 1.7363-2.282v-0.0868c0-1.3601-0.61184-2.2696-1.7487-2.2696-0.49196 0-0.85576 0.19017-1.1245 0.51677l-0.0455-0.43408h-1.1121v6.1929h1.1989v-2.1125c0.26872 0.29765 0.62426 0.47542 1.0956 0.47542zm-0.32247-3.6711c0.62012 0 0.86403 0.56224 0.86403 1.3022v0.0868c0 0.72347-0.23151 1.3188-0.85576 1.3188-0.39687 0-0.64079-0.1695-0.78135-0.44235v-1.8314c0.14056-0.28112 0.38448-0.43408 0.77308-0.43408z"/><path d="m202.15 250.62c0.13229 0 0.31006 0.0207 0.43408 0.0331l0.0124-1.1452c-0.0868-0.0331-0.24392-0.0537-0.36794-0.0537-0.43822 0-0.77721 0.23151-0.99632 0.61599l-0.0372-0.5333h-1.1286v4.4731h1.1989v-2.9311c0.13643-0.29766 0.42581-0.45889 0.8847-0.45889z"/><path d="m203.15 248.38c0 0.35554 0.26045 0.61599 0.66972 0.61599 0.40928 0 0.66973-0.26045 0.66973-0.61599 0-0.35967-0.26045-0.62011-0.66973-0.62011-0.40927 0-0.66972 0.26044-0.66972 0.62011zm1.2733 1.1576h-1.1989v4.4731h1.1989z"/><path d="m209.21 253.28-0.59118-0.65319c-0.26458 0.33487-0.64078 0.50023-1.079 0.50023-0.61185 0-1.0005-0.3886-1.0831-0.96738h2.8484v-0.5085c0-1.3229-0.68627-2.1994-1.972-2.1994-1.2816 0-2.0877 0.95912-2.0877 2.311v0.16123c0 1.1948 0.82683 2.1663 2.22 2.1663 0.87229 0 1.4593-0.40514 1.7446-0.81029zm-1.8852-2.8649c0.55397 0 0.79375 0.35554 0.80615 0.83509v0.0909h-1.6619c0.0827-0.55397 0.34727-0.92604 0.85577-0.92604z"/><path d="m212.4 252.77c0 0.27699-0.23978 0.47129-0.69453 0.47129-0.42582 0-0.79789-0.18603-0.81856-0.65732h-1.1369c0 0.7276 0.678 1.509 1.9306 1.509 1.1493 0 1.881-0.57878 1.881-1.3684 0-0.88884-0.71934-1.2154-1.6867-1.4056-0.62425-0.11989-0.83509-0.27285-0.83509-0.5333 0-0.27285 0.23564-0.48369 0.63252-0.48369 0.47128 0 0.68212 0.25218 0.68212 0.59531h1.1948c0-0.83509-0.71106-1.4428-1.8728-1.4428-1.1162 0-1.7818 0.64492-1.7818 1.3891 0 0.77308 0.67386 1.1617 1.5916 1.356 0.74828 0.16123 0.91364 0.31832 0.91364 0.5705z"/><path d="m216.58 253.98v-0.90537c-0.0827 0.0165-0.20257 0.0331-0.34727 0.0331-0.30592 0-0.45889-0.0868-0.45889-0.46302v-2.2366h0.76068v-0.87229h-0.76068v-1.1038h-1.1948v1.1038h-0.65733v0.87229h0.65733v2.3606c0 0.95085 0.50022 1.3229 1.2816 1.3229 0.28939 0 0.5209-0.0455 0.71934-0.11162z"/><path d="m219.62 252.77c0 0.27699-0.23978 0.47129-0.69454 0.47129-0.42581 0-0.79788-0.18603-0.81855-0.65732h-1.1369c0 0.7276 0.67799 1.509 1.9306 1.509 1.1493 0 1.881-0.57878 1.881-1.3684 0-0.88884-0.71933-1.2154-1.6867-1.4056-0.62425-0.11989-0.83509-0.27285-0.83509-0.5333 0-0.27285 0.23565-0.48369 0.63252-0.48369 0.47129 0 0.68213 0.25218 0.68213 0.59531h1.1948c0-0.83509-0.71107-1.4428-1.8728-1.4428-1.1162 0-1.7818 0.64492-1.7818 1.3891 0 0.77308 0.67386 1.1617 1.5916 1.356 0.74827 0.16123 0.91364 0.31832 0.91364 0.5705z"/></g><g transform="translate(17.018,-174.78)" fill="#003380" opacity=".9" stop-color="#000000" stroke-width=".26458" style="white-space:pre" aria-label="free ministry"><path d="m190.76 280.39v-0.4892h-0.79237v-0.39274c0-0.45131 0.23771-0.69936 0.64768-0.69936 0.12058 0 0.24804 0.0103 0.34451 0.031l0.0344-0.52021c-0.1447-0.0344-0.29628-0.0551-0.44097-0.0551-0.76137 0-1.223 0.44097-1.223 1.2437v0.39274h-0.58912v0.4892h0.58912v3.2384h0.63734v-3.2384z"/><path d="m192.96 280.45c0.12058 0 0.20326 7e-3 0.31006 0.0276l3e-3 -0.59256c-0.0448-0.0207-0.19293-0.0482-0.2825-0.0482-0.40652 0-0.69936 0.19292-0.88539 0.49609l-0.0138-0.42719h-0.62012v3.7276h0.63734v-2.6458c0.13781-0.32728 0.41686-0.53743 0.85094-0.53743z"/><path d="m196.75 282.98-0.38585-0.30661c-0.23427 0.30661-0.53399 0.50643-0.98186 0.50643-0.67868 0-1.0852-0.54777-1.1059-1.2334h2.5218v-0.28594c0-1.0439-0.46509-1.8259-1.5331-1.8259-0.83716 0-1.6295 0.7028-1.6295 1.9189v0.14469c0 1.0508 0.67179 1.8018 1.7122 1.8018 0.73725 0 1.161-0.3514 1.4022-0.72003zm-1.4848-2.6217c0.65112 0 0.86472 0.52366 0.89572 1.0198v0.0482h-1.8638c0.0861-0.68902 0.46164-1.068 0.96807-1.068z"/><path d="m200.49 282.98-0.38585-0.30661c-0.23426 0.30661-0.53399 0.50643-0.98185 0.50643-0.67869 0-1.0852-0.54777-1.1059-1.2334h2.5218v-0.28594c0-1.0439-0.46508-1.8259-1.5331-1.8259-0.83716 0-1.6295 0.7028-1.6295 1.9189v0.14469c0 1.0508 0.6718 1.8018 1.7122 1.8018 0.73725 0 1.161-0.3514 1.4022-0.72003zm-1.4848-2.6217c0.65112 0 0.86472 0.52366 0.89572 1.0198v0.0482h-1.8638c0.0861-0.68902 0.46165-1.068 0.96808-1.068z"/><path d="m204.52 280.37c0.48232 0 0.79582 0.22394 0.79582 0.80616v2.4529h0.63734v-2.4736c0.0482-0.43409 0.34451-0.78549 0.86128-0.78549 0.48576 0 0.79581 0.17915 0.79581 0.80271v2.4564h0.64079v-2.4495c0-0.94051-0.45131-1.347-1.2506-1.347-0.53743 0-0.93706 0.24116-1.1851 0.59945-0.19637-0.42031-0.58911-0.59945-1.068-0.59945-0.48232 0-0.8475 0.1757-1.1024 0.47542l-0.0172-0.40652h-0.60634v3.7276h0.64079v-2.732c0.14125-0.3135 0.40308-0.5271 0.85783-0.5271z"/><path d="m209.22 278.91c0 0.19981 0.12746 0.35829 0.37551 0.35829 0.2446 0 0.37896-0.15848 0.37896-0.35829 0-0.20671-0.13436-0.36863-0.37896-0.36863-0.24805 0-0.37551 0.16192-0.37551 0.36863zm0.68902 0.98874h-0.64079v3.7276h0.64079z"/><path d="m212.48 280.37c0.48231 0 0.74414 0.22738 0.74414 0.8096v2.4495h0.64079v-2.4426c0-0.97841-0.46165-1.3539-1.1954-1.3539-0.46164 0-0.8475 0.19981-1.1128 0.53399l-0.0207-0.46509h-0.60289v3.7276h0.63734v-2.6631c0.1757-0.3514 0.49954-0.59601 0.90951-0.59601z"/><path d="m214.84 278.91c0 0.19981 0.12747 0.35829 0.37552 0.35829 0.2446 0 0.37896-0.15848 0.37896-0.35829 0-0.20671-0.13436-0.36863-0.37896-0.36863-0.24805 0-0.37552 0.16192-0.37552 0.36863zm0.68902 0.98874h-0.64079v3.7276h0.64079z"/><path d="m218.72 282.64c0 0.30662-0.28249 0.53399-0.8027 0.53399-0.39619 0-0.85783-0.16881-0.88539-0.69591h-0.64079c0 0.61668 0.53743 1.2196 1.5262 1.2196 0.86816 0 1.44-0.45131 1.44-1.1059 0-0.59944-0.42375-0.90261-1.3402-1.1128-0.7028-0.15848-0.85782-0.29973-0.85782-0.57534 0-0.27216 0.21015-0.54777 0.74069-0.54777 0.50299 0 0.78204 0.33418 0.78204 0.64079h0.63734c0-0.64079-0.5271-1.1644-1.4194-1.1644-0.83716 0-1.3815 0.49954-1.3815 1.0886 0 0.61323 0.51332 0.90262 1.3436 1.0749 0.73725 0.14814 0.85782 0.36863 0.85782 0.64423z"/><path d="m221.77 283.63-3e-3 -0.52021c-0.0586 0.0138-0.19292 0.0413-0.29972 0.0413-0.2136 0-0.40997-0.062-0.40997-0.44442v-2.3151h0.69591v-0.4892h-0.69591v-0.90606h-0.63734v0.90606h-0.68213v0.4892h0.68213v2.3117c0 0.74758 0.38585 0.99563 0.85783 0.99563 0.22737 0 0.39274-0.0379 0.49265-0.0689z"/><path d="m223.99 280.45c0.12058 0 0.20326 7e-3 0.31006 0.0276l3e-3 -0.59256c-0.0448-0.0207-0.19292-0.0482-0.2825-0.0482-0.40652 0-0.69935 0.19292-0.88539 0.49609l-0.0138-0.42719h-0.62011v3.7276h0.63734v-2.6458c0.1378-0.32728 0.41686-0.53743 0.85094-0.53743z"/><path d="m226.22 284.2 1.4952-4.3029h-0.68213l-0.86472 2.7905-0.93362-2.7905h-0.69591l1.3298 3.6863-0.13781 0.37896c-0.15503 0.46164-0.37207 0.60978-0.80615 0.60978-0.031 0-0.13436-7e-3 -0.17225-0.0138l3e-3 0.51676c0.0655 0.0207 0.25494 0.0551 0.35829 0.0551 0.67524 0 0.96807-0.56155 1.1059-0.93017z"/></g><g transform="rotate(-30)" fill="#050" opacity=".9" stop-color="#000000" stroke-width=".26458" style="white-space:pre" aria-label="obligated to sacrifice"><path d="m15.89 75.252c0 1.0783 0.65112 1.8914 1.6984 1.8914 1.0439 0 1.695-0.81304 1.695-1.8914v-0.07924c0-1.0783-0.65112-1.8948-1.7019-1.8948-1.0404 0-1.6915 0.81649-1.6915 1.8948zm0.63734-0.07924c0-0.73036 0.3514-1.3711 1.0542-1.3711 0.70624 0 1.0611 0.64079 1.0611 1.3711v0.07924c0 0.7407-0.35484 1.3677-1.0542 1.3677-0.70969 0-1.0611-0.62701-1.0611-1.3677z"/><path d="m23.239 75.252v-0.07235c0-1.1369-0.52021-1.9017-1.4573-1.9017-0.46853 0-0.81649 0.16881-1.0611 0.47198v-1.9672h-0.64079v5.2917h0.58567l0.03445-0.43064c0.2446 0.32039 0.60289 0.49954 1.0887 0.49954 0.92329 0 1.4504-0.80271 1.4504-1.8914zm-1.6158-1.4366c0.72347 0 0.97496 0.62356 0.97496 1.3643v0.07235c0 0.7407-0.27905 1.3505-0.96807 1.3505-0.46164 0-0.74414-0.25838-0.90951-0.58567v-1.6226c0.15847-0.32728 0.44097-0.57878 0.90262-0.57878z"/><path d="m24.737 71.783h-0.64079v5.2917h0.64079z"/><path d="m25.764 72.358c0 0.19982 0.12747 0.35829 0.37552 0.35829 0.2446 0 0.37896-0.15847 0.37896-0.35829 0-0.20671-0.13436-0.36862-0.37896-0.36862-0.24805 0-0.37552 0.16192-0.37552 0.36862zm0.68902 0.98874h-0.64079v3.7276h0.64079z"/><path d="m30.47 76.995v-3.6484h-0.57878l-0.03101 0.41341c-0.2446-0.31006-0.59256-0.48231-1.0645-0.48231-0.90951 0-1.4711 0.76481-1.4711 1.9017v0.07235c0 1.0887 0.56844 1.8914 1.4642 1.8914 0.45475 0 0.79926-0.15848 1.0439-0.44442v0.32728c0 0.65112-0.38585 0.99563-0.98874 0.99563-0.33762 0-0.68902-0.12402-0.99908-0.50298l-0.33417 0.37896c0.33417 0.48576 0.99563 0.64768 1.3815 0.64768 0.93018 0 1.5779-0.56155 1.5779-1.5503zm-2.508-1.7432v-0.07235c0-0.7407 0.29283-1.3643 0.98874-1.3643 0.44442 0 0.72002 0.23082 0.88194 0.53744v1.6984c-0.16536 0.32039-0.43408 0.55122-0.88884 0.55122-0.68902 0-0.98185-0.60978-0.98185-1.3505z"/><path d="m33.739 77.075h0.6649v-0.05512c-0.08613-0.19982-0.13091-0.50987-0.13091-0.75792v-1.7363c0-0.83371-0.57533-1.2471-1.3849-1.2471-0.90262 0-1.4814 0.56844-1.4814 1.1024h0.63734c0-0.31006 0.32384-0.58911 0.80615-0.58911 0.51676 0 0.78548 0.28594 0.78548 0.72692v0.29628h-0.63045c-1.0232 0-1.6778 0.42375-1.6778 1.223 0 0.62012 0.49954 1.1059 1.2609 1.1059 0.46164 0 0.82338-0.21015 1.0611-0.46164 0.01723 0.15158 0.04823 0.29972 0.08957 0.39274zm-1.0576-0.4892c-0.47198 0-0.71314-0.27905-0.71314-0.6339 0-0.46164 0.40997-0.68902 1.1403-0.68902h0.5271v0.76826c-0.1378 0.27905-0.49265 0.55466-0.95429 0.55466z"/><path d="m36.854 77.075-0.0034-0.52021c-0.05857 0.01378-0.19292 0.04134-0.29972 0.04134-0.2136 0-0.40997-0.06201-0.40997-0.44442v-2.3151h0.69591v-0.4892h-0.69591v-0.90606h-0.63734v0.90606h-0.68213v0.4892h0.68213v2.3117c0 0.74759 0.38585 0.99563 0.85783 0.99563 0.22738 0 0.39274-0.0379 0.49265-0.0689z"/><path d="m40.533 76.424-0.38585-0.30661c-0.23427 0.30661-0.53399 0.50643-0.98185 0.50643-0.67868 0-1.0852-0.54777-1.1059-1.2333h2.5218v-0.28594c0-1.0439-0.46509-1.8259-1.5331-1.8259-0.83716 0-1.6295 0.7028-1.6295 1.9189v0.14469c0 1.0508 0.67179 1.8018 1.7122 1.8018 0.73725 0 1.161-0.3514 1.4022-0.72002zm-1.4848-2.6217c0.65112 0 0.86472 0.52366 0.89573 1.0197v0.04823h-1.8638c0.08613-0.68902 0.46164-1.068 0.96807-1.068z"/><path d="m43.73 77.075h0.58567v-5.2917h-0.64079v1.9361c-0.2446-0.2825-0.58222-0.44097-1.0335-0.44097-0.88884 0-1.4745 0.76481-1.4745 1.9017v0.07235c0 1.0887 0.59256 1.8914 1.4676 1.8914 0.46853 0 0.81993-0.16881 1.0645-0.46853zm-1.9224-1.8225v-0.07235c0-0.7407 0.29628-1.3643 0.99219-1.3643 0.43753 0 0.71314 0.22393 0.87506 0.53054v1.7157c-0.16881 0.3135-0.43753 0.54088-0.88194 0.54088-0.68902 0-0.9853-0.60978-0.9853-1.3505z"/><path d="m48.632 77.075-0.0034-0.52021c-0.05857 0.01378-0.19293 0.04134-0.29972 0.04134-0.2136 0-0.40997-0.06201-0.40997-0.44442v-2.3151h0.69591v-0.4892h-0.69591v-0.90606h-0.63734v0.90606h-0.68213v0.4892h0.68213v2.3117c0 0.74759 0.38585 0.99563 0.85783 0.99563 0.22738 0 0.39274-0.0379 0.49265-0.0689z"/><path d="m49.125 75.252c0 1.0783 0.65112 1.8914 1.6984 1.8914 1.0439 0 1.695-0.81304 1.695-1.8914v-0.07924c0-1.0783-0.65112-1.8948-1.7019-1.8948-1.0404 0-1.6915 0.81649-1.6915 1.8948zm0.63734-0.07924c0-0.73036 0.3514-1.3711 1.0542-1.3711 0.70624 0 1.0611 0.64079 1.0611 1.3711v0.07924c0 0.7407-0.35484 1.3677-1.0542 1.3677-0.70969 0-1.0611-0.62701-1.0611-1.3677z"/><path d="m57.238 76.086c0 0.30661-0.2825 0.53399-0.80271 0.53399-0.39619 0-0.85783-0.16881-0.88539-0.69591h-0.64079c0 0.61667 0.53744 1.2196 1.5262 1.2196 0.86816 0 1.4401-0.45131 1.4401-1.1059 0-0.59945-0.42375-0.90262-1.3401-1.1128-0.7028-0.15847-0.85783-0.29972-0.85783-0.57533 0-0.27216 0.21015-0.54777 0.7407-0.54777 0.50298 0 0.78204 0.33418 0.78204 0.64079h0.63734c0-0.64079-0.5271-1.1644-1.4194-1.1644-0.83716 0-1.3815 0.49954-1.3815 1.0887 0 0.61323 0.51332 0.90262 1.3436 1.0749 0.73725 0.14814 0.85783 0.36862 0.85783 0.64423z"/><path d="m61.011 77.075h0.6649v-0.05512c-0.08613-0.19982-0.13091-0.50987-0.13091-0.75792v-1.7363c0-0.83371-0.57533-1.2471-1.3849-1.2471-0.90262 0-1.4814 0.56844-1.4814 1.1024h0.63734c0-0.31006 0.32384-0.58911 0.80615-0.58911 0.51676 0 0.78548 0.28594 0.78548 0.72692v0.29628h-0.63045c-1.0232 0-1.6778 0.42375-1.6778 1.223 0 0.62012 0.49954 1.1059 1.2609 1.1059 0.46164 0 0.82338-0.21015 1.0611-0.46164 0.01723 0.15158 0.04823 0.29972 0.08957 0.39274zm-1.0576-0.4892c-0.47198 0-0.71314-0.27905-0.71314-0.6339 0-0.46164 0.40997-0.68902 1.1403-0.68902h0.5271v0.76826c-0.1378 0.27905-0.49265 0.55466-0.95429 0.55466z"/><path d="m64.039 76.62c-0.79237 0-1.0197-0.68213-1.0197-1.3367v-0.14469c0-0.64768 0.23427-1.3367 1.0197-1.3367 0.50987 0 0.84405 0.36863 0.8785 0.82682h0.60634c-0.03445-0.76826-0.61323-1.3505-1.4848-1.3505-1.1197 0-1.6571 0.86128-1.6571 1.8604v0.14469c0 0.99908 0.53399 1.8604 1.6571 1.8604 0.78893 0 1.4504-0.58222 1.4848-1.2471h-0.60634c-0.03445 0.4203-0.42375 0.72347-0.8785 0.72347z"/><path d="m67.729 73.891c0.12058 0 0.20326 0.0069 0.31006 0.02756l0.0034-0.59256c-0.04479-0.02067-0.19292-0.04823-0.2825-0.04823-0.40652 0-0.69936 0.19293-0.88539 0.49609l-0.01378-0.42719h-0.62012v3.7276h0.63734v-2.6458c0.1378-0.32728 0.41686-0.53744 0.85094-0.53744z"/><path d="m68.635 72.358c0 0.19982 0.12747 0.35829 0.37552 0.35829 0.2446 0 0.37896-0.15847 0.37896-0.35829 0-0.20671-0.13436-0.36862-0.37896-0.36862-0.24805 0-0.37552 0.16192-0.37552 0.36862zm0.68902 0.98874h-0.64079v3.7276h0.64079z"/><path d="m71.959 73.836v-0.4892h-0.76137v-0.32384c0-0.49609 0.22393-0.7407 0.7717-0.7407 0.33073 0 0.61323 0.09302 0.82338 0.1757l0.1068-0.53744c-0.33417-0.12058-0.64423-0.21015-0.97496-0.21015-0.84405 0-1.3643 0.46509-1.3643 1.3126v0.32384h-0.58911v0.4892h0.58911v3.2384h0.63734v-3.2384zm1.254-0.4892h-0.63734v3.7276h0.63734z"/><path d="m75.749 76.62c-0.79237 0-1.0197-0.68213-1.0197-1.3367v-0.14469c0-0.64768 0.23427-1.3367 1.0197-1.3367 0.50988 0 0.84405 0.36863 0.8785 0.82682h0.60634c-0.03445-0.76826-0.61323-1.3505-1.4848-1.3505-1.1197 0-1.6571 0.86128-1.6571 1.8604v0.14469c0 0.99908 0.53399 1.8604 1.6571 1.8604 0.78893 0 1.4504-0.58222 1.4848-1.2471h-0.60634c-0.03445 0.4203-0.42375 0.72347-0.8785 0.72347z"/><path d="m80.899 76.424-0.38585-0.30661c-0.23427 0.30661-0.53399 0.50643-0.98185 0.50643-0.67868 0-1.0852-0.54777-1.1059-1.2333h2.5218v-0.28594c0-1.0439-0.46509-1.8259-1.5331-1.8259-0.83716 0-1.6295 0.7028-1.6295 1.9189v0.14469c0 1.0508 0.67179 1.8018 1.7122 1.8018 0.73725 0 1.161-0.3514 1.4022-0.72002zm-1.4848-2.6217c0.65112 0 0.86472 0.52366 0.89573 1.0197v0.04823h-1.8638c0.08613-0.68902 0.46164-1.068 0.96807-1.068z"/></g></g></svg>
