<svg width="4.9342in" height="6.918in" version="1.1" viewBox="0 0 125.33 175.72" xmlns="http://www.w3.org/2000/svg">
  <path d="m0-3.3216e-4h125.33v175.72h-125.33z" fill="#fff" stroke-width=".22791"/>
  <g transform="matrix(1.3918 0 0 1.3918 -4.4134 -3.6229)">
    <g transform="matrix(.79151 0 0 .79151 -29.875 -68.514)" stroke-width="1.2634">
      <g transform="matrix(.38199 0 0 .38199 24.224 -116.6)" opacity=".76" stroke="#000" stroke-width="0" style="shape-inside:url(#rect51);white-space:pre" aria-label="slave owner">
        <path d="m75.073 610.41q-0.34356 0-0.64278-0.11082-0.29922-0.0998-0.50979-0.28815-0.05541-0.1219-0.08866-0.41005-0.02217-0.28814-0.03325-0.47654 0-0.0997 0.14407-0.0997 0.04433 0 0.07758 0.0222 0.04433 0.0111 0.05541 0.0554 0.14407 0.54303 0.45438 0.77576 0.32139 0.23273 0.64278 0.23273t0.54304-0.21056q0.23273-0.22165 0.23273-0.54304 0-0.29922-0.19948-0.50979-0.19948-0.22165-0.69819-0.53195-0.3768-0.23273-0.60953-0.4433t-0.34355-0.43221q-0.09974-0.22165-0.09974-0.49871 0-0.35464 0.16624-0.64278t0.49871-0.45438q0.33247-0.17732 0.83118-0.17732 0.33247 0 0.55412 0.0665t0.33247 0.14407q0.08866 0.1219 0.14407 0.38788 0.0665 0.2549 0.0665 0.48763 0 0.0776-0.11082 0.0776-0.06649 0-0.13299-0.0222-0.05541-0.0332-0.07758-0.0776-0.14407-0.36572-0.36572-0.55412-0.21057-0.19948-0.53196-0.19948-0.27706 0-0.49871 0.16624-0.21057 0.16623-0.21057 0.48762 0 0.2549 0.15515 0.45438 0.16624 0.19948 0.60953 0.45438 0.64278 0.36572 0.95309 0.68711 0.32139 0.3103 0.32139 0.83118 0 0.59845-0.45438 0.97525t-1.1747 0.3768z"/>
        <path d="m77.489 610.29q-0.05541 0-0.14407-0.0222-0.07758-0.0111-0.07758-0.0776 0-0.0887 0.07758-0.1219 0.08866-0.0443 0.17732-0.0776 0.16624-0.0554 0.32139-0.12191 0.15515-0.0776 0.15515-0.29922v-5.5855q0-0.32139-0.12191-0.53196-0.11082-0.22165-0.38788-0.27706-0.08866-0.0222-0.08866-0.14407 0-0.11082 0.07758-0.13299 0.28814-0.0665 0.49871-0.13299 0.21057-0.0776 0.38788-0.15515 0.1884-0.0776 0.36572-0.14407 0.04433-0.0222 0.06649-0.0222 0.02217 0 0.03325 0.0332 0.02217 0.0222 0.02217 0.0443 0 0.0997-0.04433 0.43221-0.03325 0.32139-0.03325 1.075v5.5412q0 0.22165 0.15515 0.29922 0.15515 0.0665 0.32139 0.12191 0.08866 0.0333 0.16624 0.0776 0.08866 0.0332 0.08866 0.1219 0 0.0665-0.08866 0.0776-0.07758 0.0222-0.13299 0.0222-0.21056 0-0.34355-0.0222-0.12191-0.0111-0.24381-0.0222-0.11082-0.0111-0.31031-0.0111-0.1884 0-0.31031 0.0111t-0.24381 0.0222q-0.12191 0.0222-0.34355 0.0222z"/>
        <path d="m81.013 610.41q-0.19948 0-0.41005-0.15515-0.19948-0.15516-0.34356-0.37681-0.13299-0.22164-0.13299-0.42113 0-0.35463 0.1884-0.55412 0.1884-0.19948 0.59845-0.36572l1.1304-0.46546q0.22165-0.0887 0.2549-0.15515 0.04433-0.0665 0.05541-0.28814l0.02217-0.70928q0.01108-0.28814-0.16624-0.4987-0.16624-0.21057-0.48763-0.21057-0.16624 0-0.33247 0.0554t-0.27706 0.14407q-0.06649 0.0443-0.08866 0.13299-0.02217 0.0887-0.02217 0.1884 0 0.0443 0 0.0997 0.01108 0.0554 0.01108 0.0997 0 0.0554-0.14407 0.15515-0.13299 0.0887-0.31031 0.16624-0.16624 0.0665-0.27706 0.0665-0.05541 0-0.08866-0.0222-0.03325-0.0333-0.03325-0.0776 0-0.17732 0.11082-0.3768 0.12191-0.21057 0.33247-0.38789 0.2549-0.23273 0.55412-0.41005 0.29922-0.17731 0.58737-0.27706 0.28814-0.0997 0.50979-0.0997 0.39897 0 0.65386 0.28814 0.26598 0.27706 0.2549 0.6982l-0.05541 2.6598q-0.01108 0.23273 0.09974 0.3768 0.12191 0.14407 0.29922 0.14407 0.27706 0 0.41005-0.1219 0.05541-0.0554 0.08866-0.0554 0.05541 0 0.08866 0.0332t0.03325 0.0887q0 0.12191-0.12191 0.24382-0.17732 0.17731-0.38788 0.27706-0.19948 0.11082-0.3768 0.11082-0.50979 0-0.80902-0.57629h-0.03325q-0.36572 0.29923-0.69819 0.43222-0.33247 0.14407-0.68711 0.14407zm0.52087-0.53196q0.22165 0 0.3768-0.0665 0.15515-0.0776 0.27706-0.19948 0.05541-0.0554 0.08866-0.14407 0.04433-0.0997 0.05541-0.31031l0.02217-0.54304q0.01108-0.12191-0.01108-0.17732-0.02216-0.0554-0.08866-0.0554-0.02217 0-0.07758 0.0111t-0.14407 0.0443q-0.58737 0.21057-0.8201 0.4433-0.22165 0.22165-0.22165 0.41005 0 0.28814 0.16624 0.44329 0.17732 0.14407 0.3768 0.14407z"/>
        <path d="m86.288 610.49q-0.04433 0-0.11082-0.17732-0.06649-0.16624-0.08866-0.24381-0.07758-0.18841-0.14407-0.38789-0.06649-0.21056-0.13299-0.38788-0.24381-0.68711-0.53196-1.341-0.27706-0.66495-0.54304-1.341-0.07758-0.19949-0.24381-0.35464-0.15515-0.16624-0.32139-0.21057-0.08866-0.0332-0.14407-0.0665t-0.05541-0.11082q0-0.0665 0.07758-0.0776 0.08866-0.0222 0.14407-0.0222 0.22165 0 0.32139 0.0111t0.19948 0.0332q0.09974 0.0111 0.28814 0.0111 0.19948 0 0.29922-0.0111 0.09974-0.0222 0.21057-0.0332 0.11082-0.0111 0.32139-0.0111 0.05541 0 0.13299 0.0222 0.08866 0.0111 0.08866 0.0776 0 0.0776-0.07758 0.1219t-0.17732 0.0776q-0.11082 0.0443-0.16624 0.17732-0.05541 0.1219-0.05541 0.27706 0 0.0776 0.01108 0.15515 0.01108 0.0776 0.03325 0.14407l0.87551 2.3273q0.01108 0.0111 0.01108 0.0111 0.01108 0 0.02217-0.0111l0.84226-2.1611q0.04433-0.11083 0.0665-0.23273 0.02217-0.13299 0.02217-0.22165 0-0.22165-0.0665-0.31031-0.06649-0.0997-0.22165-0.15515-0.14407-0.0554-0.19948-0.0887t-0.05541-0.11082q0-0.0665 0.06649-0.0776 0.07758-0.0222 0.15515-0.0222 0.12191 0 0.32139 0.0333 0.19948 0.0222 0.48762 0.0222t0.38788-0.0222q0.11082-0.0333 0.26598-0.0333 0.08866 0 0.15515 0.0222 0.0665 0.0111 0.0665 0.0776 0 0.1219-0.2549 0.19948-0.16624 0.0443-0.36572 0.25489-0.19948 0.21057-0.32139 0.48763l-0.86443 2.0835q-0.02217 0.0443-0.08866 0.22165-0.06649 0.16623-0.14407 0.3768-0.07758 0.19948-0.13299 0.35464-0.05541 0.14407-0.05541 0.14407t-0.04433 0.11082q-0.04433 0.0997-0.09974 0.21057-0.05541 0.1219-0.09974 0.17732z"/>
        <path d="m90.854 610.42q-0.60953 0-1.0639-0.29922-0.45438-0.29923-0.70927-0.84227-0.2549-0.55412-0.2549-1.2745 0-0.64278 0.28814-1.1636 0.29922-0.53196 0.78685-0.85335t1.0639-0.32139q0.4433 0 0.78685 0.17732 0.34356 0.17732 0.53196 0.49871 0.19948 0.31031 0.19948 0.72035 0 0.34356-0.33247 0.34356h-2.3384q-0.15515 0-0.22165 0.0887-0.05541 0.0776-0.05541 0.32139 0 0.53195 0.23273 0.97525 0.23273 0.43221 0.62061 0.69819 0.38788 0.2549 0.85334 0.2549 0.33247 0 0.59845-0.12191 0.27706-0.13299 0.48763-0.3768 0.04433-0.0554 0.06649-0.0665 0.02217-0.0222 0.05541-0.0222 0.08866 0 0.08866 0.11082 0 0.21057-0.19948 0.46546-0.16624 0.21057-0.39897 0.36572-0.23273 0.15516-0.50979 0.23273-0.27706 0.0887-0.57628 0.0887zm-1.0196-3.358h1.0085q0.26598 0 0.45438-0.0111t0.36572-0.0443q0.05541-0.0111 0.06649-0.0665 0.02217-0.0665 0.02217-0.17732 0-0.32139-0.28814-0.54304-0.27706-0.23273-0.66494-0.23273-0.2549 0-0.50979 0.15516-0.2549 0.14407-0.42113 0.36571-0.16624 0.22165-0.16624 0.4433 0 0.11082 0.13299 0.11082z"/>
        <path d="m72.347 624.26q-0.62061 0-1.1193-0.28815-0.49871-0.28814-0.79793-0.78685-0.28814-0.50979-0.28814-1.1526 0-0.46546 0.17732-0.90875 0.1884-0.4433 0.52087-0.80902t0.77577-0.57628q0.4433-0.22165 0.95309-0.22165 0.64278 0 1.1526 0.31031 0.52087 0.3103 0.8201 0.82009 0.31031 0.49871 0.31031 1.0972 0 0.64278-0.28814 1.2191-0.27706 0.57628-0.83118 0.942-0.55412 0.35464-1.3853 0.35464zm0.23273-0.33248q0.3768 0 0.67603-0.14407t0.46546-0.46546q0.13299-0.25489 0.17732-0.62061t0.04433-0.68711q0-0.53196-0.19948-1.0196-0.1884-0.49871-0.54304-0.80902-0.34355-0.32139-0.8201-0.32139-0.29922 0-0.54304 0.0997-0.23273 0.0887-0.43221 0.34355-0.22165 0.27706-0.28814 0.67603-0.06649 0.39896-0.06649 0.79793 0 0.54304 0.19948 1.0417 0.19948 0.48763 0.54304 0.79794 0.34356 0.3103 0.78685 0.3103z"/>
        <path d="m77.578 624.36q-0.02217 0-0.04433-0.0222t-0.03325-0.0554l-1.5405-3.8234q-0.07758-0.22164-0.24381-0.35463-0.16624-0.14407-0.33247-0.1884-0.08866-0.0333-0.17732-0.0776-0.07758-0.0443-0.07758-0.12191 0-0.0665 0.07758-0.0776 0.08866-0.0222 0.14407-0.0222 0.14407 0 0.26598 0.0111 0.13299 0.0111 0.26598 0.0333 0.13299 0.0111 0.27706 0.0111 0.15515 0 0.31031-0.0111 0.15515-0.0222 0.29922-0.0333 0.15515-0.0111 0.31031-0.0111 0.04433 0 0.13299 0.0222 0.08866 0.0111 0.08866 0.0776 0 0.0776-0.08866 0.12191-0.07758 0.0443-0.16624 0.0776-0.11082 0.0332-0.17732 0.16623-0.05541 0.12191-0.05541 0.27706 0 0.14407 0.05541 0.28814l0.86443 2.2276q0.01108 0.0443 0.05541 0.0443t0.05541-0.0443l0.7536-1.7954q0.05541-0.14407 0.06649-0.27706 0.02216-0.13299 0.02216-0.2549 0-0.24381-0.1884-0.39896-0.1884-0.15516-0.3768-0.23273-0.08866-0.0333-0.17732-0.0776-0.07758-0.0443-0.07758-0.12191 0-0.0665 0.07758-0.0776 0.07758-0.0222 0.14407-0.0222 0.15515 0 0.33247 0.0333 0.1884 0.0222 0.49871 0.0222t0.53196-0.0222q0.22165-0.0333 0.39897-0.0333 0.05541 0 0.13299 0.0222 0.08866 0.0111 0.08866 0.0776 0 0.0776-0.08866 0.12191-0.07758 0.0443-0.16624 0.0776-0.12191 0.0443-0.2549 0.1219-0.12191 0.0776-0.12191 0.27706 0 0.0665 0.01108 0.15516 0.02216 0.0776 0.06649 0.17731l0.83118 2.1389q0.05541 0.1219 0.08866 0.1219 0.04433 0 0.08866-0.11082l0.84226-1.9616q0.04433-0.0887 0.05541-0.22165 0.02216-0.13299 0.02216-0.21057 0-0.19948-0.13299-0.32139-0.13299-0.1219-0.2549-0.16623-0.08866-0.0333-0.17732-0.0776-0.07758-0.0443-0.07758-0.12191 0-0.0665 0.07758-0.0776 0.08866-0.0222 0.14407-0.0222 0.24381 0 0.38788 0.0333 0.14407 0.0222 0.4433 0.0222 0.21057 0 0.29922-0.0111 0.08866-0.0222 0.15515-0.0333t0.1884-0.0111q0.06649 0 0.14407 0.0222 0.07758 0.0111 0.07758 0.0776 0 0.0776-0.08866 0.12191-0.07758 0.0443-0.16624 0.0776-0.16624 0.0443-0.32139 0.26597-0.15515 0.21057-0.26598 0.46546l-1.5183 3.635q-0.03325 0.0776-0.09974 0.0776-0.04433 0-0.08866-0.0776l-1.1526-2.8593q-0.03325-0.0887-0.06649-0.0997-0.03325 0-0.07758 0.11082l-1.208 2.8482q-0.03325 0.0776-0.08866 0.0776z"/>
        <path d="m83.152 624.14q-0.09974 0-0.16624-0.0333-0.05541-0.0222-0.05541-0.0887 0-0.0887 0.06649-0.11082 0.06649-0.0332 0.1884-0.0665 0.16624-0.0443 0.32139-0.12191 0.15515-0.0776 0.15515-0.29923v-2.3827q0-0.29923-0.0665-0.50979-0.05541-0.21057-0.34355-0.28814-0.04433-0.0222-0.07758-0.0443-0.03325-0.0333-0.03325-0.0998 0-0.1219 0.09974-0.13298 0.38788-0.0997 0.6317-0.24382 0.24381-0.14407 0.47654-0.32139 0.03325-0.0222 0.05541-0.0332 0.03325-0.0222 0.06649-0.0222 0.02217 0 0.03325 0.0222 0.02217 0.0222 0.02217 0.0554 0 0.0776-0.03325 0.32139-0.02217 0.23273-0.02217 0.38788 0 0.0443 0 0.0887 0.01108 0.0332 0.02217 0.0443 0.38788-0.36572 0.8201-0.55412 0.4433-0.1884 0.96417-0.1884 0.54304 0 0.89768 0.4433 0.35464 0.44329 0.35464 1.0972v2.3606q0 0.22165 0.15515 0.29923 0.15515 0.0665 0.32139 0.12191 0.08866 0.0332 0.16624 0.0776 0.08866 0.0333 0.08866 0.12191 0 0.0665-0.07758 0.0776-0.07758 0.0222-0.14407 0.0222-0.22165 0-0.34356-0.0222-0.12191-0.0111-0.23273-0.0222t-0.31031-0.0111q-0.1884 0-0.31031 0.0111t-0.2549 0.0222q-0.12191 0.0222-0.34355 0.0222-0.05541 0-0.14407-0.0222-0.07758-0.0111-0.07758-0.0776 0-0.0887 0.07758-0.12191 0.08866-0.0443 0.17732-0.0776 0.16624-0.0554 0.32139-0.12191 0.15515-0.0776 0.15515-0.29923v-2.3273q0-0.48763-0.27706-0.7536-0.26598-0.27706-0.72036-0.28815-0.39897 0-0.69819 0.13299-0.29922 0.12191-0.53196 0.31031-0.04433 0.0443-0.06649 0.12191-0.02217 0.0665-0.02217 0.13299v2.6708q0 0.22165 0.15515 0.29923 0.15515 0.0776 0.32139 0.12191 0.2549 0.0665 0.2549 0.17731 0 0.0665-0.05541 0.0887-0.05541 0.0333-0.16624 0.0333-0.22165 0-0.35464-0.0222-0.12191-0.0111-0.23273-0.0222t-0.31031-0.0111q-0.1884 0-0.31031 0.0111-0.11082 0.0111-0.24381 0.0222-0.12191 0.0222-0.34356 0.0222z"/>
        <path d="m90.876 624.27q-0.60953 0-1.0639-0.29923-0.45438-0.29922-0.70927-0.84226-0.2549-0.55412-0.2549-1.2745 0-0.64278 0.28814-1.1637 0.29922-0.53195 0.78685-0.85334 0.48762-0.32139 1.0639-0.32139 0.4433 0 0.78685 0.17732t0.53196 0.49871q0.19948 0.3103 0.19948 0.72035 0 0.34356-0.33247 0.34356h-2.3384q-0.15515 0-0.22165 0.0887-0.05541 0.0776-0.05541 0.32139 0 0.53195 0.23273 0.97525 0.23273 0.43221 0.62061 0.69819 0.38788 0.25489 0.85334 0.25489 0.33247 0 0.59845-0.1219 0.27706-0.13299 0.48762-0.37681 0.04433-0.0554 0.06649-0.0665 0.02217-0.0222 0.05541-0.0222 0.08866 0 0.08866 0.11082 0 0.21057-0.19948 0.46546-0.16624 0.21057-0.39897 0.36572t-0.50979 0.23273q-0.27706 0.0887-0.57628 0.0887zm-1.0196-3.358h1.0085q0.26598 0 0.45438-0.0111t0.36572-0.0443q0.05541-0.0111 0.0665-0.0665 0.02217-0.0665 0.02217-0.17732 0-0.32139-0.28814-0.54304-0.27706-0.23273-0.66494-0.23273-0.2549 0-0.50979 0.15515-0.2549 0.14407-0.42113 0.36572t-0.16624 0.4433q0 0.11082 0.13299 0.11082z"/>
        <path d="m93.381 624.14q-0.11082 0-0.16624-0.0333-0.05541-0.0222-0.05541-0.0887 0-0.0887 0.06649-0.11082 0.06649-0.0332 0.1884-0.0665 0.21057-0.0554 0.31031-0.15516 0.11082-0.11082 0.11082-0.26598v-2.3827q0-0.29923-0.08866-0.52087-0.08866-0.22165-0.36572-0.27706-0.04433-0.0111-0.07758-0.0554t-0.03325-0.0887q0-0.11082 0.09974-0.13298 0.28814-0.0887 0.59845-0.2549 0.32139-0.17732 0.49871-0.28814 0.0665-0.0443 0.09974-0.0554 0.04433-0.0222 0.06649-0.0222 0.05541 0 0.05541 0.0776 0 0.0333-0.01108 0.16623 0 0.13299-0.01108 0.31031 0 0.17732-0.01108 0.35464 0 0.0222 0.02216 0.0222 0.17732-0.22165 0.38788-0.38788 0.22165-0.16624 0.4433-0.26598 0.23273-0.0997 0.4433-0.0997 0.23273 0 0.3768 0.0997 0.15515 0.0997 0.15515 0.2549 0 0.11082-0.06649 0.24381-0.05541 0.13299-0.15515 0.23273-0.09974 0.0997-0.21057 0.0997-0.06649 0-0.14407-0.0222-0.07758-0.0332-0.16624-0.0776-0.08866-0.0332-0.17732-0.0665t-0.17732-0.0333q-0.26598 0-0.52087 0.1884-0.24381 0.1884-0.24381 0.74252v2.2386q0 0.14408 0.15515 0.24382 0.15515 0.0887 0.43221 0.17732 0.12191 0.0332 0.1884 0.0665 0.06649 0.0332 0.06649 0.11082 0 0.12191-0.22165 0.12191-0.33247 0-0.50979-0.0333-0.16624-0.0222-0.45438-0.0222-0.1884 0-0.31031 0.0111-0.11082 0.0111-0.24381 0.0222-0.12191 0.0222-0.34355 0.0222z"/>
      </g>
      <g transform="matrix(.38199 0 0 .38199 112.71 -117.87)" opacity=".76" stroke="#000" stroke-width="0" style="shape-inside:url(#rect52);white-space:pre" aria-label="slave trader">
        <path d="m72.656 610.41q-0.34356 0-0.64278-0.11082-0.29922-0.0998-0.50979-0.28815-0.05541-0.1219-0.08866-0.41005-0.02217-0.28814-0.03325-0.47654 0-0.0997 0.14407-0.0997 0.04433 0 0.07758 0.0222 0.04433 0.0111 0.05541 0.0554 0.14407 0.54303 0.45438 0.77576 0.32139 0.23273 0.64278 0.23273t0.54304-0.21056q0.23273-0.22165 0.23273-0.54304 0-0.29922-0.19948-0.50979-0.19948-0.22165-0.69819-0.53195-0.3768-0.23273-0.60953-0.4433t-0.34356-0.43221q-0.09974-0.22165-0.09974-0.49871 0-0.35464 0.16624-0.64278t0.49871-0.45438q0.33247-0.17732 0.83118-0.17732 0.33247 0 0.55412 0.0665t0.33247 0.14407q0.08866 0.1219 0.14407 0.38788 0.06649 0.2549 0.06649 0.48763 0 0.0776-0.11082 0.0776-0.06649 0-0.13299-0.0222-0.05541-0.0332-0.07758-0.0776-0.14407-0.36572-0.36572-0.55412-0.21057-0.19948-0.53196-0.19948-0.27706 0-0.49871 0.16624-0.21056 0.16623-0.21056 0.48762 0 0.2549 0.15515 0.45438 0.16624 0.19948 0.60953 0.45438 0.64278 0.36572 0.95309 0.68711 0.32139 0.3103 0.32139 0.83118 0 0.59845-0.45438 0.97525t-1.1747 0.3768z"/>
        <path d="m75.072 610.29q-0.05541 0-0.14407-0.0222-0.07758-0.0111-0.07758-0.0776 0-0.0887 0.07758-0.1219 0.08866-0.0443 0.17732-0.0776 0.16624-0.0554 0.32139-0.12191 0.15515-0.0776 0.15515-0.29922v-5.5855q0-0.32139-0.12191-0.53196-0.11082-0.22165-0.38788-0.27706-0.08866-0.0222-0.08866-0.14407 0-0.11082 0.07758-0.13299 0.28814-0.0665 0.49871-0.13299 0.21057-0.0776 0.38788-0.15515 0.1884-0.0776 0.36572-0.14407 0.04433-0.0222 0.0665-0.0222 0.02216 0 0.03325 0.0332 0.02217 0.0222 0.02217 0.0443 0 0.0997-0.04433 0.43221-0.03325 0.32139-0.03325 1.075v5.5412q0 0.22165 0.15515 0.29922 0.15515 0.0665 0.32139 0.12191 0.08866 0.0333 0.16624 0.0776 0.08866 0.0332 0.08866 0.1219 0 0.0665-0.08866 0.0776-0.07758 0.0222-0.13299 0.0222-0.21056 0-0.34355-0.0222-0.12191-0.0111-0.24381-0.0222-0.11082-0.0111-0.31031-0.0111-0.1884 0-0.31031 0.0111t-0.24381 0.0222q-0.12191 0.0222-0.34356 0.0222z"/>
        <path d="m78.596 610.41q-0.19948 0-0.41005-0.15515-0.19948-0.15516-0.34355-0.37681-0.13299-0.22164-0.13299-0.42113 0-0.35463 0.1884-0.55412 0.1884-0.19948 0.59845-0.36572l1.1304-0.46546q0.22165-0.0887 0.2549-0.15515 0.04433-0.0665 0.05541-0.28814l0.02217-0.70928q0.01108-0.28814-0.16624-0.4987-0.16624-0.21057-0.48763-0.21057-0.16624 0-0.33247 0.0554t-0.27706 0.14407q-0.0665 0.0443-0.08866 0.13299-0.02217 0.0887-0.02217 0.1884 0 0.0443 0 0.0997 0.01108 0.0554 0.01108 0.0997 0 0.0554-0.14407 0.15515-0.13299 0.0887-0.31031 0.16624-0.16624 0.0665-0.27706 0.0665-0.05541 0-0.08866-0.0222-0.03325-0.0333-0.03325-0.0776 0-0.17732 0.11082-0.3768 0.12191-0.21057 0.33247-0.38789 0.2549-0.23273 0.55412-0.41005 0.29922-0.17731 0.58737-0.27706 0.28814-0.0997 0.50979-0.0997 0.39897 0 0.65386 0.28814 0.26598 0.27706 0.2549 0.6982l-0.05541 2.6598q-0.01108 0.23273 0.09974 0.3768 0.12191 0.14407 0.29922 0.14407 0.27706 0 0.41005-0.1219 0.05541-0.0554 0.08866-0.0554 0.05541 0 0.08866 0.0332t0.03325 0.0887q0 0.12191-0.12191 0.24382-0.17732 0.17731-0.38788 0.27706-0.19948 0.11082-0.3768 0.11082-0.50979 0-0.80902-0.57629h-0.03325q-0.36572 0.29923-0.69819 0.43222-0.33247 0.14407-0.68711 0.14407zm0.52087-0.53196q0.22165 0 0.3768-0.0665 0.15515-0.0776 0.27706-0.19948 0.05541-0.0554 0.08866-0.14407 0.04433-0.0997 0.05541-0.31031l0.02217-0.54304q0.01108-0.12191-0.01108-0.17732-0.02216-0.0554-0.08866-0.0554-0.02217 0-0.07758 0.0111t-0.14407 0.0443q-0.58737 0.21057-0.8201 0.4433-0.22165 0.22165-0.22165 0.41005 0 0.28814 0.16624 0.44329 0.17732 0.14407 0.3768 0.14407z"/>
        <path d="m83.871 610.49q-0.04433 0-0.11082-0.17732-0.0665-0.16624-0.08866-0.24381-0.07758-0.18841-0.14407-0.38789-0.06649-0.21056-0.13299-0.38788-0.24381-0.68711-0.53196-1.341-0.27706-0.66495-0.54304-1.341-0.07758-0.19949-0.24381-0.35464-0.15515-0.16624-0.32139-0.21057-0.08866-0.0332-0.14407-0.0665t-0.05541-0.11082q0-0.0665 0.07758-0.0776 0.08866-0.0222 0.14407-0.0222 0.22165 0 0.32139 0.0111t0.19948 0.0332q0.09974 0.0111 0.28814 0.0111 0.19948 0 0.29922-0.0111 0.09974-0.0222 0.21057-0.0332 0.11082-0.0111 0.32139-0.0111 0.05541 0 0.13299 0.0222 0.08866 0.0111 0.08866 0.0776 0 0.0776-0.07758 0.1219t-0.17732 0.0776q-0.11082 0.0443-0.16624 0.17732-0.05541 0.1219-0.05541 0.27706 0 0.0776 0.01108 0.15515 0.01108 0.0776 0.03325 0.14407l0.87551 2.3273q0.01108 0.0111 0.01108 0.0111 0.01108 0 0.02217-0.0111l0.84226-2.1611q0.04433-0.11083 0.0665-0.23273 0.02216-0.13299 0.02216-0.22165 0-0.22165-0.06649-0.31031-0.06649-0.0997-0.22165-0.15515-0.14407-0.0554-0.19948-0.0887t-0.05541-0.11082q0-0.0665 0.06649-0.0776 0.07758-0.0222 0.15515-0.0222 0.12191 0 0.32139 0.0333 0.19948 0.0222 0.48763 0.0222t0.38788-0.0222q0.11082-0.0333 0.26598-0.0333 0.08866 0 0.15515 0.0222 0.0665 0.0111 0.0665 0.0776 0 0.1219-0.2549 0.19948-0.16624 0.0443-0.36572 0.25489-0.19948 0.21057-0.32139 0.48763l-0.86443 2.0835q-0.02216 0.0443-0.08866 0.22165-0.06649 0.16623-0.14407 0.3768-0.07758 0.19948-0.13299 0.35464-0.05541 0.14407-0.05541 0.14407t-0.04433 0.11082q-0.04433 0.0997-0.09974 0.21057-0.05541 0.1219-0.09974 0.17732z"/>
        <path d="m88.437 610.42q-0.60953 0-1.0639-0.29922-0.45438-0.29923-0.70927-0.84227-0.2549-0.55412-0.2549-1.2745 0-0.64278 0.28814-1.1636 0.29922-0.53196 0.78685-0.85335t1.0639-0.32139q0.4433 0 0.78685 0.17732t0.53196 0.49871q0.19948 0.31031 0.19948 0.72035 0 0.34356-0.33247 0.34356h-2.3384q-0.15515 0-0.22165 0.0887-0.05541 0.0776-0.05541 0.32139 0 0.53195 0.23273 0.97525 0.23273 0.43221 0.62062 0.69819 0.38788 0.2549 0.85334 0.2549 0.33247 0 0.59845-0.12191 0.27706-0.13299 0.48763-0.3768 0.04433-0.0554 0.06649-0.0665 0.02217-0.0222 0.05541-0.0222 0.08866 0 0.08866 0.11082 0 0.21057-0.19948 0.46546-0.16624 0.21057-0.39897 0.36572-0.23273 0.15516-0.50979 0.23273-0.27706 0.0887-0.57628 0.0887zm-1.0196-3.358h1.0085q0.26598 0 0.45438-0.0111t0.36572-0.0443q0.05541-0.0111 0.06649-0.0665 0.02217-0.0665 0.02217-0.17732 0-0.32139-0.28814-0.54304-0.27706-0.23273-0.66494-0.23273-0.2549 0-0.50979 0.15516-0.2549 0.14407-0.42113 0.36571-0.16624 0.22165-0.16624 0.4433 0 0.11082 0.13299 0.11082z"/>
        <path d="m70.207 624.26q-0.54304 0-0.85334-0.33248-0.29922-0.33247-0.29922-0.98633v-2.5711q0-0.0886-0.0665-0.1219-0.06649-0.0443-0.28814-0.0443h-0.06649q-0.05541 0-0.09974-0.0665-0.03325-0.0776-0.03325-0.15515 0-0.0222 0.03325-0.0665t0.04433-0.0554q0.22165-0.15515 0.39897-0.3103 0.1884-0.15516 0.33247-0.29923 0.15515-0.15515 0.2549-0.27706 0.05541-0.0554 0.08866-0.0887 0.04433-0.0443 0.09974-0.0443t0.09974 0.0222q0.05541 0.0222 0.04433 0.0997l-0.05541 0.49871q-0.01108 0.1219 0.05541 0.16623 0.0665 0.0443 0.21057 0.0443h1.2634q0.04433 0 0.07758 0.0776 0.03325 0.0665 0.03325 0.16624 0 0.0997-0.03325 0.19948-0.03325 0.0887-0.07758 0.0887h-1.0972q-0.27706 0-0.36572 0.0443-0.07758 0.0443-0.07758 0.26598v2.1832q0 0.44329 0.1884 0.69819 0.1884 0.25489 0.54304 0.25489 0.32139 0 0.49871-0.0443 0.17732-0.0554 0.32139-0.15516 0.02217-0.0222 0.04433-0.0222 0.04433 0 0.05541 0.0554 0.02217 0.0443 0.02217 0.0997t-0.1884 0.22165q-0.17732 0.16623-0.47654 0.31031-0.28814 0.14407-0.6317 0.14407z"/>
        <path d="m72.135 624.14q-0.11082 0-0.16624-0.0333-0.05541-0.0222-0.05541-0.0887 0-0.0887 0.06649-0.11082 0.0665-0.0332 0.1884-0.0665 0.21057-0.0554 0.31031-0.15516 0.11082-0.11082 0.11082-0.26598v-2.3827q0-0.29923-0.08866-0.52087-0.08866-0.22165-0.36572-0.27706-0.04433-0.0111-0.07758-0.0554t-0.03325-0.0887q0-0.11082 0.09974-0.13298 0.28814-0.0887 0.59845-0.2549 0.32139-0.17732 0.49871-0.28814 0.0665-0.0443 0.09974-0.0554 0.04433-0.0222 0.06649-0.0222 0.05541 0 0.05541 0.0776 0 0.0333-0.01108 0.16623 0 0.13299-0.01108 0.31031 0 0.17732-0.01108 0.35464 0 0.0222 0.02217 0.0222 0.17732-0.22165 0.38788-0.38788 0.22165-0.16624 0.4433-0.26598 0.23273-0.0997 0.4433-0.0997 0.23273 0 0.3768 0.0997 0.15515 0.0997 0.15515 0.2549 0 0.11082-0.06649 0.24381-0.05541 0.13299-0.15515 0.23273-0.09974 0.0997-0.21057 0.0997-0.06649 0-0.14407-0.0222-0.07758-0.0332-0.16624-0.0776-0.08866-0.0332-0.17732-0.0665t-0.17732-0.0333q-0.26598 0-0.52087 0.1884-0.24381 0.1884-0.24381 0.74252v2.2386q0 0.14408 0.15515 0.24382 0.15515 0.0887 0.43221 0.17732 0.12191 0.0332 0.1884 0.0665 0.06649 0.0332 0.06649 0.11082 0 0.12191-0.22165 0.12191-0.33247 0-0.50979-0.0333-0.16624-0.0222-0.45438-0.0222-0.1884 0-0.31031 0.0111-0.11082 0.0111-0.24381 0.0222-0.12191 0.0222-0.34355 0.0222z"/>
        <path d="m76.59 624.26q-0.19948 0-0.41005-0.15516-0.19948-0.15515-0.34355-0.3768-0.13299-0.22165-0.13299-0.42113 0-0.35464 0.1884-0.55412t0.59845-0.36572l1.1304-0.46546q0.22165-0.0887 0.2549-0.15515 0.04433-0.0665 0.05541-0.28815l0.02217-0.70927q0.01108-0.28814-0.16624-0.49871-0.16624-0.21056-0.48763-0.21056-0.16624 0-0.33247 0.0554t-0.27706 0.14407q-0.06649 0.0443-0.08866 0.13299-0.02217 0.0887-0.02217 0.1884 0 0.0443 0 0.0997 0.01108 0.0554 0.01108 0.0997 0 0.0554-0.14407 0.15516-0.13299 0.0887-0.31031 0.16623-0.16624 0.0665-0.27706 0.0665-0.05541 0-0.08866-0.0222-0.03325-0.0332-0.03325-0.0776 0-0.17732 0.11082-0.37681 0.12191-0.21056 0.33247-0.38788 0.2549-0.23273 0.55412-0.41005t0.58737-0.27706q0.28814-0.0997 0.50979-0.0997 0.39897 0 0.65386 0.28814 0.26598 0.27706 0.2549 0.69819l-0.05541 2.6598q-0.01108 0.23273 0.09974 0.3768 0.12191 0.14407 0.29922 0.14407 0.27706 0 0.41005-0.1219 0.05541-0.0554 0.08866-0.0554 0.05541 0 0.08866 0.0332 0.03325 0.0333 0.03325 0.0887 0 0.12191-0.12191 0.24381-0.17732 0.17732-0.38788 0.27706-0.19948 0.11083-0.3768 0.11083-0.50979 0-0.80902-0.57629h-0.03325q-0.36572 0.29923-0.69819 0.43222-0.33247 0.14407-0.68711 0.14407zm0.52087-0.53196q0.22165 0 0.3768-0.0665 0.15515-0.0776 0.27706-0.19949 0.05541-0.0554 0.08866-0.14407 0.04433-0.0997 0.05541-0.3103l0.02217-0.54304q0.01108-0.12191-0.01108-0.17732-0.02217-0.0554-0.08866-0.0554-0.02217 0-0.07758 0.0111t-0.14407 0.0443q-0.58737 0.21057-0.8201 0.4433-0.22165 0.22164-0.22165 0.41004 0 0.28815 0.16624 0.4433 0.17732 0.14407 0.3768 0.14407z"/>
        <path d="m83.672 624.32q-0.02217 0-0.07758-0.0443-0.04433-0.0443-0.04433-0.0665 0-0.11082 0.02217-0.3103 0.03325-0.21057 0.03325-0.35464v-0.0665q-0.16624 0.25489-0.53196 0.52087t-0.91984 0.26598q-0.6317 0-1.0972-0.33248-0.45438-0.33247-0.70927-0.85334-0.24381-0.52087-0.24381-1.075 0-0.64278 0.29922-1.208 0.29922-0.56521 0.85334-0.91984 0.5652-0.35464 1.341-0.35464 0.22165 0 0.4433 0.0443 0.23273 0.0332 0.35464 0.0776 0.09974 0.0332 0.14407 0.0332 0.07758 0 0.07758-0.26597v-1.5737q0-0.45437-0.14407-0.60953-0.14407-0.15515-0.41005-0.19948-0.09974-0.0222-0.09974-0.14407 0-0.0997 0.08866-0.13299 0.48763-0.12191 0.76469-0.23273t0.43221-0.17732q0.04433-0.0222 0.07758-0.0222 0.04433-0.0111 0.0665-0.0111 0.06649 0 0.07758 0.0665 0 0.0665-0.02216 0.23273-0.01108 0.15515-0.03325 0.46546-0.02216 0.31031-0.02216 0.80901v5.0092q0 0.3768 0.05541 0.55412 0.05541 0.16624 0.17732 0.16624 0.05541 0 0.1884-0.0111 0.14407-0.0111 0.28814-0.0222 0.19948-0.0111 0.19948 0.0997 0 0.0776-0.05541 0.14407-0.04433 0.0554-0.09974 0.0554-0.31031 0.0443-0.60953 0.13299-0.29922 0.0776-0.68711 0.24381-0.08866 0.0443-0.12191 0.0554-0.02217 0.0111-0.05541 0.0111zm-1.1193-0.6317q0.28814 0 0.5652-0.14407 0.27706-0.15515 0.48762-0.39897l0.01108-1.9948q0-0.29922-0.17732-0.58736-0.16624-0.28815-0.47654-0.46547-0.29922-0.1884-0.70927-0.1884-0.2549 0-0.57628 0.15516-0.32139 0.15515-0.55412 0.55412-0.23273 0.38788-0.23273 1.1304 0 0.6317 0.1884 1.0196 0.1884 0.3768 0.45438 0.57629 0.27706 0.19948 0.55412 0.27706 0.28814 0.0665 0.46546 0.0665z"/>
        <path d="m87.684 624.27q-0.60953 0-1.0639-0.29923-0.45438-0.29922-0.70927-0.84226-0.2549-0.55412-0.2549-1.2745 0-0.64278 0.28814-1.1637 0.29922-0.53195 0.78685-0.85334t1.0639-0.32139q0.4433 0 0.78685 0.17732t0.53196 0.49871q0.19948 0.3103 0.19948 0.72035 0 0.34356-0.33247 0.34356h-2.3384q-0.15515 0-0.22165 0.0887-0.05541 0.0776-0.05541 0.32139 0 0.53195 0.23273 0.97525 0.23273 0.43221 0.62062 0.69819 0.38788 0.25489 0.85334 0.25489 0.33247 0 0.59845-0.1219 0.27706-0.13299 0.48763-0.37681 0.04433-0.0554 0.06649-0.0665 0.02216-0.0222 0.05541-0.0222 0.08866 0 0.08866 0.11082 0 0.21057-0.19948 0.46546-0.16624 0.21057-0.39897 0.36572t-0.50979 0.23273q-0.27706 0.0887-0.57628 0.0887zm-1.0196-3.358h1.0085q0.26598 0 0.45438-0.0111t0.36572-0.0443q0.05541-0.0111 0.06649-0.0665 0.02217-0.0665 0.02217-0.17732 0-0.32139-0.28814-0.54304-0.27706-0.23273-0.66494-0.23273-0.2549 0-0.50979 0.15515-0.2549 0.14407-0.42113 0.36572t-0.16624 0.4433q0 0.11082 0.13299 0.11082z"/>
        <path d="m90.188 624.14q-0.11082 0-0.16624-0.0333-0.05541-0.0222-0.05541-0.0887 0-0.0887 0.06649-0.11082 0.0665-0.0332 0.1884-0.0665 0.21057-0.0554 0.31031-0.15516 0.11082-0.11082 0.11082-0.26598v-2.3827q0-0.29923-0.08866-0.52087-0.08866-0.22165-0.36572-0.27706-0.04433-0.0111-0.07758-0.0554t-0.03325-0.0887q0-0.11082 0.09974-0.13298 0.28814-0.0887 0.59845-0.2549 0.32139-0.17732 0.49871-0.28814 0.06649-0.0443 0.09974-0.0554 0.04433-0.0222 0.06649-0.0222 0.05541 0 0.05541 0.0776 0 0.0333-0.01108 0.16623 0 0.13299-0.01108 0.31031 0 0.17732-0.01108 0.35464 0 0.0222 0.02217 0.0222 0.17732-0.22165 0.38788-0.38788 0.22165-0.16624 0.4433-0.26598 0.23273-0.0997 0.4433-0.0997 0.23273 0 0.3768 0.0997 0.15515 0.0997 0.15515 0.2549 0 0.11082-0.06649 0.24381-0.05541 0.13299-0.15515 0.23273-0.09974 0.0997-0.21057 0.0997-0.06649 0-0.14407-0.0222-0.07758-0.0332-0.16624-0.0776-0.08866-0.0332-0.17732-0.0665t-0.17732-0.0333q-0.26598 0-0.52087 0.1884-0.24381 0.1884-0.24381 0.74252v2.2386q0 0.14408 0.15515 0.24382 0.15515 0.0887 0.43221 0.17732 0.12191 0.0332 0.1884 0.0665 0.06649 0.0332 0.06649 0.11082 0 0.12191-0.22165 0.12191-0.33247 0-0.50979-0.0333-0.16624-0.0222-0.45438-0.0222-0.1884 0-0.31031 0.0111-0.11082 0.0111-0.24381 0.0222-0.12191 0.0222-0.34355 0.0222z"/>
      </g>
      <g transform="matrix(.72744 0 0 .72744 58.361 32.952)" stroke-width="1.7368">
        <g transform="matrix(.18217 0 0 .18217 7.7361 100.98)" stroke-width="0">
          <path transform="scale(.26458)" d="m159 845.71c-8.2535-4.7452-10.674-7.1564-15.605-15.543l-3.4459-5.8617-0.77086-541.48h-14.616v101.99c0 113.71 0.58022 107.12-10.295 116.95-9.9721 9.0092-23.907 8.5826-33.985-1.0404-9.7753-9.3339-9.2082-1.1566-9.2082-132.76 0-130.06-0.26846-125.49 8.4142-143 9.5799-19.321 29.756-36.497 50.828-43.27 9.2427-2.9708 173.63-2.8893 184.27 0.0914 23.835 6.6733 45.626 23.605 55.13 42.836 11.013 22.283 10.459 15.07 10.944 142.53l0.43466 114.36-3.3968 6.4235c-1.8683 3.533-5.9052 8.4537-8.971 10.935-5.0061 4.0518-6.5919 4.5116-15.56 4.5116-8.9692 0-10.559-0.4612-15.617-4.5294-10.553-8.4881-9.9481-2.0677-10.76-114.17l-0.73272-101.11-21.249-0.86111-9e-3 268.6c-6e-3 187.97-0.48372 270.32-1.5923 274.31-0.95648 3.4449-4.1897 8.2741-8.1602 12.188-15.752 15.529-37.325 16.406-52.275 2.1253-11.4-10.89-10.418 4.2962-11.236-173.89l-0.7325-159.73h-20.516l-0.73271 159.73-0.73272 159.73-3.233 6.0437c-9.0961 17.004-30.224 23.306-46.592 13.896z"/>
          <path transform="scale(.26458)" d="m193.73 157.46c-23.652-7.4374-41.22-24.123-50.391-47.861-3.701-9.579-4.5375-35.526-1.4075-43.655 5.2146-13.542 10.475-21.929 19.361-30.871 22.607-22.748 54.131-28.098 83.435-14.161 11.651 5.5412 26.792 20.469 32.459 32.001 6.9581 14.159 7.7903 17.674 7.7681 32.814-0.0362 24.817-8.235 41.543-28.732 58.617-15.42 12.845-44.167 18.878-62.493 13.116z"/>
        </g>
      </g>
      <g transform="matrix(.72744 0 0 .72744 114.22 32.952)" stroke-width="1.7368">
        <g transform="matrix(.18217 0 0 .18217 7.7361 100.98)" stroke-width="0">
          <path transform="scale(.26458)" d="m159 845.71c-8.2535-4.7452-10.674-7.1564-15.605-15.543l-3.4459-5.8617-0.77086-541.48h-14.616v101.99c0 113.71 0.58022 107.12-10.295 116.95-9.9721 9.0092-23.907 8.5826-33.985-1.0404-9.7753-9.3339-9.2082-1.1566-9.2082-132.76 0-130.06-0.26846-125.49 8.4142-143 9.5799-19.321 29.756-36.497 50.828-43.27 9.2427-2.9708 173.63-2.8893 184.27 0.0914 23.835 6.6733 45.626 23.605 55.13 42.836 11.013 22.283 10.459 15.07 10.944 142.53l0.43466 114.36-3.3968 6.4235c-1.8683 3.533-5.9052 8.4537-8.971 10.935-5.0061 4.0518-6.5919 4.5116-15.56 4.5116-8.9692 0-10.559-0.4612-15.617-4.5294-10.553-8.4881-9.9481-2.0677-10.76-114.17l-0.73272-101.11-21.249-0.86111-9e-3 268.6c-6e-3 187.97-0.48372 270.32-1.5923 274.31-0.95648 3.4449-4.1897 8.2741-8.1602 12.188-15.752 15.529-37.325 16.406-52.275 2.1253-11.4-10.89-10.418 4.2962-11.236-173.89l-0.7325-159.73h-20.516l-0.73271 159.73-0.73272 159.73-3.233 6.0437c-9.0961 17.004-30.224 23.306-46.592 13.896z"/>
          <path transform="scale(.26458)" d="m193.73 157.46c-23.652-7.4374-41.22-24.123-50.391-47.861-3.701-9.579-4.5375-35.526-1.4075-43.655 5.2146-13.542 10.475-21.929 19.361-30.871 22.607-22.748 54.131-28.098 83.435-14.161 11.651 5.5412 26.792 20.469 32.459 32.001 6.9581 14.159 7.7903 17.674 7.7681 32.814-0.0362 24.817-8.235 41.543-28.732 58.617-15.42 12.845-44.167 18.878-62.493 13.116z"/>
        </g>
      </g>
      <path d="m77.337 110.01 0.53992 0.50412c10.992-11.773 29.347-12.539 41.278-1.8245l-0.85738 0.91827-0.63598 0.68114 4.6922 0.90751-1.2268-4.619-0.63598 0.68115-0.83198 0.89106c-12.223-10.987-31.057-10.205-42.322 1.8603zm41.776-0.1931 1.6424-1.759 0.58175 2.1895z" stop-color="#000000" stroke-width="1.2634"/>
      <path d="m121.7 135.96-0.53992-0.50412c-10.992 11.773-29.347 12.539-41.278 1.8245l0.85738-0.91828 0.63598-0.68114-4.6922-0.9075 1.2268 4.619 1.468-1.5722c12.223 10.987 31.057 10.205 42.322-1.8603zm-41.776 0.19309-1.6424 1.7591-0.58175-2.1895z" stop-color="#000000" stroke-width="1.2634"/>
      <path d="m93.188 94.487h10.832v13.927h-10.832z" fill="#fff" stroke-width="1.2836"/>
      <g transform="matrix(.29966 0 0 .29966 30.624 8.9507)" stroke-width="4.2836" style="shape-inside:url(#rect53);white-space:pre" aria-label="$">
        <path d="m226.08 290.66v4.88c-5.92 0.2-9.84 3.28-9.84 7.72 0 3.88 2.8 5.88 9.84 6.88v9.84c-3.56-0.24-5.44-1.2-5.44-2.8 0-0.28 0.04-0.72 0.12-1.16 0.12-0.48 0.16-0.96 0.16-1.32 0-1.44-1-2.48-2.4-2.48-1.68 0-2.84 1.2-2.84 2.96 0 3.6 3.48 5.76 10.4 6.44v5.08h1.48v-5.08c6.56-0.6 10.48-3.68 10.48-8.12 0-2.72-1.32-4.56-3.92-5.64-1.32-0.56-3.16-0.96-6.56-1.48v-9.2c3.04 0.4 4.36 1.36 4.36 3.16v0.32c-0.12 0.8-0.12 0.84-0.12 1.16 0 1.32 0.88 2.2 2.16 2.2 1.48 0 2.48-1 2.48-2.44 0-1.48-0.92-2.92-2.64-4.12-1.52-1.08-3.36-1.68-6.24-1.92v-4.88zm0 6.52v8.84c-2.2-0.32-3.04-0.56-4.16-1.24-1.16-0.68-1.88-1.92-1.88-3.28 0-1.4 0.8-2.68 2-3.36 1-0.56 2.56-0.96 3.64-0.96zm1.48 13.24c1.8 0.32 2.84 0.56 3.68 0.88 2 0.76 3 1.96 3 3.6 0 2.92-2.68 4.96-6.68 5.08z"/>
      </g>
      <g transform="translate(.58914)">
        <path d="m92.85 141.52h11.509v4.8403h-11.509z" fill="#fff" stroke-width="1.2836"/>
        <g transform="matrix(.27168 0 0 .27168 41.438 -14.861)" fill="#1a1a1a" stroke-width="4.7246" style="shape-inside:url(#rect54);white-space:pre" aria-label="slave">
          <path d="m198.58 590.21q-0.496 0-0.928-0.16-0.432-0.144-0.736-0.416-0.08-0.176-0.128-0.592-0.032-0.416-0.048-0.688 0-0.144 0.208-0.144 0.064 0 0.112 0.032 0.064 0.016 0.08 0.08 0.208 0.784 0.656 1.12 0.464 0.336 0.928 0.336t0.784-0.304q0.336-0.32 0.336-0.784 0-0.432-0.288-0.736-0.288-0.32-1.008-0.768-0.544-0.336-0.88-0.64t-0.496-0.624q-0.144-0.32-0.144-0.72 0-0.512 0.24-0.928t0.72-0.656q0.48-0.256 1.2-0.256 0.48 0 0.8 0.096t0.48 0.208q0.128 0.176 0.208 0.56 0.096 0.368 0.096 0.704 0 0.112-0.16 0.112-0.096 0-0.192-0.032-0.08-0.048-0.112-0.112-0.208-0.528-0.528-0.8-0.304-0.288-0.768-0.288-0.4 0-0.72 0.24-0.304 0.24-0.304 0.704 0 0.368 0.224 0.656 0.24 0.288 0.88 0.656 0.928 0.528 1.376 0.992 0.464 0.448 0.464 1.2 0 0.864-0.656 1.408t-1.696 0.544z"/>
          <path d="m202.07 590.04q-0.08 0-0.208-0.032-0.112-0.016-0.112-0.112 0-0.128 0.112-0.176 0.128-0.064 0.256-0.112 0.24-0.08 0.464-0.176 0.224-0.112 0.224-0.432v-8.064q0-0.464-0.176-0.768-0.16-0.32-0.56-0.4-0.128-0.032-0.128-0.208 0-0.16 0.112-0.192 0.416-0.096 0.72-0.192 0.304-0.112 0.56-0.224 0.272-0.112 0.528-0.208 0.064-0.032 0.096-0.032t0.048 0.048q0.032 0.032 0.032 0.064 0 0.144-0.064 0.624-0.048 0.464-0.048 1.552v8q0 0.32 0.224 0.432 0.224 0.096 0.464 0.176 0.128 0.048 0.24 0.112 0.128 0.048 0.128 0.176 0 0.096-0.128 0.112-0.112 0.032-0.192 0.032-0.304 0-0.496-0.032-0.176-0.016-0.352-0.032-0.16-0.016-0.448-0.016-0.272 0-0.448 0.016t-0.352 0.032q-0.176 0.032-0.496 0.032z"/>
          <path d="m207.16 590.21q-0.288 0-0.592-0.224-0.288-0.224-0.496-0.544-0.192-0.32-0.192-0.608 0-0.512 0.272-0.8t0.864-0.528l1.632-0.672q0.32-0.128 0.368-0.224 0.064-0.096 0.08-0.416l0.032-1.024q0.016-0.416-0.24-0.72-0.24-0.304-0.704-0.304-0.24 0-0.48 0.08t-0.4 0.208q-0.096 0.064-0.128 0.192t-0.032 0.272q0 0.064 0 0.144 0.016 0.08 0.016 0.144 0 0.08-0.208 0.224-0.192 0.128-0.448 0.24-0.24 0.096-0.4 0.096-0.08 0-0.128-0.032-0.048-0.048-0.048-0.112 0-0.256 0.16-0.544 0.176-0.304 0.48-0.56 0.368-0.336 0.8-0.592t0.848-0.4 0.736-0.144q0.576 0 0.944 0.416 0.384 0.4 0.368 1.008l-0.08 3.84q-0.016 0.336 0.144 0.544 0.176 0.208 0.432 0.208 0.4 0 0.592-0.176 0.08-0.08 0.128-0.08 0.08 0 0.128 0.048t0.048 0.128q0 0.176-0.176 0.352-0.256 0.256-0.56 0.4-0.288 0.16-0.544 0.16-0.736 0-1.168-0.832h-0.048q-0.528 0.432-1.008 0.624-0.48 0.208-0.992 0.208zm0.752-0.768q0.32 0 0.544-0.096 0.224-0.112 0.4-0.288 0.08-0.08 0.128-0.208 0.064-0.144 0.08-0.448l0.032-0.784q0.016-0.176-0.016-0.256t-0.128-0.08q-0.032 0-0.112 0.016t-0.208 0.064q-0.848 0.304-1.184 0.64-0.32 0.32-0.32 0.592 0 0.416 0.24 0.64 0.256 0.208 0.544 0.208z"/>
          <path d="m214.77 590.32q-0.064 0-0.16-0.256-0.096-0.24-0.128-0.352-0.112-0.272-0.208-0.56-0.096-0.304-0.192-0.56-0.352-0.992-0.768-1.936-0.4-0.96-0.784-1.936-0.112-0.288-0.352-0.512-0.224-0.24-0.464-0.304-0.128-0.048-0.208-0.096t-0.08-0.16q0-0.096 0.112-0.112 0.128-0.032 0.208-0.032 0.32 0 0.464 0.016t0.288 0.048q0.144 0.016 0.416 0.016 0.288 0 0.432-0.016 0.144-0.032 0.304-0.048t0.464-0.016q0.08 0 0.192 0.032 0.128 0.016 0.128 0.112 0 0.112-0.112 0.176t-0.256 0.112q-0.16 0.064-0.24 0.256-0.08 0.176-0.08 0.4 0 0.112 0.016 0.224t0.048 0.208l1.264 3.36q0.016 0.016 0.016 0.016 0.016 0 0.032-0.016l1.216-3.12q0.064-0.16 0.096-0.336 0.032-0.192 0.032-0.32 0-0.32-0.096-0.448-0.096-0.144-0.32-0.224-0.208-0.08-0.288-0.128t-0.08-0.16q0-0.096 0.096-0.112 0.112-0.032 0.224-0.032 0.176 0 0.464 0.048 0.288 0.032 0.704 0.032t0.56-0.032q0.16-0.048 0.384-0.048 0.128 0 0.224 0.032 0.096 0.016 0.096 0.112 0 0.176-0.368 0.288-0.24 0.064-0.528 0.368t-0.464 0.704l-1.248 3.008q-0.032 0.064-0.128 0.32-0.096 0.24-0.208 0.544-0.112 0.288-0.192 0.512-0.08 0.208-0.08 0.208t-0.064 0.16q-0.064 0.144-0.144 0.304-0.08 0.176-0.144 0.256z"/>
          <path d="m221.37 590.23q-0.88 0-1.536-0.432t-1.024-1.216q-0.368-0.8-0.368-1.84 0-0.928 0.416-1.68 0.432-0.768 1.136-1.232t1.536-0.464q0.64 0 1.136 0.256t0.768 0.72q0.288 0.448 0.288 1.04 0 0.496-0.48 0.496h-3.376q-0.224 0-0.32 0.128-0.08 0.112-0.08 0.464 0 0.768 0.336 1.408 0.336 0.624 0.896 1.008 0.56 0.368 1.232 0.368 0.48 0 0.864-0.176 0.4-0.192 0.704-0.544 0.064-0.08 0.096-0.096 0.032-0.032 0.08-0.032 0.128 0 0.128 0.16 0 0.304-0.288 0.672-0.24 0.304-0.576 0.528t-0.736 0.336q-0.4 0.128-0.832 0.128zm-1.472-4.848h1.456q0.384 0 0.656-0.016t0.528-0.064q0.08-0.016 0.096-0.096 0.032-0.096 0.032-0.256 0-0.464-0.416-0.784-0.4-0.336-0.96-0.336-0.368 0-0.736 0.224-0.368 0.208-0.608 0.528t-0.24 0.64q0 0.16 0.192 0.16z"/>
        </g>
      </g>
    </g>
    <g transform="matrix(.26458 0 0 .26458 -59.24 -93.454)" stroke-width="3.84" style="shape-inside:url(#rect55);white-space:pre" aria-label="forbidden">
      <path d="m377.6 585.08q-0.592 0-0.96-0.208-0.368-0.192-0.368-0.592 0-0.24 0.24-0.464 0.224-0.208 0.384-0.208 0.128 0 0.24 0.128 0.112 0.144 0.272 0.32 0.144 0.16 0.352 0.272 0.192 0.112 0.48 0.112 0.304 0 0.528-0.176t0.448-0.64q0.208-0.464 0.464-1.344l2.144-7.264q0.096-0.288-0.224-0.288l-0.992 0.016q-0.112 0-0.16-0.048-0.048-0.064-0.048-0.144 0-0.128 0.096-0.256 0.096-0.144 0.208-0.16l1.12-0.064q0.224-0.032 0.304-0.32l0.128-0.512q0.384-1.52 1.024-2.416 0.656-0.896 1.36-1.28 0.72-0.4 1.28-0.4 0.704 0 1.104 0.32 0.4 0.304 0.4 0.8 0 0.4-0.224 0.608-0.208 0.208-0.432 0.208-0.112 0-0.208-0.176-0.096-0.192-0.224-0.448-0.144-0.32-0.368-0.48-0.224-0.176-0.576-0.176-0.448 0-0.768 0.208-0.304 0.208-0.56 0.768t-0.576 1.616q-0.096 0.304-0.176 0.592-0.064 0.272-0.16 0.592-0.032 0.112-0.064 0.176-0.016 0.064-0.016 0.144t0.048 0.112 0.112 0.032q0.48 0 0.912-0.016 0.448-0.032 0.848-0.032 0.112 0 0.112 0.176 0 0.064-0.064 0.176-0.048 0.112-0.16 0.208-0.096 0.08-0.24 0.08l-1.456 0.016q-0.16 0-0.272 0.064-0.096 0.048-0.128 0.192-0.56 1.808-1.088 3.648t-0.992 3.648q-0.16 0.64-0.544 1.168-0.368 0.528-0.832 0.912-0.48 0.384-0.928 0.592-0.464 0.208-0.8 0.208z"/>
      <path d="m386.24 580.66q-0.384 0-0.72-0.256t-0.544-0.672q-0.192-0.416-0.192-0.88 0-0.752 0.288-1.616 0.304-0.88 0.832-1.648 0.528-0.784 1.216-1.28 0.704-0.496 1.504-0.496t1.232 0.544q0.448 0.544 0.448 1.344 0 0.72-0.288 1.584-0.288 0.848-0.832 1.616-0.528 0.768-1.28 1.264-0.736 0.496-1.664 0.496zm0.256-0.48q0.384 0 0.768-0.336 0.4-0.336 0.752-0.88 0.368-0.544 0.64-1.2 0.288-0.656 0.448-1.312 0.176-0.656 0.176-1.2 0-0.416-0.144-0.688-0.128-0.272-0.544-0.272-0.368 0-0.768 0.304-0.384 0.304-0.752 0.816-0.352 0.512-0.64 1.152-0.288 0.624-0.464 1.312-0.16 0.672-0.16 1.312 0 0.528 0.176 0.768 0.192 0.224 0.512 0.224z"/>
      <path d="m391.56 580.71q-0.08 0-0.176-0.064-0.096-0.048-0.16-0.144-0.064-0.08-0.064-0.176 0-0.192 0.096-0.48 0.112-0.304 0.272-0.752l1.472-3.84q0.08-0.208 0.064-0.384 0-0.176-0.16-0.176-0.224 0-0.448 0.064-0.208 0.048-0.32 0.112-0.096 0.064-0.192 0.032-0.08-0.048-0.08-0.16 0-0.128 0.112-0.288 0.128-0.16 0.336-0.304 0.192-0.144 0.448-0.24 0.272-0.096 0.56-0.096 0.448 0 0.56 0.224 0.128 0.224 0.032 0.608-0.08 0.368-0.272 0.848l-0.72 1.808q-0.064 0.112 0.032 0.144 0.112 0.032 0.16-0.048 0.64-1.104 1.28-1.92 0.656-0.832 1.216-1.28 0.56-0.464 0.928-0.464 0.416 0 0.576 0.24 0.176 0.24 0.176 0.56 0 0.288-0.112 0.592-0.096 0.304-0.288 0.512-0.176 0.192-0.4 0.192-0.128 0-0.192-0.144-0.064-0.16-0.064-0.416 0-0.24-0.064-0.368-0.064-0.144-0.24-0.144-0.16 0-0.432 0.208-0.256 0.208-0.656 0.72-0.176 0.24-0.464 0.656t-0.624 0.928q-0.32 0.496-0.64 1.024-0.32 0.512-0.56 0.944-0.432 0.768-0.624 1.12-0.176 0.352-0.368 0.352z"/>
      <path d="m398.84 580.57q-0.624 0-0.992-0.352-0.368-0.368-0.368-0.96 0-0.4 0.096-0.896 0.096-0.512 0.272-1.04l2.016-6.096q0.08-0.224 0.112-0.432 0.048-0.224 0.048-0.432 0-0.08-0.096-0.144-0.08-0.064-0.304-0.128-0.496-0.128-0.496-0.24 0-0.08 0.048-0.128 0.064-0.048 0.208-0.096 0.176-0.064 0.448-0.144 0.288-0.096 0.576-0.176t0.512-0.128q0.24-0.048 0.304-0.048 0.256 0 0.256 0.16 0 0.144-0.032 0.256-0.016 0.096-0.08 0.272-0.128 0.32-0.352 0.96-0.224 0.624-0.496 1.408-0.256 0.768-0.528 1.568-0.272 0.784-0.512 1.472-0.224 0.688-0.352 1.104-0.064 0.16 0 0.192 0.08 0.032 0.192-0.112 0.944-1.248 1.792-1.92t1.44-0.672q0.512 0 0.848 0.336t0.336 0.848q0 0.736-0.304 1.52-0.288 0.768-0.8 1.504-0.496 0.72-1.136 1.296t-1.328 0.912q-0.672 0.336-1.328 0.336zm0.416-0.512q0.208 0 0.544-0.224t0.72-0.608q0.4-0.4 0.768-0.896 0.384-0.512 0.704-1.12 0.32-0.624 0.496-1.184 0.192-0.576 0.192-0.96 0-0.272-0.144-0.448-0.128-0.192-0.32-0.192-0.496 0-1.136 0.56t-1.488 1.712q-0.528 0.736-0.848 1.36t-0.32 0.928q0 0.432 0.24 0.752 0.256 0.32 0.592 0.32z"/>
      <path d="m404.9 580.66q-0.272 0-0.448-0.176t-0.176-0.368q0-0.064 0-0.128 0.016-0.064 0.048-0.128 0.656-1.328 1.104-2.496 0.448-1.184 0.8-2.064 0.064-0.192-0.08-0.192-0.08 0-0.32 0.096-0.224 0.08-0.48 0.224t-0.448 0.288q-0.08 0.064-0.16 0.032t-0.08-0.112 0.112-0.224q0.128-0.16 0.336-0.352 0.224-0.192 0.528-0.4 0.304-0.224 0.656-0.432 0.368-0.224 0.768-0.4 0.144-0.064 0.288 0.032t0.224 0.24q0.096 0.144 0.064 0.224l-1.952 4.624q-0.064 0.128-0.096 0.256-0.016 0.112-0.016 0.208 0 0.112 0.08 0.16 0.096 0.032 0.176 0.032 0.224 0 0.512-0.208 0.288-0.224 0.608-0.528 0.336-0.32 0.64-0.624 0.032-0.032 0.064-0.032t0.064 0.032q0.032 0.016 0.032 0.048 0 0.256-0.304 0.656-0.304 0.384-0.768 0.784-0.448 0.384-0.928 0.656t-0.848 0.272zm3.232-8.432q-0.24 0-0.4-0.192t-0.16-0.432q0-0.384 0.256-0.672 0.256-0.304 0.64-0.304 0.256 0 0.4 0.224 0.144 0.208 0.144 0.464 0 0.352-0.256 0.64-0.256 0.272-0.624 0.272z"/>
      <path d="m409.35 580.66q-0.464 0-0.752-0.32t-0.288-0.832q0-0.608 0.256-1.36 0.272-0.752 0.72-1.52 0.464-0.768 1.04-1.424 0.624-0.704 1.264-1.088 0.64-0.4 1.152-0.4 0.208 0 0.336 0.064 0.128 0.048 0.576 0.336 0.336 0.208 0.368 0.24 0.048 0.016 0.016 0.016 0.048 0 0.08-0.112l1.072-3.6q0.032-0.096 0.032-0.144 0.016-0.064 0.016-0.08 0.016-0.032 0.016-0.048 0-0.032 0-0.048 0-0.176-0.096-0.272-0.096-0.112-0.352-0.208-0.352-0.128-0.416-0.144-0.064-0.032-0.064-0.08 0-0.112 0.128-0.176t0.416-0.112q0.24-0.032 0.48-0.064 0.256-0.048 0.464-0.064 0.208-0.032 0.352-0.048t0.192-0.016q0.192 0 0.192 0.224 0 0.08-0.016 0.176-0.016 0.08-0.048 0.192l-2.592 8.976q-0.032 0.128-0.064 0.256-0.016 0.112-0.016 0.24 0 0.352 0.224 0.352 0.208 0 0.496-0.144 0.288-0.16 0.576-0.416t0.496-0.544q0.032-0.048 0.064-0.064t0.064-0.016q0.128 0 0.096 0.128 0 0.176-0.176 0.448t-0.464 0.576q-0.288 0.288-0.624 0.544-0.32 0.256-0.624 0.416t-0.512 0.16q-0.176 0-0.336-0.112-0.16-0.096-0.272-0.256-0.096-0.176-0.096-0.352 0-0.08 0.064-0.416 0.032-0.176 0.096-0.432 0.064-0.272 0.112-0.512 0.064-0.256 0.08-0.368 0.032-0.112 0 0.032 0.032-0.128-0.016-0.176-0.032-0.064-0.08 0.016-1.104 1.392-1.936 1.984t-1.696 0.592zm0.592-0.752q0.432 0 0.944-0.304 0.512-0.32 1.008-0.832 0.512-0.528 0.928-1.152 0.432-0.624 0.688-1.248t0.256-1.152q0-0.464-0.208-0.72-0.208-0.272-0.592-0.272-0.368 0-0.832 0.352t-0.944 0.928-0.896 1.264q-0.4 0.672-0.656 1.344-0.24 0.672-0.24 1.184 0 0.352 0.112 0.48 0.128 0.128 0.432 0.128z"/>
      <path d="m417.6 580.66q-0.464 0-0.752-0.32t-0.288-0.832q0-0.608 0.256-1.36 0.272-0.752 0.72-1.52 0.464-0.768 1.04-1.424 0.624-0.704 1.264-1.088 0.64-0.4 1.152-0.4 0.208 0 0.336 0.064 0.128 0.048 0.576 0.336 0.336 0.208 0.368 0.24 0.048 0.016 0.016 0.016 0.048 0 0.08-0.112l1.072-3.6q0.032-0.096 0.032-0.144 0.016-0.064 0.016-0.08 0.016-0.032 0.016-0.048 0-0.032 0-0.048 0-0.176-0.096-0.272-0.096-0.112-0.352-0.208-0.352-0.128-0.416-0.144-0.064-0.032-0.064-0.08 0-0.112 0.128-0.176t0.416-0.112q0.24-0.032 0.48-0.064 0.256-0.048 0.464-0.064 0.208-0.032 0.352-0.048t0.192-0.016q0.192 0 0.192 0.224 0 0.08-0.016 0.176-0.016 0.08-0.048 0.192l-2.592 8.976q-0.032 0.128-0.064 0.256-0.016 0.112-0.016 0.24 0 0.352 0.224 0.352 0.208 0 0.496-0.144 0.288-0.16 0.576-0.416t0.496-0.544q0.032-0.048 0.064-0.064t0.064-0.016q0.128 0 0.096 0.128 0 0.176-0.176 0.448t-0.464 0.576q-0.288 0.288-0.624 0.544-0.32 0.256-0.624 0.416t-0.512 0.16q-0.176 0-0.336-0.112-0.16-0.096-0.272-0.256-0.096-0.176-0.096-0.352 0-0.08 0.064-0.416 0.032-0.176 0.096-0.432 0.064-0.272 0.112-0.512 0.064-0.256 0.08-0.368 0.032-0.112 0 0.032 0.032-0.128-0.016-0.176-0.032-0.064-0.08 0.016-1.104 1.392-1.936 1.984t-1.696 0.592zm0.592-0.752q0.432 0 0.944-0.304 0.512-0.32 1.008-0.832 0.512-0.528 0.928-1.152 0.432-0.624 0.688-1.248t0.256-1.152q0-0.464-0.208-0.72-0.208-0.272-0.592-0.272-0.368 0-0.832 0.352t-0.944 0.928-0.896 1.264q-0.4 0.672-0.656 1.344-0.24 0.672-0.24 1.184 0 0.352 0.112 0.48 0.128 0.128 0.432 0.128z"/>
      <path d="m426.44 580.68q-0.336 0-0.688-0.256-0.336-0.256-0.56-0.64-0.224-0.4-0.224-0.768 0-0.8 0.32-1.696 0.336-0.912 0.912-1.696 0.576-0.8 1.328-1.296 0.768-0.512 1.616-0.512 0.56 0 0.864 0.24 0.32 0.224 0.32 0.64 0 0.496-0.32 0.864-0.304 0.368-0.832 0.64-0.528 0.256-1.184 0.432-0.64 0.176-1.312 0.304-0.096 0.016-0.16 0.048-0.048 0.016-0.08 0.112-0.112 0.352-0.224 0.768t-0.112 0.784q0 0.56 0.208 0.864 0.224 0.304 0.64 0.304 0.576 0 0.976-0.288t0.656-0.576q0.16-0.176 0.288-0.176 0.16 0 0.16 0.16 0 0.016 0 0.064 0 0.032-0.032 0.064-0.32 0.528-0.72 0.896-0.4 0.352-0.864 0.528-0.448 0.192-0.976 0.192zm0.352-4.112q0.176 0 0.592-0.096 0.432-0.112 0.896-0.336 0.464-0.24 0.784-0.576 0.336-0.352 0.336-0.832 0-0.208-0.112-0.352-0.112-0.16-0.32-0.16-0.336 0-0.736 0.288-0.384 0.272-0.736 0.672-0.352 0.384-0.592 0.752-0.224 0.368-0.224 0.544 0 0.096 0.112 0.096z"/>
      <path d="m431.2 580.7q-0.096 0-0.192-0.08-0.08-0.064-0.144-0.176-0.064-0.096-0.096-0.224-0.016-0.128 0.032-0.224l1.856-4.544q0.288-0.704 0.032-0.704-0.16 0-0.336 0.048-0.176 0.032-0.384 0.192t-0.464 0.496q-0.064 0.064-0.144 0.064-0.064-0.016-0.096-0.128 0-0.096 0.048-0.24 0.064-0.16 0.144-0.304 0.08-0.16 0.144-0.256 0.24-0.368 0.64-0.576 0.416-0.208 0.96-0.224 0.176 0 0.32 0.096 0.144 0.08 0.208 0.24 0.08 0.16 0 0.352l-1.056 2.72q-0.048 0.112 0.016 0.128 0.08 0.016 0.128-0.064 0.656-1.12 1.328-1.888 0.688-0.784 1.312-1.184t1.104-0.4q0.336 0 0.576 0.24 0.256 0.224 0.32 0.624 0.08 0.384-0.144 0.896l-1.472 3.488q-0.24 0.576 0.08 0.576 0.192 0 0.464-0.144 0.288-0.144 0.576-0.336 0.288-0.208 0.496-0.368 0.224-0.176 0.288-0.24 0.016-0.016 0.016-0.016 0.016 0 0.032 0 0.048 0 0.08 0.048 0.048 0.032 0.048 0.096 0 0.128-0.064 0.224-0.416 0.496-0.896 0.896-0.464 0.4-0.976 0.64-0.496 0.224-1.008 0.224-0.144 0-0.288-0.112-0.144-0.096-0.224-0.256-0.064-0.16 0.016-0.336 0.464-1.072 0.928-2.128 0.48-1.072 0.896-2.144 0.256-0.656 0.176-0.912-0.08-0.272-0.304-0.288-0.176-0.016-0.416 0.128-0.24 0.128-0.544 0.416-0.304 0.272-0.656 0.704-0.192 0.224-0.512 0.704-0.32 0.464-0.72 1.088-0.4 0.608-0.832 1.312-0.416 0.688-0.8 1.36-0.144 0.256-0.256 0.368-0.112 0.128-0.24 0.128z"/>
    </g>
  </g>
  <g transform="matrix(1.3918 0 0 1.3918 -143.81 84.705)">
    <g transform="matrix(.79151 0 0 .79151 70.278 -68.514)" stroke-width="1.2634">
      <g transform="matrix(.38199 0 0 .38199 25.561 -116.6)" opacity=".76" stroke="#000" stroke-width="0" style="shape-inside:url(#rect56);white-space:pre" aria-label="slave redeemer">
        <path d="m75.073 610.41q-0.34356 0-0.64278-0.11082-0.29922-0.0998-0.50979-0.28815-0.05541-0.1219-0.08866-0.41005-0.02217-0.28814-0.03325-0.47654 0-0.0997 0.14407-0.0997 0.04433 0 0.07758 0.0222 0.04433 0.0111 0.05541 0.0554 0.14407 0.54303 0.45438 0.77576 0.32139 0.23273 0.64278 0.23273t0.54304-0.21056q0.23273-0.22165 0.23273-0.54304 0-0.29922-0.19948-0.50979-0.19948-0.22165-0.69819-0.53195-0.3768-0.23273-0.60953-0.4433t-0.34355-0.43221q-0.09974-0.22165-0.09974-0.49871 0-0.35464 0.16624-0.64278t0.49871-0.45438q0.33247-0.17732 0.83118-0.17732 0.33247 0 0.55412 0.0665t0.33247 0.14407q0.08866 0.1219 0.14407 0.38788 0.0665 0.2549 0.0665 0.48763 0 0.0776-0.11082 0.0776-0.06649 0-0.13299-0.0222-0.05541-0.0332-0.07758-0.0776-0.14407-0.36572-0.36572-0.55412-0.21057-0.19948-0.53196-0.19948-0.27706 0-0.49871 0.16624-0.21057 0.16623-0.21057 0.48762 0 0.2549 0.15515 0.45438 0.16624 0.19948 0.60953 0.45438 0.64278 0.36572 0.95309 0.68711 0.32139 0.3103 0.32139 0.83118 0 0.59845-0.45438 0.97525t-1.1747 0.3768z"/>
        <path d="m77.489 610.29q-0.05541 0-0.14407-0.0222-0.07758-0.0111-0.07758-0.0776 0-0.0887 0.07758-0.1219 0.08866-0.0443 0.17732-0.0776 0.16624-0.0554 0.32139-0.12191 0.15515-0.0776 0.15515-0.29922v-5.5855q0-0.32139-0.12191-0.53196-0.11082-0.22165-0.38788-0.27706-0.08866-0.0222-0.08866-0.14407 0-0.11082 0.07758-0.13299 0.28814-0.0665 0.49871-0.13299 0.21057-0.0776 0.38788-0.15515 0.1884-0.0776 0.36572-0.14407 0.04433-0.0222 0.06649-0.0222 0.02217 0 0.03325 0.0332 0.02217 0.0222 0.02217 0.0443 0 0.0997-0.04433 0.43221-0.03325 0.32139-0.03325 1.075v5.5412q0 0.22165 0.15515 0.29922 0.15515 0.0665 0.32139 0.12191 0.08866 0.0333 0.16624 0.0776 0.08866 0.0332 0.08866 0.1219 0 0.0665-0.08866 0.0776-0.07758 0.0222-0.13299 0.0222-0.21056 0-0.34355-0.0222-0.12191-0.0111-0.24381-0.0222-0.11082-0.0111-0.31031-0.0111-0.1884 0-0.31031 0.0111t-0.24381 0.0222q-0.12191 0.0222-0.34355 0.0222z"/>
        <path d="m81.013 610.41q-0.19948 0-0.41005-0.15515-0.19948-0.15516-0.34356-0.37681-0.13299-0.22164-0.13299-0.42113 0-0.35463 0.1884-0.55412 0.1884-0.19948 0.59845-0.36572l1.1304-0.46546q0.22165-0.0887 0.2549-0.15515 0.04433-0.0665 0.05541-0.28814l0.02217-0.70928q0.01108-0.28814-0.16624-0.4987-0.16624-0.21057-0.48763-0.21057-0.16624 0-0.33247 0.0554t-0.27706 0.14407q-0.06649 0.0443-0.08866 0.13299-0.02217 0.0887-0.02217 0.1884 0 0.0443 0 0.0997 0.01108 0.0554 0.01108 0.0997 0 0.0554-0.14407 0.15515-0.13299 0.0887-0.31031 0.16624-0.16624 0.0665-0.27706 0.0665-0.05541 0-0.08866-0.0222-0.03325-0.0333-0.03325-0.0776 0-0.17732 0.11082-0.3768 0.12191-0.21057 0.33247-0.38789 0.2549-0.23273 0.55412-0.41005 0.29922-0.17731 0.58737-0.27706 0.28814-0.0997 0.50979-0.0997 0.39897 0 0.65386 0.28814 0.26598 0.27706 0.2549 0.6982l-0.05541 2.6598q-0.01108 0.23273 0.09974 0.3768 0.12191 0.14407 0.29922 0.14407 0.27706 0 0.41005-0.1219 0.05541-0.0554 0.08866-0.0554 0.05541 0 0.08866 0.0332t0.03325 0.0887q0 0.12191-0.12191 0.24382-0.17732 0.17731-0.38788 0.27706-0.19948 0.11082-0.3768 0.11082-0.50979 0-0.80902-0.57629h-0.03325q-0.36572 0.29923-0.69819 0.43222-0.33247 0.14407-0.68711 0.14407zm0.52087-0.53196q0.22165 0 0.3768-0.0665 0.15515-0.0776 0.27706-0.19948 0.05541-0.0554 0.08866-0.14407 0.04433-0.0997 0.05541-0.31031l0.02217-0.54304q0.01108-0.12191-0.01108-0.17732-0.02216-0.0554-0.08866-0.0554-0.02217 0-0.07758 0.0111t-0.14407 0.0443q-0.58737 0.21057-0.8201 0.4433-0.22165 0.22165-0.22165 0.41005 0 0.28814 0.16624 0.44329 0.17732 0.14407 0.3768 0.14407z"/>
        <path d="m86.288 610.49q-0.04433 0-0.11082-0.17732-0.06649-0.16624-0.08866-0.24381-0.07758-0.18841-0.14407-0.38789-0.06649-0.21056-0.13299-0.38788-0.24381-0.68711-0.53196-1.341-0.27706-0.66495-0.54304-1.341-0.07758-0.19949-0.24381-0.35464-0.15515-0.16624-0.32139-0.21057-0.08866-0.0332-0.14407-0.0665t-0.05541-0.11082q0-0.0665 0.07758-0.0776 0.08866-0.0222 0.14407-0.0222 0.22165 0 0.32139 0.0111t0.19948 0.0332q0.09974 0.0111 0.28814 0.0111 0.19948 0 0.29922-0.0111 0.09974-0.0222 0.21057-0.0332 0.11082-0.0111 0.32139-0.0111 0.05541 0 0.13299 0.0222 0.08866 0.0111 0.08866 0.0776 0 0.0776-0.07758 0.1219t-0.17732 0.0776q-0.11082 0.0443-0.16624 0.17732-0.05541 0.1219-0.05541 0.27706 0 0.0776 0.01108 0.15515 0.01108 0.0776 0.03325 0.14407l0.87551 2.3273q0.01108 0.0111 0.01108 0.0111 0.01108 0 0.02217-0.0111l0.84226-2.1611q0.04433-0.11083 0.0665-0.23273 0.02217-0.13299 0.02217-0.22165 0-0.22165-0.0665-0.31031-0.06649-0.0997-0.22165-0.15515-0.14407-0.0554-0.19948-0.0887t-0.05541-0.11082q0-0.0665 0.06649-0.0776 0.07758-0.0222 0.15515-0.0222 0.12191 0 0.32139 0.0333 0.19948 0.0222 0.48762 0.0222t0.38788-0.0222q0.11082-0.0333 0.26598-0.0333 0.08866 0 0.15515 0.0222 0.0665 0.0111 0.0665 0.0776 0 0.1219-0.2549 0.19948-0.16624 0.0443-0.36572 0.25489-0.19948 0.21057-0.32139 0.48763l-0.86443 2.0835q-0.02217 0.0443-0.08866 0.22165-0.06649 0.16623-0.14407 0.3768-0.07758 0.19948-0.13299 0.35464-0.05541 0.14407-0.05541 0.14407t-0.04433 0.11082q-0.04433 0.0997-0.09974 0.21057-0.05541 0.1219-0.09974 0.17732z"/>
        <path d="m90.854 610.42q-0.60953 0-1.0639-0.29922-0.45438-0.29923-0.70927-0.84227-0.2549-0.55412-0.2549-1.2745 0-0.64278 0.28814-1.1636 0.29922-0.53196 0.78685-0.85335t1.0639-0.32139q0.4433 0 0.78685 0.17732 0.34356 0.17732 0.53196 0.49871 0.19948 0.31031 0.19948 0.72035 0 0.34356-0.33247 0.34356h-2.3384q-0.15515 0-0.22165 0.0887-0.05541 0.0776-0.05541 0.32139 0 0.53195 0.23273 0.97525 0.23273 0.43221 0.62061 0.69819 0.38788 0.2549 0.85334 0.2549 0.33247 0 0.59845-0.12191 0.27706-0.13299 0.48763-0.3768 0.04433-0.0554 0.06649-0.0665 0.02217-0.0222 0.05541-0.0222 0.08866 0 0.08866 0.11082 0 0.21057-0.19948 0.46546-0.16624 0.21057-0.39897 0.36572-0.23273 0.15516-0.50979 0.23273-0.27706 0.0887-0.57628 0.0887zm-1.0196-3.358h1.0085q0.26598 0 0.45438-0.0111t0.36572-0.0443q0.05541-0.0111 0.06649-0.0665 0.02217-0.0665 0.02217-0.17732 0-0.32139-0.28814-0.54304-0.27706-0.23273-0.66494-0.23273-0.2549 0-0.50979 0.15516-0.2549 0.14407-0.42113 0.36571-0.16624 0.22165-0.16624 0.4433 0 0.11082 0.13299 0.11082z"/>
        <path d="m64.34 624.14q-0.11082 0-0.16624-0.0333-0.05541-0.0222-0.05541-0.0887 0-0.0887 0.06649-0.11082 0.06649-0.0332 0.1884-0.0665 0.21056-0.0554 0.31031-0.15516 0.11082-0.11082 0.11082-0.26598v-2.3827q0-0.29923-0.08866-0.52087-0.08866-0.22165-0.36572-0.27706-0.04433-0.0111-0.07758-0.0554t-0.03325-0.0887q0-0.11082 0.09974-0.13298 0.28814-0.0887 0.59845-0.2549 0.32139-0.17732 0.49871-0.28814 0.06649-0.0443 0.09974-0.0554 0.04433-0.0222 0.06649-0.0222 0.05541 0 0.05541 0.0776 0 0.0333-0.01108 0.16623 0 0.13299-0.01108 0.31031 0 0.17732-0.01108 0.35464 0 0.0222 0.02216 0.0222 0.17732-0.22165 0.38788-0.38788 0.22165-0.16624 0.4433-0.26598 0.23273-0.0997 0.4433-0.0997 0.23273 0 0.3768 0.0997 0.15515 0.0997 0.15515 0.2549 0 0.11082-0.0665 0.24381-0.05541 0.13299-0.15515 0.23273-0.09974 0.0997-0.21057 0.0997-0.06649 0-0.14407-0.0222-0.07758-0.0332-0.16624-0.0776-0.08866-0.0332-0.17732-0.0665t-0.17732-0.0333q-0.26598 0-0.52087 0.1884-0.24381 0.1884-0.24381 0.74252v2.2386q0 0.14408 0.15515 0.24382 0.15515 0.0887 0.43221 0.17732 0.12191 0.0332 0.1884 0.0665 0.0665 0.0332 0.0665 0.11082 0 0.12191-0.22165 0.12191-0.33247 0-0.50979-0.0333-0.16624-0.0222-0.45438-0.0222-0.1884 0-0.31031 0.0111-0.11082 0.0111-0.24381 0.0222-0.12191 0.0222-0.34355 0.0222z"/>
        <path d="m69.859 624.27q-0.60953 0-1.0639-0.29923-0.45438-0.29922-0.70927-0.84226-0.2549-0.55412-0.2549-1.2745 0-0.64278 0.28814-1.1637 0.29922-0.53195 0.78685-0.85334t1.0639-0.32139q0.4433 0 0.78685 0.17732 0.34356 0.17732 0.53196 0.49871 0.19948 0.3103 0.19948 0.72035 0 0.34356-0.33247 0.34356h-2.3384q-0.15515 0-0.22165 0.0887-0.05541 0.0776-0.05541 0.32139 0 0.53195 0.23273 0.97525 0.23273 0.43221 0.62061 0.69819 0.38788 0.25489 0.85334 0.25489 0.33247 0 0.59845-0.1219 0.27706-0.13299 0.48763-0.37681 0.04433-0.0554 0.06649-0.0665 0.02217-0.0222 0.05541-0.0222 0.08866 0 0.08866 0.11082 0 0.21057-0.19948 0.46546-0.16624 0.21057-0.39897 0.36572t-0.50979 0.23273q-0.27706 0.0887-0.57628 0.0887zm-1.0196-3.358h1.0085q0.26598 0 0.45438-0.0111t0.36572-0.0443q0.05541-0.0111 0.06649-0.0665 0.02217-0.0665 0.02217-0.17732 0-0.32139-0.28814-0.54304-0.27706-0.23273-0.66494-0.23273-0.2549 0-0.50979 0.15515-0.2549 0.14407-0.42113 0.36572t-0.16624 0.4433q0 0.11082 0.13299 0.11082z"/>
        <path d="m75.666 624.32q-0.02217 0-0.07758-0.0443-0.04433-0.0443-0.04433-0.0665 0-0.11082 0.02217-0.3103 0.03325-0.21057 0.03325-0.35464v-0.0665q-0.16624 0.25489-0.53196 0.52087t-0.91984 0.26598q-0.6317 0-1.0972-0.33248-0.45438-0.33247-0.70927-0.85334-0.24381-0.52087-0.24381-1.075 0-0.64278 0.29922-1.208 0.29922-0.56521 0.85334-0.91984 0.5652-0.35464 1.341-0.35464 0.22165 0 0.4433 0.0443 0.23273 0.0332 0.35464 0.0776 0.09974 0.0332 0.14407 0.0332 0.07758 0 0.07758-0.26597v-1.5737q0-0.45437-0.14407-0.60953-0.14407-0.15515-0.41005-0.19948-0.09974-0.0222-0.09974-0.14407 0-0.0997 0.08866-0.13299 0.48762-0.12191 0.76468-0.23273t0.43221-0.17732q0.04433-0.0222 0.07758-0.0222 0.04433-0.0111 0.06649-0.0111 0.0665 0 0.07758 0.0665 0 0.0665-0.02217 0.23273-0.01108 0.15515-0.03325 0.46546t-0.02217 0.80901v5.0092q0 0.3768 0.05541 0.55412 0.05541 0.16624 0.17732 0.16624 0.05541 0 0.1884-0.0111 0.14407-0.0111 0.28814-0.0222 0.19948-0.0111 0.19948 0.0997 0 0.0776-0.05541 0.14407-0.04433 0.0554-0.09974 0.0554-0.31031 0.0443-0.60953 0.13299-0.29922 0.0776-0.68711 0.24381-0.08866 0.0443-0.12191 0.0554-0.02216 0.0111-0.05541 0.0111zm-1.1193-0.6317q0.28814 0 0.5652-0.14407 0.27706-0.15515 0.48763-0.39897l0.01108-1.9948q0-0.29922-0.17732-0.58736-0.16624-0.28815-0.47654-0.46547-0.29922-0.1884-0.70927-0.1884-0.2549 0-0.57628 0.15516-0.32139 0.15515-0.55412 0.55412-0.23273 0.38788-0.23273 1.1304 0 0.6317 0.1884 1.0196 0.1884 0.3768 0.45438 0.57629 0.27706 0.19948 0.55412 0.27706 0.28814 0.0665 0.46546 0.0665z"/>
        <path d="m79.678 624.27q-0.60953 0-1.0639-0.29923-0.45438-0.29922-0.70927-0.84226-0.2549-0.55412-0.2549-1.2745 0-0.64278 0.28814-1.1637 0.29922-0.53195 0.78685-0.85334t1.0639-0.32139q0.4433 0 0.78685 0.17732t0.53196 0.49871q0.19948 0.3103 0.19948 0.72035 0 0.34356-0.33247 0.34356h-2.3384q-0.15515 0-0.22165 0.0887-0.05541 0.0776-0.05541 0.32139 0 0.53195 0.23273 0.97525 0.23273 0.43221 0.62062 0.69819 0.38788 0.25489 0.85334 0.25489 0.33247 0 0.59845-0.1219 0.27706-0.13299 0.48763-0.37681 0.04433-0.0554 0.06649-0.0665 0.02217-0.0222 0.05541-0.0222 0.08866 0 0.08866 0.11082 0 0.21057-0.19948 0.46546-0.16624 0.21057-0.39897 0.36572t-0.50979 0.23273q-0.27706 0.0887-0.57628 0.0887zm-1.0196-3.358h1.0085q0.26598 0 0.45438-0.0111t0.36572-0.0443q0.05541-0.0111 0.06649-0.0665 0.02217-0.0665 0.02217-0.17732 0-0.32139-0.28814-0.54304-0.27706-0.23273-0.66494-0.23273-0.2549 0-0.50979 0.15515-0.2549 0.14407-0.42113 0.36572t-0.16624 0.4433q0 0.11082 0.13299 0.11082z"/>
        <path d="m83.889 624.27q-0.60953 0-1.0639-0.29923-0.45438-0.29922-0.70927-0.84226-0.2549-0.55412-0.2549-1.2745 0-0.64278 0.28814-1.1637 0.29922-0.53195 0.78685-0.85334 0.48762-0.32139 1.0639-0.32139 0.4433 0 0.78685 0.17732t0.53196 0.49871q0.19948 0.3103 0.19948 0.72035 0 0.34356-0.33247 0.34356h-2.3384q-0.15515 0-0.22165 0.0887-0.05541 0.0776-0.05541 0.32139 0 0.53195 0.23273 0.97525 0.23273 0.43221 0.62061 0.69819 0.38788 0.25489 0.85334 0.25489 0.33247 0 0.59845-0.1219 0.27706-0.13299 0.48762-0.37681 0.04433-0.0554 0.0665-0.0665 0.02217-0.0222 0.05541-0.0222 0.08866 0 0.08866 0.11082 0 0.21057-0.19948 0.46546-0.16624 0.21057-0.39897 0.36572t-0.50979 0.23273q-0.27706 0.0887-0.57628 0.0887zm-1.0196-3.358h1.0085q0.26598 0 0.45438-0.0111t0.36572-0.0443q0.05541-0.0111 0.0665-0.0665 0.02217-0.0665 0.02217-0.17732 0-0.32139-0.28814-0.54304-0.27706-0.23273-0.66494-0.23273-0.2549 0-0.50979 0.15515-0.2549 0.14407-0.42113 0.36572t-0.16624 0.4433q0 0.11082 0.13299 0.11082z"/>
        <path d="m86.338 624.14q-0.08866 0-0.15515-0.0222t-0.06649-0.0997q0-0.0776 0.06649-0.11082 0.07758-0.0332 0.1884-0.0665 0.15515-0.0554 0.31031-0.12191 0.16624-0.0776 0.16624-0.29923v-2.3827q0-0.29923-0.06649-0.52087-0.0665-0.23273-0.35464-0.27706-0.04433-0.0111-0.07758-0.0443-0.02217-0.0333-0.02217-0.0998 0-0.11082 0.08866-0.13298 0.29922-0.0776 0.47654-0.15516 0.17732-0.0887 0.31031-0.1884 0.14407-0.11082 0.34355-0.23273 0.02217-0.0111 0.04433-0.0222 0.02216-0.0222 0.05541-0.0222 0.06649 0 0.06649 0.0776t-0.03325 0.32139q-0.02217 0.23273-0.02217 0.38788 0 0.11083 0.02217 0.13299h0.02217q0.2549-0.24381 0.66494-0.48763 0.42113-0.25489 1.0639-0.25489 0.39897 0 0.66494 0.17732 0.26598 0.16623 0.4433 0.58737h0.03325q0.35464-0.32139 0.80902-0.54304t0.99742-0.22165q0.36572 0 0.60953 0.22165t0.36572 0.57628q0.13299 0.35464 0.13299 0.74252v2.3606q0 0.22165 0.15515 0.29923 0.15515 0.0665 0.32139 0.12191 0.11082 0.0332 0.17732 0.0665 0.07758 0.0332 0.07758 0.11082 0 0.0665-0.05541 0.0887-0.04433 0.0333-0.16624 0.0333-0.22165 0-0.34355-0.0222-0.12191-0.0111-0.23273-0.0222-0.09974-0.0111-0.29922-0.0111-0.1884 0-0.31031 0.0111t-0.2549 0.0222q-0.13299 0.0222-0.35464 0.0222-0.09974 0-0.16624-0.0333-0.05541-0.0222-0.05541-0.0887 0-0.0887 0.0665-0.1219 0.07758-0.0332 0.1884-0.0554 0.17732-0.0443 0.32139-0.12191 0.15515-0.0776 0.15515-0.29923v-2.3273q0-0.26598-0.12191-0.49871-0.12191-0.24381-0.32139-0.39896-0.19948-0.15516-0.4433-0.15516-0.27706 0-0.52087 0.0665-0.23273 0.0665-0.4433 0.23273-0.31031 0.24381-0.31031 0.79793v2.283q0 0.22165 0.16624 0.29923 0.16624 0.0776 0.33247 0.12191 0.11082 0.0222 0.17732 0.0665 0.07758 0.0332 0.07758 0.11082 0 0.0665-0.05541 0.0887-0.05541 0.0333-0.16624 0.0333-0.22165 0-0.35464-0.0222-0.12191-0.0111-0.24381-0.0222-0.11082-0.0111-0.31031-0.0111-0.1884 0-0.31031 0.0111t-0.2549 0.0222q-0.13299 0.0222-0.35464 0.0222-0.08866 0-0.15515-0.0333-0.06649-0.0222-0.06649-0.0887 0-0.0887 0.07758-0.11082 0.08866-0.0332 0.17732-0.0665 0.16624-0.0554 0.32139-0.12191 0.16624-0.0776 0.16624-0.29923v-2.3273q0-0.26598-0.12191-0.49871-0.12191-0.24381-0.32139-0.39896-0.19948-0.15516-0.4433-0.15516-0.27706 0-0.52087 0.0665-0.23273 0.0665-0.4433 0.23273-0.29922 0.22165-0.29922 0.79793v2.283q0 0.22165 0.15515 0.29923 0.15515 0.0665 0.32139 0.12191 0.08866 0.0332 0.16624 0.0665 0.08866 0.0222 0.08866 0.11082 0 0.0665-0.0665 0.0887-0.05541 0.0333-0.15515 0.0333-0.22165 0-0.35464-0.0222-0.12191-0.0111-0.23273-0.0222t-0.31031-0.0111q-0.1884 0-0.31031 0.0111-0.11082 0.0111-0.24381 0.0222-0.12191 0.0222-0.34355 0.0222z"/>
        <path d="m96.833 624.27q-0.60953 0-1.0639-0.29923-0.45438-0.29922-0.70927-0.84226-0.2549-0.55412-0.2549-1.2745 0-0.64278 0.28814-1.1637 0.29922-0.53195 0.78685-0.85334t1.0639-0.32139q0.4433 0 0.78685 0.17732 0.34356 0.17732 0.53196 0.49871 0.19948 0.3103 0.19948 0.72035 0 0.34356-0.33247 0.34356h-2.3384q-0.15515 0-0.22165 0.0887-0.05541 0.0776-0.05541 0.32139 0 0.53195 0.23273 0.97525 0.23273 0.43221 0.62061 0.69819 0.38788 0.25489 0.85334 0.25489 0.33247 0 0.59845-0.1219 0.27706-0.13299 0.48762-0.37681 0.04433-0.0554 0.0665-0.0665 0.02216-0.0222 0.05541-0.0222 0.08866 0 0.08866 0.11082 0 0.21057-0.19948 0.46546-0.16624 0.21057-0.39897 0.36572t-0.50979 0.23273q-0.27706 0.0887-0.57628 0.0887zm-1.0196-3.358h1.0085q0.26598 0 0.45438-0.0111t0.36572-0.0443q0.05541-0.0111 0.0665-0.0665 0.02216-0.0665 0.02216-0.17732 0-0.32139-0.28814-0.54304-0.27706-0.23273-0.66494-0.23273-0.2549 0-0.50979 0.15515-0.2549 0.14407-0.42113 0.36572t-0.16624 0.4433q0 0.11082 0.13299 0.11082z"/>
        <path d="m99.338 624.14q-0.11082 0-0.16624-0.0333-0.05541-0.0222-0.05541-0.0887 0-0.0887 0.06649-0.11082 0.06649-0.0332 0.1884-0.0665 0.21056-0.0554 0.31031-0.15516 0.11082-0.11082 0.11082-0.26598v-2.3827q0-0.29923-0.08866-0.52087-0.08866-0.22165-0.36572-0.27706-0.04433-0.0111-0.07758-0.0554t-0.03325-0.0887q0-0.11082 0.09974-0.13298 0.28814-0.0887 0.59845-0.2549 0.32139-0.17732 0.4987-0.28814 0.0665-0.0443 0.0998-0.0554 0.0443-0.0222 0.0665-0.0222 0.0554 0 0.0554 0.0776 0 0.0333-0.0111 0.16623 0 0.13299-0.0111 0.31031 0 0.17732-0.0111 0.35464 0 0.0222 0.0222 0.0222 0.17732-0.22165 0.38788-0.38788 0.22165-0.16624 0.4433-0.26598 0.23273-0.0997 0.4433-0.0997 0.23273 0 0.3768 0.0997 0.15515 0.0997 0.15515 0.2549 0 0.11082-0.0665 0.24381-0.0554 0.13299-0.15516 0.23273-0.0997 0.0997-0.21056 0.0997-0.0665 0-0.14407-0.0222-0.0776-0.0332-0.16624-0.0776-0.0887-0.0332-0.17732-0.0665-0.0887-0.0333-0.17732-0.0333-0.26597 0-0.52087 0.1884-0.24381 0.1884-0.24381 0.74252v2.2386q0 0.14408 0.15515 0.24382 0.15515 0.0887 0.43221 0.17732 0.12191 0.0332 0.18841 0.0665 0.0665 0.0332 0.0665 0.11082 0 0.12191-0.22165 0.12191-0.33247 0-0.50979-0.0333-0.16623-0.0222-0.45438-0.0222-0.1884 0-0.3103 0.0111-0.11082 0.0111-0.24381 0.0222-0.12191 0.0222-0.34356 0.0222z"/>
      </g>
      <g transform="matrix(.38199 0 0 .38199 112.71 -117.87)" opacity=".76" stroke="#000" stroke-width="0" style="shape-inside:url(#rect57);white-space:pre" aria-label="slave trader">
        <path d="m72.656 610.41q-0.34356 0-0.64278-0.11082-0.29922-0.0998-0.50979-0.28815-0.05541-0.1219-0.08866-0.41005-0.02217-0.28814-0.03325-0.47654 0-0.0997 0.14407-0.0997 0.04433 0 0.07758 0.0222 0.04433 0.0111 0.05541 0.0554 0.14407 0.54303 0.45438 0.77576 0.32139 0.23273 0.64278 0.23273t0.54304-0.21056q0.23273-0.22165 0.23273-0.54304 0-0.29922-0.19948-0.50979-0.19948-0.22165-0.69819-0.53195-0.3768-0.23273-0.60953-0.4433t-0.34356-0.43221q-0.09974-0.22165-0.09974-0.49871 0-0.35464 0.16624-0.64278t0.49871-0.45438q0.33247-0.17732 0.83118-0.17732 0.33247 0 0.55412 0.0665t0.33247 0.14407q0.08866 0.1219 0.14407 0.38788 0.06649 0.2549 0.06649 0.48763 0 0.0776-0.11082 0.0776-0.06649 0-0.13299-0.0222-0.05541-0.0332-0.07758-0.0776-0.14407-0.36572-0.36572-0.55412-0.21057-0.19948-0.53196-0.19948-0.27706 0-0.49871 0.16624-0.21056 0.16623-0.21056 0.48762 0 0.2549 0.15515 0.45438 0.16624 0.19948 0.60953 0.45438 0.64278 0.36572 0.95309 0.68711 0.32139 0.3103 0.32139 0.83118 0 0.59845-0.45438 0.97525t-1.1747 0.3768z"/>
        <path d="m75.072 610.29q-0.05541 0-0.14407-0.0222-0.07758-0.0111-0.07758-0.0776 0-0.0887 0.07758-0.1219 0.08866-0.0443 0.17732-0.0776 0.16624-0.0554 0.32139-0.12191 0.15515-0.0776 0.15515-0.29922v-5.5855q0-0.32139-0.12191-0.53196-0.11082-0.22165-0.38788-0.27706-0.08866-0.0222-0.08866-0.14407 0-0.11082 0.07758-0.13299 0.28814-0.0665 0.49871-0.13299 0.21057-0.0776 0.38788-0.15515 0.1884-0.0776 0.36572-0.14407 0.04433-0.0222 0.0665-0.0222 0.02216 0 0.03325 0.0332 0.02217 0.0222 0.02217 0.0443 0 0.0997-0.04433 0.43221-0.03325 0.32139-0.03325 1.075v5.5412q0 0.22165 0.15515 0.29922 0.15515 0.0665 0.32139 0.12191 0.08866 0.0333 0.16624 0.0776 0.08866 0.0332 0.08866 0.1219 0 0.0665-0.08866 0.0776-0.07758 0.0222-0.13299 0.0222-0.21056 0-0.34355-0.0222-0.12191-0.0111-0.24381-0.0222-0.11082-0.0111-0.31031-0.0111-0.1884 0-0.31031 0.0111t-0.24381 0.0222q-0.12191 0.0222-0.34356 0.0222z"/>
        <path d="m78.596 610.41q-0.19948 0-0.41005-0.15515-0.19948-0.15516-0.34355-0.37681-0.13299-0.22164-0.13299-0.42113 0-0.35463 0.1884-0.55412 0.1884-0.19948 0.59845-0.36572l1.1304-0.46546q0.22165-0.0887 0.2549-0.15515 0.04433-0.0665 0.05541-0.28814l0.02217-0.70928q0.01108-0.28814-0.16624-0.4987-0.16624-0.21057-0.48763-0.21057-0.16624 0-0.33247 0.0554t-0.27706 0.14407q-0.0665 0.0443-0.08866 0.13299-0.02217 0.0887-0.02217 0.1884 0 0.0443 0 0.0997 0.01108 0.0554 0.01108 0.0997 0 0.0554-0.14407 0.15515-0.13299 0.0887-0.31031 0.16624-0.16624 0.0665-0.27706 0.0665-0.05541 0-0.08866-0.0222-0.03325-0.0333-0.03325-0.0776 0-0.17732 0.11082-0.3768 0.12191-0.21057 0.33247-0.38789 0.2549-0.23273 0.55412-0.41005 0.29922-0.17731 0.58737-0.27706 0.28814-0.0997 0.50979-0.0997 0.39897 0 0.65386 0.28814 0.26598 0.27706 0.2549 0.6982l-0.05541 2.6598q-0.01108 0.23273 0.09974 0.3768 0.12191 0.14407 0.29922 0.14407 0.27706 0 0.41005-0.1219 0.05541-0.0554 0.08866-0.0554 0.05541 0 0.08866 0.0332t0.03325 0.0887q0 0.12191-0.12191 0.24382-0.17732 0.17731-0.38788 0.27706-0.19948 0.11082-0.3768 0.11082-0.50979 0-0.80902-0.57629h-0.03325q-0.36572 0.29923-0.69819 0.43222-0.33247 0.14407-0.68711 0.14407zm0.52087-0.53196q0.22165 0 0.3768-0.0665 0.15515-0.0776 0.27706-0.19948 0.05541-0.0554 0.08866-0.14407 0.04433-0.0997 0.05541-0.31031l0.02217-0.54304q0.01108-0.12191-0.01108-0.17732-0.02216-0.0554-0.08866-0.0554-0.02217 0-0.07758 0.0111t-0.14407 0.0443q-0.58737 0.21057-0.8201 0.4433-0.22165 0.22165-0.22165 0.41005 0 0.28814 0.16624 0.44329 0.17732 0.14407 0.3768 0.14407z"/>
        <path d="m83.871 610.49q-0.04433 0-0.11082-0.17732-0.0665-0.16624-0.08866-0.24381-0.07758-0.18841-0.14407-0.38789-0.06649-0.21056-0.13299-0.38788-0.24381-0.68711-0.53196-1.341-0.27706-0.66495-0.54304-1.341-0.07758-0.19949-0.24381-0.35464-0.15515-0.16624-0.32139-0.21057-0.08866-0.0332-0.14407-0.0665t-0.05541-0.11082q0-0.0665 0.07758-0.0776 0.08866-0.0222 0.14407-0.0222 0.22165 0 0.32139 0.0111t0.19948 0.0332q0.09974 0.0111 0.28814 0.0111 0.19948 0 0.29922-0.0111 0.09974-0.0222 0.21057-0.0332 0.11082-0.0111 0.32139-0.0111 0.05541 0 0.13299 0.0222 0.08866 0.0111 0.08866 0.0776 0 0.0776-0.07758 0.1219t-0.17732 0.0776q-0.11082 0.0443-0.16624 0.17732-0.05541 0.1219-0.05541 0.27706 0 0.0776 0.01108 0.15515 0.01108 0.0776 0.03325 0.14407l0.87551 2.3273q0.01108 0.0111 0.01108 0.0111 0.01108 0 0.02217-0.0111l0.84226-2.1611q0.04433-0.11083 0.0665-0.23273 0.02216-0.13299 0.02216-0.22165 0-0.22165-0.06649-0.31031-0.06649-0.0997-0.22165-0.15515-0.14407-0.0554-0.19948-0.0887t-0.05541-0.11082q0-0.0665 0.06649-0.0776 0.07758-0.0222 0.15515-0.0222 0.12191 0 0.32139 0.0333 0.19948 0.0222 0.48763 0.0222t0.38788-0.0222q0.11082-0.0333 0.26598-0.0333 0.08866 0 0.15515 0.0222 0.0665 0.0111 0.0665 0.0776 0 0.1219-0.2549 0.19948-0.16624 0.0443-0.36572 0.25489-0.19948 0.21057-0.32139 0.48763l-0.86443 2.0835q-0.02216 0.0443-0.08866 0.22165-0.06649 0.16623-0.14407 0.3768-0.07758 0.19948-0.13299 0.35464-0.05541 0.14407-0.05541 0.14407t-0.04433 0.11082q-0.04433 0.0997-0.09974 0.21057-0.05541 0.1219-0.09974 0.17732z"/>
        <path d="m88.437 610.42q-0.60953 0-1.0639-0.29922-0.45438-0.29923-0.70927-0.84227-0.2549-0.55412-0.2549-1.2745 0-0.64278 0.28814-1.1636 0.29922-0.53196 0.78685-0.85335t1.0639-0.32139q0.4433 0 0.78685 0.17732t0.53196 0.49871q0.19948 0.31031 0.19948 0.72035 0 0.34356-0.33247 0.34356h-2.3384q-0.15515 0-0.22165 0.0887-0.05541 0.0776-0.05541 0.32139 0 0.53195 0.23273 0.97525 0.23273 0.43221 0.62062 0.69819 0.38788 0.2549 0.85334 0.2549 0.33247 0 0.59845-0.12191 0.27706-0.13299 0.48763-0.3768 0.04433-0.0554 0.06649-0.0665 0.02217-0.0222 0.05541-0.0222 0.08866 0 0.08866 0.11082 0 0.21057-0.19948 0.46546-0.16624 0.21057-0.39897 0.36572-0.23273 0.15516-0.50979 0.23273-0.27706 0.0887-0.57628 0.0887zm-1.0196-3.358h1.0085q0.26598 0 0.45438-0.0111t0.36572-0.0443q0.05541-0.0111 0.06649-0.0665 0.02217-0.0665 0.02217-0.17732 0-0.32139-0.28814-0.54304-0.27706-0.23273-0.66494-0.23273-0.2549 0-0.50979 0.15516-0.2549 0.14407-0.42113 0.36571-0.16624 0.22165-0.16624 0.4433 0 0.11082 0.13299 0.11082z"/>
        <path d="m70.207 624.26q-0.54304 0-0.85334-0.33248-0.29922-0.33247-0.29922-0.98633v-2.5711q0-0.0886-0.0665-0.1219-0.06649-0.0443-0.28814-0.0443h-0.06649q-0.05541 0-0.09974-0.0665-0.03325-0.0776-0.03325-0.15515 0-0.0222 0.03325-0.0665t0.04433-0.0554q0.22165-0.15515 0.39897-0.3103 0.1884-0.15516 0.33247-0.29923 0.15515-0.15515 0.2549-0.27706 0.05541-0.0554 0.08866-0.0887 0.04433-0.0443 0.09974-0.0443t0.09974 0.0222q0.05541 0.0222 0.04433 0.0997l-0.05541 0.49871q-0.01108 0.1219 0.05541 0.16623 0.0665 0.0443 0.21057 0.0443h1.2634q0.04433 0 0.07758 0.0776 0.03325 0.0665 0.03325 0.16624 0 0.0997-0.03325 0.19948-0.03325 0.0887-0.07758 0.0887h-1.0972q-0.27706 0-0.36572 0.0443-0.07758 0.0443-0.07758 0.26598v2.1832q0 0.44329 0.1884 0.69819 0.1884 0.25489 0.54304 0.25489 0.32139 0 0.49871-0.0443 0.17732-0.0554 0.32139-0.15516 0.02217-0.0222 0.04433-0.0222 0.04433 0 0.05541 0.0554 0.02217 0.0443 0.02217 0.0997t-0.1884 0.22165q-0.17732 0.16623-0.47654 0.31031-0.28814 0.14407-0.6317 0.14407z"/>
        <path d="m72.135 624.14q-0.11082 0-0.16624-0.0333-0.05541-0.0222-0.05541-0.0887 0-0.0887 0.06649-0.11082 0.0665-0.0332 0.1884-0.0665 0.21057-0.0554 0.31031-0.15516 0.11082-0.11082 0.11082-0.26598v-2.3827q0-0.29923-0.08866-0.52087-0.08866-0.22165-0.36572-0.27706-0.04433-0.0111-0.07758-0.0554t-0.03325-0.0887q0-0.11082 0.09974-0.13298 0.28814-0.0887 0.59845-0.2549 0.32139-0.17732 0.49871-0.28814 0.0665-0.0443 0.09974-0.0554 0.04433-0.0222 0.06649-0.0222 0.05541 0 0.05541 0.0776 0 0.0333-0.01108 0.16623 0 0.13299-0.01108 0.31031 0 0.17732-0.01108 0.35464 0 0.0222 0.02217 0.0222 0.17732-0.22165 0.38788-0.38788 0.22165-0.16624 0.4433-0.26598 0.23273-0.0997 0.4433-0.0997 0.23273 0 0.3768 0.0997 0.15515 0.0997 0.15515 0.2549 0 0.11082-0.06649 0.24381-0.05541 0.13299-0.15515 0.23273-0.09974 0.0997-0.21057 0.0997-0.06649 0-0.14407-0.0222-0.07758-0.0332-0.16624-0.0776-0.08866-0.0332-0.17732-0.0665t-0.17732-0.0333q-0.26598 0-0.52087 0.1884-0.24381 0.1884-0.24381 0.74252v2.2386q0 0.14408 0.15515 0.24382 0.15515 0.0887 0.43221 0.17732 0.12191 0.0332 0.1884 0.0665 0.06649 0.0332 0.06649 0.11082 0 0.12191-0.22165 0.12191-0.33247 0-0.50979-0.0333-0.16624-0.0222-0.45438-0.0222-0.1884 0-0.31031 0.0111-0.11082 0.0111-0.24381 0.0222-0.12191 0.0222-0.34355 0.0222z"/>
        <path d="m76.59 624.26q-0.19948 0-0.41005-0.15516-0.19948-0.15515-0.34355-0.3768-0.13299-0.22165-0.13299-0.42113 0-0.35464 0.1884-0.55412t0.59845-0.36572l1.1304-0.46546q0.22165-0.0887 0.2549-0.15515 0.04433-0.0665 0.05541-0.28815l0.02217-0.70927q0.01108-0.28814-0.16624-0.49871-0.16624-0.21056-0.48763-0.21056-0.16624 0-0.33247 0.0554t-0.27706 0.14407q-0.06649 0.0443-0.08866 0.13299-0.02217 0.0887-0.02217 0.1884 0 0.0443 0 0.0997 0.01108 0.0554 0.01108 0.0997 0 0.0554-0.14407 0.15516-0.13299 0.0887-0.31031 0.16623-0.16624 0.0665-0.27706 0.0665-0.05541 0-0.08866-0.0222-0.03325-0.0332-0.03325-0.0776 0-0.17732 0.11082-0.37681 0.12191-0.21056 0.33247-0.38788 0.2549-0.23273 0.55412-0.41005t0.58737-0.27706q0.28814-0.0997 0.50979-0.0997 0.39897 0 0.65386 0.28814 0.26598 0.27706 0.2549 0.69819l-0.05541 2.6598q-0.01108 0.23273 0.09974 0.3768 0.12191 0.14407 0.29922 0.14407 0.27706 0 0.41005-0.1219 0.05541-0.0554 0.08866-0.0554 0.05541 0 0.08866 0.0332 0.03325 0.0333 0.03325 0.0887 0 0.12191-0.12191 0.24381-0.17732 0.17732-0.38788 0.27706-0.19948 0.11083-0.3768 0.11083-0.50979 0-0.80902-0.57629h-0.03325q-0.36572 0.29923-0.69819 0.43222-0.33247 0.14407-0.68711 0.14407zm0.52087-0.53196q0.22165 0 0.3768-0.0665 0.15515-0.0776 0.27706-0.19949 0.05541-0.0554 0.08866-0.14407 0.04433-0.0997 0.05541-0.3103l0.02217-0.54304q0.01108-0.12191-0.01108-0.17732-0.02217-0.0554-0.08866-0.0554-0.02217 0-0.07758 0.0111t-0.14407 0.0443q-0.58737 0.21057-0.8201 0.4433-0.22165 0.22164-0.22165 0.41004 0 0.28815 0.16624 0.4433 0.17732 0.14407 0.3768 0.14407z"/>
        <path d="m83.672 624.32q-0.02217 0-0.07758-0.0443-0.04433-0.0443-0.04433-0.0665 0-0.11082 0.02217-0.3103 0.03325-0.21057 0.03325-0.35464v-0.0665q-0.16624 0.25489-0.53196 0.52087t-0.91984 0.26598q-0.6317 0-1.0972-0.33248-0.45438-0.33247-0.70927-0.85334-0.24381-0.52087-0.24381-1.075 0-0.64278 0.29922-1.208 0.29922-0.56521 0.85334-0.91984 0.5652-0.35464 1.341-0.35464 0.22165 0 0.4433 0.0443 0.23273 0.0332 0.35464 0.0776 0.09974 0.0332 0.14407 0.0332 0.07758 0 0.07758-0.26597v-1.5737q0-0.45437-0.14407-0.60953-0.14407-0.15515-0.41005-0.19948-0.09974-0.0222-0.09974-0.14407 0-0.0997 0.08866-0.13299 0.48763-0.12191 0.76469-0.23273t0.43221-0.17732q0.04433-0.0222 0.07758-0.0222 0.04433-0.0111 0.0665-0.0111 0.06649 0 0.07758 0.0665 0 0.0665-0.02216 0.23273-0.01108 0.15515-0.03325 0.46546-0.02216 0.31031-0.02216 0.80901v5.0092q0 0.3768 0.05541 0.55412 0.05541 0.16624 0.17732 0.16624 0.05541 0 0.1884-0.0111 0.14407-0.0111 0.28814-0.0222 0.19948-0.0111 0.19948 0.0997 0 0.0776-0.05541 0.14407-0.04433 0.0554-0.09974 0.0554-0.31031 0.0443-0.60953 0.13299-0.29922 0.0776-0.68711 0.24381-0.08866 0.0443-0.12191 0.0554-0.02217 0.0111-0.05541 0.0111zm-1.1193-0.6317q0.28814 0 0.5652-0.14407 0.27706-0.15515 0.48762-0.39897l0.01108-1.9948q0-0.29922-0.17732-0.58736-0.16624-0.28815-0.47654-0.46547-0.29922-0.1884-0.70927-0.1884-0.2549 0-0.57628 0.15516-0.32139 0.15515-0.55412 0.55412-0.23273 0.38788-0.23273 1.1304 0 0.6317 0.1884 1.0196 0.1884 0.3768 0.45438 0.57629 0.27706 0.19948 0.55412 0.27706 0.28814 0.0665 0.46546 0.0665z"/>
        <path d="m87.684 624.27q-0.60953 0-1.0639-0.29923-0.45438-0.29922-0.70927-0.84226-0.2549-0.55412-0.2549-1.2745 0-0.64278 0.28814-1.1637 0.29922-0.53195 0.78685-0.85334t1.0639-0.32139q0.4433 0 0.78685 0.17732t0.53196 0.49871q0.19948 0.3103 0.19948 0.72035 0 0.34356-0.33247 0.34356h-2.3384q-0.15515 0-0.22165 0.0887-0.05541 0.0776-0.05541 0.32139 0 0.53195 0.23273 0.97525 0.23273 0.43221 0.62062 0.69819 0.38788 0.25489 0.85334 0.25489 0.33247 0 0.59845-0.1219 0.27706-0.13299 0.48763-0.37681 0.04433-0.0554 0.06649-0.0665 0.02216-0.0222 0.05541-0.0222 0.08866 0 0.08866 0.11082 0 0.21057-0.19948 0.46546-0.16624 0.21057-0.39897 0.36572t-0.50979 0.23273q-0.27706 0.0887-0.57628 0.0887zm-1.0196-3.358h1.0085q0.26598 0 0.45438-0.0111t0.36572-0.0443q0.05541-0.0111 0.06649-0.0665 0.02217-0.0665 0.02217-0.17732 0-0.32139-0.28814-0.54304-0.27706-0.23273-0.66494-0.23273-0.2549 0-0.50979 0.15515-0.2549 0.14407-0.42113 0.36572t-0.16624 0.4433q0 0.11082 0.13299 0.11082z"/>
        <path d="m90.188 624.14q-0.11082 0-0.16624-0.0333-0.05541-0.0222-0.05541-0.0887 0-0.0887 0.06649-0.11082 0.0665-0.0332 0.1884-0.0665 0.21057-0.0554 0.31031-0.15516 0.11082-0.11082 0.11082-0.26598v-2.3827q0-0.29923-0.08866-0.52087-0.08866-0.22165-0.36572-0.27706-0.04433-0.0111-0.07758-0.0554t-0.03325-0.0887q0-0.11082 0.09974-0.13298 0.28814-0.0887 0.59845-0.2549 0.32139-0.17732 0.49871-0.28814 0.06649-0.0443 0.09974-0.0554 0.04433-0.0222 0.06649-0.0222 0.05541 0 0.05541 0.0776 0 0.0333-0.01108 0.16623 0 0.13299-0.01108 0.31031 0 0.17732-0.01108 0.35464 0 0.0222 0.02217 0.0222 0.17732-0.22165 0.38788-0.38788 0.22165-0.16624 0.4433-0.26598 0.23273-0.0997 0.4433-0.0997 0.23273 0 0.3768 0.0997 0.15515 0.0997 0.15515 0.2549 0 0.11082-0.06649 0.24381-0.05541 0.13299-0.15515 0.23273-0.09974 0.0997-0.21057 0.0997-0.06649 0-0.14407-0.0222-0.07758-0.0332-0.16624-0.0776-0.08866-0.0332-0.17732-0.0665t-0.17732-0.0333q-0.26598 0-0.52087 0.1884-0.24381 0.1884-0.24381 0.74252v2.2386q0 0.14408 0.15515 0.24382 0.15515 0.0887 0.43221 0.17732 0.12191 0.0332 0.1884 0.0665 0.06649 0.0332 0.06649 0.11082 0 0.12191-0.22165 0.12191-0.33247 0-0.50979-0.0333-0.16624-0.0222-0.45438-0.0222-0.1884 0-0.31031 0.0111-0.11082 0.0111-0.24381 0.0222-0.12191 0.0222-0.34355 0.0222z"/>
      </g>
      <g transform="matrix(.72744 0 0 .72744 58.361 32.952)" stroke-width="1.7368">
        <g transform="matrix(.18217 0 0 .18217 7.7361 100.98)" stroke-width="0">
          <path transform="scale(.26458)" d="m159 845.71c-8.2535-4.7452-10.674-7.1564-15.605-15.543l-3.4459-5.8617-0.77086-541.48h-14.616v101.99c0 113.71 0.58022 107.12-10.295 116.95-9.9721 9.0092-23.907 8.5826-33.985-1.0404-9.7753-9.3339-9.2082-1.1566-9.2082-132.76 0-130.06-0.26846-125.49 8.4142-143 9.5799-19.321 29.756-36.497 50.828-43.27 9.2427-2.9708 173.63-2.8893 184.27 0.0914 23.835 6.6733 45.626 23.605 55.13 42.836 11.013 22.283 10.459 15.07 10.944 142.53l0.43466 114.36-3.3968 6.4235c-1.8683 3.533-5.9052 8.4537-8.971 10.935-5.0061 4.0518-6.5919 4.5116-15.56 4.5116-8.9692 0-10.559-0.4612-15.617-4.5294-10.553-8.4881-9.9481-2.0677-10.76-114.17l-0.73272-101.11-21.249-0.86111-9e-3 268.6c-6e-3 187.97-0.48372 270.32-1.5923 274.31-0.95648 3.4449-4.1897 8.2741-8.1602 12.188-15.752 15.529-37.325 16.406-52.275 2.1253-11.4-10.89-10.418 4.2962-11.236-173.89l-0.7325-159.73h-20.516l-0.73271 159.73-0.73272 159.73-3.233 6.0437c-9.0961 17.004-30.224 23.306-46.592 13.896z"/>
          <path transform="scale(.26458)" d="m193.73 157.46c-23.652-7.4374-41.22-24.123-50.391-47.861-3.701-9.579-4.5375-35.526-1.4075-43.655 5.2146-13.542 10.475-21.929 19.361-30.871 22.607-22.748 54.131-28.098 83.435-14.161 11.651 5.5412 26.792 20.469 32.459 32.001 6.9581 14.159 7.7903 17.674 7.7681 32.814-0.0362 24.817-8.235 41.543-28.732 58.617-15.42 12.845-44.167 18.878-62.493 13.116z"/>
        </g>
      </g>
      <g transform="matrix(.72744 0 0 .72744 114.22 32.952)" stroke-width="1.7368">
        <g transform="matrix(.18217 0 0 .18217 7.7361 100.98)" stroke-width="0">
          <path transform="scale(.26458)" d="m159 845.71c-8.2535-4.7452-10.674-7.1564-15.605-15.543l-3.4459-5.8617-0.77086-541.48h-14.616v101.99c0 113.71 0.58022 107.12-10.295 116.95-9.9721 9.0092-23.907 8.5826-33.985-1.0404-9.7753-9.3339-9.2082-1.1566-9.2082-132.76 0-130.06-0.26846-125.49 8.4142-143 9.5799-19.321 29.756-36.497 50.828-43.27 9.2427-2.9708 173.63-2.8893 184.27 0.0914 23.835 6.6733 45.626 23.605 55.13 42.836 11.013 22.283 10.459 15.07 10.944 142.53l0.43466 114.36-3.3968 6.4235c-1.8683 3.533-5.9052 8.4537-8.971 10.935-5.0061 4.0518-6.5919 4.5116-15.56 4.5116-8.9692 0-10.559-0.4612-15.617-4.5294-10.553-8.4881-9.9481-2.0677-10.76-114.17l-0.73272-101.11-21.249-0.86111-9e-3 268.6c-6e-3 187.97-0.48372 270.32-1.5923 274.31-0.95648 3.4449-4.1897 8.2741-8.1602 12.188-15.752 15.529-37.325 16.406-52.275 2.1253-11.4-10.89-10.418 4.2962-11.236-173.89l-0.7325-159.73h-20.516l-0.73271 159.73-0.73272 159.73-3.233 6.0437c-9.0961 17.004-30.224 23.306-46.592 13.896z"/>
          <path transform="scale(.26458)" d="m193.73 157.46c-23.652-7.4374-41.22-24.123-50.391-47.861-3.701-9.579-4.5375-35.526-1.4075-43.655 5.2146-13.542 10.475-21.929 19.361-30.871 22.607-22.748 54.131-28.098 83.435-14.161 11.651 5.5412 26.792 20.469 32.459 32.001 6.9581 14.159 7.7903 17.674 7.7681 32.814-0.0362 24.817-8.235 41.543-28.732 58.617-15.42 12.845-44.167 18.878-62.493 13.116z"/>
        </g>
      </g>
      <path d="m77.337 110.01 0.53992 0.50412c10.992-11.773 29.347-12.539 41.278-1.8245l-0.85738 0.91827-0.63598 0.68114 4.6922 0.90751-1.2268-4.619-0.63598 0.68115-0.83198 0.89106c-12.223-10.987-31.057-10.205-42.322 1.8603zm41.776-0.1931 1.6424-1.759 0.58175 2.1895z" stop-color="#000000" stroke-width="1.2634"/>
      <path d="m121.7 135.96-0.53992-0.50412c-10.992 11.773-29.347 12.539-41.278 1.8245l0.85738-0.91828 0.63598-0.68114-4.6922-0.9075 1.2268 4.619 1.468-1.5722c12.223 10.987 31.057 10.205 42.322-1.8603zm-41.776 0.19309-1.6424 1.7591-0.58175-2.1895z" stop-color="#000000" stroke-width="1.2634"/>
      <path d="m93.188 94.487h10.832v13.927h-10.832z" fill="#fff" stroke-width="1.2836"/>
      <g transform="matrix(.29966 0 0 .29966 30.624 8.9507)" stroke-width="4.2836" style="shape-inside:url(#rect58);white-space:pre" aria-label="$">
        <path d="m226.08 290.66v4.88c-5.92 0.2-9.84 3.28-9.84 7.72 0 3.88 2.8 5.88 9.84 6.88v9.84c-3.56-0.24-5.44-1.2-5.44-2.8 0-0.28 0.04-0.72 0.12-1.16 0.12-0.48 0.16-0.96 0.16-1.32 0-1.44-1-2.48-2.4-2.48-1.68 0-2.84 1.2-2.84 2.96 0 3.6 3.48 5.76 10.4 6.44v5.08h1.48v-5.08c6.56-0.6 10.48-3.68 10.48-8.12 0-2.72-1.32-4.56-3.92-5.64-1.32-0.56-3.16-0.96-6.56-1.48v-9.2c3.04 0.4 4.36 1.36 4.36 3.16v0.32c-0.12 0.8-0.12 0.84-0.12 1.16 0 1.32 0.88 2.2 2.16 2.2 1.48 0 2.48-1 2.48-2.44 0-1.48-0.92-2.92-2.64-4.12-1.52-1.08-3.36-1.68-6.24-1.92v-4.88zm0 6.52v8.84c-2.2-0.32-3.04-0.56-4.16-1.24-1.16-0.68-1.88-1.92-1.88-3.28 0-1.4 0.8-2.68 2-3.36 1-0.56 2.56-0.96 3.64-0.96zm1.48 13.24c1.8 0.32 2.84 0.56 3.68 0.88 2 0.76 3 1.96 3 3.6 0 2.92-2.68 4.96-6.68 5.08z"/>
      </g>
      <g transform="translate(.58914)">
        <path d="m93.42 141.52h10.368v4.8403h-10.368z" fill="#fff" stroke-width="1.2836"/>
        <g transform="matrix(.27168 0 0 .27168 41.438 -14.861)" fill="#1a1a1a" stroke-width="4.7246" style="shape-inside:url(#rect59);white-space:pre" aria-label="slave">
          <path d="m198.58 590.21q-0.496 0-0.928-0.16-0.432-0.144-0.736-0.416-0.08-0.176-0.128-0.592-0.032-0.416-0.048-0.688 0-0.144 0.208-0.144 0.064 0 0.112 0.032 0.064 0.016 0.08 0.08 0.208 0.784 0.656 1.12 0.464 0.336 0.928 0.336t0.784-0.304q0.336-0.32 0.336-0.784 0-0.432-0.288-0.736-0.288-0.32-1.008-0.768-0.544-0.336-0.88-0.64t-0.496-0.624q-0.144-0.32-0.144-0.72 0-0.512 0.24-0.928t0.72-0.656q0.48-0.256 1.2-0.256 0.48 0 0.8 0.096t0.48 0.208q0.128 0.176 0.208 0.56 0.096 0.368 0.096 0.704 0 0.112-0.16 0.112-0.096 0-0.192-0.032-0.08-0.048-0.112-0.112-0.208-0.528-0.528-0.8-0.304-0.288-0.768-0.288-0.4 0-0.72 0.24-0.304 0.24-0.304 0.704 0 0.368 0.224 0.656 0.24 0.288 0.88 0.656 0.928 0.528 1.376 0.992 0.464 0.448 0.464 1.2 0 0.864-0.656 1.408t-1.696 0.544z"/>
          <path d="m202.07 590.04q-0.08 0-0.208-0.032-0.112-0.016-0.112-0.112 0-0.128 0.112-0.176 0.128-0.064 0.256-0.112 0.24-0.08 0.464-0.176 0.224-0.112 0.224-0.432v-8.064q0-0.464-0.176-0.768-0.16-0.32-0.56-0.4-0.128-0.032-0.128-0.208 0-0.16 0.112-0.192 0.416-0.096 0.72-0.192 0.304-0.112 0.56-0.224 0.272-0.112 0.528-0.208 0.064-0.032 0.096-0.032t0.048 0.048q0.032 0.032 0.032 0.064 0 0.144-0.064 0.624-0.048 0.464-0.048 1.552v8q0 0.32 0.224 0.432 0.224 0.096 0.464 0.176 0.128 0.048 0.24 0.112 0.128 0.048 0.128 0.176 0 0.096-0.128 0.112-0.112 0.032-0.192 0.032-0.304 0-0.496-0.032-0.176-0.016-0.352-0.032-0.16-0.016-0.448-0.016-0.272 0-0.448 0.016t-0.352 0.032q-0.176 0.032-0.496 0.032z"/>
          <path d="m207.16 590.21q-0.288 0-0.592-0.224-0.288-0.224-0.496-0.544-0.192-0.32-0.192-0.608 0-0.512 0.272-0.8t0.864-0.528l1.632-0.672q0.32-0.128 0.368-0.224 0.064-0.096 0.08-0.416l0.032-1.024q0.016-0.416-0.24-0.72-0.24-0.304-0.704-0.304-0.24 0-0.48 0.08t-0.4 0.208q-0.096 0.064-0.128 0.192t-0.032 0.272q0 0.064 0 0.144 0.016 0.08 0.016 0.144 0 0.08-0.208 0.224-0.192 0.128-0.448 0.24-0.24 0.096-0.4 0.096-0.08 0-0.128-0.032-0.048-0.048-0.048-0.112 0-0.256 0.16-0.544 0.176-0.304 0.48-0.56 0.368-0.336 0.8-0.592t0.848-0.4 0.736-0.144q0.576 0 0.944 0.416 0.384 0.4 0.368 1.008l-0.08 3.84q-0.016 0.336 0.144 0.544 0.176 0.208 0.432 0.208 0.4 0 0.592-0.176 0.08-0.08 0.128-0.08 0.08 0 0.128 0.048t0.048 0.128q0 0.176-0.176 0.352-0.256 0.256-0.56 0.4-0.288 0.16-0.544 0.16-0.736 0-1.168-0.832h-0.048q-0.528 0.432-1.008 0.624-0.48 0.208-0.992 0.208zm0.752-0.768q0.32 0 0.544-0.096 0.224-0.112 0.4-0.288 0.08-0.08 0.128-0.208 0.064-0.144 0.08-0.448l0.032-0.784q0.016-0.176-0.016-0.256t-0.128-0.08q-0.032 0-0.112 0.016t-0.208 0.064q-0.848 0.304-1.184 0.64-0.32 0.32-0.32 0.592 0 0.416 0.24 0.64 0.256 0.208 0.544 0.208z"/>
          <path d="m214.77 590.32q-0.064 0-0.16-0.256-0.096-0.24-0.128-0.352-0.112-0.272-0.208-0.56-0.096-0.304-0.192-0.56-0.352-0.992-0.768-1.936-0.4-0.96-0.784-1.936-0.112-0.288-0.352-0.512-0.224-0.24-0.464-0.304-0.128-0.048-0.208-0.096t-0.08-0.16q0-0.096 0.112-0.112 0.128-0.032 0.208-0.032 0.32 0 0.464 0.016t0.288 0.048q0.144 0.016 0.416 0.016 0.288 0 0.432-0.016 0.144-0.032 0.304-0.048t0.464-0.016q0.08 0 0.192 0.032 0.128 0.016 0.128 0.112 0 0.112-0.112 0.176t-0.256 0.112q-0.16 0.064-0.24 0.256-0.08 0.176-0.08 0.4 0 0.112 0.016 0.224t0.048 0.208l1.264 3.36q0.016 0.016 0.016 0.016 0.016 0 0.032-0.016l1.216-3.12q0.064-0.16 0.096-0.336 0.032-0.192 0.032-0.32 0-0.32-0.096-0.448-0.096-0.144-0.32-0.224-0.208-0.08-0.288-0.128t-0.08-0.16q0-0.096 0.096-0.112 0.112-0.032 0.224-0.032 0.176 0 0.464 0.048 0.288 0.032 0.704 0.032t0.56-0.032q0.16-0.048 0.384-0.048 0.128 0 0.224 0.032 0.096 0.016 0.096 0.112 0 0.176-0.368 0.288-0.24 0.064-0.528 0.368t-0.464 0.704l-1.248 3.008q-0.032 0.064-0.128 0.32-0.096 0.24-0.208 0.544-0.112 0.288-0.192 0.512-0.08 0.208-0.08 0.208t-0.064 0.16q-0.064 0.144-0.144 0.304-0.08 0.176-0.144 0.256z"/>
          <path d="m221.37 590.23q-0.88 0-1.536-0.432t-1.024-1.216q-0.368-0.8-0.368-1.84 0-0.928 0.416-1.68 0.432-0.768 1.136-1.232t1.536-0.464q0.64 0 1.136 0.256t0.768 0.72q0.288 0.448 0.288 1.04 0 0.496-0.48 0.496h-3.376q-0.224 0-0.32 0.128-0.08 0.112-0.08 0.464 0 0.768 0.336 1.408 0.336 0.624 0.896 1.008 0.56 0.368 1.232 0.368 0.48 0 0.864-0.176 0.4-0.192 0.704-0.544 0.064-0.08 0.096-0.096 0.032-0.032 0.08-0.032 0.128 0 0.128 0.16 0 0.304-0.288 0.672-0.24 0.304-0.576 0.528t-0.736 0.336q-0.4 0.128-0.832 0.128zm-1.472-4.848h1.456q0.384 0 0.656-0.016t0.528-0.064q0.08-0.016 0.096-0.096 0.032-0.096 0.032-0.256 0-0.464-0.416-0.784-0.4-0.336-0.96-0.336-0.368 0-0.736 0.224-0.368 0.208-0.608 0.528t-0.24 0.64q0 0.16 0.192 0.16z"/>
        </g>
      </g>
    </g>
    <g transform="matrix(.26458 0 0 .26458 40.527 -93.454)" stroke-width="3.84" style="shape-inside:url(#rect60);white-space:pre" aria-label="permissable">
      <path d="m372.72 585.02q-0.08 0-0.16-0.032-0.096-0.032-0.096-0.112 0-0.128 0.176-0.224 0.16-0.08 0.304-0.096 0.336-0.064 0.528-0.176t0.304-0.416l3.088-8.624q0.08-0.224 0.096-0.336t-0.048-0.144q-0.064-0.048-0.224-0.016-0.384 0.064-0.672 0.144-0.272 0.064-0.608 0.224-0.128 0.064-0.24 0.032-0.096-0.048-0.096-0.144 0-0.128 0.064-0.208 0.08-0.08 0.176-0.128 0.256-0.128 0.736-0.352t1.12-0.384q0.112-0.032 0.176-0.08 0.08-0.064 0.112-0.176 0.224-0.752 0.416-1.088t0.544-0.336q0.128 0 0.224 0.08t0.064 0.224l-0.272 0.928q-0.048 0.16-0.016 0.24 0.032 0.064 0.096 0.048 0.208-0.032 0.368-0.048 0.176-0.016 0.336-0.016 0.8 0 1.248 0.272 0.464 0.256 0.64 0.72 0.192 0.448 0.192 1.008 0 0.768-0.352 1.616-0.352 0.832-0.96 1.584-0.592 0.736-1.344 1.2-0.736 0.464-1.536 0.464-0.144 0-0.32-0.096t-0.336-0.192q-0.144-0.096-0.24-0.048-0.08 0.032-0.192 0.336l-1.056 3.12q-0.112 0.336 0.064 0.496 0.192 0.176 0.592 0.208 0.16 0.016 0.32 0.064t0.16 0.176q0 0.096-0.144 0.128-0.144 0.048-0.32 0.048-0.24 0-0.496-0.016-0.256 0-0.48 0-0.208 0-0.352 0.016-0.4 0.048-0.768 0.08-0.384 0.032-0.816 0.032zm4.688-4.896q0.368 0 0.832-0.4 0.464-0.416 0.88-1.056 0.432-0.64 0.704-1.36 0.288-0.72 0.288-1.36 0-0.896-0.32-1.216t-0.896-0.336q-0.144 0-0.288 0t-0.32 0.032l-1.472 4.32q-0.096 0.288-0.112 0.544 0 0.24 0.064 0.416 0.08 0.208 0.224 0.32 0.16 0.096 0.416 0.096z"/>
      <path d="m383.16 580.68q-0.336 0-0.688-0.256-0.336-0.256-0.56-0.64-0.224-0.4-0.224-0.768 0-0.8 0.32-1.696 0.336-0.912 0.912-1.696 0.576-0.8 1.328-1.296 0.768-0.512 1.616-0.512 0.56 0 0.864 0.24 0.32 0.224 0.32 0.64 0 0.496-0.32 0.864-0.304 0.368-0.832 0.64-0.528 0.256-1.184 0.432-0.64 0.176-1.312 0.304-0.096 0.016-0.16 0.048-0.048 0.016-0.08 0.112-0.112 0.352-0.224 0.768t-0.112 0.784q0 0.56 0.208 0.864 0.224 0.304 0.64 0.304 0.576 0 0.976-0.288t0.656-0.576q0.16-0.176 0.288-0.176 0.16 0 0.16 0.16 0 0.016 0 0.064 0 0.032-0.032 0.064-0.32 0.528-0.72 0.896-0.4 0.352-0.864 0.528-0.448 0.192-0.976 0.192zm0.352-4.112q0.176 0 0.592-0.096 0.432-0.112 0.896-0.336 0.464-0.24 0.784-0.576 0.336-0.352 0.336-0.832 0-0.208-0.112-0.352-0.112-0.16-0.32-0.16-0.336 0-0.736 0.288-0.384 0.272-0.736 0.672-0.352 0.384-0.592 0.752-0.224 0.368-0.224 0.544 0 0.096 0.112 0.096z"/>
      <path d="m387.88 580.71q-0.08 0-0.176-0.064-0.096-0.048-0.16-0.144-0.064-0.08-0.064-0.176 0-0.192 0.096-0.48 0.112-0.304 0.272-0.752l1.472-3.84q0.08-0.208 0.064-0.384 0-0.176-0.16-0.176-0.224 0-0.448 0.064-0.208 0.048-0.32 0.112-0.096 0.064-0.192 0.032-0.08-0.048-0.08-0.16 0-0.128 0.112-0.288 0.128-0.16 0.336-0.304 0.192-0.144 0.448-0.24 0.272-0.096 0.56-0.096 0.448 0 0.56 0.224 0.128 0.224 0.032 0.608-0.08 0.368-0.272 0.848l-0.72 1.808q-0.064 0.112 0.032 0.144 0.112 0.032 0.16-0.048 0.64-1.104 1.28-1.92 0.656-0.832 1.216-1.28 0.56-0.464 0.928-0.464 0.416 0 0.576 0.24 0.176 0.24 0.176 0.56 0 0.288-0.112 0.592-0.096 0.304-0.288 0.512-0.176 0.192-0.4 0.192-0.128 0-0.192-0.144-0.064-0.16-0.064-0.416 0-0.24-0.064-0.368-0.064-0.144-0.24-0.144-0.16 0-0.432 0.208-0.256 0.208-0.656 0.72-0.176 0.24-0.464 0.656t-0.624 0.928q-0.32 0.496-0.64 1.024-0.32 0.512-0.56 0.944-0.432 0.768-0.624 1.12-0.176 0.352-0.368 0.352z"/>
      <path d="m394.18 580.71q-0.08 0-0.144-0.08t-0.112-0.192q-0.032-0.112-0.032-0.208 0-0.08 0.096-0.384 0.112-0.304 0.272-0.752l1.472-3.856q0.08-0.208 0-0.352t-0.272-0.144q-0.24 0-0.512 0.112-0.256 0.112-0.64 0.624-0.064 0.064-0.144 0.064-0.064-0.016-0.096-0.128 0-0.096 0.032-0.24 0.032-0.16 0.096-0.32 0.08-0.16 0.144-0.24 0.272-0.336 0.656-0.56t0.928-0.24q0.224 0 0.432 0.08 0.224 0.064 0.32 0.256 0.112 0.192-0.016 0.528l-0.912 2.368q-0.048 0.112 0.016 0.128 0.08 0.016 0.128-0.064 0.688-1.056 1.312-1.792 0.64-0.736 1.216-1.12 0.592-0.384 1.104-0.384 0.304 0 0.544 0.176 0.256 0.176 0.336 0.528 0.096 0.336-0.08 0.848l-0.576 1.68q-0.048 0.112 0.016 0.128 0.08 0.016 0.128-0.064 0.672-1.104 1.312-1.824 0.656-0.736 1.264-1.104t1.12-0.368q0.304 0 0.544 0.192t0.304 0.576q0.08 0.368-0.144 0.928l-1.376 3.552q-0.24 0.576 0.08 0.576 0.192 0 0.464-0.176t0.544-0.416q0.288-0.24 0.496-0.432 0.208-0.208 0.272-0.272 0.016-0.016 0.016-0.016 0.016 0 0.032 0 0.048 0 0.08 0.048 0.048 0.032 0.048 0.096 0 0.128-0.064 0.272-0.048 0.128-0.224 0.304-0.528 0.592-1.184 1.104t-1.408 0.512q-0.128 0-0.272-0.112-0.128-0.096-0.208-0.272-0.064-0.176 0-0.352l1.856-4.784q0.128-0.32-0.016-0.48-0.128-0.16-0.304-0.176-0.256-0.016-0.688 0.272-0.432 0.272-0.96 0.928-0.24 0.304-0.672 0.912-0.416 0.608-0.864 1.312-0.432 0.688-0.752 1.28-0.272 0.512-0.512 0.848t-0.432 0.496q-0.192 0.176-0.32 0.176-0.08 0-0.144-0.08-0.064-0.064-0.112-0.16-0.032-0.096-0.032-0.192 0-0.08 0.096-0.4 0.112-0.336 0.272-0.784l1.488-4q0.144-0.368-0.032-0.496-0.176-0.144-0.288-0.16-0.256-0.032-0.688 0.272-0.432 0.288-0.96 0.944-0.192 0.224-0.48 0.64t-0.624 0.928q-0.32 0.496-0.64 1.024-0.304 0.512-0.544 0.944-0.416 0.768-0.64 1.152-0.224 0.368-0.416 0.368z"/>
      <path d="m406.66 580.66q-0.272 0-0.448-0.176t-0.176-0.368q0-0.064 0-0.128 0.016-0.064 0.048-0.128 0.656-1.328 1.104-2.496 0.448-1.184 0.8-2.064 0.064-0.192-0.08-0.192-0.08 0-0.32 0.096-0.224 0.08-0.48 0.224t-0.448 0.288q-0.08 0.064-0.16 0.032t-0.08-0.112 0.112-0.224q0.128-0.16 0.336-0.352 0.224-0.192 0.528-0.4 0.304-0.224 0.656-0.432 0.368-0.224 0.768-0.4 0.144-0.064 0.288 0.032t0.224 0.24q0.096 0.144 0.064 0.224l-1.952 4.624q-0.064 0.128-0.096 0.256-0.016 0.112-0.016 0.208 0 0.112 0.08 0.16 0.096 0.032 0.176 0.032 0.224 0 0.512-0.208 0.288-0.224 0.608-0.528 0.336-0.32 0.64-0.624 0.032-0.032 0.064-0.032t0.064 0.032q0.032 0.016 0.032 0.048 0 0.256-0.304 0.656-0.304 0.384-0.768 0.784-0.448 0.384-0.928 0.656t-0.848 0.272zm3.232-8.432q-0.24 0-0.4-0.192t-0.16-0.432q0-0.384 0.256-0.672 0.256-0.304 0.64-0.304 0.256 0 0.4 0.224 0.144 0.208 0.144 0.464 0 0.352-0.256 0.64-0.256 0.272-0.624 0.272z"/>
      <path d="m410.72 580.66q-0.352 0-0.608-0.208-0.256-0.192-0.256-0.496 0-0.368 0.176-0.544 0.16-0.192 0.272-0.192t0.224 0.096q0.128 0.08 0.272 0.208 0.176 0.128 0.384 0.256 0.224 0.112 0.576 0.112 0.432 0 0.688-0.304 0.256-0.32 0.272-0.672 0-0.352-0.128-0.752-0.112-0.416-0.336-0.816-0.208-0.384-0.352-0.72-0.128-0.352-0.128-0.592 0-0.464 0.24-0.864 0.256-0.416 0.608-0.72 0.368-0.304 0.72-0.464 0.352-0.176 0.56-0.176t0.416 0.128q0.208 0.112 0.336 0.272 0.144 0.144 0.144 0.256 0 0.096-0.096 0.24-0.096 0.128-0.224 0.24t-0.224 0.112q-0.08 0-0.16-0.08t-0.176-0.176-0.24-0.176q-0.128-0.08-0.352-0.08-0.256 0-0.448 0.224-0.192 0.208-0.192 0.56 0 0.128 0.08 0.4 0.096 0.272 0.208 0.56 0.128 0.288 0.24 0.512 0.176 0.32 0.32 0.816 0.16 0.48 0.16 0.848 0 0.48-0.288 0.88-0.272 0.4-0.72 0.704-0.448 0.288-0.976 0.448-0.512 0.16-0.992 0.16z"/>
      <path d="m415.14 580.66q-0.352 0-0.608-0.208-0.256-0.192-0.256-0.496 0-0.368 0.176-0.544 0.16-0.192 0.272-0.192t0.224 0.096q0.128 0.08 0.272 0.208 0.176 0.128 0.384 0.256 0.224 0.112 0.576 0.112 0.432 0 0.688-0.304 0.256-0.32 0.272-0.672 0-0.352-0.128-0.752-0.112-0.416-0.336-0.816-0.208-0.384-0.352-0.72-0.128-0.352-0.128-0.592 0-0.464 0.24-0.864 0.256-0.416 0.608-0.72 0.368-0.304 0.72-0.464 0.352-0.176 0.56-0.176t0.416 0.128q0.208 0.112 0.336 0.272 0.144 0.144 0.144 0.256 0 0.096-0.096 0.24-0.096 0.128-0.224 0.24t-0.224 0.112q-0.08 0-0.16-0.08t-0.176-0.176-0.24-0.176q-0.128-0.08-0.352-0.08-0.256 0-0.448 0.224-0.192 0.208-0.192 0.56 0 0.128 0.08 0.4 0.096 0.272 0.208 0.56 0.128 0.288 0.24 0.512 0.176 0.32 0.32 0.816 0.16 0.48 0.16 0.848 0 0.48-0.288 0.88-0.272 0.4-0.72 0.704-0.448 0.288-0.976 0.448-0.512 0.16-0.992 0.16z"/>
      <path d="m419.86 580.66q-0.192 0-0.384-0.112-0.192-0.096-0.32-0.256-0.112-0.16-0.112-0.336 0-0.576 0.384-1.328 0.384-0.768 1.072-1.6 0.688-0.848 1.584-1.632 0.864-0.752 1.408-1.12 0.544-0.384 0.8-0.384t0.448 0.224q0.224 0.288 0.192 0.272-0.016-0.032 0-0.032 0.032 0 0.048-0.016 0.032-0.032 0.048-0.08 0.224-0.384 0.272-0.464t0-0.016q0.096-0.16 0.192-0.16 0.144 0 0.288 0.048t0.224 0.128q0.096 0.08 0.096 0.16t-0.112 0.4l-1.792 4.752q-0.208 0.544 0.208 0.544 0.288 0 0.688-0.272 0.416-0.288 0.72-0.688 0.032-0.032 0.064-0.048 0.048-0.032 0.08-0.032 0.064 0 0.08 0.048 0.032 0.032 0.032 0.128 0 0.112-0.224 0.448-0.224 0.32-0.464 0.56-0.448 0.416-0.912 0.64-0.448 0.224-0.832 0.224-0.16 0-0.32-0.096t-0.272-0.24q-0.096-0.144-0.096-0.288 0-0.176 0.096-0.368-0.064 0.144-0.016 0 0.064-0.144 0.192-0.448 0.144-0.304 0.304-0.64t0.272-0.592q0.08-0.176 0.064-0.256 0-0.096-0.096 0.016-0.976 1.088-1.68 1.728-0.688 0.64-1.216 0.912t-1.008 0.272zm0.896-1.008q0.352 0 1.04-0.576 0.704-0.592 1.584-1.632 0.608-0.704 0.96-1.296t0.352-0.88q0-0.128-0.208-0.304-0.096-0.08-0.208-0.128t-0.192-0.048q-0.288 0-0.8 0.288-0.496 0.288-0.912 0.688-0.528 0.512-1.008 1.152t-0.784 1.232q-0.288 0.592-0.288 0.96 0 0.24 0.128 0.4 0.128 0.144 0.336 0.144z"/>
      <path d="m428.85 580.57q-0.624 0-0.992-0.352-0.368-0.368-0.368-0.96 0-0.4 0.096-0.896 0.096-0.512 0.272-1.04l2.016-6.096q0.08-0.224 0.112-0.432 0.048-0.224 0.048-0.432 0-0.08-0.096-0.144-0.08-0.064-0.304-0.128-0.496-0.128-0.496-0.24 0-0.08 0.048-0.128 0.064-0.048 0.208-0.096 0.176-0.064 0.448-0.144 0.288-0.096 0.576-0.176t0.512-0.128q0.24-0.048 0.304-0.048 0.256 0 0.256 0.16 0 0.144-0.032 0.256-0.016 0.096-0.08 0.272-0.128 0.32-0.352 0.96-0.224 0.624-0.496 1.408-0.256 0.768-0.528 1.568-0.272 0.784-0.512 1.472-0.224 0.688-0.352 1.104-0.064 0.16 0 0.192 0.08 0.032 0.192-0.112 0.944-1.248 1.792-1.92t1.44-0.672q0.512 0 0.848 0.336t0.336 0.848q0 0.736-0.304 1.52-0.288 0.768-0.8 1.504-0.496 0.72-1.136 1.296t-1.328 0.912q-0.672 0.336-1.328 0.336zm0.416-0.512q0.208 0 0.544-0.224t0.72-0.608q0.4-0.4 0.768-0.896 0.384-0.512 0.704-1.12 0.32-0.624 0.496-1.184 0.192-0.576 0.192-0.96 0-0.272-0.144-0.448-0.128-0.192-0.32-0.192-0.496 0-1.136 0.56t-1.488 1.712q-0.528 0.736-0.848 1.36t-0.32 0.928q0 0.432 0.24 0.752 0.256 0.32 0.592 0.32z"/>
      <path d="m434.44 580.66q-0.208 0-0.464-0.224t-0.256-0.48q0-0.096 0.032-0.192l3.04-8.656q0.08-0.224 0.112-0.432 0.048-0.208 0.048-0.416 0-0.144-0.16-0.272-0.144-0.128-0.368-0.176-0.16-0.032-0.256-0.08-0.096-0.064-0.096-0.128 0-0.048 0-0.08 0.016-0.032 0.032-0.064 0.032-0.032 0.064-0.032 0.304-0.08 0.736-0.144 0.432-0.08 0.8-0.128 0.384-0.064 0.512-0.064 0.08 0 0.128 0.064 0.064 0.048 0.064 0.176 0 0.096-0.032 0.224-0.032 0.112-0.064 0.224l-3.232 9.216q-0.048 0.128-0.064 0.256-0.016 0.112-0.016 0.208 0 0.256 0.16 0.256 0.224 0 0.544-0.24 0.336-0.256 0.656-0.608t0.512-0.624q0.096-0.128 0.224-0.24 0.128-0.128 0.192-0.128t0.064 0.064q0.016 0.048 0.016 0.144 0 0.32-0.224 0.672-0.208 0.352-0.56 0.704-0.352 0.336-0.752 0.608t-0.768 0.432-0.624 0.16z"/>
      <path d="m439.81 580.68q-0.336 0-0.688-0.256-0.336-0.256-0.56-0.64-0.224-0.4-0.224-0.768 0-0.8 0.32-1.696 0.336-0.912 0.912-1.696 0.576-0.8 1.328-1.296 0.768-0.512 1.616-0.512 0.56 0 0.864 0.24 0.32 0.224 0.32 0.64 0 0.496-0.32 0.864-0.304 0.368-0.832 0.64-0.528 0.256-1.184 0.432-0.64 0.176-1.312 0.304-0.096 0.016-0.16 0.048-0.048 0.016-0.08 0.112-0.112 0.352-0.224 0.768t-0.112 0.784q0 0.56 0.208 0.864 0.224 0.304 0.64 0.304 0.576 0 0.976-0.288t0.656-0.576q0.16-0.176 0.288-0.176 0.16 0 0.16 0.16 0 0.016 0 0.064 0 0.032-0.032 0.064-0.32 0.528-0.72 0.896-0.4 0.352-0.864 0.528-0.448 0.192-0.976 0.192zm0.352-4.112q0.176 0 0.592-0.096 0.432-0.112 0.896-0.336 0.464-0.24 0.784-0.576 0.336-0.352 0.336-0.832 0-0.208-0.112-0.352-0.112-0.16-0.32-0.16-0.336 0-0.736 0.288-0.384 0.272-0.736 0.672-0.352 0.384-0.592 0.752-0.224 0.368-0.224 0.544 0 0.096 0.112 0.096z"/>
    </g>
  </g>
</svg>
