<?xml version="1.0" encoding="UTF-8"?>
<svg width="60" height="60" version="1.1" xmlns="http://www.w3.org/2000/svg"><g><circle cx="30" cy="30" r="30" fill="#f0df0f" stop-color="#000000"/><path d="m55.338 13.953-34.77 44.467a30 30 0 0 0 9.4316 1.5801 30 30 0 0 0 30-30 30 30 0 0 0-4.6621-16.047z" fill="#635c06" stop-color="#000000"/><g transform="matrix(.81127 0 0 .77005 5.1663 6.2558)" stop-color="#000000" stroke-opacity=".13739" stroke-width="1.8898" aria-label="©"><path d="m5.9583 24.315c0 11.016 8.2812 19.505 18.49 19.505 10.182 0 18.49-8.4896 18.49-19.505 0-11.016-8.3073-19.453-18.49-19.453-10.208 0-18.49 8.4375-18.49 19.453zm3.1771 0c0-9.1927 6.849-16.198 15.312-16.198 8.4375 0 15.286 7.0052 15.286 16.198 0 9.1927-6.849 16.25-15.286 16.25-8.4635 0-15.312-7.0573-15.312-16.25zm19.609 3.4635c0 3.3854-1.5885 4.6615-4.6615 4.6615-3.3333 0-5.0521-2.6823-5.0521-6.5625v-3.125c0-3.8281 1.7187-6.5365 5.0521-6.5365 3.0729 0 4.6875 1.3281 4.6875 4.6615h4.0625c0-5.4427-3.3854-8.1771-8.75-8.1771-5.599 0-9.0885 4.1146-9.0885 10.078v3.099c0 5.9896 3.4896 10.078 9.0885 10.078 5.3646 0 8.724-2.7083 8.724-8.1771z"/></g></g><path d="m40.988 43.967-2.0251-0.80079-1.268 3.2063c-0.11568 0.29251-0.1157 0.57221-1e-4 0.8391 0.11562 0.26689 0.31969 0.45817 0.6122 0.57385 0.27 0.10682 0.54408 0.10458 0.82223-0.0066 0.27814-0.11118 0.47505-0.31302 0.59072-0.60553zm5.4002 2.1356-2.0251-0.80079-1.2679 3.2064c-0.11568 0.29251-0.11569 0.57221-1e-4 0.8391 0.11562 0.26689 0.31969 0.45817 0.6122 0.57385 0.26999 0.10682 0.54408 0.10458 0.82222-0.0066 0.27814-0.11118 0.47505-0.31302 0.59073-0.60553zm3.4189-4.6975c0.25807-0.65251 0.21389-1.314-0.13246-1.9843-0.34636-0.67037-0.8908-1.1524-1.6333-1.446l1.268-3.2063-4.7252-1.8686-1.268 3.2063c-0.7425-0.29369-1.4694-0.31438-2.1806-0.06222-0.71118 0.25216-1.1958 0.7045-1.4538 1.357l-1.6684 4.2189 10.125 4.0042zm-0.2462-11.221c0.59614-1.5076 0.57101-2.9968 0.0134-4.327-0.615-1.4671-1.9361-2.7454-3.4135-3.3353-1.5025-0.60007-3.3742-0.58808-4.8533 0.06771-1.3185 0.58461-2.3535 1.6582-2.9497 3.1658l-0.8676 2.1938 2.0251 0.80079 0.86759-2.1938c0.37378-0.94501 0.98341-1.6013 1.7918-1.9649 0.96842-0.43559 2.1999-0.4399 3.1853-0.04432 0.9603 0.38548 1.8194 1.2203 2.2126 2.1774 0.33684 0.81992 0.33697 1.714-0.03675 2.659l-1.2012 3.0376 2.0251 0.80079z" stroke-width=".72589"/></svg>
