<?xml version="1.0" encoding="UTF-8"?>
<svg width="100" height="100" version="1.0" viewBox="0 0 75 75" xmlns="http://www.w3.org/2000/svg" zoomAndPan="magnify">
  <g transform="matrix(.89892 0 0 .89892 3.7904 3.7904)">
    <circle cx="37.5" cy="37.5" r="41.717" fill="#d4f7e6" stop-color="#000000" stroke-opacity=".5" stroke-width=".76641"/>
    <path d="m33.918 3.0003v14.339h-16.716v7.1689h16.716v5.223c-7.9064 2.4814-11.369 5.8515-11.239 11.277 0.17396 7.2367 5.4391 9.1827 11.239 10.331v8.1612c-2.8212-0.90493-3.6766-3.1581-4.2673-5.4917h-7.5369c0.81004 7.4297 5.3495 11.199 12.007 13.135v4.8564h7.0244v-4.8115c7.6672-1.5923 12.222-6.0926 12.259-11.986 0.03691-5.8057-2.9867-8.4335-12.165-10.534v-7.3997c2.5979 0.46424 3.4504 2.3677 4.0654 4.4946h7.3872c-0.4896-7.3759-5.0509-10.636-11.609-12.072v-5.1837h16.716v-7.1689h-16.716v-14.339zm0 34.324v6.2147c-2.1903-0.06935-3.3818-0.94554-3.5474-2.5383-0.18942-1.8338 1.0086-3.1303 3.5474-3.6764zm7.3179 15.097c2.9986 0.15985 4.7917 1.3815 4.9272 3.2759 0.14172 1.9732-1.7976 3.5467-4.9272 3.9481z" fill="#105a37" stroke-width=".14511"/>
  </g>
</svg>
