<svg xmlns="http://www.w3.org/2000/svg" xmlns:xlink="http://www.w3.org/1999/xlink" width="500" zoomAndPan="magnify" viewBox="0 0 375 374.999991" height="500" preserveAspectRatio="xMidYMid meet" version="1.0"><defs><g/><clipPath id="69f62649aa"><path d="M 37.5 35.144531 L 339.75 35.144531 L 339.75 337.394531 L 37.5 337.394531 Z M 37.5 35.144531 " clip-rule="nonzero"/></clipPath></defs><g clip-path="url(#69f62649aa)"><path fill="#000000" d="M 188.675781 306.65625 C 163.554688 306.65625 140.253906 298.925781 120.953125 285.773438 C 119.878906 285.046875 118.832031 284.269531 117.785156 283.492188 L 285.847656 115.429688 C 286.625 116.476562 287.40625 117.523438 288.128906 118.597656 C 301.308594 137.898438 309.011719 161.195312 309.011719 186.320312 C 309.011719 252.757812 255.140625 306.65625 188.675781 306.65625 Z M 188.675781 65.984375 C 213.828125 65.984375 237.210938 73.742188 256.507812 86.949219 C 257.609375 87.675781 258.628906 88.453125 259.703125 89.230469 L 91.589844 257.347656 C 90.808594 256.273438 90.03125 255.253906 89.304688 254.152344 C 76.101562 234.824219 68.34375 211.5 68.34375 186.320312 C 68.34375 119.859375 122.214844 65.984375 188.675781 65.984375 Z M 188.675781 35.144531 C 105.195312 35.144531 37.5 102.8125 37.5 186.320312 C 37.5 269.800781 105.195312 337.5 188.675781 337.5 C 272.183594 337.5 339.855469 269.800781 339.855469 186.320312 C 339.855469 102.8125 272.183594 35.144531 188.675781 35.144531 " fill-opacity="1" fill-rule="nonzero"/></g><path fill="#000000" d="M 188.675781 271.171875 C 229.183594 271.171875 263.03125 242.796875 271.460938 204.84375 L 230.820312 204.84375 C 223.652344 220.976562 207.46875 232.222656 188.675781 232.222656 C 184.355469 232.222656 180.167969 231.632812 176.222656 230.503906 L 146.695312 260.03125 C 159.070312 267.117188 173.402344 271.171875 188.675781 271.171875 " fill-opacity="1" fill-rule="nonzero"/><path fill="#000000" d="M 271.113281 166.269531 C 269.234375 158.484375 266.253906 151.128906 262.386719 144.339844 L 240.457031 166.269531 L 271.113281 166.269531 " fill-opacity="1" fill-rule="nonzero"/><path fill="#000000" d="M 142.589844 186.132812 C 142.589844 160.6875 163.230469 140.042969 188.675781 140.042969 C 193.160156 140.042969 197.480469 140.6875 201.589844 141.871094 L 230.792969 112.664062 C 218.390625 105.550781 204.003906 101.472656 188.675781 101.472656 C 141.808594 101.472656 103.828125 139.453125 103.828125 186.320312 C 103.828125 201.648438 107.910156 216.007812 115.023438 228.4375 L 144.414062 199.042969 C 143.234375 194.9375 142.589844 190.617188 142.589844 186.132812 " fill-opacity="1" fill-rule="nonzero"/><g fill="#ffffff" fill-opacity="1"><g transform="translate(129.347588, 260.558604)"><g><path d="M 17.0625 -17.03125 C 15.71875 -15.6875 14.894531 -15.164062 14.59375 -15.46875 L 5 -24.09375 L 11.453125 -12.109375 C 11.566406 -11.847656 11.140625 -11.234375 10.171875 -10.265625 C 9.203125 -9.296875 8.625 -8.882812 8.4375 -9.03125 L -3.78125 -15.5 L 4.984375 -6.109375 C 5.191406 -5.878906 5.054688 -5.441406 4.578125 -4.796875 C 4.097656 -4.148438 3.671875 -3.640625 3.296875 -3.265625 C 2.929688 -2.898438 2.550781 -2.5625 2.15625 -2.25 C 1.320312 -1.625 0.773438 -1.460938 0.515625 -1.765625 L -13.734375 -17.046875 C -14.097656 -17.410156 -13.351562 -18.519531 -11.5 -20.375 C -10.957031 -20.914062 -10.25 -21.535156 -9.375 -22.234375 C -8.5 -22.929688 -7.894531 -23.207031 -7.5625 -23.0625 L 2.140625 -18.453125 L -2.8125 -27.84375 C -3.070312 -28.394531 -2.226562 -29.644531 -0.28125 -31.59375 C 0.28125 -32.15625 0.992188 -32.78125 1.859375 -33.46875 C 2.734375 -34.164062 3.269531 -34.414062 3.46875 -34.21875 L 19.046875 -19.953125 C 19.210938 -19.785156 19.035156 -19.367188 18.515625 -18.703125 C 17.992188 -18.035156 17.507812 -17.476562 17.0625 -17.03125 Z M 17.0625 -17.03125 "/></g></g></g><g fill="#ffffff" fill-opacity="1"><g transform="translate(148.250493, 241.655699)"><g><path d="M 11.875 -11.78125 C 10.550781 -10.457031 9.625 -9.945312 9.09375 -10.25 L 5.390625 -12.453125 L 1.78125 -8.84375 L 3.953125 -5.359375 C 4.328125 -4.796875 3.832031 -3.832031 2.46875 -2.46875 C 1.738281 -1.738281 1.160156 -1.242188 0.734375 -0.984375 C 0.304688 -0.722656 0.0664062 -0.617188 0.015625 -0.671875 L -11.34375 -20.0625 C -11.46875 -20.1875 -10.488281 -21.285156 -8.40625 -23.359375 C -6.332031 -25.441406 -5.234375 -26.421875 -5.109375 -26.296875 L 14.21875 -14.8125 C 14.332031 -14.695312 14.066406 -14.257812 13.421875 -13.5 C 12.785156 -12.75 12.269531 -12.175781 11.875 -11.78125 Z M -0.515625 -12.296875 L 1.875 -14.6875 L -3.859375 -18.359375 L -4 -18.21875 Z M -0.515625 -12.296875 "/></g></g></g><g fill="#ffffff" fill-opacity="1"><g transform="translate(161.42792, 228.478273)"><g><path d="M 7.625 -8.34375 C 7.925781 -8.039062 7.328125 -7.140625 5.828125 -5.640625 C 4.328125 -4.140625 3.425781 -3.539062 3.125 -3.84375 L -8.296875 -15.265625 L -11.03125 -12.53125 C -11.289062 -12.269531 -11.816406 -12.429688 -12.609375 -13.015625 C -12.992188 -13.296875 -13.359375 -13.609375 -13.703125 -13.953125 C -14.054688 -14.304688 -14.375 -14.675781 -14.65625 -15.0625 C -15.25 -15.863281 -15.414062 -16.394531 -15.15625 -16.65625 L -5.265625 -26.546875 C -5.003906 -26.804688 -4.472656 -26.640625 -3.671875 -26.046875 C -3.296875 -25.753906 -2.929688 -25.429688 -2.578125 -25.078125 C -2.234375 -24.734375 -1.914062 -24.375 -1.625 -24 C -1.039062 -23.207031 -0.878906 -22.679688 -1.140625 -22.421875 L -3.796875 -19.765625 Z M 7.625 -8.34375 "/></g></g></g><g fill="#ffffff" fill-opacity="1"><g transform="translate(171.129158, 218.777035)"><g><path d="M 7.625 -8.34375 C 7.925781 -8.039062 7.328125 -7.140625 5.828125 -5.640625 C 4.328125 -4.140625 3.425781 -3.539062 3.125 -3.84375 L -8.296875 -15.265625 L -11.03125 -12.53125 C -11.289062 -12.269531 -11.816406 -12.429688 -12.609375 -13.015625 C -12.992188 -13.296875 -13.359375 -13.609375 -13.703125 -13.953125 C -14.054688 -14.304688 -14.375 -14.675781 -14.65625 -15.0625 C -15.25 -15.863281 -15.414062 -16.394531 -15.15625 -16.65625 L -5.265625 -26.546875 C -5.003906 -26.804688 -4.472656 -26.640625 -3.671875 -26.046875 C -3.296875 -25.753906 -2.929688 -25.429688 -2.578125 -25.078125 C -2.234375 -24.734375 -1.914062 -24.375 -1.625 -24 C -1.039062 -23.207031 -0.878906 -22.679688 -1.140625 -22.421875 L -3.796875 -19.765625 Z M 7.625 -8.34375 "/></g></g></g><g fill="#ffffff" fill-opacity="1"><g transform="translate(180.830395, 209.075797)"><g><path d="M 13.109375 -13.890625 C 13.367188 -13.628906 12.734375 -12.734375 11.203125 -11.203125 C 9.671875 -9.671875 8.773438 -9.035156 8.515625 -9.296875 L 3.296875 -14.515625 L 0.109375 -11.328125 L 5.328125 -6.109375 C 5.585938 -5.847656 4.953125 -4.953125 3.421875 -3.421875 C 1.898438 -1.898438 1.007812 -1.269531 0.75 -1.53125 L -14.3125 -16.59375 C -14.632812 -16.914062 -14.03125 -17.835938 -12.5 -19.359375 C -10.976562 -20.890625 -10.054688 -21.492188 -9.734375 -21.171875 L -4.390625 -15.828125 L -1.203125 -19.015625 L -6.5 -24.3125 C -6.707031 -24.519531 -6.476562 -25.050781 -5.8125 -25.90625 C -5.445312 -26.332031 -5.078125 -26.734375 -4.703125 -27.109375 L -3.5 -28.21875 C -2.644531 -28.882812 -2.113281 -29.113281 -1.90625 -28.90625 Z M 13.109375 -13.890625 "/></g></g></g><g fill="#ffffff" fill-opacity="1"><g transform="translate(193.757897, 196.148295)"><g><path d="M -1.078125 -18.109375 C -0.785156 -18.398438 -0.109375 -18.015625 0.953125 -16.953125 C 1.265625 -16.640625 1.601562 -16.234375 1.96875 -15.734375 C 2.332031 -15.234375 2.421875 -14.890625 2.234375 -14.703125 L -0.640625 -11.828125 L 1.640625 -9.546875 L 5.828125 -13.734375 C 6.078125 -13.984375 6.582031 -13.820312 7.34375 -13.25 C 7.675781 -13 8.003906 -12.710938 8.328125 -12.390625 C 8.648438 -12.066406 9.023438 -11.601562 9.453125 -11 C 9.878906 -10.394531 9.988281 -9.988281 9.78125 -9.78125 L 2 -2 C 1.425781 -1.425781 0.90625 -1.375 0.4375 -1.84375 L -14.171875 -16.453125 C -14.566406 -16.847656 -14.59375 -17.21875 -14.25 -17.5625 L -6.109375 -25.703125 C -5.785156 -26.023438 -4.953125 -25.515625 -3.609375 -24.171875 C -2.273438 -22.835938 -1.769531 -22.007812 -2.09375 -21.6875 L -6.296875 -17.484375 L -4 -15.1875 Z M -1.078125 -18.109375 "/></g></g></g><g fill="#ffffff" fill-opacity="1"><g transform="translate(203.254657, 186.651536)"><g><path d="M -15.203125 -16.140625 C -15.421875 -16.273438 -14.742188 -17.128906 -13.171875 -18.703125 C -11.421875 -20.453125 -10.378906 -21.203125 -10.046875 -20.953125 L 0.625 -12.5 L -6.625 -24.59375 C -6.78125 -24.894531 -6.304688 -25.597656 -5.203125 -26.703125 C -4.097656 -27.804688 -3.40625 -28.289062 -3.125 -28.15625 L 8.984375 -20.765625 L 0.65625 -31.75 C 0.519531 -31.945312 0.753906 -32.40625 1.359375 -33.125 C 1.972656 -33.851562 2.484375 -34.421875 2.890625 -34.828125 C 4.484375 -36.421875 5.359375 -37.085938 5.515625 -36.828125 L 17.84375 -19 C 18.007812 -18.726562 17.742188 -18.140625 17.046875 -17.234375 C 16.347656 -16.328125 15.75 -15.625 15.25 -15.125 C 13.363281 -13.238281 12.171875 -12.460938 11.671875 -12.796875 L 3.875 -17.5 L 8.421875 -9.578125 C 8.628906 -9.242188 8.289062 -8.519531 7.40625 -7.40625 C 6.9375 -6.851562 6.441406 -6.316406 5.921875 -5.796875 L 4.40625 -4.40625 C 3.300781 -3.507812 2.582031 -3.164062 2.25 -3.375 Z M -15.203125 -16.140625 "/></g></g></g><g fill="#ffffff" fill-opacity="1"><g transform="translate(223.202686, 166.703507)"><g/></g></g><g fill="#ffffff" fill-opacity="1"><g transform="translate(225.769791, 164.136401)"><g><path d="M 7.703125 -8.484375 C 7.960938 -8.222656 7.320312 -7.320312 5.78125 -5.78125 C 4.25 -4.25 3.351562 -3.613281 3.09375 -3.875 L -8.109375 -15.078125 L -10.53125 -12.59375 C -10.988281 -12.132812 -11.945312 -12.632812 -13.40625 -14.09375 C -13.90625 -14.59375 -14.335938 -15.125 -14.703125 -15.6875 C -15.078125 -16.257812 -15.144531 -16.664062 -14.90625 -16.90625 L -8.6875 -23.125 C -8.425781 -23.382812 -8.15625 -23.535156 -7.875 -23.578125 C -7.601562 -23.628906 -7.382812 -23.570312 -7.21875 -23.40625 Z M 7.703125 -8.484375 "/></g></g></g><g fill="#ffffff" fill-opacity="1"><g transform="translate(233.289889, 156.616304)"><g><path d="M 7.484375 -7.015625 C 5.585938 -5.117188 3.335938 -4.265625 0.734375 -4.453125 C -1.859375 -4.648438 -4.492188 -6.085938 -7.171875 -8.765625 C -9.859375 -11.453125 -11.28125 -14.085938 -11.4375 -16.671875 C -11.59375 -19.253906 -10.710938 -21.503906 -8.796875 -23.421875 C -6.878906 -25.335938 -4.648438 -26.203125 -2.109375 -26.015625 C 0.429688 -25.828125 3.070312 -24.363281 5.8125 -21.625 C 8.550781 -18.882812 9.988281 -16.238281 10.125 -13.6875 C 10.269531 -11.144531 9.390625 -8.921875 7.484375 -7.015625 Z M -4.484375 -19 C -5.066406 -18.425781 -5.226562 -17.609375 -4.96875 -16.546875 C -4.71875 -15.492188 -3.984375 -14.359375 -2.765625 -13.140625 C -1.546875 -11.921875 -0.425781 -11.179688 0.59375 -10.921875 C 1.625 -10.671875 2.445312 -10.851562 3.0625 -11.46875 C 3.675781 -12.082031 3.847656 -12.90625 3.578125 -13.9375 C 3.304688 -14.96875 2.5625 -16.085938 1.34375 -17.296875 C 0.132812 -18.515625 -0.992188 -19.25 -2.046875 -19.5 C -3.097656 -19.75 -3.910156 -19.582031 -4.484375 -19 Z M -4.484375 -19 "/></g></g></g><g fill="#ffffff" fill-opacity="1"><g transform="translate(246.103785, 143.802408)"><g><path d="M 5.671875 -5.546875 C 5.785156 -5.429688 5.125 -4.65625 3.6875 -3.21875 C 2.257812 -1.789062 1.5 -1.125 1.40625 -1.21875 L -2.6875 -5.3125 C -2.820312 -5.445312 -2.171875 -6.226562 -0.734375 -7.65625 C 0.691406 -9.09375 1.441406 -9.773438 1.515625 -9.703125 Z M -1.609375 -12.828125 C -1.515625 -12.734375 -2.179688 -11.96875 -3.609375 -10.53125 C -5.046875 -9.101562 -5.804688 -8.429688 -5.890625 -8.515625 L -9.984375 -12.609375 C -10.117188 -12.742188 -9.46875 -13.523438 -8.03125 -14.953125 C -6.601562 -16.390625 -5.851562 -17.070312 -5.78125 -17 Z M -1.609375 -12.828125 "/></g></g></g><g fill="#ffffff" fill-opacity="1"><g transform="translate(250.692989, 139.213204)"><g><path d="M 7.4375 -17.03125 C 8.925781 -15.539062 9.601562 -13.789062 9.46875 -11.78125 C 9.34375 -9.78125 8.382812 -7.882812 6.59375 -6.09375 C 4.8125 -4.3125 2.960938 -3.363281 1.046875 -3.25 C -0.867188 -3.132812 -2.554688 -3.804688 -4.015625 -5.265625 C -5.484375 -6.734375 -6.054688 -8.765625 -5.734375 -11.359375 C -7.660156 -11.222656 -9.25 -11.78125 -10.5 -13.03125 C -11.757812 -14.289062 -12.300781 -15.820312 -12.125 -17.625 C -11.957031 -19.4375 -11.109375 -21.101562 -9.578125 -22.625 C -8.054688 -24.15625 -6.457031 -25 -4.78125 -25.15625 C -3.101562 -25.3125 -1.6875 -24.804688 -0.53125 -23.640625 C 0.625 -22.472656 1.191406 -20.929688 1.171875 -19.015625 C 2.242188 -19.191406 3.335938 -19.117188 4.453125 -18.796875 C 5.578125 -18.484375 6.570312 -17.894531 7.4375 -17.03125 Z M 0.109375 -10.109375 C 0.546875 -9.671875 1.03125 -9.453125 1.5625 -9.453125 C 2.09375 -9.453125 2.554688 -9.648438 2.953125 -10.046875 C 3.347656 -10.441406 3.535156 -10.894531 3.515625 -11.40625 C 3.503906 -11.925781 3.28125 -12.40625 2.84375 -12.84375 C 2.019531 -13.664062 0.820312 -13.820312 -0.75 -13.3125 C -1.050781 -12.050781 -0.765625 -10.984375 0.109375 -10.109375 Z M -3.875 -19 C -4.207031 -19.332031 -4.601562 -19.492188 -5.0625 -19.484375 C -5.519531 -19.472656 -5.890625 -19.328125 -6.171875 -19.046875 C -6.953125 -18.265625 -6.988281 -17.488281 -6.28125 -16.71875 C -5.59375 -16.03125 -4.421875 -15.910156 -2.765625 -16.359375 C -2.828125 -17.441406 -3.195312 -18.320312 -3.875 -19 Z M -3.875 -19 "/></g></g></g></svg>