<svg version="1.0" viewBox="0 0 360 120" xmlns="http://www.w3.org/2000/svg" zoomAndPan="magnify">
  <defs>
    <clipPath id="54db6fd5a4-8">
      <path d="m971.99 277.57h237.75v237.75h-237.75z"/>
    </clipPath>
  </defs>
  <g>
    <g transform="scale(.16216)">
      <g transform="translate(567.76 377.68)"></g>
    </g>
    <g transform="scale(.16216)" fill="#fff">
      <g transform="translate(1117.9 380.92)"></g>
    </g>
    <g transform="scale(.16216)">
      <g transform="translate(521.02 483.61)"></g>
    </g>
  </g>
  <g>
    <rect x="-2.95e-6" y="-1.229e-14" width="360" height="120" rx="18" ry="18" fill="#fff" stop-color="#000000" stroke-linecap="round" stroke-linejoin="round" stroke-width="1.7514"/>
    <g transform="matrix(.40963 0 0 .40963 -146.34 -102.35)">
      <g clip-path="url(#54db6fd5a4-8)">
        <path d="m1090.8 490.87c-19.738 0-38.039-6.0742-53.203-16.406-0.8438-0.57032-1.6641-1.1797-2.4883-1.793l132.03-132.03c0.6133 0.82032 1.2227 1.6445 1.793 2.4883 10.356 15.16 16.406 33.465 16.406 53.203 0 52.191-42.32 94.535-94.535 94.535zm0-189.07c19.762 0 38.129 6.0938 53.289 16.469 0.8632 0.57032 1.664 1.1836 2.5078 1.793l-132.07 132.07c-0.6094-0.84375-1.2227-1.6445-1.7891-2.5078-10.375-15.184-16.469-33.508-16.469-53.289 0-52.211 42.32-94.535 94.531-94.535zm0-24.23c-65.582 0-118.76 53.164-118.76 118.77 0 65.582 53.18 118.76 118.76 118.76 65.606 0 118.77-53.18 118.77-118.76 0-65.602-53.16-118.77-118.77-118.77"/>
      </g>
      <g>
        <path d="m1090.8 462.99c31.82 0 58.414-22.289 65.035-52.105h-31.926c-5.6328 12.672-18.348 21.508-33.109 21.508-3.3945 0-6.6836-0.46484-9.7852-1.3476l-23.195 23.195c9.7227 5.5664 20.984 8.75 32.98 8.75"/>
        <path d="m1155.5 380.58c-1.4765-6.1133-3.8164-11.891-6.8554-17.227l-17.227 17.227h24.082"/>
        <path d="m1054.5 396.18c0-19.988 16.219-36.207 36.207-36.207 3.5234 0 6.918 0.50781 10.144 1.4336l22.941-22.941c-9.7421-5.5898-21.043-8.793-33.086-8.793-36.816 0-66.656 29.836-66.656 66.656 0 12.039 3.207 23.324 8.7929 33.086l23.09-23.09c-0.9258-3.2266-1.4336-6.6211-1.4336-10.145"/>
      </g>
      <g transform="matrix(.67039 -.67039 .67039 .67039 56.59 20.638)" fill="#fff" stop-color="#000000" stroke-linecap="round" stroke-linejoin="round" stroke-width="1.7167" style="white-space:pre" aria-label="MATTHEW 10:8">
        <path d="m415.74 1054.8-3.7668-11.741h-5.3315v16.875h4.0682v-3.9407l-0.39407-8.0668 4.0798 12.008h2.689l4.0798-12.008-0.39407 8.0668v3.9407h4.0798v-16.875h-5.3431z"/>
        <path d="m426.32 1060h4.3695l0.97358-3.1525h5.5749l0.97358 3.1525h4.3811l-6.2356-16.875h-3.8364zm6.3167-6.2935 1.8081-5.8763 1.8197 5.8763z"/>
        <path d="m441.57 1046.2h4.9606v13.734h4.0682v-13.734h5.0765v-3.1409h-14.105z"/>
        <path d="m456.73 1046.2h4.9606v13.734h4.0682v-13.734h5.0765v-3.1409h-14.105z"/>
        <path d="m482.61 1060h4.0566v-16.875h-4.0566v6.6992h-5.9806v-6.6992h-4.0682v16.875h4.0682v-7.0469h5.9806z"/>
        <path d="m489.24 1060h11.613v-3.1293h-7.5453v-4.0219h6.3862v-3.025h-6.3862v-3.5583h7.58v-3.1409h-11.648z"/>
        <path d="m521.56 1043.1h-4.0218l-1.9356 10.594-2.3644-10.594h-3.4539l-2.318 10.559-1.9356-10.559h-4.0334l3.5814 16.875h4.2189l2.2138-9.6199 2.2601 9.6199h4.2073z"/>
        <path d="m537.47 1043.1h-0.3593l-7.3946 2.5614v2.9671l3.848-1.1242v12.471h3.9059z"/>
        <path d="m554.3 1050c0-4.8679-2.4224-7.128-5.8879-7.128-3.4771 0-5.8763 2.2601-5.8763 7.128v3.083c0 4.8679 2.4224 7.128 5.8995 7.128 3.4655 0 5.8647-2.2601 5.8647-7.128zm-3.9059 3.5582c0 2.7353-0.75336 3.6394-1.9588 3.6394-1.2402 0-1.9935-0.9041-1.9935-3.6394v-4.0566c0-2.6889 0.74178-3.6162 1.9704-3.6162s1.9819 0.9273 1.9819 3.6162z"/>
        <path d="m556.66 1058.1c0 1.1126 0.88086 1.9587 2.1558 1.9587 1.2865 0 2.1558-0.8461 2.1558-1.9587 0-1.1127-0.86927-1.9588-2.1558-1.9588-1.2749 0-2.1558 0.8461-2.1558 1.9588zm0-9.2491c0 1.1127 0.88086 1.9588 2.1558 1.9588 1.2865 0 2.1558-0.8461 2.1558-1.9588 0-1.1126-0.86927-1.9587-2.1558-1.9587-1.2749 0-2.1558 0.8461-2.1558 1.9587z"/>
        <path d="m575.18 1055.3c0-1.866-1.0084-3.2684-2.6194-4.045 1.414-0.7534 2.2717-2.0515 2.2717-3.6741 0-3.0946-2.2949-4.752-5.5402-4.752-3.2105 0-5.5286 1.6574-5.5286 4.752 0 1.6226 0.86927 2.9092 2.2949 3.6625-1.6226 0.7766-2.6542 2.1906-2.6542 4.0566 0 3.2337 2.5383 4.8795 5.911 4.8795 3.3844 0 5.8647-1.6458 5.8647-4.8795zm-4.2536-7.5105c0 1.2054-0.53316 2.0167-1.611 2.0167-1.0779 0-1.6342-0.8113-1.6342-2.0167 0-1.217 0.55633-1.9471 1.611-1.9471 1.0779 0 1.6342 0.7533 1.6342 1.9471zm0.32452 7.1976c0 1.3561-0.76495 2.179-1.9356 2.179-1.1822 0-1.9935-0.8229-1.9935-2.179 0-1.3793 0.81132-2.1674 1.9704-2.1674 1.1822 0 1.9588 0.7881 1.9588 2.1674z"/>
      </g>
    </g>
    <g stroke-linecap="round" stroke-linejoin="round">
      <g transform="matrix(1.3333 0 0 1.3333 -117.95 -7.5094)" stop-color="#000000" stroke-width="1.7077" style="white-space:pre" aria-label="FREELY GIVEN">
        <path d="m108.1 40.138h3.4704v-6.8601h6.641v-2.7902h-6.641v-4.3351h7.4712v-2.8017h-10.942z"/>
        <path d="m130.41 40.138h3.7241v-0.16141l-3.6318-6.8716c1.8447-0.83013 2.9977-2.2483 2.9977-4.681 0-3.309-2.3405-5.073-6.2029-5.073h-6.249v16.787h3.4704v-6.1568h2.7556zm-5.8916-13.985h2.7786c1.8563 0 2.7325 0.98002 2.7325 2.5365 0 1.5104-0.91084 2.5019-2.7325 2.5019h-2.7786z"/>
        <path d="m136.12 40.138h11.264v-2.7902h-7.794v-4.485h6.6295v-2.7095h-6.6295v-4.0008h7.7594v-2.8017h-11.23z"/>
        <path d="m149.4 40.138h11.264v-2.7902h-7.794v-4.485h6.6295v-2.7095h-6.6295v-4.0008h7.7594v-2.8017h-11.23z"/>
        <path d="m173.49 37.348h-7.3328v-13.997h-3.4704v16.787h10.803z"/>
        <path d="m174.57 23.351h-3.7932l5.5227 10.699v6.0876h3.505v-6.0876l5.5227-10.699h-3.7932l-3.4819 7.5634z"/>
        <path d="m206.03 31.318h-6.6064v2.5365h3.136v2.8939c-0.36895 0.35742-1.1068 0.83013-2.7671 0.83013-2.5826 0-3.9546-1.8332-3.9546-5.3267v-1.0261c0-3.4819 1.2682-5.3267 3.6203-5.3267 2.0868 0 2.9285 1.0953 3.1937 2.7902h3.3666c-0.36894-3.2629-2.2944-5.5803-6.6526-5.5803-4.2544 0-7.0446 2.9631-7.0446 8.1399v1.0031c0 5.1768 2.94 8.1168 7.2867 8.1168 3.6895 0 5.6264-1.4066 6.422-2.352z"/>
        <path d="m212.5 23.351h-3.4589v16.787h3.4589z"/>
        <path d="m229.59 23.351h-3.8509l-3.8048 12.613-3.7932-12.613h-3.8278l5.8224 16.787h3.5972z"/>
        <path d="m231.16 40.138h11.264v-2.7902h-7.794v-4.485h6.6295v-2.7095h-6.6295v-4.0008h7.7594v-2.8017h-11.23z"/>
        <path d="m258.1 23.351h-3.4589v11.068l-6.7333-11.068h-3.4704v16.787h3.4704v-11.057l6.7333 11.057h3.4589z"/>
      </g>
      <g transform="translate(.11662 -11.605)" stop-color="#000000" stroke-width="1.6188" style="white-space:pre" aria-label="PUBLIC DOMAIN">
        <path d="m50.9 80.129c3.4973 0 5.3552-1.7486 5.3552-4.6885 0-2.8087-1.8579-4.7432-5.3552-4.7432h-5.4208v15.913h1.3443v-6.4809zm-4.0765-8.2841h4.0765c2.8306 0 4.0109 1.6721 4.0109 3.6175 0 1.9891-1.1803 3.5191-4.0109 3.5191h-4.0765z"/>
        <path d="m68.867 70.697v10.776c0 2.7869-1.7814 4.2186-4.2623 4.2186-2.459 0-4.2514-1.4317-4.2514-4.2186v-10.776h-1.3333v10.776c0 3.5847 2.4153 5.3552 5.5847 5.3552 3.1038 0 5.6066-1.7705 5.6066-5.3552v-10.776z"/>
        <path d="m84.452 82.129c0-1.847-1.2131-3.4098-3.0929-3.8251 1.5847-0.53552 2.5137-1.8251 2.5137-3.4535 0-2.8852-1.9672-4.153-5.1913-4.153h-4.6994v15.913h5.377c3.0382 0 5.0929-1.5847 5.0929-4.4809zm-9.1257-10.284h3.3552c2.5464 0 3.8361 0.95082 3.8361 2.9836 0 1.9672-1.3552 2.9945-3.7049 2.9945h-3.4863zm7.7705 10.306c0 2.0656-1.3989 3.3224-3.7377 3.3224h-4.0328v-6.5246h4.1311c2.4809 0 3.6393 1.3989 3.6393 3.2022z"/>
        <path d="m96.9 85.473h-7.847v-14.776h-1.3552v15.913h9.2022z"/>
        <path d="m101.14 70.697h-1.3443v15.913h1.3443z"/>
        <path d="m115.38 81.648c-0.3388 2.6885-1.694 4.0437-4.5027 4.0437-2.9618 0-4.6448-2.5355-4.6448-6.0437v-2.0109c0-3.6066 1.7814-6.0109 4.7322-6.0109 2.7322 0 4.0874 1.4754 4.4153 4.0437h1.3443c-0.32787-3.2678-2.3606-5.1913-5.7596-5.1913-3.7158 0-6.0765 2.8743-6.0765 7.1803v1.9891c0 4.306 2.3607 7.1803 5.9891 7.1803 3.4973 0 5.5191-1.9454 5.847-5.1803z"/>
        <path d="m125.46 86.61h4.3497c4.0874 0 6.8852-2.8525 6.8852-7.224v-1.4645c0-4.3607-2.8197-7.224-6.7869-7.224h-4.4481zm4.4481-14.765c3.2787 0 5.4536 2.3825 5.4536 6.0546v1.4863c0 3.6175-2.1421 6.0874-5.5519 6.0874h-3.0055v-13.628z"/>
        <path d="m151.87 77.801c0-4.4481-2.4372-7.3224-6.2076-7.3224-3.7049 0-6.1858 2.8743-6.1858 7.3224v1.7049c0 4.459 2.5027 7.3224 6.2076 7.3224 3.7705 0 6.1858-2.8634 6.1858-7.3224zm-1.3333 1.7049c0 3.7814-1.7596 6.1421-4.8525 6.1421-3.0055 0-4.8634-2.3607-4.8634-6.1421v-1.7268c0-3.7596 1.8361-6.1202 4.8415-6.1202 3.082 0 4.8743 2.3607 4.8743 6.1202z"/>
        <path d="m162.93 84.73-5.8798-14.033h-1.7705v15.913h1.3443v-6.9617l-0.12022-7.0382 5.9016 14h1.0382l5.9344-14.055-0.12022 7.0929v6.9617h1.3443v-15.913h-1.7924z"/>
        <path d="m173.16 86.61h1.3989l1.6394-4.459h7.235l1.6393 4.459h1.3989l-6.0218-15.913h-1.2787zm3.4645-5.6066 3.1912-8.6776 3.1913 8.6776z"/>
        <path d="m190.47 70.697h-1.3443v15.913h1.3443z"/>
        <path d="m206.65 70.697h-1.3443v13.617l-9.1475-13.617h-1.3552v15.913h1.3552v-13.617l9.1366 13.617h1.3552z"/>
      </g>
      <g opacity=".5" stop-color="#000000" stroke-dasharray="2, 4" stroke-width="2" style="white-space:pre" aria-label="sellingJesus.org/free">
        <path d="m68.264 96.05c0 0.57943-0.53385 1.0091-1.5169 1.0091-0.7487 0-1.6211-0.31901-1.6732-1.3151h-1.2109c0 1.1654 1.0156 2.3047 2.8841 2.3047 1.6406 0 2.7213-0.85286 2.7213-2.0898 0-1.1328-0.80078-1.7057-2.5325-2.1029-1.3281-0.29948-1.6211-0.5664-1.6211-1.0872 0-0.51432 0.39713-1.0352 1.3997-1.0352 0.95052 0 1.4779 0.63151 1.4779 1.2109h1.2044c0-1.2109-0.99609-2.2005-2.6823-2.2005-1.582 0-2.6107 0.94401-2.6107 2.0573 0 1.1589 0.97005 1.7057 2.5391 2.0312 1.3932 0.27995 1.6211 0.69661 1.6211 1.2174z"/>
        <path d="m76.617 96.688-0.72916-0.57943c-0.44271 0.57943-1.0091 0.95703-1.8555 0.95703-1.2825 0-2.0508-1.0352-2.0898-2.3307h4.7656v-0.54036c0-1.9727-0.8789-3.4505-2.8971-3.4505-1.582 0-3.0794 1.3281-3.0794 3.6263v0.27344c0 1.9857 1.2695 3.4049 3.2357 3.4049 1.3932 0 2.194-0.66406 2.6497-1.3607zm-2.806-4.9544c1.2305 0 1.6341 0.98958 1.6927 1.9271v0.09114h-3.5221c0.16276-1.3021 0.87239-2.0182 1.8294-2.0182z"/>
        <path d="m79.423 87.918h-1.2109v10h1.2109z"/>
        <path d="m82.665 87.918h-1.2109v10h1.2109z"/>
        <path d="m84.605 89.005c0 0.3776 0.24088 0.67708 0.70963 0.67708 0.46224 0 0.71614-0.29948 0.71614-0.67708 0-0.39062-0.25391-0.69661-0.71614-0.69661-0.46875 0-0.70963 0.30599-0.70963 0.69661zm1.3021 1.8685h-1.2109v7.0443h1.2109z"/>
        <path d="m90.764 91.759c0.91146 0 1.4062 0.42969 1.4062 1.5299v4.6289h1.2109v-4.6159c0-1.849-0.87239-2.5586-2.2591-2.5586-0.87239 0-1.6016 0.3776-2.1029 1.0091l-0.03906-0.8789h-1.1393v7.0443h1.2044v-5.0325c0.33203-0.66406 0.94401-1.1263 1.7187-1.1263z"/>
        <path d="m100.86 97.768v-6.8945h-1.0938l-0.05859 0.78125c-0.46224-0.58594-1.1198-0.91146-2.0117-0.91146-1.7187 0-2.7799 1.4453-2.7799 3.5937v0.13672c0 2.0573 1.0742 3.5742 2.7669 3.5742 0.85937 0 1.5104-0.29948 1.9727-0.83984v0.61849c0 1.2305-0.72916 1.8815-1.8685 1.8815-0.63802 0-1.3021-0.23437-1.888-0.95052l-0.63151 0.71614c0.63151 0.91796 1.8815 1.224 2.6107 1.224 1.7578 0 2.9818-1.0612 2.9818-2.9297zm-4.7396-3.2943v-0.13672c0-1.3997 0.55338-2.5781 1.8685-2.5781 0.83984 0 1.3607 0.4362 1.6667 1.0156v3.2096c-0.3125 0.60547-0.82031 1.0417-1.6797 1.0417-1.3021 0-1.8555-1.1523-1.8555-2.5521z"/>
        <path d="m106.85 95.151c0 1.2305-0.74869 1.875-1.7383 1.875-1.0221 0-1.7383-0.53385-1.7383-1.7318h-1.2565c0 1.8685 1.25 2.7539 2.9948 2.7539 1.7383 0 2.9883-1.0221 2.9883-2.8971v-6.7122h-1.25z"/>
        <path d="m115.62 96.688-0.72916-0.57943c-0.44271 0.57943-1.0091 0.95703-1.8555 0.95703-1.2826 0-2.0508-1.0352-2.0898-2.3307h4.7656v-0.54036c0-1.9727-0.87891-3.4505-2.8971-3.4505-1.582 0-3.0794 1.3281-3.0794 3.6263v0.27344c0 1.9857 1.2695 3.4049 3.2357 3.4049 1.3932 0 2.194-0.66406 2.6497-1.3607zm-2.806-4.9544c1.2305 0 1.6341 0.98958 1.6927 1.9271v0.09114h-3.5221c0.16276-1.3021 0.87239-2.0182 1.8294-2.0182z"/>
        <path d="m121.22 96.05c0 0.57943-0.53385 1.0091-1.5169 1.0091-0.7487 0-1.6211-0.31901-1.6732-1.3151h-1.2109c0 1.1654 1.0156 2.3047 2.8841 2.3047 1.6406 0 2.7213-0.85286 2.7213-2.0898 0-1.1328-0.80078-1.7057-2.5325-2.1029-1.3281-0.29948-1.6211-0.5664-1.6211-1.0872 0-0.51432 0.39713-1.0352 1.3997-1.0352 0.95052 0 1.4779 0.63151 1.4779 1.2109h1.2044c0-1.2109-0.99609-2.2005-2.6823-2.2005-1.582 0-2.6107 0.94401-2.6107 2.0573 0 1.1589 0.97005 1.7057 2.5391 2.0312 1.3932 0.27995 1.6211 0.69661 1.6211 1.2174z"/>
        <path d="m128.37 97.918h1.1523v-7.0443h-1.2109v5.1302c-0.28645 0.61849-0.85286 1.0221-1.8359 1.0221-0.65755 0-1.2956-0.32552-1.2956-1.595v-4.5573h-1.2044v4.5443c0 1.875 0.93099 2.6302 2.3112 2.6302 0.95052 0 1.6211-0.30599 2.0573-0.82682z"/>
        <path d="m135.45 96.05c0 0.57943-0.53385 1.0091-1.5169 1.0091-0.7487 0-1.6211-0.31901-1.6732-1.3151h-1.2109c0 1.1654 1.0156 2.3047 2.8841 2.3047 1.6406 0 2.7214-0.85286 2.7214-2.0898 0-1.1328-0.80078-1.7057-2.5326-2.1029-1.3281-0.29948-1.6211-0.5664-1.6211-1.0872 0-0.51432 0.39714-1.0352 1.3997-1.0352 0.95052 0 1.4779 0.63151 1.4779 1.2109h1.2044c0-1.2109-0.99609-2.2005-2.6823-2.2005-1.582 0-2.6107 0.94401-2.6107 2.0573 0 1.1589 0.97005 1.7057 2.539 2.0312 1.3932 0.27995 1.6211 0.69661 1.6211 1.2174z"/>
        <path d="m138.25 97.28c0 0.40364 0.26041 0.71614 0.74869 0.71614s0.7487-0.3125 0.7487-0.71614c0-0.41016-0.26042-0.72916-0.7487-0.72916s-0.74869 0.31901-0.74869 0.72916z"/>
        <path d="m141.43 94.474c0 2.0378 1.2305 3.5742 3.2096 3.5742 1.9726 0 3.2031-1.5365 3.2031-3.5742v-0.14974c0-2.0378-1.2305-3.5807-3.2161-3.5807-1.9661 0-3.1966 1.543-3.1966 3.5807zm1.2044-0.14974c0-1.3802 0.66406-2.5911 1.9922-2.5911 1.3346 0 2.0052 1.2109 2.0052 2.5911v0.14974c0 1.3997-0.67057 2.5846-1.9922 2.5846-1.3411 0-2.0052-1.1849-2.0052-2.5846z"/>
        <path d="m152.16 91.903c0.22787 0 0.38412 0.01302 0.58594 0.05208l7e-3 -1.1198c-0.0846-0.03906-0.36458-0.09115-0.53385-0.09115-0.76823 0-1.3216 0.36458-1.6732 0.9375l-0.026-0.80729h-1.1719v7.0443h1.2044v-5c0.26042-0.61849 0.78776-1.0156 1.6081-1.0156z"/>
        <path d="m159.4 97.768v-6.8945h-1.0937l-0.0586 0.78125c-0.46223-0.58594-1.1198-0.91146-2.0117-0.91146-1.7188 0-2.7799 1.4453-2.7799 3.5937v0.13672c0 2.0573 1.0742 3.5742 2.7669 3.5742 0.85937 0 1.5104-0.29948 1.9726-0.83984v0.61849c0 1.2305-0.72916 1.8815-1.8685 1.8815-0.63802 0-1.3021-0.23437-1.888-0.95052l-0.63151 0.71614c0.63151 0.91796 1.8815 1.224 2.6107 1.224 1.7578 0 2.9818-1.0612 2.9818-2.9297zm-4.7396-3.2943v-0.13672c0-1.3997 0.55339-2.5781 1.8685-2.5781 0.83984 0 1.3607 0.4362 1.6667 1.0156v3.2096c-0.3125 0.60547-0.82031 1.0417-1.6797 1.0417-1.3021 0-1.8555-1.1523-1.8555-2.5521z"/>
        <path d="m165.43 88.439h-1.0286l-3.9583 10.293h1.0352z"/>
        <path d="m170.03 91.798v-0.92448h-1.4974v-0.74218c0-0.85286 0.44922-1.3216 1.224-1.3216 0.22787 0 0.46875 0.01953 0.65104 0.05859l0.0651-0.98307c-0.27344-0.0651-0.5599-0.10417-0.83333-0.10417-1.4388 0-2.3112 0.83333-2.3112 2.3503v0.74218h-1.1133v0.92448h1.1133v6.1198h1.2044v-6.1198z"/>
        <path d="m174.18 91.903c0.22786 0 0.38411 0.01302 0.58593 0.05208l7e-3 -1.1198c-0.0846-0.03906-0.36458-0.09115-0.53385-0.09115-0.76823 0-1.3216 0.36458-1.6732 0.9375l-0.026-0.80729h-1.1719v7.0443h1.2044v-5c0.26041-0.61849 0.78776-1.0156 1.6081-1.0156z"/>
        <path d="m181.34 96.688-0.72916-0.57943c-0.44271 0.57943-1.0091 0.95703-1.8555 0.95703-1.2826 0-2.0508-1.0352-2.0898-2.3307h4.7656v-0.54036c0-1.9727-0.87891-3.4505-2.8971-3.4505-1.582 0-3.0794 1.3281-3.0794 3.6263v0.27344c0 1.9857 1.2695 3.4049 3.2357 3.4049 1.3932 0 2.194-0.66406 2.6497-1.3607zm-2.806-4.9544c1.2305 0 1.6341 0.98958 1.6927 1.9271v0.09114h-3.5221c0.16276-1.3021 0.87239-2.0182 1.8294-2.0182z"/>
        <path d="m188.41 96.688-0.72916-0.57943c-0.44271 0.57943-1.0091 0.95703-1.8555 0.95703-1.2826 0-2.0508-1.0352-2.0898-2.3307h4.7656v-0.54036c0-1.9727-0.87891-3.4505-2.8971-3.4505-1.582 0-3.0794 1.3281-3.0794 3.6263v0.27344c0 1.9857 1.2695 3.4049 3.2357 3.4049 1.3932 0 2.194-0.66406 2.6497-1.3607zm-2.806-4.9544c1.2305 0 1.6341 0.98958 1.6927 1.9271v0.09114h-3.5221c0.16276-1.3021 0.8724-2.0182 1.8294-2.0182z"/>
      </g>
    </g>
  </g>
  <g display="none" stroke-linecap="round" stroke-linejoin="round">
    <g display="inline" opacity=".5" stop-color="#000000" stroke-dasharray="2, 4" stroke-width="2" style="white-space:pre" aria-label="sellingJesus.org">
      <path d="m82.766 96.05c0 0.57943-0.53385 1.0091-1.5169 1.0091-0.7487 0-1.6211-0.31901-1.6732-1.3151h-1.2109c0 1.1654 1.0156 2.3047 2.8841 2.3047 1.6406 0 2.7213-0.85286 2.7213-2.0898 0-1.1328-0.80078-1.7057-2.5325-2.1029-1.3281-0.29948-1.6211-0.5664-1.6211-1.0872 0-0.51432 0.39713-1.0352 1.3997-1.0352 0.95052 0 1.4779 0.63151 1.4779 1.2109h1.2044c0-1.2109-0.99609-2.2005-2.6823-2.2005-1.582 0-2.6107 0.94401-2.6107 2.0573 0 1.1589 0.97005 1.7057 2.5391 2.0312 1.3932 0.27995 1.6211 0.69661 1.6211 1.2174z"/>
      <path d="m91.119 96.688-0.72916-0.57943c-0.44271 0.57943-1.0091 0.95703-1.8555 0.95703-1.2825 0-2.0508-1.0352-2.0898-2.3307h4.7656v-0.54036c0-1.9727-0.8789-3.4505-2.8971-3.4505-1.582 0-3.0794 1.3281-3.0794 3.6263v0.27344c0 1.9857 1.2695 3.4049 3.2357 3.4049 1.3932 0 2.194-0.66406 2.6497-1.3607zm-2.806-4.9544c1.2305 0 1.6341 0.98958 1.6927 1.9271v0.09114h-3.5221c0.16276-1.3021 0.87239-2.0182 1.8294-2.0182z"/>
      <path d="m93.925 87.918h-1.2109v10h1.2109z"/>
      <path d="m97.167 87.918h-1.2109v10h1.2109z"/>
      <path d="m99.107 89.005c0 0.3776 0.24088 0.67708 0.70963 0.67708 0.46224 0 0.71614-0.29948 0.71614-0.67708 0-0.39062-0.2539-0.69661-0.71614-0.69661-0.46875 0-0.70963 0.30599-0.70963 0.69661zm1.3021 1.8685h-1.2109v7.0443h1.2109z"/>
      <path d="m105.27 91.759c0.91146 0 1.4062 0.42969 1.4062 1.5299v4.6289h1.2109v-4.6159c0-1.849-0.8724-2.5586-2.2591-2.5586-0.8724 0-1.6016 0.3776-2.1029 1.0091l-0.0391-0.8789h-1.1393v7.0443h1.2044v-5.0325c0.33203-0.66406 0.94401-1.1263 1.7187-1.1263z"/>
      <path d="m115.36 97.768v-6.8945h-1.0937l-0.0586 0.78125c-0.46223-0.58594-1.1198-0.91146-2.0117-0.91146-1.7188 0-2.7799 1.4453-2.7799 3.5937v0.13672c0 2.0573 1.0742 3.5742 2.7669 3.5742 0.85937 0 1.5104-0.29948 1.9726-0.83984v0.61849c0 1.2305-0.72916 1.8815-1.8685 1.8815-0.63802 0-1.3021-0.23437-1.888-0.95052l-0.63151 0.71614c0.63151 0.91796 1.8815 1.224 2.6107 1.224 1.7578 0 2.9818-1.0612 2.9818-2.9297zm-4.7396-3.2943v-0.13672c0-1.3997 0.55339-2.5781 1.8685-2.5781 0.83984 0 1.3607 0.4362 1.6667 1.0156v3.2096c-0.3125 0.60547-0.82031 1.0417-1.6797 1.0417-1.3021 0-1.8555-1.1523-1.8555-2.5521z"/>
      <path d="m121.35 95.151c0 1.2305-0.74869 1.875-1.7383 1.875-1.0221 0-1.7383-0.53385-1.7383-1.7318h-1.2565c0 1.8685 1.25 2.7539 2.9948 2.7539 1.7383 0 2.9883-1.0221 2.9883-2.8971v-6.7122h-1.25z"/>
      <path d="m130.12 96.688-0.72916-0.57943c-0.44271 0.57943-1.0091 0.95703-1.8555 0.95703-1.2826 0-2.0508-1.0352-2.0898-2.3307h4.7656v-0.54036c0-1.9727-0.87891-3.4505-2.8971-3.4505-1.582 0-3.0794 1.3281-3.0794 3.6263v0.27344c0 1.9857 1.2695 3.4049 3.2357 3.4049 1.3932 0 2.194-0.66406 2.6497-1.3607zm-2.806-4.9544c1.2305 0 1.6341 0.98958 1.6927 1.9271v0.09114h-3.5221c0.16276-1.3021 0.87239-2.0182 1.8294-2.0182z"/>
      <path d="m135.72 96.05c0 0.57943-0.53385 1.0091-1.5169 1.0091-0.74869 0-1.6211-0.31901-1.6732-1.3151h-1.2109c0 1.1654 1.0156 2.3047 2.8841 2.3047 1.6406 0 2.7214-0.85286 2.7214-2.0898 0-1.1328-0.80078-1.7057-2.5325-2.1029-1.3281-0.29948-1.6211-0.5664-1.6211-1.0872 0-0.51432 0.39713-1.0352 1.3997-1.0352 0.95052 0 1.4779 0.63151 1.4779 1.2109h1.2044c0-1.2109-0.99609-2.2005-2.6823-2.2005-1.582 0-2.6107 0.94401-2.6107 2.0573 0 1.1589 0.97005 1.7057 2.5391 2.0312 1.3932 0.27995 1.6211 0.69661 1.6211 1.2174z"/>
      <path d="m142.87 97.918h1.1523v-7.0443h-1.2109v5.1302c-0.28645 0.61849-0.85286 1.0221-1.8359 1.0221-0.65755 0-1.2956-0.32552-1.2956-1.595v-4.5573h-1.2044v4.5443c0 1.875 0.93098 2.6302 2.3112 2.6302 0.95052 0 1.6211-0.30599 2.0573-0.82682z"/>
      <path d="m149.95 96.05c0 0.57943-0.53385 1.0091-1.5169 1.0091-0.7487 0-1.6211-0.31901-1.6732-1.3151h-1.2109c0 1.1654 1.0156 2.3047 2.8841 2.3047 1.6406 0 2.7214-0.85286 2.7214-2.0898 0-1.1328-0.80078-1.7057-2.5326-2.1029-1.3281-0.29948-1.6211-0.5664-1.6211-1.0872 0-0.51432 0.39714-1.0352 1.3997-1.0352 0.95052 0 1.4779 0.63151 1.4779 1.2109h1.2044c0-1.2109-0.99609-2.2005-2.6823-2.2005-1.582 0-2.6107 0.94401-2.6107 2.0573 0 1.1589 0.97005 1.7057 2.539 2.0312 1.3932 0.27995 1.6211 0.69661 1.6211 1.2174z"/>
      <path d="m152.75 97.28c0 0.40364 0.26041 0.71614 0.74869 0.71614s0.7487-0.3125 0.7487-0.71614c0-0.41016-0.26042-0.72916-0.7487-0.72916s-0.74869 0.31901-0.74869 0.72916z"/>
      <path d="m155.93 94.474c0 2.0378 1.2305 3.5742 3.2096 3.5742 1.9726 0 3.2031-1.5365 3.2031-3.5742v-0.14974c0-2.0378-1.2305-3.5807-3.2161-3.5807-1.9661 0-3.1966 1.543-3.1966 3.5807zm1.2044-0.14974c0-1.3802 0.66406-2.5911 1.9922-2.5911 1.3346 0 2.0052 1.2109 2.0052 2.5911v0.14974c0 1.3997-0.67057 2.5846-1.9922 2.5846-1.3411 0-2.0052-1.1849-2.0052-2.5846z"/>
      <path d="m166.67 91.903c0.22787 0 0.38412 0.01302 0.58594 0.05208l7e-3 -1.1198c-0.0846-0.03906-0.36458-0.09115-0.53385-0.09115-0.76823 0-1.3216 0.36458-1.6732 0.9375l-0.026-0.80729h-1.1719v7.0443h1.2044v-5c0.26042-0.61849 0.78776-1.0156 1.6081-1.0156z"/>
      <path d="m173.9 97.768v-6.8945h-1.0937l-0.0586 0.78125c-0.46224-0.58594-1.1198-0.91146-2.0117-0.91146-1.7188 0-2.7799 1.4453-2.7799 3.5937v0.13672c0 2.0573 1.0742 3.5742 2.7669 3.5742 0.85937 0 1.5104-0.29948 1.9726-0.83984v0.61849c0 1.2305-0.72916 1.8815-1.8685 1.8815-0.63802 0-1.3021-0.23437-1.888-0.95052l-0.63151 0.71614c0.63151 0.91796 1.8815 1.224 2.6107 1.224 1.7578 0 2.9818-1.0612 2.9818-2.9297zm-4.7396-3.2943v-0.13672c0-1.3997 0.55339-2.5781 1.8685-2.5781 0.83984 0 1.3607 0.4362 1.6667 1.0156v3.2096c-0.3125 0.60547-0.82031 1.0417-1.6797 1.0417-1.3021 0-1.8555-1.1523-1.8555-2.5521z"/>
    </g>
    <g stop-color="#000000" stroke-dasharray="3.36772, 6.73543" stroke-width="3.3677" style="white-space:pre" aria-label="NO CONDITIONS">
      <path d="m56.177 59.037h-1.3484v13.659l-9.1757-13.659h-1.3594v15.961h1.3594v-13.659l9.1647 13.659h1.3594z"/>
      <path d="m72.029 66.163c0-4.4618-2.4446-7.3449-6.2267-7.3449-3.7163 0-6.2048 2.8832-6.2048 7.3449v1.7102c0 4.4727 2.5104 7.3449 6.2267 7.3449 3.7821 0 6.2048-2.8722 6.2048-7.3449zm-1.3374 1.7102c0 3.793-1.765 6.161-4.8674 6.161-3.0147 0-4.8783-2.3679-4.8783-6.161v-1.7321c0-3.7711 1.8417-6.139 4.8564-6.139 3.0914 0 4.8893 2.3679 4.8893 6.139z"/>
      <path d="m90.863 70.021c-0.33984 2.6968-1.6992 4.0561-4.5166 4.0561-2.9709 0-4.6591-2.5433-4.6591-6.0623v-2.0171c0-3.6176 1.7869-6.0294 4.7468-6.0294 2.7406 0 4.1 1.4799 4.4289 4.0561h1.3484c-0.32888-3.2778-2.3679-5.2072-5.7773-5.2072-3.7273 0-6.0952 2.8832-6.0952 7.2024v1.9952c0 4.3192 2.3679 7.2024 6.0075 7.2024 3.508 0 5.5361-1.9513 5.865-5.1962z"/>
      <path d="m107.28 66.163c0-4.4618-2.4446-7.3449-6.2267-7.3449-3.7163 0-6.2048 2.8832-6.2048 7.3449v1.7102c0 4.4727 2.5104 7.3449 6.2267 7.3449 3.7821 0 6.2048-2.8722 6.2048-7.3449zm-1.3374 1.7102c0 3.793-1.765 6.161-4.8674 6.161-3.0147 0-4.8783-2.3679-4.8783-6.161v-1.7321c0-3.7711 1.8417-6.139 4.8564-6.139 3.0914 0 4.8893 2.3679 4.8893 6.139z"/>
      <path d="m122.59 59.037h-1.3484v13.659l-9.1756-13.659h-1.3594v15.961h1.3594v-13.659l9.1647 13.659h1.3594z"/>
      <path d="m126.66 74.998h4.3631c4.1 0 6.9064-2.8612 6.9064-7.2462v-1.469c0-4.3741-2.8283-7.2462-6.8077-7.2462h-4.4618zm4.4618-14.81c3.2888 0 5.4703 2.3898 5.4703 6.0733v1.4909c0 3.6286-2.1487 6.1061-5.569 6.1061h-3.0147v-13.67z"/>
      <path d="m143.01 59.037h-1.3484v15.961h1.3484z"/>
      <path d="m145.58 60.188h5.4703v14.81h1.3374v-14.81h5.4703v-1.1511h-12.278z"/>
      <path d="m162.09 59.037h-1.3484v15.961h1.3484z"/>
      <path d="m178.21 66.163c0-4.4618-2.4446-7.3449-6.2267-7.3449-3.7163 0-6.2048 2.8832-6.2048 7.3449v1.7102c0 4.4727 2.5104 7.3449 6.2267 7.3449 3.7821 0 6.2048-2.8722 6.2048-7.3449zm-1.3374 1.7102c0 3.793-1.765 6.161-4.8674 6.161-3.0147 0-4.8783-2.3679-4.8783-6.161v-1.7321c0-3.7711 1.8417-6.139 4.8564-6.139 3.0914 0 4.8893 2.3679 4.8893 6.139z"/>
      <path d="m193.52 59.037h-1.3484v13.659l-9.1756-13.659h-1.3594v15.961h1.3594v-13.659l9.1647 13.659h1.3594z"/>
      <path d="m206.62 71.074c0 1.7979-1.6225 3.0037-4.1329 3.0037-2.1816 0-4.6043-0.94278-4.6043-3.6396h-1.3594c0 3.3765 3.1243 4.7797 5.9636 4.7797 3.1791 0 5.4922-1.5676 5.4922-4.1658 0-2.5872-1.9184-3.8259-5.3059-4.7468-3.223-0.86604-4.2754-1.8636-4.2754-3.3984 0-1.6005 1.3594-2.938 4.0013-2.938 2.6091 0 4.1219 1.5348 4.1219 3.6176h1.3484c0-2.6639-2.1158-4.7687-5.4703-4.7687-3.1462 0-5.3607 1.6663-5.3607 4.1219 0 2.5214 2.0062 3.6505 5.2182 4.5495 3.3107 0.93182 4.3631 1.8198 4.3631 3.5848z"/>
    </g>
  </g>
</svg>
