<svg version="1.1" viewBox="0 0 600 600" xmlns="http://www.w3.org/2000/svg">
  <defs>
    <marker id="marker1523" overflow="visible" orient="auto">
      <path transform="scale(-.6)" d="m8.7186 4.0337-10.926-4.0177 10.926-4.0177c-1.7455 2.3721-1.7354 5.6175-6e-7 8.0354z" fill-rule="evenodd" stroke="#000" stroke-linejoin="round" stroke-width=".625"/>
    </marker>
    <marker id="marker2902" overflow="visible" orient="auto">
      <path transform="scale(-.6)" d="m8.7186 4.0337-10.926-4.0177 10.926-4.0177c-1.7455 2.3721-1.7354 5.6175-6e-7 8.0354z" fill-rule="evenodd" stroke="#000" stroke-linejoin="round" stroke-width=".625"/>
    </marker>
    <marker id="marker5556" overflow="visible" orient="auto">
      <path transform="scale(-.6)" d="m8.7186 4.0337-10.926-4.0177 10.926-4.0177c-1.7455 2.3721-1.7354 5.6175-6e-7 8.0354z" fill-rule="evenodd" stroke="#000" stroke-linejoin="round" stroke-width=".625"/>
    </marker>
    <marker id="marker1527" overflow="visible" orient="auto">
      <path transform="scale(-.6)" d="m8.7186 4.0337-10.926-4.0177 10.926-4.0177c-1.7455 2.3721-1.7354 5.6175-6e-7 8.0354z" fill-rule="evenodd" stroke="#000" stroke-linejoin="round" stroke-width=".625"/>
    </marker>
    <marker id="marker3548" overflow="visible" orient="auto">
      <path transform="scale(-.6)" d="m8.7186 4.0337-10.926-4.0177 10.926-4.0177c-1.7455 2.3721-1.7354 5.6175-6e-7 8.0354z" fill-rule="evenodd" stroke="#000" stroke-linejoin="round" stroke-width=".625"/>
    </marker>
    <marker id="marker3552" overflow="visible" orient="auto">
      <path transform="scale(-.6)" d="m8.7186 4.0337-10.926-4.0177 10.926-4.0177c-1.7455 2.3721-1.7354 5.6175-6e-7 8.0354z" fill-rule="evenodd" stroke="#000" stroke-linejoin="round" stroke-width=".625"/>
    </marker>
    <marker id="marker5619" overflow="visible" orient="auto">
      <path transform="scale(-.6)" d="m8.7186 4.0337-10.926-4.0177 10.926-4.0177c-1.7455 2.3721-1.7354 5.6175-6e-7 8.0354z" fill-rule="evenodd" stroke="#000" stroke-linejoin="round" stroke-width=".625"/>
    </marker>
    <marker id="marker5430" overflow="visible" orient="auto">
      <path transform="scale(-.6)" d="m8.7186 4.0337-10.926-4.0177 10.926-4.0177c-1.7455 2.3721-1.7354 5.6175-6e-7 8.0354z" fill-rule="evenodd" stroke="#000" stroke-linejoin="round" stroke-width=".625"/>
    </marker>
  </defs>
  <g transform="translate(-389.6 -89.001)">
    <g transform="matrix(3.7795 0 0 3.7795 7314.3 -1608.7)">
      <g fill="#fff">
        <path d="m-1839 441.03h175.81v175.24h-175.81z" fill="#bfbfbf" fill-opacity=".5" stop-color="#000000" stroke-linejoin="bevel" stroke-opacity=".4" stroke-width=".26458"/>
      </g>
      <g transform="matrix(.91304 0 0 .91304 -1949.8 7.9949)">
        <g transform="translate(-3.1084)">
          <g transform="translate(216.29,35.501)" fill="none" stroke="#000" stroke-width=".4">
            <path d="m-46.266 539.22 10.521-18.222" marker-end="url(#marker1523)"/>
            <path d="m-32.93 520.83 10.036 17.383" marker-end="url(#marker2902)"/>
          </g>
          <g font-family="sans-serif" font-size="4.5861px" letter-spacing="0px" stroke-width=".18344" text-anchor="middle" word-spacing="0px">
            <g aria-label="owner">
              <path d="m176.29 550.56q-0.33142 0-0.524 0.25976-0.19258 0.25752-0.19258 0.70762t0.19034 0.70986q0.19258 0.25752 0.52624 0.25752 0.32918 0 0.52176-0.25976t0.19258-0.70762q0-0.44562-0.19258-0.70538-0.19258-0.262-0.52176-0.262zm0-0.34933q0.53743 0 0.84422 0.34933 0.30678 0.34933 0.30678 0.96738 0 0.61581-0.30678 0.96738-0.30679 0.34934-0.84422 0.34934-0.53968 0-0.84646-0.34934-0.30455-0.35157-0.30455-0.96738 0-0.61805 0.30455-0.96738 0.30678-0.34933 0.84646-0.34933z"/>
              <path d="m177.88 550.27h0.41204l0.51504 1.9572 0.5128-1.9572h0.48593l0.51504 1.9572 0.5128-1.9572h0.41203l-0.65612 2.508h-0.48593l-0.53967-2.0557-0.54191 2.0557h-0.48593z"/>
              <path d="m183.96 551.26v1.5138h-0.41203v-1.5003q0-0.35605-0.13884-0.53295-0.13883-0.17691-0.41651-0.17691-0.33365 0-0.52623 0.21273-0.19259 0.21274-0.19259 0.57998v1.4175h-0.41427v-2.508h0.41427v0.38964q0.1478-0.22617 0.3471-0.33813 0.20153-0.11197 0.46353-0.11197 0.43219 0 0.65388 0.26872 0.22169 0.26648 0.22169 0.78599z"/>
              <path d="m186.93 551.42v0.20153h-1.8944q0.0269 0.42547 0.25528 0.6494 0.23065 0.22169 0.64044 0.22169 0.23737 0 0.45906-0.0582 0.22393-0.0582 0.44338-0.17466v0.38964q-0.22169 0.0941-0.45458 0.14331-0.23288 0.0493-0.47249 0.0493-0.60013 0-0.9517-0.34934-0.34934-0.34933-0.34934-0.94498 0-0.61581 0.33142-0.97634 0.33366-0.36277 0.89796-0.36277 0.50609 0 0.79944 0.32694 0.29558 0.3247 0.29558 0.88453zm-0.41203-0.12093q-4e-3 -0.33813-0.19034-0.53967-0.18362-0.20154-0.48817-0.20154-0.34485 0-0.55311 0.19482-0.20601 0.19482-0.23736 0.54863z"/>
              <path d="m189.05 550.65q-0.0694-0.0403-0.15227-0.0582-0.0806-0.0201-0.17914-0.0201-0.34933 0-0.53744 0.22841-0.18586 0.22617-0.18586 0.65163v1.3212h-0.41427v-2.508h0.41427v0.38964q0.12988-0.22841 0.33814-0.33813 0.20825-0.11197 0.50608-0.11197 0.0426 0 0.0941 7e-3 0.0515 4e-3 0.11421 0.0157z"/>
            </g>
            <g aria-label="vinedresser">
              <path d="m180.93 578.12h0.43667l0.78376 2.1049 0.78375-2.1049h0.43667l-0.94051 2.508h-0.55983z"/>
              <path d="m183.94 578.12h0.41203v2.508h-0.41203zm0-0.97634h0.41203v0.52176h-0.41203z"/>
              <path d="m187.3 579.11v1.5138h-0.41203v-1.5003q0-0.35605-0.13884-0.53295-0.13883-0.17691-0.41651-0.17691-0.33366 0-0.52624 0.21274-0.19258 0.21273-0.19258 0.57998v1.4175h-0.41427v-2.508h0.41427v0.38964q0.1478-0.22617 0.3471-0.33814 0.20153-0.11197 0.46353-0.11197 0.43219 0 0.65388 0.26872 0.22169 0.26648 0.22169 0.786z"/>
              <path d="m190.27 579.27v0.20154h-1.8944q0.0269 0.42547 0.25528 0.6494 0.23065 0.22169 0.64044 0.22169 0.23737 0 0.45906-0.0582 0.22393-0.0582 0.44338-0.17467v0.38964q-0.22169 0.094-0.45458 0.14331-0.23288 0.0493-0.47249 0.0493-0.60013 0-0.95171-0.34933-0.34933-0.34933-0.34933-0.94499 0-0.61581 0.33142-0.97634 0.33366-0.36277 0.89796-0.36277 0.50609 0 0.79943 0.32694 0.29559 0.3247 0.29559 0.88453zm-0.41203-0.12092q-4e-3 -0.33814-0.19034-0.53968-0.18362-0.20153-0.48817-0.20153-0.34485 0-0.55311 0.19482-0.20601 0.19482-0.23736 0.54863z"/>
              <path d="m192.59 578.5v-1.357h0.41203v3.4844h-0.41203v-0.3762q-0.12988 0.22393-0.32918 0.33365-0.19705 0.10749-0.47473 0.10749-0.45458 0-0.74121-0.36277-0.28439-0.36277-0.28439-0.95394 0-0.59118 0.28439-0.95395 0.28663-0.36277 0.74121-0.36277 0.27768 0 0.47473 0.10973 0.1993 0.10749 0.32918 0.33142zm-1.404 0.87557q0 0.45458 0.18586 0.71434 0.1881 0.25752 0.51504 0.25752t0.51504-0.25752q0.1881-0.25976 0.1881-0.71434t-0.1881-0.7121q-0.1881-0.25976-0.51504-0.25976t-0.51504 0.25976q-0.18586 0.25752-0.18586 0.7121z"/>
              <path d="m195.31 578.5q-0.0694-0.0403-0.15227-0.0582-0.0806-0.0202-0.17914-0.0202-0.34934 0-0.53744 0.22841-0.18586 0.22617-0.18586 0.65164v1.3212h-0.41427v-2.508h0.41427v0.38964q0.12988-0.22841 0.33813-0.33814 0.20826-0.11197 0.50609-0.11197 0.0425 0 0.0941 7e-3 0.0515 4e-3 0.1142 0.0157z"/>
              <path d="m197.78 579.27v0.20154h-1.8945q0.0269 0.42547 0.25528 0.6494 0.23065 0.22169 0.64045 0.22169 0.23736 0 0.45905-0.0582 0.22393-0.0582 0.44339-0.17467v0.38964q-0.2217 0.094-0.45458 0.14331-0.23289 0.0493-0.4725 0.0493-0.60013 0-0.9517-0.34933-0.34933-0.34933-0.34933-0.94499 0-0.61581 0.33141-0.97634 0.33366-0.36277 0.89796-0.36277 0.50609 0 0.79944 0.32694 0.29559 0.3247 0.29559 0.88453zm-0.41204-0.12092q-4e-3 -0.33814-0.19034-0.53968-0.18362-0.20153-0.48817-0.20153-0.34485 0-0.55311 0.19482-0.20601 0.19482-0.23736 0.54863z"/>
              <path d="m200.06 578.19v0.38964q-0.17467-0.0896-0.36277-0.13436-0.1881-0.0448-0.38964-0.0448-0.30678 0-0.46129 0.0941-0.15228 0.094-0.15228 0.28215 0 0.14332 0.10973 0.22617 0.10973 0.0806 0.44114 0.15451l0.14108 0.0313q0.4389 0.0941 0.62253 0.26648 0.18586 0.17019 0.18586 0.47697 0 0.34934-0.27768 0.55311-0.27543 0.20378-0.75912 0.20378-0.20154 0-0.42099-0.0403-0.21721-0.0381-0.45906-0.11644v-0.42547q0.22841 0.11868 0.4501 0.17914 0.22169 0.0582 0.43891 0.0582 0.29111 0 0.44786-0.0985 0.15675-0.10077 0.15675-0.28216 0-0.16794-0.1142-0.25752-0.11197-0.0896-0.49489-0.17242l-0.14332-0.0336q-0.38292-0.0806-0.55311-0.24633-0.17018-0.16794-0.17018-0.45905 0-0.35381 0.2508-0.54639 0.2508-0.19259 0.7121-0.19259 0.22841 0 0.42995 0.0336 0.20153 0.0336 0.37172 0.10077z"/>
              <path d="m202.45 578.19v0.38964q-0.17466-0.0896-0.36277-0.13436-0.1881-0.0448-0.38964-0.0448-0.30678 0-0.46129 0.0941-0.15228 0.094-0.15228 0.28215 0 0.14332 0.10973 0.22617 0.10973 0.0806 0.44114 0.15451l0.14108 0.0313q0.4389 0.0941 0.62253 0.26648 0.18586 0.17019 0.18586 0.47697 0 0.34934-0.27767 0.55311-0.27544 0.20378-0.75913 0.20378-0.20154 0-0.42099-0.0403-0.21721-0.0381-0.45906-0.11644v-0.42547q0.22841 0.11868 0.4501 0.17914 0.2217 0.0582 0.43891 0.0582 0.29111 0 0.44786-0.0985 0.15675-0.10077 0.15675-0.28216 0-0.16794-0.1142-0.25752-0.11197-0.0896-0.49489-0.17242l-0.14332-0.0336q-0.38292-0.0806-0.5531-0.24633-0.17019-0.16794-0.17019-0.45905 0-0.35381 0.2508-0.54639 0.2508-0.19259 0.7121-0.19259 0.22841 0 0.42995 0.0336 0.20153 0.0336 0.37172 0.10077z"/>
              <path d="m205.38 579.27v0.20154h-1.8944q0.0269 0.42547 0.25528 0.6494 0.23065 0.22169 0.64044 0.22169 0.23737 0 0.45906-0.0582 0.22393-0.0582 0.44338-0.17467v0.38964q-0.22169 0.094-0.45458 0.14331-0.23289 0.0493-0.47249 0.0493-0.60014 0-0.95171-0.34933-0.34933-0.34933-0.34933-0.94499 0-0.61581 0.33142-0.97634 0.33366-0.36277 0.89796-0.36277 0.50608 0 0.79943 0.32694 0.29559 0.3247 0.29559 0.88453zm-0.41203-0.12092q-4e-3 -0.33814-0.19034-0.53968-0.18362-0.20153-0.48817-0.20153-0.34485 0-0.55311 0.19482-0.20602 0.19482-0.23737 0.54863z"/>
              <path d="m207.51 578.5q-0.0694-0.0403-0.15227-0.0582-0.0806-0.0202-0.17914-0.0202-0.34934 0-0.53744 0.22841-0.18586 0.22617-0.18586 0.65164v1.3212h-0.41427v-2.508h0.41427v0.38964q0.12988-0.22841 0.33814-0.33814 0.20825-0.11197 0.50608-0.11197 0.0426 0 0.094 7e-3 0.0515 4e-3 0.1142 0.0157z"/>
            </g>
            <g aria-label="vine">
              <path d="m164.38 578.12h0.43667l0.78376 2.1049 0.78375-2.1049h0.43667l-0.94051 2.508h-0.55983z"/>
              <path d="m167.39 578.12h0.41203v2.508h-0.41203zm0-0.97634h0.41203v0.52176h-0.41203z"/>
              <path d="m170.75 579.11v1.5138h-0.41203v-1.5003q0-0.35605-0.13884-0.53295-0.13883-0.17691-0.41651-0.17691-0.33365 0-0.52623 0.21274-0.19259 0.21273-0.19259 0.57998v1.4175h-0.41427v-2.508h0.41427v0.38964q0.1478-0.22617 0.3471-0.33814 0.20153-0.11197 0.46353-0.11197 0.43219 0 0.65388 0.26872 0.22169 0.26648 0.22169 0.786z"/>
              <path d="m173.72 579.27v0.20154h-1.8944q0.0269 0.42547 0.25528 0.6494 0.23065 0.22169 0.64044 0.22169 0.23737 0 0.45906-0.0582 0.22393-0.0582 0.44338-0.17467v0.38964q-0.22169 0.094-0.45458 0.14331-0.23288 0.0493-0.47249 0.0493-0.60013 0-0.9517-0.34933-0.34934-0.34933-0.34934-0.94499 0-0.61581 0.33142-0.97634 0.33366-0.36277 0.89796-0.36277 0.50609 0 0.79944 0.32694 0.29558 0.3247 0.29558 0.88453zm-0.41203-0.12092q-4e-3 -0.33814-0.19034-0.53968-0.18362-0.20153-0.48817-0.20153-0.34485 0-0.55311 0.19482-0.20601 0.19482-0.23736 0.54863z"/>
            </g>
          </g>
        </g>
        <g stroke-width=".18344" aria-label="1 Cor. 9:7b">
          <path d="m169.23 590.23h0.56845l0.38413-1.9792-0.64252 0.12402 0.0603-0.29973 0.63907-0.12402h0.34968l-0.44442 2.279h0.56672l-0.0551 0.29283h-1.4831z"/>
          <path d="m174.82 588.15-0.0706 0.36691q-0.16537-0.16709-0.35141-0.24805-0.18431-0.081-0.39963-0.081-0.29456 0-0.51849 0.14125-0.22221 0.14125-0.38413 0.43064-0.10335 0.18604-0.15848 0.39447-0.0534 0.2067-0.0534 0.41686 0 0.3514 0.18086 0.53571 0.1826 0.18431 0.52883 0.18431 0.23944 0 0.45992-0.0758 0.22049-0.0775 0.42892-0.23082l-0.081 0.41169q-0.20498 0.0879-0.41514 0.13264-0.20843 0.0448-0.41858 0.0448-0.49437 0-0.77343-0.26871-0.27733-0.26872-0.27733-0.7476 0-0.30661 0.10508-0.60289 0.1068-0.29628 0.30489-0.54088 0.21015-0.26011 0.47887-0.38413 0.27044-0.12403 0.62873-0.12403 0.22049 0 0.41686 0.062 0.1981 0.0603 0.36863 0.18259z"/>
          <path d="m175.72 590.57q-0.33934 0-0.53744-0.20843-0.19637-0.21015-0.19637-0.57188 0-0.21016 0.0672-0.4272 0.0689-0.21876 0.17742-0.3669 0.17054-0.23083 0.38069-0.34107t0.47542-0.11024q0.32901 0 0.53055 0.20498 0.20326 0.20498 0.20326 0.53572 0 0.2291-0.0672 0.45647-0.0672 0.22738-0.1757 0.37724-0.16881 0.23083-0.37896 0.34107t-0.47887 0.11024zm-0.4048-0.79065q0 0.26183 0.10852 0.39274 0.11024 0.1292 0.33245 0.1292 0.31868 0 0.52711-0.27734 0.21015-0.27905 0.21015-0.70625 0-0.24977-0.11197-0.37724-0.11196-0.12747-0.32901-0.12747-0.17914 0-0.31867 0.0844-0.13953 0.0827-0.24977 0.25322-0.081 0.12747-0.12575 0.29111-0.0431 0.16364-0.0431 0.33762z"/>
          <path d="m178.56 588.89q-0.0482-0.0258-0.11024-0.0396-0.062-0.0138-0.13264-0.0138-0.25322 0-0.4427 0.19293-0.18948 0.1912-0.25149 0.51332l-0.19465 0.98358h-0.31695l0.37724-1.9293h0.31695l-0.0603 0.29973q0.12575-0.16709 0.29973-0.25666 0.1757-0.0896 0.37379-0.0896 0.0517 0 0.10163 7e-3 0.05 5e-3 0.0999 0.0189z"/>
          <path d="m178.4 590.09h0.36346l-0.0844 0.43753h-0.36346z"/>
          <path d="m180.51 590.47 0.0637-0.31695q0.0999 0.0655 0.22738 0.0999 0.12747 0.0344 0.27389 0.0344 0.35657 0 0.57361-0.22565 0.21877-0.22566 0.32556-0.7028-0.12746 0.14641-0.29628 0.22393-0.16708 0.0758-0.36001 0.0758-0.31351 0-0.49954-0.18087-0.18432-0.18259-0.18432-0.4892 0-0.2515 0.0913-0.46682 0.0913-0.21704 0.26872-0.37896 0.12058-0.11369 0.27905-0.17398 0.15848-0.0603 0.33762-0.0603 0.35657 0 0.56328 0.22738 0.20671 0.22565 0.20671 0.61667 0 0.36346-0.0965 0.70281-0.0948 0.33934-0.26356 0.58739-0.17914 0.26183-0.43064 0.39791-0.25149 0.13608-0.55811 0.13608-0.13263 0-0.26527-0.0276-0.13091-0.0258-0.25666-0.0792zm0.46854-1.5624q0 0.21876 0.11368 0.34795 0.11369 0.12747 0.30662 0.12747 0.267 0 0.44787-0.20498 0.18086-0.20499 0.18086-0.50988 0-0.22738-0.11196-0.35485-0.11197-0.12919-0.30834-0.12919-0.267 0-0.44787 0.21015-0.18086 0.20843-0.18086 0.51333z"/>
          <path d="m183.14 588.7h0.36346l-0.0844 0.43753h-0.36346zm-0.27044 1.3867h0.36346l-0.0861 0.43753h-0.36345z"/>
          <path d="m184.24 587.95h1.7604l-0.031 0.14814-1.4711 2.4236h-0.3824l1.3901-2.2789h-1.3229z"/>
          <path d="m187.78 589.35q0-0.24977-0.11541-0.39102-0.11369-0.14125-0.31523-0.14125-0.14642 0-0.27561 0.0723-0.12747 0.0706-0.22221 0.2067-0.0999 0.14298-0.15848 0.33246-0.0568 0.18776-0.0568 0.37552 0 0.23771 0.11196 0.37379 0.11369 0.13436 0.31179 0.13436 0.14986 0 0.27733-0.0689 0.12747-0.0706 0.22393-0.20671 0.0982-0.14125 0.15848-0.32901 0.0603-0.18776 0.0603-0.35829zm-0.98531-0.4582q0.11714-0.15848 0.29284-0.24805 0.17742-0.0913 0.37035-0.0913 0.29628 0 0.47026 0.19981 0.1757 0.19982 0.1757 0.54089 0 0.27905-0.10336 0.54088-0.10163 0.26183-0.29111 0.46509-0.12402 0.13436-0.28594 0.20671-0.16192 0.0723-0.33935 0.0723-0.18776 0-0.32556-0.0861t-0.22393-0.25666l-0.0569 0.29283h-0.31695l0.52194-2.6803h0.31695z"/>
        </g>
      </g>
      <g transform="matrix(.91304 0 0 .91304 -1935.1 7.9949)">
        <g transform="translate(230.35,-158.52)">
          <g transform="translate(40.289,194.02)" fill="none" stroke="#000" stroke-width=".4">
            <path d="m-46.266 539.22 10.521-18.222" marker-end="url(#marker5556)"/>
            <path d="m-32.93 520.83 10.036 17.383" marker-end="url(#marker1527)"/>
          </g>
          <g font-family="sans-serif" font-size="4.5861px" letter-spacing="0px" stroke-width=".18344" text-anchor="middle" word-spacing="0px">
            <g aria-label="owner">
              <path d="m0.046726 709.08q-0.33142 0-0.524 0.25976-0.19258 0.25752-0.19258 0.70762t0.19034 0.70986q0.19258 0.25752 0.52624 0.25752 0.32918 0 0.52176-0.25976 0.19258-0.25976 0.19258-0.70762 0-0.44563-0.19258-0.70539-0.19258-0.26199-0.52176-0.26199zm0-0.34934q0.53743 0 0.84422 0.34934 0.30679 0.34933 0.30679 0.96738 0 0.61581-0.30679 0.96738-0.30679 0.34933-0.84422 0.34933-0.53967 0-0.84646-0.34933-0.30455-0.35157-0.30455-0.96738 0-0.61805 0.30455-0.96738 0.30679-0.34934 0.84646-0.34934z"/>
              <path d="m1.6411 708.79h0.41203l0.51504 1.9572 0.5128-1.9572h0.48593l0.51504 1.9572 0.5128-1.9572h0.41203l-0.65612 2.508h-0.48593l-0.53967-2.0557-0.54191 2.0557h-0.48593z"/>
              <path d="m7.7164 709.79v1.5138h-0.41203v-1.5003q0-0.35605-0.13884-0.53295-0.13884-0.17691-0.41651-0.17691-0.33366 0-0.52624 0.21274-0.19258 0.21273-0.19258 0.57998v1.4175h-0.41427v-2.508h0.41427v0.38963q0.14779-0.22617 0.34709-0.33813 0.20154-0.11197 0.46354-0.11197 0.43219 0 0.65388 0.26872 0.22169 0.26648 0.22169 0.786z"/>
              <path d="m10.683 709.94v0.20154h-1.8945q0.026872 0.42546 0.25528 0.6494 0.23065 0.22169 0.64044 0.22169 0.23737 0 0.45906-0.0582 0.22393-0.0582 0.44338-0.17466v0.38964q-0.22169 0.0941-0.45458 0.14331-0.23289 0.0493-0.47249 0.0493-0.60013 0-0.95171-0.34933-0.34933-0.34933-0.34933-0.94499 0-0.61581 0.33142-0.97634 0.33366-0.36277 0.89796-0.36277 0.50608 0 0.79943 0.32694 0.29559 0.3247 0.29559 0.88453zm-0.41203-0.12092q-0.0045-0.33814-0.19034-0.53968-0.18362-0.20153-0.48817-0.20153-0.34485 0-0.55311 0.19482-0.20602 0.19482-0.23737 0.54863z"/>
              <path d="m12.813 709.18q-0.06942-0.0403-0.15227-0.0582-0.08061-0.0202-0.17914-0.0202-0.34933 0-0.53743 0.22841-0.18586 0.22617-0.18586 0.65164v1.3212h-0.41427v-2.508h0.41427v0.38963q0.12988-0.2284 0.33814-0.33813 0.20826-0.11197 0.50608-0.11197 0.04255 0 0.09405 7e-3 0.0515 4e-3 0.1142 0.0157z"/>
            </g>
            <g aria-label="shepherd">
              <path d="m11.035 736.71v0.38964q-0.17467-0.0896-0.36277-0.13436-0.1881-0.0448-0.38964-0.0448-0.30679 0-0.4613 0.094-0.15227 0.0941-0.15227 0.28215 0 0.14332 0.10973 0.22617 0.10973 0.0806 0.44114 0.15452l0.14108 0.0313q0.4389 0.094 0.62253 0.26647 0.18586 0.17019 0.18586 0.47698 0 0.34933-0.27767 0.55311-0.27544 0.20377-0.75912 0.20377-0.20154 0-0.42099-0.0403-0.21721-0.0381-0.45906-0.11645v-0.42547q0.22841 0.11869 0.4501 0.17915 0.22169 0.0582 0.4389 0.0582 0.29111 0 0.44786-0.0985 0.15675-0.10077 0.15675-0.28215 0-0.16795-0.1142-0.25752-0.11197-0.0896-0.49489-0.17243l-0.14332-0.0336q-0.38292-0.0806-0.55311-0.24632-0.17019-0.16795-0.17019-0.45906 0-0.35381 0.2508-0.54639 0.2508-0.19258 0.7121-0.19258 0.22841 0 0.42995 0.0336 0.20154 0.0336 0.37172 0.10077z"/>
              <path d="m13.91 737.63v1.5138h-0.41203v-1.5003q0-0.35605-0.13884-0.53296-0.13884-0.1769-0.41651-0.1769-0.33366 0-0.52624 0.21273-0.19258 0.21274-0.19258 0.57998v1.4175h-0.41427v-3.4844h0.41427v1.366q0.14779-0.22617 0.34709-0.33814 0.20154-0.11196 0.46354-0.11196 0.43219 0 0.65388 0.26871 0.22169 0.26648 0.22169 0.786z"/>
              <path d="m16.877 737.79v0.20154h-1.8945q0.02687 0.42547 0.25528 0.6494 0.23065 0.22169 0.64044 0.22169 0.23737 0 0.45906-0.0582 0.22393-0.0582 0.44338-0.17467v0.38964q-0.22169 0.0941-0.45458 0.14332-0.23289 0.0493-0.47249 0.0493-0.60013 0-0.95171-0.34933-0.34933-0.34933-0.34933-0.94499 0-0.61581 0.33142-0.97633 0.33366-0.36277 0.89796-0.36277 0.50608 0 0.79943 0.32694 0.29559 0.3247 0.29559 0.88452zm-0.41203-0.12092q-0.0045-0.33814-0.19034-0.53967-0.18362-0.20154-0.48817-0.20154-0.34485 0-0.55311 0.19482-0.20602 0.19482-0.23737 0.54863z"/>
              <path d="m17.952 738.77v1.3302h-0.41427v-3.462h0.41427v0.38068q0.12988-0.22393 0.32694-0.33142 0.1993-0.10972 0.47473-0.10972 0.45682 0 0.74121 0.36277 0.28663 0.36276 0.28663 0.95394t-0.28663 0.95394q-0.28439 0.36277-0.74121 0.36277-0.27544 0-0.47473-0.10748-0.19706-0.10973-0.32694-0.33366zm1.4018-0.87557q0-0.45458-0.1881-0.7121-0.18586-0.25976-0.5128-0.25976-0.32694 0-0.51504 0.25976-0.18586 0.25752-0.18586 0.7121t0.18586 0.71434q0.1881 0.25752 0.51504 0.25752 0.32694 0 0.5128-0.25752 0.1881-0.25976 0.1881-0.71434z"/>
              <path d="m22.55 737.63v1.5138h-0.41203v-1.5003q0-0.35605-0.13884-0.53296-0.13884-0.1769-0.41651-0.1769-0.33366 0-0.52624 0.21273-0.19258 0.21274-0.19258 0.57998v1.4175h-0.41427v-3.4844h0.41427v1.366q0.14779-0.22617 0.34709-0.33814 0.20154-0.11196 0.46354-0.11196 0.43219 0 0.65388 0.26871 0.22169 0.26648 0.22169 0.786z"/>
              <path d="m25.517 737.79v0.20154h-1.8945q0.02687 0.42547 0.25528 0.6494 0.23065 0.22169 0.64044 0.22169 0.23737 0 0.45906-0.0582 0.22393-0.0582 0.44338-0.17467v0.38964q-0.22169 0.0941-0.45458 0.14332-0.23289 0.0493-0.47249 0.0493-0.60013 0-0.9517-0.34933-0.34933-0.34933-0.34933-0.94499 0-0.61581 0.33142-0.97633 0.33366-0.36277 0.89796-0.36277 0.50608 0 0.79943 0.32694 0.29559 0.3247 0.29559 0.88452zm-0.41203-0.12092q-0.0045-0.33814-0.19034-0.53967-0.18362-0.20154-0.48817-0.20154-0.34485 0-0.55311 0.19482-0.20602 0.19482-0.23737 0.54863z"/>
              <path d="m27.646 737.02q-0.06942-0.0403-0.15227-0.0582-0.08062-0.0202-0.17914-0.0202-0.34933 0-0.53743 0.22841-0.18586 0.22617-0.18586 0.65164v1.3212h-0.41427v-2.508h0.41427v0.38964q0.12988-0.22841 0.33814-0.33814 0.20826-0.11196 0.50608-0.11196 0.04255 0 0.09405 7e-3 0.0515 4e-3 0.1142 0.0157z"/>
              <path d="m29.648 737.02v-1.357h0.41203v3.4844h-0.41203v-0.3762q-0.12988 0.22393-0.32918 0.33366-0.19706 0.10748-0.47473 0.10748-0.45458 0-0.74121-0.36277-0.28439-0.36276-0.28439-0.95394t0.28439-0.95394q0.28663-0.36277 0.74121-0.36277 0.27767 0 0.47473 0.10972 0.1993 0.10749 0.32918 0.33142zm-1.404 0.87557q0 0.45458 0.18586 0.71434 0.1881 0.25752 0.51504 0.25752 0.32694 0 0.51504-0.25752 0.1881-0.25976 0.1881-0.71434t-0.1881-0.7121q-0.1881-0.25976-0.51504-0.25976-0.32694 0-0.51504 0.25976-0.18586 0.25752-0.18586 0.7121z"/>
            </g>
            <g aria-label="livestock">
              <path d="m-18.075 735.69h0.41203v3.4844h-0.41203z"/>
              <path d="m-16.801 736.66h0.41203v2.508h-0.41203zm0-0.97634h0.41203v0.52176h-0.41203z"/>
              <path d="m-15.822 736.66h0.43666l0.78376 2.105 0.78376-2.105h0.43666l-0.94051 2.508h-0.55983z"/>
              <path d="m-10.667 737.81v0.20154h-1.8945q0.02687 0.42547 0.25528 0.6494 0.23065 0.22169 0.64044 0.22169 0.23737 0 0.45906-0.0582 0.22393-0.0582 0.44338-0.17467v0.38964q-0.22169 0.094-0.45458 0.14332-0.23289 0.0493-0.47249 0.0493-0.60013 0-0.9517-0.34933-0.34933-0.34933-0.34933-0.94499 0-0.61581 0.33142-0.97633 0.33366-0.36277 0.89796-0.36277 0.50608 0 0.79943 0.32694 0.29559 0.3247 0.29559 0.88452zm-0.41203-0.12092q-0.0045-0.33813-0.19034-0.53967-0.18362-0.20154-0.48817-0.20154-0.34485 0-0.55311 0.19482-0.20602 0.19482-0.23737 0.54863z"/>
              <path d="m-8.3923 736.74v0.38964q-0.17467-0.0896-0.36277-0.13436-0.1881-0.0448-0.38964-0.0448-0.30678 0-0.4613 0.0941-0.15227 0.094-0.15227 0.28215 0 0.14332 0.10973 0.22617 0.10973 0.0806 0.44114 0.15452l0.14108 0.0313q0.4389 0.0941 0.62253 0.26647 0.18586 0.17019 0.18586 0.47698 0 0.34933-0.27767 0.55311-0.27543 0.20377-0.75912 0.20377-0.20154 0-0.42099-0.0403-0.21721-0.0381-0.45906-0.11645v-0.42547q0.22841 0.11869 0.4501 0.17915 0.22169 0.0582 0.4389 0.0582 0.29111 0 0.44786-0.0985 0.15675-0.10077 0.15675-0.28215 0-0.16795-0.1142-0.25752-0.11197-0.0896-0.49489-0.17243l-0.14332-0.0336q-0.38292-0.0806-0.55311-0.24632-0.17019-0.16795-0.17019-0.45906 0-0.35381 0.2508-0.54639 0.2508-0.19258 0.7121-0.19258 0.22841 0 0.42995 0.0336t0.37172 0.10077z"/>
              <path d="m-7.1942 735.95v0.7121h0.8487v0.32022h-0.8487v1.3615q0 0.30678 0.082854 0.39412 0.085094 0.0873 0.34261 0.0873h0.42323v0.34485h-0.42323q-0.47697 0-0.65836-0.1769-0.18138-0.17915-0.18138-0.6494v-1.3615h-0.30231v-0.32022h0.30231v-0.7121z"/>
              <path d="m-4.8318 736.95q-0.33142 0-0.524 0.25976-0.19258 0.25752-0.19258 0.70762t0.19034 0.70986q0.19258 0.25752 0.52624 0.25752 0.32918 0 0.52176-0.25976t0.19258-0.70762q0-0.44562-0.19258-0.70538-0.19258-0.262-0.52176-0.262zm0-0.34933q0.53743 0 0.84422 0.34933 0.30678 0.34933 0.30678 0.96738 0 0.61581-0.30678 0.96738-0.30679 0.34933-0.84422 0.34933-0.53967 0-0.84646-0.34933-0.30455-0.35157-0.30455-0.96738 0-0.61805 0.30455-0.96738 0.30678-0.34933 0.84646-0.34933z"/>
              <path d="m-1.1929 736.76v0.38516q-0.17467-0.0963-0.35157-0.14332-0.17467-0.0493-0.35381-0.0493-0.40084 0-0.62253 0.25528-0.22169 0.25304-0.22169 0.7121t0.22169 0.71434q0.22169 0.25304 0.62253 0.25304 0.17914 0 0.35381-0.047 0.17691-0.0493 0.35157-0.14556v0.38068q-0.17243 0.0806-0.35829 0.12093-0.18362 0.0403-0.39188 0.0403-0.56654 0-0.9002-0.35605t-0.33366-0.96066q0-0.61357 0.3359-0.96514 0.33814-0.35157 0.92483-0.35157 0.19034 0 0.37172 0.0403 0.18138 0.0381 0.35157 0.11644z"/>
              <path d="m-0.492 735.69h0.41427v2.0579l1.2294-1.0816h0.52624l-1.3301 1.1734 1.3861 1.3346h-0.53743l-1.2742-1.2249v1.2249h-0.41427z"/>
            </g>
          </g>
        </g>
        <g stroke-width=".18344" aria-label="1 Cor. 9:7c">
          <path d="m226.82 590.23h0.56845l0.38413-1.9792-0.64251 0.12402 0.0603-0.29973 0.63907-0.12402h0.34968l-0.44442 2.279h0.56673l-0.0551 0.29283h-1.4831z"/>
          <path d="m232.41 588.15-0.0706 0.36691q-0.16537-0.16709-0.3514-0.24805-0.18432-0.081-0.39964-0.081-0.29455 0-0.51849 0.14125-0.22221 0.14125-0.38413 0.43064-0.10335 0.18604-0.15847 0.39447-0.0534 0.2067-0.0534 0.41686 0 0.3514 0.18087 0.53571 0.18259 0.18431 0.52882 0.18431 0.23944 0 0.45993-0.0758 0.22048-0.0775 0.42891-0.23082l-0.081 0.41169q-0.20498 0.0879-0.41513 0.13264-0.20843 0.0448-0.41859 0.0448-0.49437 0-0.77342-0.26871-0.27734-0.26872-0.27734-0.7476 0-0.30661 0.10508-0.60289 0.1068-0.29628 0.30489-0.54088 0.21016-0.26011 0.47887-0.38413 0.27045-0.12403 0.62874-0.12403 0.22049 0 0.41686 0.062 0.19809 0.0603 0.36862 0.18259z"/>
          <path d="m233.32 590.57q-0.33934 0-0.53744-0.20843-0.19637-0.21015-0.19637-0.57188 0-0.21016 0.0672-0.4272 0.0689-0.21876 0.17743-0.3669 0.17053-0.23083 0.38068-0.34107t0.47543-0.11024q0.32901 0 0.53055 0.20498 0.20326 0.20498 0.20326 0.53572 0 0.2291-0.0672 0.45647-0.0672 0.22738-0.1757 0.37724-0.16881 0.23083-0.37897 0.34107-0.21015 0.11024-0.47887 0.11024zm-0.4048-0.79065q0 0.26183 0.10852 0.39274 0.11025 0.1292 0.33246 0.1292 0.31867 0 0.5271-0.27734 0.21015-0.27905 0.21015-0.70625 0-0.24977-0.11196-0.37724-0.11197-0.12747-0.32901-0.12747-0.17915 0-0.31868 0.0844-0.13952 0.0827-0.24977 0.25322-0.081 0.12747-0.12574 0.29111-0.0431 0.16364-0.0431 0.33762z"/>
          <path d="m236.15 588.89q-0.0482-0.0258-0.11024-0.0396-0.062-0.0138-0.13264-0.0138-0.25321 0-0.44269 0.19293-0.18948 0.1912-0.2515 0.51332l-0.19465 0.98358h-0.31695l0.37724-1.9293h0.31695l-0.0603 0.29973q0.12575-0.16709 0.29973-0.25666 0.1757-0.0896 0.3738-0.0896 0.0517 0 0.10163 7e-3 0.0499 5e-3 0.0999 0.0189z"/>
          <path d="m236 590.09h0.36346l-0.0844 0.43753h-0.36346z"/>
          <path d="m238.11 590.47 0.0637-0.31695q0.0999 0.0655 0.22738 0.0999 0.12747 0.0344 0.27388 0.0344 0.35657 0 0.57361-0.22565 0.21877-0.22566 0.32557-0.7028-0.12747 0.14641-0.29628 0.22393-0.16709 0.0758-0.36002 0.0758-0.3135 0-0.49954-0.18087-0.18431-0.18259-0.18431-0.4892 0-0.2515 0.0913-0.46682 0.0913-0.21704 0.26872-0.37896 0.12058-0.11369 0.27906-0.17398 0.15847-0.0603 0.33762-0.0603 0.35657 0 0.56328 0.22738 0.2067 0.22565 0.2067 0.61667 0 0.36346-0.0965 0.70281-0.0947 0.33934-0.26355 0.58739-0.17915 0.26183-0.43064 0.39791-0.2515 0.13608-0.55811 0.13608-0.13264 0-0.26528-0.0276-0.13091-0.0258-0.25666-0.0792zm0.46854-1.5624q0 0.21876 0.11369 0.34795 0.11369 0.12747 0.30661 0.12747 0.267 0 0.44787-0.20498 0.18087-0.20499 0.18087-0.50988 0-0.22738-0.11197-0.35485-0.11197-0.12919-0.30834-0.12919-0.26699 0-0.44786 0.21015-0.18087 0.20843-0.18087 0.51333z"/>
          <path d="m240.74 588.7h0.36346l-0.0844 0.43753h-0.36346zm-0.27044 1.3867h0.36346l-0.0861 0.43753h-0.36346z"/>
          <path d="m241.84 587.95h1.7605l-0.031 0.14814-1.4711 2.4236h-0.38241l1.3901-2.2789h-1.3229z"/>
          <path d="m245.52 588.67-0.0637 0.31351q-0.11369-0.0827-0.24288-0.12402-0.12747-0.0413-0.26527-0.0413-0.15159 0-0.28939 0.0534-0.13609 0.0534-0.2291 0.15159-0.14814 0.14986-0.2291 0.3514-0.081 0.20154-0.081 0.41686 0 0.26011 0.12919 0.38758 0.13091 0.12747 0.39619 0.12747 0.13091 0 0.27733-0.0396 0.14814-0.0396 0.30834-0.11886l-0.0603 0.31351q-0.13781 0.0568-0.28423 0.0844-0.14469 0.0293-0.298 0.0293-0.38413 0-0.59084-0.1912-0.2067-0.19293-0.2067-0.5495 0-0.29972 0.1068-0.55121 0.10852-0.25322 0.32039-0.45476 0.1447-0.1378 0.33935-0.20843 0.19464-0.0706 0.42547-0.0706 0.13436 0 0.26699 0.031 0.13264 0.0293 0.27045 0.0896z"/>
        </g>
      </g>
      <g transform="matrix(.91304 0 0 .91304 -1845.2 -33.28)">
        <g transform="translate(172.17,135.39)" fill="none" stroke="#000" stroke-width=".4">
          <path d="m-46.266 539.22 10.521-18.222" marker-end="url(#marker3548)"/>
          <path d="m-32.93 520.83 10.036 17.383" marker-end="url(#marker3552)"/>
        </g>
        <g font-family="sans-serif" letter-spacing="0px" stroke-width=".18344" text-anchor="middle" word-spacing="0px">
          <g font-size="4.5861px">
            <g aria-label="God">
              <path d="m135.7 652.23v-0.89796h-0.73897v-0.37173h1.1868v1.4354q-0.262 0.18586-0.57774 0.28215-0.31574 0.094-0.67403 0.094-0.78376 0-1.2271-0.45682-0.44114-0.45905-0.44114-1.2764 0-0.81959 0.44114-1.2764 0.44338-0.45905 1.2271-0.45905 0.32694 0 0.62029 0.0806 0.29559 0.0806 0.54415 0.23737v0.48145q-0.2508-0.21274-0.53296-0.32022-0.28215-0.10749-0.59341-0.10749-0.61357 0-0.9226 0.34261-0.30678 0.34262-0.30678 1.0211 0 0.67627 0.30678 1.0189 0.30903 0.34262 0.9226 0.34262 0.2396 0 0.4277-0.0403 0.18811-0.0426 0.33814-0.12988z"/>
              <path d="m137.93 650.49q-0.33142 0-0.524 0.25976-0.19258 0.25752-0.19258 0.70762t0.19034 0.70986q0.19258 0.25752 0.52624 0.25752 0.32918 0 0.52176-0.25976t0.19258-0.70762q0-0.44562-0.19258-0.70538-0.19258-0.262-0.52176-0.262zm0-0.34933q0.53743 0 0.84422 0.34933 0.30678 0.34933 0.30678 0.96738 0 0.61581-0.30678 0.96738-0.30679 0.34933-0.84422 0.34933-0.53967 0-0.84646-0.34933-0.30454-0.35157-0.30454-0.96738 0-0.61805 0.30454-0.96738 0.30679-0.34933 0.84646-0.34933z"/>
              <path d="m141.41 650.58v-1.357h0.41203v3.4844h-0.41203v-0.3762q-0.12988 0.22393-0.32918 0.33365-0.19706 0.10749-0.47473 0.10749-0.45458 0-0.74121-0.36277-0.28439-0.36276-0.28439-0.95394t0.28439-0.95395q0.28663-0.36276 0.74121-0.36276 0.27767 0 0.47473 0.10972 0.1993 0.10749 0.32918 0.33142zm-1.404 0.87557q0 0.45458 0.18586 0.71434 0.1881 0.25752 0.51504 0.25752t0.51504-0.25752q0.1881-0.25976 0.1881-0.71434t-0.1881-0.7121q-0.1881-0.25976-0.51504-0.25976t-0.51504 0.25976q-0.18586 0.25752-0.18586 0.7121z"/>
            </g>
            <g aria-label="priest">
              <path d="m144.8 680.14v1.3302h-0.41427v-3.462h0.41427v0.38068q0.12988-0.22393 0.32694-0.33141 0.1993-0.10973 0.47474-0.10973 0.45681 0 0.74121 0.36277 0.28663 0.36277 0.28663 0.95394 0 0.59118-0.28663 0.95395-0.2844 0.36276-0.74121 0.36276-0.27544 0-0.47474-0.10748-0.19706-0.10973-0.32694-0.33366zm1.4018-0.87557q0-0.45458-0.1881-0.7121-0.18586-0.25976-0.5128-0.25976t-0.51504 0.25976q-0.18587 0.25752-0.18587 0.7121t0.18587 0.71434q0.1881 0.25752 0.51504 0.25752t0.5128-0.25752q0.1881-0.25976 0.1881-0.71434z"/>
              <path d="m148.77 678.39q-0.0694-0.0403-0.15228-0.0582-0.0806-0.0202-0.17914-0.0202-0.34933 0-0.53744 0.22841-0.18586 0.22617-0.18586 0.65163v1.3212h-0.41427v-2.508h0.41427v0.38964q0.12988-0.22841 0.33814-0.33813 0.20825-0.11197 0.50608-0.11197 0.0426 0 0.0941 7e-3 0.0515 4e-3 0.11421 0.0157z"/>
              <path d="m149.2 678.01h0.41203v2.508h-0.41203zm0-0.97634h0.41203v0.52176h-0.41203z"/>
              <path d="m152.62 679.16v0.20154h-1.8944q0.0269 0.42547 0.25528 0.6494 0.23065 0.22169 0.64044 0.22169 0.23737 0 0.45906-0.0582 0.22393-0.0582 0.44338-0.17467v0.38964q-0.22169 0.0941-0.45458 0.14332-0.23288 0.0493-0.47249 0.0493-0.60013 0-0.9517-0.34933-0.34934-0.34933-0.34934-0.94498 0-0.61581 0.33142-0.97634 0.33366-0.36277 0.89796-0.36277 0.50609 0 0.79944 0.32694 0.29558 0.3247 0.29558 0.88452zm-0.41203-0.12092q-4e-3 -0.33813-0.19034-0.53967-0.18362-0.20154-0.48817-0.20154-0.34485 0-0.55311 0.19482-0.20601 0.19482-0.23736 0.54863z"/>
              <path d="m154.9 678.08v0.38964q-0.17467-0.0896-0.36277-0.13436-0.1881-0.0448-0.38964-0.0448-0.30678 0-0.46129 0.094-0.15228 0.0941-0.15228 0.28216 0 0.14331 0.10973 0.22617 0.10972 0.0806 0.44114 0.15451l0.14108 0.0313q0.4389 0.0941 0.62253 0.26648 0.18586 0.17018 0.18586 0.47697 0 0.34933-0.27768 0.55311-0.27543 0.20377-0.75912 0.20377-0.20154 0-0.42099-0.0403-0.21721-0.0381-0.45906-0.11645v-0.42547q0.22841 0.11869 0.4501 0.17915 0.22169 0.0582 0.43891 0.0582 0.29111 0 0.44786-0.0985 0.15675-0.10077 0.15675-0.28215 0-0.16795-0.11421-0.25752-0.11196-0.0896-0.49488-0.17243l-0.14332-0.0336q-0.38292-0.0806-0.55311-0.24632-0.17018-0.16795-0.17018-0.45906 0-0.35381 0.2508-0.54639t0.7121-0.19258q0.22841 0 0.42994 0.0336 0.20154 0.0336 0.37173 0.10077z"/>
              <path d="m156.09 677.29v0.7121h0.8487v0.32022h-0.8487v1.3615q0 0.30679 0.0829 0.39412 0.0851 0.0873 0.34262 0.0873h0.42323v0.34485h-0.42323q-0.47698 0-0.65836-0.1769-0.18138-0.17915-0.18138-0.6494v-1.3615h-0.30231v-0.32022h0.30231v-0.7121z"/>
            </g>
            <g aria-label="worshipper">
              <path d="m111.65 678.01h0.41204l0.51504 1.9572 0.5128-1.9572h0.48593l0.51504 1.9572 0.5128-1.9572h0.41203l-0.65612 2.508h-0.48593l-0.53967-2.0557-0.54191 2.0557h-0.48593z"/>
              <path d="m116.61 678.29q-0.33142 0-0.524 0.25976-0.19258 0.25752-0.19258 0.70762t0.19034 0.70986q0.19258 0.25752 0.52624 0.25752 0.32918 0 0.52176-0.25976t0.19258-0.70762q0-0.44562-0.19258-0.70538-0.19258-0.262-0.52176-0.262zm0-0.34933q0.53743 0 0.84422 0.34933 0.30678 0.34933 0.30678 0.96738 0 0.61581-0.30678 0.96738-0.30679 0.34933-0.84422 0.34933-0.53968 0-0.84646-0.34933-0.30455-0.35157-0.30455-0.96738 0-0.61805 0.30455-0.96738 0.30678-0.34933 0.84646-0.34933z"/>
              <path d="m119.9 678.39q-0.0694-0.0403-0.15227-0.0582-0.0806-0.0202-0.17915-0.0202-0.34933 0-0.53743 0.22841-0.18586 0.22617-0.18586 0.65163v1.3212h-0.41428v-2.508h0.41428v0.38964q0.12988-0.22841 0.33813-0.33813 0.20826-0.11197 0.50608-0.11197 0.0426 0 0.0941 7e-3 0.0515 4e-3 0.1142 0.0157z"/>
              <path d="m121.93 678.08v0.38964q-0.17467-0.0896-0.36277-0.13436-0.1881-0.0448-0.38964-0.0448-0.30678 0-0.46129 0.094-0.15228 0.0941-0.15228 0.28216 0 0.14331 0.10973 0.22617 0.10973 0.0806 0.44114 0.15451l0.14108 0.0313q0.4389 0.0941 0.62253 0.26648 0.18586 0.17018 0.18586 0.47697 0 0.34933-0.27768 0.55311-0.27543 0.20377-0.75912 0.20377-0.20154 0-0.42099-0.0403-0.21721-0.0381-0.45906-0.11645v-0.42547q0.22841 0.11869 0.4501 0.17915 0.22169 0.0582 0.43891 0.0582 0.29111 0 0.44786-0.0985 0.15675-0.10077 0.15675-0.28215 0-0.16795-0.1142-0.25752-0.11197-0.0896-0.49489-0.17243l-0.14332-0.0336q-0.38292-0.0806-0.55311-0.24632-0.17018-0.16795-0.17018-0.45906 0-0.35381 0.2508-0.54639t0.7121-0.19258q0.22841 0 0.42995 0.0336 0.20153 0.0336 0.37172 0.10077z"/>
              <path d="m124.81 679v1.5138h-0.41203v-1.5003q0-0.35605-0.13884-0.53296-0.13884-0.1769-0.41651-0.1769-0.33366 0-0.52624 0.21273-0.19258 0.21274-0.19258 0.57998v1.4175h-0.41427v-3.4844h0.41427v1.366q0.1478-0.22617 0.3471-0.33813 0.20153-0.11197 0.46353-0.11197 0.43219 0 0.65388 0.26872 0.22169 0.26647 0.22169 0.78599z"/>
              <path d="m125.63 678.01h0.41203v2.508h-0.41203zm0-0.97634h0.41203v0.52176h-0.41203z"/>
              <path d="m127.3 680.14v1.3302h-0.41427v-3.462h0.41427v0.38068q0.12988-0.22393 0.32694-0.33141 0.19929-0.10973 0.47473-0.10973 0.45682 0 0.74121 0.36277 0.28663 0.36277 0.28663 0.95394 0 0.59118-0.28663 0.95395-0.28439 0.36276-0.74121 0.36276-0.27544 0-0.47473-0.10748-0.19706-0.10973-0.32694-0.33366zm1.4018-0.87557q0-0.45458-0.1881-0.7121-0.18586-0.25976-0.5128-0.25976t-0.51504 0.25976q-0.18586 0.25752-0.18586 0.7121t0.18586 0.71434q0.1881 0.25752 0.51504 0.25752t0.5128-0.25752q0.1881-0.25976 0.1881-0.71434z"/>
              <path d="m130.21 680.14v1.3302h-0.41428v-3.462h0.41428v0.38068q0.12988-0.22393 0.32694-0.33141 0.19929-0.10973 0.47473-0.10973 0.45682 0 0.74121 0.36277 0.28663 0.36277 0.28663 0.95394 0 0.59118-0.28663 0.95395-0.28439 0.36276-0.74121 0.36276-0.27544 0-0.47473-0.10748-0.19706-0.10973-0.32694-0.33366zm1.4018-0.87557q0-0.45458-0.1881-0.7121-0.18586-0.25976-0.5128-0.25976t-0.51504 0.25976q-0.18586 0.25752-0.18586 0.7121t0.18586 0.71434q0.1881 0.25752 0.51504 0.25752t0.5128-0.25752q0.1881-0.25976 0.1881-0.71434z"/>
              <path d="m134.87 679.16v0.20154h-1.8944q0.0269 0.42547 0.25528 0.6494 0.23065 0.22169 0.64044 0.22169 0.23737 0 0.45906-0.0582 0.22393-0.0582 0.44338-0.17467v0.38964q-0.22169 0.0941-0.45458 0.14332-0.23288 0.0493-0.47249 0.0493-0.60013 0-0.9517-0.34933-0.34934-0.34933-0.34934-0.94498 0-0.61581 0.33142-0.97634 0.33366-0.36277 0.89796-0.36277 0.50609 0 0.79944 0.32694 0.29558 0.3247 0.29558 0.88452zm-0.41203-0.12092q-4e-3 -0.33813-0.19034-0.53967-0.18362-0.20154-0.48817-0.20154-0.34485 0-0.55311 0.19482-0.20601 0.19482-0.23736 0.54863z"/>
              <path d="m137 678.39q-0.0694-0.0403-0.15228-0.0582-0.0806-0.0202-0.17914-0.0202-0.34933 0-0.53744 0.22841-0.18586 0.22617-0.18586 0.65163v1.3212h-0.41427v-2.508h0.41427v0.38964q0.12988-0.22841 0.33814-0.33813 0.20825-0.11197 0.50608-0.11197 0.0426 0 0.0941 7e-3 0.0515 4e-3 0.11421 0.0157z"/>
            </g>
          </g>
          <g aria-label="1 Cor. 9:13">
            <path d="m128.24 690.12h0.56845l0.38413-1.9792-0.64252 0.12402 0.0603-0.29972 0.63907-0.12402h0.34968l-0.44442 2.2789h0.56672l-0.0551 0.29284h-1.4831z"/>
            <path d="m133.82 688.04-0.0706 0.3669q-0.16537-0.16708-0.3514-0.24804-0.18432-0.081-0.39964-0.081-0.29456 0-0.51849 0.14125-0.22221 0.14125-0.38413 0.43064-0.10335 0.18603-0.15847 0.39446-0.0534 0.20671-0.0534 0.41686 0 0.3514 0.18087 0.53572 0.18259 0.18431 0.52882 0.18431 0.23944 0 0.45992-0.0758 0.22049-0.0775 0.42892-0.23083l-0.081 0.4117q-0.20498 0.0879-0.41514 0.13263-0.20843 0.0448-0.41858 0.0448-0.49437 0-0.77343-0.26872-0.27733-0.26872-0.27733-0.74759 0-0.30662 0.10508-0.6029 0.1068-0.29628 0.30489-0.54088 0.21015-0.26011 0.47887-0.38413 0.27044-0.12402 0.62874-0.12402 0.22048 0 0.41685 0.062 0.1981 0.0603 0.36863 0.18259z"/>
            <path d="m134.73 690.46q-0.33934 0-0.53744-0.20843-0.19637-0.21015-0.19637-0.57189 0-0.21015 0.0672-0.42719 0.0689-0.21877 0.17742-0.36691 0.17054-0.23082 0.38069-0.34107 0.21015-0.11024 0.47543-0.11024 0.329 0 0.53054 0.20498 0.20327 0.20499 0.20327 0.53572 0 0.2291-0.0672 0.45648t-0.17571 0.37724q-0.16881 0.23082-0.37896 0.34107-0.21015 0.11024-0.47887 0.11024zm-0.4048-0.79065q0 0.26182 0.10852 0.39274 0.11024 0.12919 0.33245 0.12919 0.31868 0 0.52711-0.27733 0.21015-0.27906 0.21015-0.70625 0-0.24977-0.11197-0.37724-0.11196-0.12747-0.32901-0.12747-0.17914 0-0.31867 0.0844-0.13953 0.0827-0.24977 0.25321-0.081 0.12747-0.12575 0.29111-0.0431 0.16365-0.0431 0.33763z"/>
            <path d="m137.57 688.78q-0.0482-0.0258-0.11024-0.0396-0.062-0.0138-0.13264-0.0138-0.25321 0-0.4427 0.19292-0.18948 0.19121-0.25149 0.51332l-0.19465 0.98359h-0.31695l0.37724-1.9293h0.31695l-0.0603 0.29972q0.12575-0.16708 0.29973-0.25666 0.1757-0.0896 0.37379-0.0896 0.0517 0 0.10163 7e-3 0.05 5e-3 0.0999 0.019z"/>
            <path d="m137.41 689.98h0.36346l-0.0844 0.43753h-0.36346z"/>
            <path d="m139.52 690.36 0.0637-0.31695q0.0999 0.0655 0.22737 0.0999t0.27389 0.0344q0.35657 0 0.57361-0.22566 0.21877-0.22565 0.32557-0.7028-0.12747 0.14642-0.29628 0.22393-0.16709 0.0758-0.36002 0.0758-0.3135 0-0.49954-0.18087-0.18431-0.18259-0.18431-0.48921 0-0.25149 0.0913-0.46681 0.0913-0.21705 0.26872-0.37897 0.12058-0.11368 0.27905-0.17397 0.15848-0.0603 0.33763-0.0603 0.35657 0 0.56327 0.22737 0.20671 0.22566 0.20671 0.61668 0 0.36346-0.0965 0.7028-0.0947 0.33935-0.26356 0.5874-0.17914 0.26183-0.43063 0.39791-0.2515 0.13608-0.55811 0.13608-0.13264 0-0.26528-0.0276-0.13091-0.0258-0.25666-0.0792zm0.46854-1.5624q0 0.21877 0.11369 0.34796 0.11368 0.12747 0.30661 0.12747 0.267 0 0.44787-0.20499 0.18086-0.20498 0.18086-0.50988 0-0.22737-0.11196-0.35484-0.11197-0.12919-0.30834-0.12919-0.267 0-0.44786 0.21015-0.18087 0.20843-0.18087 0.51332z"/>
            <path d="m142.15 688.59h0.36346l-0.0844 0.43753h-0.36346zm-0.27045 1.3867h0.36346l-0.0861 0.43753h-0.36346z"/>
            <path d="m143.02 690.12h0.56844l0.38414-1.9792-0.64252 0.12402 0.0603-0.29972 0.63907-0.12402h0.34968l-0.44442 2.2789h0.56672l-0.0551 0.29284h-1.4831z"/>
            <path d="m145.6 687.91q0.18948-0.0551 0.36691-0.0827 0.17914-0.0276 0.3514-0.0276 0.34107 0 0.54088 0.15158 0.19982 0.15159 0.19982 0.40653 0 0.24977-0.15848 0.42891-0.15675 0.17915-0.43408 0.24461 0.21704 0.062 0.31867 0.19292t0.10163 0.34624q0 0.2067-0.0999 0.38757-0.0982 0.18087-0.28423 0.31179-0.14125 0.0999-0.33762 0.14814-0.19637 0.0499-0.45303 0.0499-0.16192 0-0.32729-0.0327-0.16536-0.031-0.3359-0.0947l0.0637-0.32901q0.16192 0.0896 0.32556 0.13436 0.16537 0.0431 0.33762 0.0431 0.33935 0 0.5495-0.17397 0.21187-0.1757 0.21187-0.45476 0-0.17915-0.13435-0.27561-0.13436-0.0982-0.38414-0.0982h-0.29972l0.0534-0.2825h0.31695q0.28594 0 0.44959-0.13092 0.16536-0.13091 0.16536-0.35485 0-0.16192-0.12058-0.24977-0.12058-0.0896-0.33934-0.0896-0.16537 0-0.33934 0.0362-0.17226 0.0345-0.3583 0.10508z"/>
          </g>
        </g>
      </g>
      <g transform="matrix(.91304 0 0 .91304 -1958.9 -33.28)">
        <g transform="translate(183.37,-58.634)">
          <g transform="translate(40.289,194.02)" fill="none" stroke="#000" stroke-width=".4">
            <path d="m-46.266 539.22 10.521-18.222" marker-end="url(#marker5619)"/>
            <path d="m-32.93 520.83 10.036 17.383" marker-end="url(#marker1527)"/>
          </g>
          <g font-family="sans-serif" font-size="4.5861px" letter-spacing="0px" stroke-width=".18344" text-anchor="middle" word-spacing="0px">
            <g aria-label="owner">
              <path d="m0.046726 709.08q-0.33142 0-0.524 0.25976-0.19258 0.25752-0.19258 0.70762t0.19034 0.70986q0.19258 0.25752 0.52624 0.25752 0.32918 0 0.52176-0.25976 0.19258-0.25976 0.19258-0.70762 0-0.44563-0.19258-0.70539-0.19258-0.26199-0.52176-0.26199zm0-0.34934q0.53743 0 0.84422 0.34934 0.30679 0.34933 0.30679 0.96738 0 0.61581-0.30679 0.96738-0.30679 0.34933-0.84422 0.34933-0.53967 0-0.84646-0.34933-0.30455-0.35157-0.30455-0.96738 0-0.61805 0.30455-0.96738 0.30679-0.34934 0.84646-0.34934z"/>
              <path d="m1.6411 708.79h0.41203l0.51504 1.9572 0.5128-1.9572h0.48593l0.51504 1.9572 0.5128-1.9572h0.41203l-0.65612 2.508h-0.48593l-0.53967-2.0557-0.54191 2.0557h-0.48593z"/>
              <path d="m7.7164 709.79v1.5138h-0.41203v-1.5003q0-0.35605-0.13884-0.53295-0.13884-0.17691-0.41651-0.17691-0.33366 0-0.52624 0.21274-0.19258 0.21273-0.19258 0.57998v1.4175h-0.41427v-2.508h0.41427v0.38963q0.14779-0.22617 0.34709-0.33813 0.20154-0.11197 0.46354-0.11197 0.43219 0 0.65388 0.26872 0.22169 0.26648 0.22169 0.786z"/>
              <path d="m10.683 709.94v0.20154h-1.8945q0.026872 0.42546 0.25528 0.6494 0.23065 0.22169 0.64044 0.22169 0.23737 0 0.45906-0.0582 0.22393-0.0582 0.44338-0.17466v0.38964q-0.22169 0.0941-0.45458 0.14331-0.23289 0.0493-0.47249 0.0493-0.60013 0-0.95171-0.34933-0.34933-0.34933-0.34933-0.94499 0-0.61581 0.33142-0.97634 0.33366-0.36277 0.89796-0.36277 0.50608 0 0.79943 0.32694 0.29559 0.3247 0.29559 0.88453zm-0.41203-0.12092q-0.0045-0.33814-0.19034-0.53968-0.18362-0.20153-0.48817-0.20153-0.34485 0-0.55311 0.19482-0.20602 0.19482-0.23737 0.54863z"/>
              <path d="m12.813 709.18q-0.06942-0.0403-0.15227-0.0582-0.08061-0.0202-0.17914-0.0202-0.34933 0-0.53743 0.22841-0.18586 0.22617-0.18586 0.65164v1.3212h-0.41427v-2.508h0.41427v0.38963q0.12988-0.2284 0.33814-0.33813 0.20826-0.11197 0.50608-0.11197 0.04255 0 0.09405 7e-3 0.0515 4e-3 0.1142 0.0157z"/>
            </g>
            <g aria-label="ox">
              <path d="m17.932 736.93q-0.33142 0-0.524 0.25976-0.19258 0.25752-0.19258 0.70762t0.19034 0.70986q0.19258 0.25752 0.52624 0.25752 0.32918 0 0.52176-0.25976 0.19258-0.25976 0.19258-0.70762 0-0.44562-0.19258-0.70538-0.19258-0.262-0.52176-0.262zm0-0.34933q0.53743 0 0.84422 0.34933t0.30678 0.96738q0 0.61581-0.30678 0.96738-0.30678 0.34933-0.84422 0.34933-0.53967 0-0.84646-0.34933-0.30455-0.35157-0.30455-0.96738 0-0.61805 0.30455-0.96738 0.30678-0.34933 0.84646-0.34933z"/>
              <path d="m21.709 736.64-0.90692 1.2204 0.95394 1.2876h-0.48593l-0.73001-0.98529-0.73001 0.98529h-0.48593l0.9741-1.3122-0.89124-1.1958h0.48593l0.66507 0.89348 0.66507-0.89348z"/>
            </g>
            <g aria-label="grain">
              <path d="m-12.126 737.89q0-0.44786-0.18586-0.69418-0.18362-0.24633-0.51728-0.24633-0.33142 0-0.51728 0.24633-0.18362 0.24632-0.18362 0.69418 0 0.44562 0.18362 0.69195 0.18586 0.24632 0.51728 0.24632 0.33366 0 0.51728-0.24632 0.18586-0.24633 0.18586-0.69195zm0.41203 0.97186q0 0.64044-0.28439 0.9517-0.28439 0.31351-0.87109 0.31351-0.21721 0-0.40979-0.0336-0.19258-0.0314-0.37396-0.0985v-0.40084q0.18138 0.0985 0.35829 0.14556 0.17691 0.047 0.36053 0.047 0.40531 0 0.60685-0.21273 0.20154-0.2105 0.20154-0.6382v-0.20378q-0.12764 0.22169-0.32694 0.33142-0.1993 0.10972-0.47697 0.10972-0.4613 0-0.74345-0.35157-0.28215-0.35157-0.28215-0.93155 0-0.58222 0.28215-0.93379 0.28215-0.35157 0.74345-0.35157 0.27767 0 0.47697 0.10972 0.1993 0.10973 0.32694 0.33142v-0.38068h0.41203z"/>
              <path d="m-9.4122 737.05q-0.069418-0.0403-0.15227-0.0582-0.080615-0.0202-0.17914-0.0202-0.34933 0-0.53743 0.22841-0.18586 0.22617-0.18586 0.65164v1.3212h-0.41427v-2.508h0.41427v0.38964q0.12988-0.22841 0.33814-0.33814 0.20826-0.11196 0.50608-0.11196 0.042547 0 0.094051 7e-3 0.051504 4e-3 0.1142 0.0157z"/>
              <path d="m-7.8402 737.91q-0.49937 0-0.69195 0.11421-0.19258 0.1142-0.19258 0.38964 0 0.21945 0.14332 0.34933 0.14555 0.12764 0.39412 0.12764 0.34261 0 0.54863-0.24185 0.20826-0.24408 0.20826-0.64716v-0.0918zm0.82183-0.17018v1.4309h-0.41203v-0.38068q-0.14108 0.22841-0.35157 0.33814-0.21049 0.10748-0.51504 0.10748-0.38516 0-0.61357-0.21497-0.22617-0.21721-0.22617-0.57998 0-0.42323 0.28215-0.6382 0.28439-0.21498 0.84646-0.21498h0.57774v-0.0403q0-0.2844-0.1881-0.43891-0.18586-0.15675-0.524-0.15675-0.21497 0-0.41875 0.0515-0.20378 0.0515-0.39188 0.15452v-0.38069q0.22617-0.0873 0.4389-0.12988 0.21273-0.0448 0.41427-0.0448 0.54415 0 0.81287 0.28215t0.26872 0.85542z"/>
              <path d="m-6.1697 736.66h0.41203v2.508h-0.41203zm0-0.97634h0.41203v0.52176h-0.41203z"/>
              <path d="m-2.8107 737.66v1.5138h-0.41203v-1.5003q0-0.35605-0.13884-0.53296-0.13884-0.1769-0.41651-0.1769-0.33366 0-0.52624 0.21273-0.19258 0.21274-0.19258 0.57998v1.4175h-0.41427v-2.508h0.41427v0.38964q0.14779-0.22617 0.34709-0.33814 0.20154-0.11196 0.46354-0.11196 0.43219 0 0.65388 0.26871 0.22169 0.26648 0.22169 0.786z"/>
            </g>
          </g>
          <g stroke-width=".18344" aria-label="1 Cor. 9:9">
            <path d="m-2.4881 748.75h0.56844l0.38413-1.9792-0.64251 0.12402 0.06029-0.29972 0.63907-0.12403h0.34968l-0.44442 2.279h0.56672l-0.055122 0.29283h-1.4831z"/>
            <path d="m3.0999 746.67-0.070625 0.3669q-0.16537-0.16709-0.3514-0.24805-0.18431-0.081-0.39963-0.081-0.29456 0-0.51849 0.14125-0.22221 0.14125-0.38413 0.43064-0.10335 0.18604-0.15848 0.39447-0.053399 0.20671-0.053399 0.41686 0 0.3514 0.18087 0.53571 0.18259 0.18432 0.52883 0.18432 0.23944 0 0.45992-0.0758 0.22049-0.0775 0.42892-0.23083l-0.08096 0.41169q-0.20498 0.0879-0.41514 0.13264-0.20843 0.0448-0.41858 0.0448-0.49437 0-0.77343-0.26872-0.27733-0.26872-0.27733-0.74759 0-0.30662 0.10508-0.6029 0.1068-0.29628 0.30489-0.54088 0.21015-0.26011 0.47887-0.38413 0.27044-0.12403 0.62873-0.12403 0.22049 0 0.41686 0.062 0.19809 0.0603 0.36863 0.18259z"/>
            <path d="m4.0077 749.1q-0.33934 0-0.53744-0.20843-0.19637-0.21015-0.19637-0.57189 0-0.21015 0.06718-0.4272 0.068902-0.21876 0.17742-0.3669 0.17053-0.23082 0.38069-0.34107 0.21015-0.11024 0.47543-0.11024 0.32901 0 0.53055 0.20498 0.20326 0.20499 0.20326 0.53572 0 0.2291-0.06718 0.45648-0.06718 0.22737-0.1757 0.37724-0.16881 0.23082-0.37896 0.34106-0.21015 0.11025-0.47887 0.11025zm-0.4048-0.79066q0 0.26183 0.10852 0.39275 0.11024 0.12919 0.33245 0.12919 0.31867 0 0.5271-0.27733 0.21015-0.27906 0.21015-0.70625 0-0.24977-0.11197-0.37724t-0.32901-0.12747q-0.17915 0-0.31867 0.0844-0.13953 0.0827-0.24977 0.25322-0.08096 0.12747-0.12575 0.29111-0.043064 0.16364-0.043064 0.33762z"/>
            <path d="m6.843 747.41q-0.048232-0.0258-0.11024-0.0396-0.062012-0.0138-0.13264-0.0138-0.25322 0-0.4427 0.19293-0.18948 0.1912-0.25149 0.51332l-0.19465 0.98358h-0.31695l0.37724-1.9293h0.31695l-0.06029 0.29972q0.12575-0.16709 0.29973-0.25666 0.1757-0.0896 0.3738-0.0896 0.051677 0 0.10163 7e-3 0.049954 5e-3 0.099908 0.019z"/>
            <path d="m6.6863 748.61h0.36346l-0.084405 0.43753h-0.36346z"/>
            <path d="m8.7947 748.99 0.063735-0.31695q0.099908 0.0655 0.22738 0.0999 0.12747 0.0345 0.27389 0.0345 0.35657 0 0.57361-0.22566 0.21876-0.22565 0.32556-0.7028-0.12747 0.14642-0.29628 0.22393-0.16709 0.0758-0.36001 0.0758-0.31351 0-0.49954-0.18086-0.18431-0.1826-0.18431-0.48921 0-0.2515 0.091296-0.46681 0.091296-0.21705 0.26872-0.37897 0.12058-0.11369 0.27905-0.17398 0.15848-0.0603 0.33762-0.0603 0.35657 0 0.56328 0.22738 0.20671 0.22566 0.20671 0.61668 0 0.36346-0.09646 0.7028-0.09474 0.33935-0.26355 0.58739-0.17915 0.26183-0.43064 0.39792-0.25149 0.13608-0.55811 0.13608-0.13264 0-0.26527-0.0276-0.13091-0.0258-0.25666-0.0792zm0.46854-1.5624q0 0.21876 0.11369 0.34796 0.11369 0.12746 0.30662 0.12746 0.267 0 0.44786-0.20498 0.18087-0.20498 0.18087-0.50988 0-0.22738-0.11197-0.35484-0.11197-0.1292-0.30834-0.1292-0.267 0-0.44787 0.21016-0.18087 0.20843-0.18087 0.51332z"/>
            <path d="m11.423 747.22h0.36346l-0.08441 0.43753h-0.36346zm-0.27044 1.3867h0.36346l-0.08613 0.43753h-0.36346z"/>
            <path d="m12.228 748.99 0.06373-0.31695q0.09991 0.0655 0.22738 0.0999 0.12747 0.0345 0.27389 0.0345 0.35657 0 0.57361-0.22566 0.21876-0.22565 0.32556-0.7028-0.12747 0.14642-0.29628 0.22393-0.16709 0.0758-0.36001 0.0758-0.31351 0-0.49954-0.18086-0.18431-0.1826-0.18431-0.48921 0-0.2515 0.0913-0.46681 0.0913-0.21705 0.26872-0.37897 0.12058-0.11369 0.27905-0.17398 0.15848-0.0603 0.33762-0.0603 0.35657 0 0.56328 0.22738 0.20671 0.22566 0.20671 0.61668 0 0.36346-0.09646 0.7028-0.09474 0.33935-0.26355 0.58739-0.17915 0.26183-0.43064 0.39792-0.25149 0.13608-0.55811 0.13608-0.13264 0-0.26527-0.0276-0.13092-0.0258-0.25666-0.0792zm0.46854-1.5624q0 0.21876 0.11369 0.34796 0.11369 0.12746 0.30662 0.12746 0.267 0 0.44786-0.20498t0.18087-0.50988q0-0.22738-0.11197-0.35484-0.11197-0.1292-0.30834-0.1292-0.267 0-0.44786 0.21016-0.18087 0.20843-0.18087 0.51332z"/>
          </g>
        </g>
      </g>
      <g transform="matrix(.91304 0 0 .91304 -1956.9 8.7975)">
        <g transform="translate(4.2098)" stroke="#000">
          <g transform="translate(216.95,-21.982)" shape-rendering="auto" stroke-width="1.5118">
            <path transform="matrix(.26458 0 0 .26458 -65.959 510.26)" d="m115.18 38.822-1.6367 1.3652-6e-3 -0.0039-0.01 0.01563-6.459 5.3848c1.0777-0.10696 2.1283 0.07481 3.0762 0.47656l-36.373 62.996 1.3145 0.75977 36.367-63.002c0.82103 0.6172 1.4974 1.4314 1.9277 2.4141l1.4199-8.209 0.043-0.07617-0.0273-0.01563z" color="#000000" color-rendering="auto" dominant-baseline="auto" image-rendering="auto" solid-color="#000000" style="font-feature-settings:normal;font-variant-alternates:normal;font-variant-caps:normal;font-variant-ligatures:normal;font-variant-numeric:normal;font-variant-position:normal;isolation:auto;mix-blend-mode:normal;shape-padding:0;text-decoration-color:#000000;text-decoration-line:none;text-decoration-style:solid;text-indent:0;text-orientation:mixed;text-transform:none;white-space:normal"/>
            <path transform="matrix(.26458 0 0 .26458 -65.959 510.26)" d="m125.48 39.57-1.3066 0.75977 34.543 59.824c-0.94494 0.40234-1.9886 0.58156-3.0547 0.46289l6.4043 5.3379 0.043 0.0742 0.0273-0.0156 1.6387 1.3652-0.36328-2.1016 4e-3 -2e-3 -6e-3 -0.0117-1.4355-8.291c-0.44627 0.98689-1.1292 1.8057-1.9512 2.4258z" color="#000000" color-rendering="auto" dominant-baseline="auto" image-rendering="auto" solid-color="#000000" style="font-feature-settings:normal;font-variant-alternates:normal;font-variant-caps:normal;font-variant-ligatures:normal;font-variant-numeric:normal;font-variant-position:normal;isolation:auto;mix-blend-mode:normal;shape-padding:0;text-decoration-color:#000000;text-decoration-line:none;text-decoration-style:solid;text-indent:0;text-orientation:mixed;text-transform:none;white-space:normal"/>
          </g>
          <g transform="translate(40.639,-7.8704)" font-family="sans-serif" font-size="4.5861px" letter-spacing="0px" stroke-width=".18344" text-anchor="middle" word-spacing="0px">
            <g aria-label="laborer">
              <path d="m150.68 527.53h0.41203v3.4844h-0.41203z"/>
              <path d="m153.09 529.75q-0.49936 0-0.69195 0.1142-0.19258 0.11421-0.19258 0.38964 0 0.21946 0.14332 0.34933 0.14555 0.12765 0.39412 0.12765 0.34261 0 0.54863-0.24185 0.20825-0.24408 0.20825-0.64716v-0.0918zm0.82183-0.17019v1.4309h-0.41204v-0.38068q-0.14107 0.22841-0.35157 0.33813-0.21049 0.10749-0.51504 0.10749-0.38516 0-0.61357-0.21497-0.22617-0.21722-0.22617-0.57999 0-0.42322 0.28215-0.6382 0.2844-0.21497 0.84646-0.21497h0.57774v-0.0403q0-0.28439-0.1881-0.4389-0.18586-0.15675-0.524-0.15675-0.21497 0-0.41875 0.0515-0.20377 0.0515-0.39187 0.15451v-0.38068q0.22617-0.0873 0.4389-0.12988 0.21273-0.0448 0.41427-0.0448 0.54415 0 0.81287 0.28216 0.26872 0.28215 0.26872 0.85541z"/>
              <path d="m156.57 529.76q0-0.45458-0.18811-0.7121-0.18586-0.25976-0.5128-0.25976t-0.51504 0.25976q-0.18586 0.25752-0.18586 0.7121t0.18586 0.71434q0.1881 0.25752 0.51504 0.25752t0.5128-0.25752q0.18811-0.25976 0.18811-0.71434zm-1.4018-0.87557q0.12988-0.22393 0.32694-0.33142 0.1993-0.10973 0.47473-0.10973 0.45682 0 0.74121 0.36277 0.28663 0.36277 0.28663 0.95395 0 0.59117-0.28663 0.95394-0.28439 0.36277-0.74121 0.36277-0.27543 0-0.47473-0.10749-0.19706-0.10972-0.32694-0.33365v0.3762h-0.41427v-3.4844h0.41427z"/>
              <path d="m158.65 528.79q-0.33142 0-0.524 0.25976-0.19258 0.25752-0.19258 0.70762t0.19034 0.70986q0.19258 0.25752 0.52624 0.25752 0.32918 0 0.52176-0.25976t0.19258-0.70762q0-0.44563-0.19258-0.70539-0.19258-0.26199-0.52176-0.26199zm0-0.34934q0.53743 0 0.84422 0.34934 0.30678 0.34933 0.30678 0.96738 0 0.61581-0.30678 0.96738-0.30679 0.34933-0.84422 0.34933-0.53967 0-0.84646-0.34933-0.30454-0.35157-0.30454-0.96738 0-0.61805 0.30454-0.96738 0.30679-0.34934 0.84646-0.34934z"/>
              <path d="m161.94 528.89q-0.0694-0.0403-0.15227-0.0582-0.0806-0.0202-0.17914-0.0202-0.34934 0-0.53744 0.22841-0.18586 0.22617-0.18586 0.65164v1.3212h-0.41427v-2.508h0.41427v0.38963q0.12988-0.2284 0.33813-0.33813 0.20826-0.11197 0.50609-0.11197 0.0425 0 0.0941 7e-3 0.0515 4e-3 0.1142 0.0157z"/>
              <path d="m164.41 529.65v0.20154h-1.8945q0.0269 0.42546 0.25528 0.6494 0.23065 0.22169 0.64045 0.22169 0.23736 0 0.45905-0.0582 0.22393-0.0582 0.44339-0.17466v0.38964q-0.22169 0.094-0.45458 0.14331-0.23289 0.0493-0.4725 0.0493-0.60013 0-0.9517-0.34933-0.34933-0.34934-0.34933-0.94499 0-0.61581 0.33141-0.97634 0.33366-0.36277 0.89797-0.36277 0.50608 0 0.79943 0.32694 0.29559 0.3247 0.29559 0.88453zm-0.41204-0.12092q-4e-3 -0.33814-0.19034-0.53968-0.18362-0.20153-0.48817-0.20153-0.34485 0-0.5531 0.19482-0.20602 0.19482-0.23737 0.54863z"/>
              <path d="m166.54 528.89q-0.0694-0.0403-0.15228-0.0582-0.0806-0.0202-0.17914-0.0202-0.34933 0-0.53743 0.22841-0.18587 0.22617-0.18587 0.65164v1.3212h-0.41427v-2.508h0.41427v0.38963q0.12988-0.2284 0.33814-0.33813 0.20825-0.11197 0.50608-0.11197 0.0426 0 0.094 7e-3 0.0515 4e-3 0.11421 0.0157z"/>
            </g>
            <g aria-label="employer">
              <path d="m132.96 501.81v0.20153h-1.8945q0.0269 0.42547 0.25528 0.6494 0.23065 0.22169 0.64044 0.22169 0.23737 0 0.45906-0.0582 0.22393-0.0582 0.44339-0.17466v0.38964q-0.2217 0.094-0.45458 0.14331-0.23289 0.0493-0.4725 0.0493-0.60013 0-0.9517-0.34934-0.34933-0.34933-0.34933-0.94498 0-0.61581 0.33141-0.97634 0.33366-0.36277 0.89796-0.36277 0.50609 0 0.79944 0.32694 0.29559 0.3247 0.29559 0.88453zm-0.41204-0.12093q-4e-3 -0.33813-0.19034-0.53967-0.18362-0.20154-0.48817-0.20154-0.34485 0-0.55311 0.19482-0.20601 0.19482-0.23736 0.54863z"/>
              <path d="m135.59 501.14q0.15451-0.27767 0.36949-0.40979 0.21497-0.13212 0.50608-0.13212 0.39188 0 0.60461 0.27544 0.21274 0.27319 0.21274 0.77927v1.5138h-0.41427v-1.5003q0-0.36053-0.12764-0.53519-0.12764-0.17467-0.38964-0.17467-0.32022 0-0.50609 0.21273-0.18586 0.21274-0.18586 0.57998v1.4175h-0.41427v-1.5003q0-0.36277-0.12764-0.53519-0.12764-0.17467-0.39412-0.17467-0.31574 0-0.5016 0.21497-0.18587 0.21274-0.18587 0.57774v1.4175h-0.41427v-2.508h0.41427v0.38964q0.14108-0.23065 0.33814-0.34037 0.19706-0.10973 0.46801-0.10973 0.2732 0 0.46354 0.13884 0.19258 0.13884 0.28439 0.40307z"/>
              <path d="m138.51 502.79v1.3302h-0.41427v-3.462h0.41427v0.38068q0.12988-0.22393 0.32694-0.33141 0.1993-0.10973 0.47473-0.10973 0.45682 0 0.74121 0.36277 0.28663 0.36277 0.28663 0.95394 0 0.59118-0.28663 0.95395-0.28439 0.36277-0.74121 0.36277-0.27543 0-0.47473-0.10749-0.19706-0.10973-0.32694-0.33366zm1.4018-0.87557q0-0.45458-0.18811-0.7121-0.18586-0.25976-0.5128-0.25976t-0.51504 0.25976q-0.18586 0.25752-0.18586 0.7121t0.18586 0.71434q0.1881 0.25752 0.51504 0.25752t0.5128-0.25752q0.18811-0.25976 0.18811-0.71434z"/>
              <path d="m141.02 499.68h0.41203v3.4844h-0.41203z"/>
              <path d="m143.26 500.95q-0.33142 0-0.524 0.25976-0.19258 0.25752-0.19258 0.70762t0.19034 0.70986q0.19258 0.25752 0.52624 0.25752 0.32918 0 0.52176-0.25976t0.19258-0.70762q0-0.44562-0.19258-0.70538-0.19258-0.262-0.52176-0.262zm0-0.34933q0.53743 0 0.84422 0.34933 0.30678 0.34933 0.30678 0.96738 0 0.61581-0.30678 0.96738-0.30679 0.34934-0.84422 0.34934-0.53968 0-0.84646-0.34934-0.30455-0.35157-0.30455-0.96738 0-0.61805 0.30455-0.96738 0.30678-0.34933 0.84646-0.34933z"/>
              <path d="m146.14 503.4q-0.17467 0.44787-0.34038 0.58446-0.16571 0.1366-0.44338 0.1366h-0.32918v-0.34485h0.24185q0.17018 0 0.26423-0.0806 0.094-0.0806 0.20826-0.38068l0.0739-0.1881-1.0144-2.4677h0.43667l0.78375 1.9616 0.78376-1.9616h0.43666z"/>
              <path d="m149.96 501.81v0.20153h-1.8944q0.0269 0.42547 0.25528 0.6494 0.23065 0.22169 0.64044 0.22169 0.23737 0 0.45906-0.0582 0.22393-0.0582 0.44338-0.17466v0.38964q-0.22169 0.094-0.45458 0.14331-0.23288 0.0493-0.47249 0.0493-0.60013 0-0.9517-0.34934-0.34934-0.34933-0.34934-0.94498 0-0.61581 0.33142-0.97634 0.33366-0.36277 0.89796-0.36277 0.50609 0 0.79944 0.32694 0.29558 0.3247 0.29558 0.88453zm-0.41203-0.12093q-4e-3 -0.33813-0.19034-0.53967-0.18362-0.20154-0.48817-0.20154-0.34485 0-0.55311 0.19482-0.20601 0.19482-0.23736 0.54863z"/>
              <path d="m152.09 501.04q-0.0694-0.0403-0.15227-0.0582-0.0806-0.0202-0.17914-0.0202-0.34933 0-0.53744 0.22841-0.18586 0.22617-0.18586 0.65164v1.3212h-0.41427v-2.508h0.41427v0.38964q0.12988-0.22841 0.33814-0.33813 0.20825-0.11197 0.50608-0.11197 0.0426 0 0.0941 7e-3 0.0515 4e-3 0.1142 0.0157z"/>
            </g>
          </g>
        </g>
      </g>
      <g transform="matrix(.91304 0 0 .91304 -1935.8 8.7975)">
        <g transform="translate(230.63,-216.01)">
          <g transform="translate(40.289,194.02)" fill="none" stroke="#000" stroke-width=".4">
            <path d="m-46.266 539.22 10.521-18.222" marker-end="url(#marker5430)"/>
            <path d="m-32.93 520.83 10.036 17.383" marker-end="url(#marker1527)"/>
          </g>
          <g font-family="sans-serif" font-size="4.5861px" letter-spacing="0px" stroke-width=".18344" text-anchor="middle" word-spacing="0px">
            <g aria-label="king">
              <path d="m1.2705 707.82h0.41427v2.0579l1.2294-1.0816h0.52624l-1.3301 1.1734 1.3861 1.3346h-0.53743l-1.2742-1.2249v1.2249h-0.41427z"/>
              <path d="m3.942 708.79h0.41203v2.508h-0.41203zm0-0.97634h0.41203v0.52176h-0.41203z"/>
              <path d="m7.301 709.79v1.5138h-0.41203v-1.5003q0-0.35605-0.13884-0.53295-0.13884-0.17691-0.41651-0.17691-0.33366 0-0.52624 0.21274-0.19258 0.21273-0.19258 0.57998v1.4175h-0.41427v-2.508h0.41427v0.38963q0.14779-0.22617 0.34709-0.33813 0.20154-0.11197 0.46354-0.11197 0.43219 0 0.65388 0.26872 0.22169 0.26648 0.22169 0.786z"/>
              <path d="m9.7732 710.02q0-0.44787-0.18586-0.69419-0.18362-0.24632-0.51728-0.24632-0.33142 0-0.51728 0.24632-0.18362 0.24632-0.18362 0.69419 0 0.44562 0.18362 0.69194 0.18586 0.24633 0.51728 0.24633 0.33366 0 0.51728-0.24633 0.18586-0.24632 0.18586-0.69194zm0.41203 0.97186q0 0.64044-0.28439 0.9517-0.28439 0.3135-0.87109 0.3135-0.21721 0-0.40979-0.0336-0.19258-0.0314-0.37396-0.0985v-0.40083q0.18138 0.0985 0.35829 0.14555 0.17691 0.047 0.36053 0.047 0.40531 0 0.60685-0.21274 0.20154-0.21049 0.20154-0.6382v-0.20377q-0.12764 0.22169-0.32694 0.33141-0.1993 0.10973-0.47697 0.10973-0.4613 0-0.74345-0.35157-0.28215-0.35157-0.28215-0.93155 0-0.58222 0.28215-0.93379 0.28215-0.35158 0.74345-0.35158 0.27767 0 0.47697 0.10973t0.32694 0.33142v-0.38068h0.41203z"/>
            </g>
            <g aria-label="soldier">
              <path d="m13.561 736.71v0.38964q-0.17467-0.0896-0.36277-0.13436-0.1881-0.0448-0.38964-0.0448-0.30678 0-0.4613 0.094-0.15227 0.0941-0.15227 0.28215 0 0.14332 0.10973 0.22617 0.10973 0.0806 0.44114 0.15452l0.14108 0.0313q0.4389 0.094 0.62253 0.26647 0.18586 0.17019 0.18586 0.47698 0 0.34933-0.27767 0.55311-0.27544 0.20377-0.75912 0.20377-0.20154 0-0.42099-0.0403-0.21721-0.0381-0.45906-0.11645v-0.42547q0.22841 0.11869 0.4501 0.17915 0.22169 0.0582 0.4389 0.0582 0.29111 0 0.44786-0.0985 0.15675-0.10077 0.15675-0.28215 0-0.16795-0.1142-0.25752-0.11196-0.0896-0.49489-0.17243l-0.14332-0.0336q-0.38292-0.0806-0.55311-0.24632-0.17019-0.16795-0.17019-0.45906 0-0.35381 0.2508-0.54639 0.2508-0.19258 0.7121-0.19258 0.22841 0 0.42995 0.0336 0.20154 0.0336 0.37172 0.10077z"/>
              <path d="m15.324 736.93q-0.33142 0-0.524 0.25976-0.19258 0.25752-0.19258 0.70762t0.19034 0.70986q0.19258 0.25752 0.52624 0.25752 0.32918 0 0.52176-0.25976 0.19258-0.25976 0.19258-0.70762 0-0.44562-0.19258-0.70538-0.19258-0.262-0.52176-0.262zm0-0.34933q0.53743 0 0.84422 0.34933t0.30678 0.96738q0 0.61581-0.30678 0.96738-0.30678 0.34933-0.84422 0.34933-0.53967 0-0.84646-0.34933-0.30455-0.35157-0.30455-0.96738 0-0.61805 0.30455-0.96738 0.30678-0.34933 0.84646-0.34933z"/>
              <path d="m17.158 735.66h0.41203v3.4844h-0.41203z"/>
              <path d="m20.082 737.02v-1.357h0.41203v3.4844h-0.41203v-0.3762q-0.12988 0.22393-0.32918 0.33366-0.19706 0.10748-0.47473 0.10748-0.45458 0-0.74121-0.36277-0.28439-0.36276-0.28439-0.95394t0.28439-0.95394q0.28663-0.36277 0.74121-0.36277 0.27767 0 0.47473 0.10972 0.1993 0.10749 0.32918 0.33142zm-1.404 0.87557q0 0.45458 0.18586 0.71434 0.1881 0.25752 0.51504 0.25752 0.32694 0 0.51504-0.25752 0.1881-0.25976 0.1881-0.71434t-0.1881-0.7121q-0.1881-0.25976-0.51504-0.25976-0.32694 0-0.51504 0.25976-0.18586 0.25752-0.18586 0.7121z"/>
              <path d="m21.343 736.64h0.41203v2.508h-0.41203zm0-0.97634h0.41203v0.52176h-0.41203z"/>
              <path d="m24.762 737.79v0.20154h-1.8945q0.02687 0.42547 0.25528 0.6494 0.23065 0.22169 0.64044 0.22169 0.23737 0 0.45906-0.0582 0.22393-0.0582 0.44338-0.17467v0.38964q-0.22169 0.0941-0.45458 0.14332-0.23289 0.0493-0.47249 0.0493-0.60013 0-0.9517-0.34933-0.34933-0.34933-0.34933-0.94499 0-0.61581 0.33142-0.97633 0.33366-0.36277 0.89796-0.36277 0.50608 0 0.79943 0.32694 0.29559 0.3247 0.29559 0.88452zm-0.41203-0.12092q-0.0045-0.33814-0.19034-0.53967-0.18362-0.20154-0.48817-0.20154-0.34485 0-0.55311 0.19482-0.20602 0.19482-0.23737 0.54863z"/>
              <path d="m26.892 737.02q-0.06942-0.0403-0.15227-0.0582-0.08062-0.0202-0.17914-0.0202-0.34933 0-0.53743 0.22841-0.18586 0.22617-0.18586 0.65164v1.3212h-0.41427v-2.508h0.41427v0.38964q0.12988-0.22841 0.33814-0.33814 0.20826-0.11196 0.50608-0.11196 0.04255 0 0.09405 7e-3 0.0515 4e-3 0.1142 0.0157z"/>
            </g>
            <g aria-label="citizen">
              <path d="m-13.812 736.76v0.38516q-0.17467-0.0963-0.35157-0.14332-0.17466-0.0493-0.35381-0.0493-0.40084 0-0.62253 0.25528-0.22169 0.25304-0.22169 0.7121t0.22169 0.71434q0.22169 0.25304 0.62253 0.25304 0.17914 0 0.35381-0.047 0.17691-0.0493 0.35157-0.14556v0.38068q-0.17243 0.0806-0.35829 0.12093-0.18362 0.0403-0.39188 0.0403-0.56654 0-0.9002-0.35605-0.33366-0.35605-0.33366-0.96066 0-0.61357 0.3359-0.96514 0.33814-0.35157 0.92483-0.35157 0.19034 0 0.37172 0.0403 0.18138 0.0381 0.35157 0.11644z"/>
              <path d="m-13.096 736.66h0.41203v2.508h-0.41203zm0-0.97634h0.41203v0.52176h-0.41203z"/>
              <path d="m-11.414 735.95v0.7121h0.8487v0.32022h-0.8487v1.3615q0 0.30678 0.08285 0.39412 0.08509 0.0873 0.34261 0.0873h0.42323v0.34485h-0.42323q-0.47697 0-0.65836-0.1769-0.18138-0.17915-0.18138-0.6494v-1.3615h-0.30231v-0.32022h0.30231v-0.7121z"/>
              <path d="m-10.023 736.66h0.41203v2.508h-0.41203zm0-0.97634h0.41203v0.52176h-0.41203z"/>
              <path d="m-8.9284 736.66h1.9572v0.3762l-1.5496 1.8026h1.5496v0.32918h-2.0131v-0.3762l1.5496-1.8026h-1.4936z"/>
              <path d="m-4.1968 737.81v0.20154h-1.8945q0.026872 0.42547 0.25528 0.6494 0.23065 0.22169 0.64044 0.22169 0.23737 0 0.45906-0.0582 0.22393-0.0582 0.44338-0.17467v0.38964q-0.22169 0.094-0.45458 0.14332-0.23289 0.0493-0.47249 0.0493-0.60013 0-0.95171-0.34933-0.34933-0.34933-0.34933-0.94499 0-0.61581 0.33142-0.97633 0.33366-0.36277 0.89796-0.36277 0.50608 0 0.79943 0.32694 0.29559 0.3247 0.29559 0.88452zm-0.41203-0.12092q-0.00448-0.33813-0.19034-0.53967-0.18362-0.20154-0.48817-0.20154-0.34485 0-0.55311 0.19482-0.20602 0.19482-0.23737 0.54863z"/>
              <path d="m-1.4357 737.66v1.5138h-0.41203v-1.5003q0-0.35605-0.13884-0.53296-0.13884-0.1769-0.41651-0.1769-0.33366 0-0.52624 0.21273-0.19258 0.21274-0.19258 0.57998v1.4175h-0.41427v-2.508h0.41427v0.38964q0.14779-0.22617 0.34709-0.33814 0.20154-0.11196 0.46354-0.11196 0.43219 0 0.65388 0.26871 0.22169 0.26648 0.22169 0.786z"/>
            </g>
          </g>
        </g>
        <g stroke-width=".18344" aria-label="1 Cor. 9:7a">
          <path d="m227.12 533.81h0.56844l0.38413-1.9792-0.64251 0.12403 0.0603-0.29973 0.63907-0.12402h0.34968l-0.44442 2.2789h0.56672l-0.0551 0.29284h-1.4831z"/>
          <path d="m232.71 531.73-0.0706 0.36691q-0.16536-0.16709-0.3514-0.24805-0.18431-0.081-0.39963-0.081-0.29456 0-0.51849 0.14125-0.22221 0.14125-0.38413 0.43064-0.10336 0.18603-0.15848 0.39446-0.0534 0.20671-0.0534 0.41686 0 0.3514 0.18087 0.53572 0.18259 0.18431 0.52883 0.18431 0.23943 0 0.45992-0.0758 0.22049-0.0775 0.42892-0.23082l-0.081 0.41169q-0.20499 0.0879-0.41514 0.13264-0.20843 0.0448-0.41858 0.0448-0.49438 0-0.77343-0.26872-0.27733-0.26872-0.27733-0.74759 0-0.30661 0.10507-0.60289 0.1068-0.29628 0.3049-0.54089 0.21015-0.2601 0.47887-0.38413 0.27044-0.12402 0.62873-0.12402 0.22049 0 0.41686 0.062 0.1981 0.0603 0.36863 0.18259z"/>
          <path d="m233.62 534.15q-0.33935 0-0.53744-0.20843-0.19637-0.21015-0.19637-0.57189 0-0.21015 0.0672-0.42719 0.0689-0.21877 0.17742-0.36691 0.17053-0.23082 0.38069-0.34106 0.21015-0.11025 0.47542-0.11025 0.32901 0 0.53055 0.20499 0.20326 0.20498 0.20326 0.53571 0 0.2291-0.0672 0.45648t-0.1757 0.37724q-0.16881 0.23082-0.37896 0.34107-0.21015 0.11024-0.47887 0.11024zm-0.4048-0.79065q0 0.26183 0.10852 0.39274 0.11024 0.12919 0.33245 0.12919 0.31867 0 0.5271-0.27733 0.21016-0.27905 0.21016-0.70625 0-0.24977-0.11197-0.37724t-0.32901-0.12747q-0.17914 0-0.31867 0.0844-0.13953 0.0827-0.24977 0.25321-0.081 0.12747-0.12575 0.29112-0.0431 0.16364-0.0431 0.33762z"/>
          <path d="m236.45 532.46q-0.0482-0.0258-0.11024-0.0396-0.062-0.0138-0.13264-0.0138-0.25322 0-0.4427 0.19292-0.18948 0.19121-0.25149 0.51333l-0.19465 0.98358h-0.31695l0.37724-1.9293h0.31695l-0.0603 0.29973q0.12575-0.16709 0.29972-0.25666 0.1757-0.0896 0.3738-0.0896 0.0517 0 0.10163 7e-3 0.05 5e-3 0.0999 0.019z"/>
          <path d="m236.29 533.66h0.36346l-0.0844 0.43753h-0.36346z"/>
          <path d="m238.4 534.04 0.0637-0.31695q0.0999 0.0655 0.22738 0.0999 0.12747 0.0345 0.27389 0.0345 0.35657 0 0.57361-0.22565 0.21876-0.22566 0.32556-0.70281-0.12747 0.14642-0.29628 0.22394-0.16709 0.0758-0.36001 0.0758-0.31351 0-0.49954-0.18087-0.18432-0.18259-0.18432-0.48921 0-0.25149 0.0913-0.46681 0.0913-0.21704 0.26872-0.37896 0.12058-0.11369 0.27905-0.17398 0.15848-0.0603 0.33762-0.0603 0.35657 0 0.56328 0.22738 0.20671 0.22565 0.20671 0.61667 0 0.36346-0.0965 0.70281-0.0947 0.33934-0.26355 0.58739-0.17914 0.26183-0.43064 0.39791-0.25149 0.13608-0.55811 0.13608-0.13263 0-0.26527-0.0276-0.13092-0.0258-0.25666-0.0792zm0.46853-1.5624q0 0.21877 0.11369 0.34796 0.11369 0.12747 0.30662 0.12747 0.26699 0 0.44786-0.20499 0.18087-0.20498 0.18087-0.50987 0-0.22738-0.11196-0.35485-0.11197-0.12919-0.30834-0.12919-0.267 0-0.44787 0.21015-0.18087 0.20843-0.18087 0.51332z"/>
          <path d="m241.03 532.28h0.36346l-0.0844 0.43753h-0.36346zm-0.27044 1.3867h0.36346l-0.0861 0.43753h-0.36346z"/>
          <path d="m242.13 531.53h1.7604l-0.031 0.14814-1.4711 2.4236h-0.38241l1.3901-2.279h-1.3229z"/>
          <path d="m245.82 533-0.21531 1.1007h-0.31696l0.0586-0.29284q-0.13953 0.17226-0.31867 0.25839-0.17743 0.0844-0.39619 0.0844-0.24633 0-0.4048-0.14986-0.15675-0.15159-0.15675-0.38758 0-0.33762 0.26871-0.53399 0.27045-0.19637 0.74415-0.19637h0.44097l0.0172-0.0844q3e-3 -0.0138 5e-3 -0.0293 2e-3 -0.0172 2e-3 -0.0517 0-0.1533-0.12575-0.23771-0.12402-0.0861-0.34968-0.0861-0.15503 0-0.31867 0.0396-0.16192 0.0396-0.33418 0.11886l0.0551-0.29284q0.17914-0.0672 0.34968-0.0999 0.17225-0.0344 0.33245-0.0344 0.34107 0 0.51849 0.14814 0.17915 0.14814 0.17915 0.43064 0 0.0569-9e-3 0.13436-9e-3 0.0758-0.0258 0.16192zm-0.34278 0.13092h-0.31696q-0.38929 0-0.57705 0.10507-0.18604 0.10336-0.18604 0.32212 0 0.15159 0.0947 0.23771 0.0965 0.0861 0.26528 0.0861 0.25838 0 0.45131-0.18431 0.19292-0.18604 0.25494-0.4961z"/>
        </g>
      </g>
      <g stroke="#000" stroke-width=".15286" aria-label="source  ofprovision">
        <path d="m-1806.7 484.48v0.35576q-0.1595-0.0818-0.3312-0.12267-0.1718-0.0409-0.3558-0.0409-0.2801 0-0.4212 0.0859-0.139 0.0859-0.139 0.25761 0 0.13086 0.1002 0.20651 0.1002 0.0736 0.4028 0.14107l0.1288 0.0286q0.4007 0.0859 0.5684 0.2433 0.1697 0.15539 0.1697 0.43549 0 0.31896-0.2536 0.50501-0.2515 0.18606-0.6931 0.18606-0.184 0-0.3844-0.0368-0.1983-0.0348-0.4191-0.10632v-0.38847q0.2085 0.10836 0.411 0.16357 0.2024 0.0532 0.4007 0.0532 0.2658 0 0.4089-0.09 0.1431-0.092 0.1431-0.25761 0-0.15335-0.1042-0.23513-0.1023-0.0818-0.4519-0.15743l-0.1308-0.0307q-0.3497-0.0736-0.5051-0.2249-0.1553-0.15335-0.1553-0.41914 0-0.32304 0.2289-0.49888 0.229-0.17583 0.6502-0.17583 0.2086 0 0.3926 0.0307t0.3394 0.092z"/>
        <path d="m-1805.1 484.68q-0.3026 0-0.4785 0.23717-0.1758 0.23513-0.1758 0.64609t0.1738 0.64813q0.1758 0.23513 0.4805 0.23513 0.3005 0 0.4763-0.23717 0.1759-0.23717 0.1759-0.64609 0-0.40687-0.1759-0.64404-0.1758-0.23922-0.4763-0.23922zm0-0.31895q0.4907 0 0.7708 0.31895 0.2801 0.31896 0.2801 0.88326 0 0.56226-0.2801 0.88326-0.2801 0.31895-0.7708 0.31895-0.4928 0-0.7729-0.31895-0.2781-0.321-0.2781-0.88326 0-0.5643 0.2781-0.88326 0.2801-0.31895 0.7729-0.31895z"/>
        <path d="m-1803.4 485.8v-1.3862h0.3762v1.3719q0 0.32509 0.1268 0.48866 0.1267 0.16152 0.3803 0.16152 0.3046 0 0.4805-0.19424 0.1778-0.19423 0.1778-0.52954v-1.2983h0.3762v2.2899h-0.3762v-0.35167q-0.137 0.20855-0.3189 0.31078-0.1799 0.10018-0.4192 0.10018-0.3946 0-0.599-0.24535-0.2045-0.24535-0.2045-0.71764z"/>
        <path d="m-1799.4 484.77q-0.063-0.0368-0.1391-0.0532-0.074-0.0184-0.1635-0.0184-0.319 0-0.4907 0.20855-0.1697 0.2065-0.1697 0.59497v1.2063h-0.3783v-2.2899h0.3783v0.35576q0.1185-0.20855 0.3087-0.30873 0.1901-0.10223 0.4621-0.10223 0.039 0 0.086 6e-3 0.047 4e-3 0.1043 0.0143z"/>
        <path d="m-1797.5 484.5v0.35167q-0.1595-0.0879-0.321-0.13086-0.1595-0.045-0.3231-0.045-0.3659 0-0.5684 0.23309-0.2024 0.23103-0.2024 0.65017t0.2024 0.65222q0.2025 0.23104 0.5684 0.23104 0.1636 0 0.3231-0.0429 0.1615-0.045 0.321-0.1329v0.34758q-0.1575 0.0736-0.3272 0.11041-0.1676 0.0368-0.3578 0.0368-0.5172 0-0.8219-0.32509-0.3046-0.32508-0.3046-0.87712 0-0.56021 0.3067-0.88121 0.3087-0.321 0.8444-0.321 0.1738 0 0.3394 0.0368 0.1656 0.0348 0.321 0.10632z"/>
        <path d="m-1794.8 485.47v0.18401h-1.7297q0.025 0.38847 0.2331 0.59292 0.2106 0.20242 0.5848 0.20242 0.2167 0 0.4191-0.0532 0.2045-0.0532 0.4048-0.15948v0.35576q-0.2024 0.0859-0.415 0.13085-0.2127 0.045-0.4314 0.045-0.548 0-0.869-0.31895-0.3189-0.31896-0.3189-0.86281 0-0.56226 0.3026-0.89144 0.3046-0.33122 0.8199-0.33122 0.462 0 0.7299 0.29851 0.2698 0.29646 0.2698 0.80761zm-0.3762-0.11041q-0-0.30873-0.1737-0.49274-0.1677-0.18402-0.4458-0.18402-0.3148 0-0.505 0.17788-0.1881 0.17788-0.2167 0.50092z"/>
        <path d="m-1792.3 484.68q-0.3026 0-0.4784 0.23717-0.1759 0.23513-0.1759 0.64609t0.1738 0.64813q0.1759 0.23513 0.4805 0.23513 0.3005 0 0.4764-0.23717 0.1758-0.23717 0.1758-0.64609 0-0.40687-0.1758-0.64404-0.1759-0.23922-0.4764-0.23922zm0-0.31895q0.4907 0 0.7708 0.31895 0.2801 0.31896 0.2801 0.88326 0 0.56226-0.2801 0.88326-0.2801 0.31895-0.7708 0.31895-0.4927 0-0.7729-0.31895-0.278-0.321-0.278-0.88326 0-0.5643 0.278-0.88326 0.2802-0.31895 0.7729-0.31895z"/>
        <path d="m-1789.4 483.52v0.31282h-0.3599q-0.2024 0-0.2821 0.0818-0.078 0.0818-0.078 0.29442v0.20241h0.6195v0.29238h-0.6195v1.9976h-0.3783v-1.9976h-0.3598v-0.29238h0.3598v-0.15947q0-0.38234 0.1779-0.55613 0.1779-0.17583 0.5643-0.17583z"/>
        <path d="m-1807.8 490.55v1.2145h-0.3783v-3.1609h0.3783v0.34758q0.1185-0.20446 0.2985-0.3026 0.1819-0.10018 0.4334-0.10018 0.4171 0 0.6768 0.33122 0.2617 0.33122 0.2617 0.87099 0 0.53976-0.2617 0.87099-0.2597 0.33122-0.6768 0.33122-0.2515 0-0.4334-0.0981-0.18-0.10019-0.2985-0.30464zm1.2799-0.79943q0-0.41505-0.1718-0.65018-0.1697-0.23717-0.4682-0.23717t-0.4702 0.23717q-0.1697 0.23513-0.1697 0.65018t0.1697 0.65222q0.1717 0.23512 0.4702 0.23512t0.4682-0.23512q0.1718-0.23717 0.1718-0.65222z"/>
        <path d="m-1804.2 488.95q-0.063-0.0368-0.139-0.0532-0.074-0.0184-0.1636-0.0184-0.319 0-0.4907 0.20854-0.1697 0.20651-0.1697 0.59498v1.2063h-0.3782v-2.2899h0.3782v0.35576q0.1186-0.20855 0.3087-0.30873 0.1902-0.10223 0.4621-0.10223 0.039 0 0.086 6e-3 0.047 4e-3 0.1043 0.0143z"/>
        <path d="m-1803 488.87q-0.3026 0-0.4784 0.23717-0.1758 0.23513-0.1758 0.64609t0.1738 0.64813q0.1758 0.23512 0.4804 0.23512 0.3006 0 0.4764-0.23717 0.1759-0.23717 0.1759-0.64608 0-0.40687-0.1759-0.64404-0.1758-0.23922-0.4764-0.23922zm0-0.31895q0.4907 0 0.7708 0.31895 0.2802 0.31895 0.2802 0.88326 0 0.56226-0.2802 0.88325-0.2801 0.31896-0.7708 0.31896-0.4927 0-0.7728-0.31896-0.2781-0.32099-0.2781-0.88325 0-0.56431 0.2781-0.88326 0.2801-0.31895 0.7728-0.31895z"/>
        <path d="m-1801.6 488.6h0.3987l0.7156 1.9219 0.7156-1.9219h0.3986l-0.8587 2.2899h-0.5111z"/>
        <path d="m-1798.8 488.6h0.3762v2.2899h-0.3762zm0-0.89143h0.3762v0.47638h-0.3762z"/>
        <path d="m-1796.2 488.67v0.35576q-0.1595-0.0818-0.3313-0.12268-0.1717-0.0409-0.3557-0.0409-0.2801 0-0.4212 0.0859-0.139 0.0859-0.139 0.25762 0 0.13085 0.1002 0.2065 0.1001 0.0736 0.4027 0.14108l0.1288 0.0286q0.4008 0.0859 0.5684 0.24331 0.1697 0.15538 0.1697 0.43549 0 0.31895-0.2535 0.50501-0.2515 0.18606-0.6931 0.18606-0.184 0-0.3844-0.0368-0.1983-0.0347-0.4191-0.10631v-0.38847q0.2085 0.10836 0.4109 0.16356 0.2025 0.0532 0.4008 0.0532 0.2658 0 0.4089-0.09 0.1431-0.092 0.1431-0.25762 0-0.15334-0.1043-0.23512-0.1022-0.0818-0.4518-0.15743l-0.1309-0.0307q-0.3496-0.0736-0.505-0.22491-0.1554-0.15334-0.1554-0.41913 0-0.32305 0.229-0.49888t0.6502-0.17583q0.2086 0 0.3926 0.0307t0.3394 0.092z"/>
        <path d="m-1795.5 488.6h0.3762v2.2899h-0.3762zm0-0.89143h0.3762v0.47638h-0.3762z"/>
        <path d="m-1793.4 488.87q-0.3026 0-0.4784 0.23717-0.1759 0.23513-0.1759 0.64609t0.1738 0.64813q0.1759 0.23512 0.4805 0.23512 0.3006 0 0.4764-0.23717t0.1758-0.64608q0-0.40687-0.1758-0.64404-0.1758-0.23922-0.4764-0.23922zm0-0.31895q0.4907 0 0.7708 0.31895t0.2801 0.88326q0 0.56226-0.2801 0.88325-0.2801 0.31896-0.7708 0.31896-0.4927 0-0.7728-0.31896-0.2781-0.32099-0.2781-0.88325 0-0.56431 0.2781-0.88326 0.2801-0.31895 0.7728-0.31895z"/>
        <path d="m-1789.9 489.51v1.3821h-0.3762v-1.3699q0-0.32509-0.1268-0.48661-0.1267-0.16152-0.3802-0.16152-0.3047 0-0.4805 0.19423-0.1759 0.19424-0.1759 0.52955v1.2942h-0.3782v-2.2899h0.3782v0.35576q0.135-0.20651 0.317-0.30873 0.184-0.10223 0.4232-0.10223 0.3946 0 0.597 0.24535 0.2024 0.2433 0.2024 0.71764z"/>
      </g>
    </g>
  </g>
</svg>
