<svg version="1.1" viewBox="0 0 375.2 125.7" xmlns="http://www.w3.org/2000/svg">
  <defs>
    <marker id="marker1523-6" overflow="visible" orient="auto">
      <path transform="scale(-.6)" d="m8.7186 4.0337-10.926-4.0177 10.926-4.0177c-1.7455 2.3721-1.7354 5.6175 0 8.0354z" fill-rule="evenodd" stroke="#000" stroke-linejoin="round" stroke-width=".625"/>
    </marker>
    <marker id="marker2471-6-3" overflow="visible" orient="auto">
      <path transform="scale(-.6)" d="m8.7186 4.0337-10.926-4.0177 10.926-4.0177c-1.7455 2.3721-1.7354 5.6175 0 8.0354z" fill-rule="evenodd" stroke="#000" stroke-linejoin="round" stroke-width=".625"/>
    </marker>
  </defs>
  <rect x="-31.089" y="-18.383" width="457.95" height="173.73" fill="#bfbfbf" fill-opacity=".5" stop-color="#000000" stroke="#000" stroke-linejoin="bevel" stroke-opacity=".4"/>
  <g transform="matrix(.74128 0 0 .74128 -321.76 -226.18)">
    <g transform="translate(-396.11,-456.38)">
      <g transform="matrix(3.7795,0,0,3.7795,4919.6,-1864.2)">
        <g transform="matrix(.91304 0 0 .91304 -1049 2.6028)">
          <g transform="translate(31.77,58.327)">
            <g transform="translate(40.289,194.02)" fill="none" stroke="#000" stroke-width=".4">
              <path d="m-46.266 539.22 10.521-18.222" marker-end="url(#marker1523-6)"/>
              <path d="m-32.93 520.83 10.036 17.383" marker-end="url(#marker2471-6-3)"/>
            </g>
            <g font-family="sans-serif" font-size="4.5861px" letter-spacing="0px" stroke-width=".18344" text-anchor="middle" word-spacing="0px">
              <g aria-label="God">
                <path d="m3.8222 711.97v-0.89796h-0.73897v-0.37173h1.1868v1.4354q-0.262 0.18586-0.57774 0.28215-0.31574 0.0941-0.67403 0.0941-0.78376 0-1.2271-0.45682-0.44114-0.45906-0.44114-1.2764 0-0.81959 0.44114-1.2764 0.44338-0.45906 1.2271-0.45906 0.32694 0 0.62029 0.0806 0.29559 0.0806 0.54415 0.23737v0.48145q-0.2508-0.21274-0.53296-0.32022-0.28215-0.10749-0.59342-0.10749-0.61357 0-0.92259 0.34261-0.30678 0.34262-0.30678 1.0211 0 0.67627 0.30678 1.0189 0.30902 0.34262 0.92259 0.34262 0.23961 0 0.42771-0.0403 0.1881-0.0426 0.33814-0.12988z"/>
                <path d="m6.0503 710.23q-0.33142 0-0.524 0.25976-0.19258 0.25752-0.19258 0.70762t0.19034 0.70986q0.19258 0.25752 0.52624 0.25752 0.32918 0 0.52176-0.25976t0.19258-0.70762q0-0.44562-0.19258-0.70538-0.19258-0.262-0.52176-0.262zm0-0.34933q0.53743 0 0.84422 0.34933t0.30678 0.96738q0 0.61581-0.30678 0.96738-0.30678 0.34933-0.84422 0.34933-0.53967 0-0.84646-0.34933-0.30455-0.35157-0.30455-0.96738 0-0.61805 0.30455-0.96738 0.30679-0.34933 0.84646-0.34933z"/>
                <path d="m9.5347 710.32v-1.357h0.41203v3.4844h-0.41203v-0.3762q-0.12988 0.22393-0.32918 0.33365-0.19706 0.10749-0.47473 0.10749-0.45458 0-0.74121-0.36277-0.28439-0.36276-0.28439-0.95394t0.28439-0.95395q0.28663-0.36276 0.74121-0.36276 0.27767 0 0.47473 0.10972 0.1993 0.10749 0.32918 0.33142zm-1.404 0.87557q0 0.45458 0.18586 0.71434 0.1881 0.25752 0.51504 0.25752t0.51504-0.25752q0.1881-0.25976 0.1881-0.71434t-0.1881-0.7121q-0.1881-0.25976-0.51504-0.25976t-0.51504 0.25976q-0.18586 0.25752-0.18586 0.7121z"/>
              </g>
              <g aria-label="Israel">
                <path d="m-14.651 735.27h0.45234v3.3433h-0.45234z"/>
                <path d="m-11.718 736.18v0.38964q-0.17467-0.0896-0.36277-0.13436-0.1881-0.0448-0.38964-0.0448-0.30678 0-0.4613 0.094-0.15227 0.0941-0.15227 0.28215 0 0.14332 0.10973 0.22617 0.10973 0.0806 0.44114 0.15451l0.14108 0.0313q0.4389 0.094 0.62253 0.26648 0.18586 0.17019 0.18586 0.47697 0 0.34933-0.27767 0.55311-0.27544 0.20378-0.75912 0.20378-0.20154 0-0.42099-0.0403-0.21721-0.0381-0.45906-0.11644v-0.42547q0.22841 0.11868 0.4501 0.17914 0.22169 0.0582 0.4389 0.0582 0.29111 0 0.44786-0.0985 0.15675-0.10077 0.15675-0.28216 0-0.16795-0.1142-0.25752-0.11196-0.0896-0.49489-0.17242l-0.14332-0.0336q-0.38292-0.0806-0.55311-0.24633-0.17019-0.16795-0.17019-0.45906 0-0.35381 0.2508-0.54639t0.7121-0.19258q0.22841 0 0.42995 0.0336t0.37172 0.10077z"/>
                <path d="m-9.4739 736.49q-0.069418-0.0403-0.15227-0.0582-0.080615-0.0201-0.17914-0.0201-0.34933 0-0.53743 0.22841-0.18586 0.22617-0.18586 0.65164v1.3212h-0.41427v-2.508h0.41427v0.38964q0.12988-0.22841 0.33814-0.33813 0.20826-0.11197 0.50608-0.11197 0.042547 0 0.094051 7e-3 0.051504 4e-3 0.1142 0.0157z"/>
                <path d="m-7.9019 737.36q-0.49937 0-0.69195 0.1142-0.19258 0.11421-0.19258 0.38964 0 0.21945 0.14332 0.34933 0.14555 0.12764 0.39412 0.12764 0.34261 0 0.54863-0.24184 0.20826-0.24409 0.20826-0.64716v-0.0918zm0.82183-0.17019v1.4309h-0.41203v-0.38068q-0.14108 0.2284-0.35157 0.33813-0.21049 0.10749-0.51504 0.10749-0.38516 0-0.61357-0.21498-0.22617-0.21721-0.22617-0.57998 0-0.42323 0.28215-0.6382 0.28439-0.21497 0.84646-0.21497h0.57774v-0.0403q0-0.28439-0.1881-0.4389-0.18586-0.15676-0.524-0.15676-0.21497 0-0.41875 0.0515t-0.39188 0.15451v-0.38068q0.22617-0.0873 0.4389-0.12988 0.21273-0.0448 0.41427-0.0448 0.54415 0 0.81287 0.28216 0.26872 0.28215 0.26872 0.85541z"/>
                <path d="m-4.0862 737.26v0.20154h-1.8945q0.026872 0.42546 0.25528 0.64939 0.23065 0.2217 0.64044 0.2217 0.23737 0 0.45906-0.0582 0.22393-0.0582 0.44338-0.17466v0.38964q-0.22169 0.0941-0.45458 0.14331-0.23289 0.0493-0.47249 0.0493-0.60013 0-0.95171-0.34933-0.34933-0.34934-0.34933-0.94499 0-0.61581 0.33142-0.97634 0.33366-0.36277 0.89796-0.36277 0.50608 0 0.79943 0.32694 0.29559 0.3247 0.29559 0.88453zm-0.41203-0.12092q-0.00448-0.33814-0.19034-0.53968-0.18362-0.20154-0.48817-0.20154-0.34485 0-0.55311 0.19482-0.20602 0.19482-0.23737 0.54863z"/>
                <path d="m-3.4099 735.13h0.41203v3.4844h-0.41203z"/>
              </g>
              <g aria-label="priests">
                <path d="m14.346 738.27v1.3302h-0.41427v-3.462h0.41427v0.38069q0.12988-0.22393 0.32694-0.33142 0.1993-0.10973 0.47473-0.10973 0.45682 0 0.74121 0.36277 0.28663 0.36277 0.28663 0.95395 0 0.59117-0.28663 0.95394-0.28439 0.36277-0.74121 0.36277-0.27544 0-0.47473-0.10749-0.19706-0.10972-0.32694-0.33366zm1.4018-0.87556q0-0.45458-0.1881-0.7121-0.18586-0.25976-0.5128-0.25976t-0.51504 0.25976q-0.18586 0.25752-0.18586 0.7121 0 0.45457 0.18586 0.71433 0.1881 0.25752 0.51504 0.25752t0.5128-0.25752q0.1881-0.25976 0.1881-0.71433z"/>
                <path d="m18.312 736.52q-0.06942-0.0403-0.15227-0.0582-0.08062-0.0202-0.17914-0.0202-0.34933 0-0.53743 0.22841-0.18586 0.22617-0.18586 0.65164v1.3212h-0.41427v-2.508h0.41427v0.38964q0.12988-0.22841 0.33814-0.33813 0.20826-0.11197 0.50608-0.11197 0.04255 0 0.09405 7e-3 0.0515 4e-3 0.1142 0.0157z"/>
                <path d="m18.744 736.13h0.41203v2.508h-0.41203zm0-0.97633h0.41203v0.52176h-0.41203z"/>
                <path d="m22.163 737.29v0.20154h-1.8945q0.02687 0.42546 0.25528 0.64939 0.23065 0.2217 0.64044 0.2217 0.23737 0 0.45906-0.0582 0.22393-0.0582 0.44338-0.17466v0.38964q-0.22169 0.094-0.45458 0.14331-0.23289 0.0493-0.47249 0.0493-0.60013 0-0.9517-0.34933-0.34933-0.34934-0.34933-0.94499 0-0.61581 0.33142-0.97634 0.33366-0.36277 0.89796-0.36277 0.50608 0 0.79943 0.32694 0.29559 0.3247 0.29559 0.88453zm-0.41203-0.12092q-0.0045-0.33814-0.19034-0.53968-0.18362-0.20153-0.48817-0.20153-0.34485 0-0.55311 0.19481-0.20602 0.19482-0.23737 0.54864z"/>
                <path d="m24.439 736.21v0.38964q-0.17467-0.0896-0.36277-0.13436-0.1881-0.0448-0.38964-0.0448-0.30678 0-0.4613 0.0941-0.15227 0.094-0.15227 0.28215 0 0.14332 0.10973 0.22617 0.10973 0.0806 0.44114 0.15451l0.14108 0.0313q0.4389 0.0941 0.62253 0.26648 0.18586 0.17019 0.18586 0.47697 0 0.34933-0.27767 0.55311-0.27543 0.20378-0.75912 0.20378-0.20154 0-0.42099-0.0403-0.21721-0.0381-0.45906-0.11644v-0.42547q0.22841 0.11868 0.4501 0.17914 0.22169 0.0582 0.4389 0.0582 0.29111 0 0.44786-0.0985 0.15675-0.10077 0.15675-0.28216 0-0.16795-0.1142-0.25752-0.11197-0.0896-0.49489-0.17242l-0.14332-0.0336q-0.38292-0.0806-0.55311-0.24633-0.17019-0.16795-0.17019-0.45906 0-0.35381 0.2508-0.54639t0.7121-0.19258q0.22841 0 0.42995 0.0336t0.37172 0.10077z"/>
                <path d="m25.637 735.42v0.71209h0.8487v0.32023h-0.8487v1.3615q0 0.30679 0.08285 0.39412 0.08509 0.0873 0.34261 0.0873h0.42323v0.34486h-0.42323q-0.47697 0-0.65836-0.17691-0.18138-0.17914-0.18138-0.6494v-1.3615h-0.30231v-0.32023h0.30231v-0.71209z"/>
                <path d="m28.626 736.21v0.38964q-0.17467-0.0896-0.36277-0.13436-0.1881-0.0448-0.38964-0.0448-0.30678 0-0.4613 0.0941-0.15227 0.094-0.15227 0.28215 0 0.14332 0.10973 0.22617 0.10973 0.0806 0.44114 0.15451l0.14108 0.0313q0.4389 0.0941 0.62253 0.26648 0.18586 0.17019 0.18586 0.47697 0 0.34933-0.27767 0.55311-0.27544 0.20378-0.75912 0.20378-0.20154 0-0.42099-0.0403-0.21721-0.0381-0.45906-0.11644v-0.42547q0.22841 0.11868 0.4501 0.17914 0.22169 0.0582 0.4389 0.0582 0.29111 0 0.44786-0.0985 0.15675-0.10077 0.15675-0.28216 0-0.16795-0.1142-0.25752-0.11197-0.0896-0.49489-0.17242l-0.14332-0.0336q-0.38292-0.0806-0.55311-0.24633-0.17019-0.16795-0.17019-0.45906 0-0.35381 0.2508-0.54639t0.7121-0.19258q0.22841 0 0.42995 0.0336t0.37172 0.10077z"/>
              </g>
            </g>
          </g>
        </g>
      </g>
      <g transform="translate(271.01,692.05)" aria-label="tithes and offerings">
        <path d="m726.54 135.95v1.8846h2.246v0.84746h-2.246v3.6032q0 0.8119 0.21927 1.043 0.2252 0.23112 0.90672 0.23112h1.1201v0.91265h-1.1201q-1.2623 0-1.7423-0.46818-0.48002-0.4741-0.48002-1.7186v-3.6032h-0.80005v-0.84746h0.80005v-1.8846z"/>
        <path d="m730.22 137.83h1.0904v6.6374h-1.0904zm0-2.5838h1.0904v1.3808h-1.0904z"/>
        <path d="m734.67 135.95v1.8846h2.246v0.84746h-2.246v3.6032q0 0.8119 0.21927 1.043 0.2252 0.23112 0.90672 0.23112h1.1201v0.91265h-1.1201q-1.2623 0-1.7423-0.46818-0.48003-0.4741-0.48003-1.7186v-3.6032h-0.80005v-0.84746h0.80005v-1.8846z"/>
        <path d="m743.87 140.47v4.0062h-1.0904v-3.9706q0-0.94227-0.36742-1.4104-0.36743-0.46817-1.1023-0.46817-0.88301 0-1.3927 0.56299-0.50966 0.563-0.50966 1.5349v3.7513h-1.0964v-9.2213h1.0964v3.615q0.39113-0.59855 0.91857-0.89486 0.53336-0.29632 1.2267-0.29632 1.1438 0 1.7305 0.71116 0.5867 0.70522 0.5867 2.0801z"/>
        <path d="m751.72 140.88v0.53336h-5.0136q0.0711 1.126 0.6756 1.7186 0.6104 0.5867 1.6949 0.5867 0.62818 0 1.2149-0.15408 0.59263-0.15409 1.1734-0.46225v1.0312q-0.5867 0.2489-1.203 0.37928-0.61633 0.13038-1.2504 0.13038-1.5882 0-2.5187-0.9245-0.9245-0.9245-0.9245-2.5009 0-1.6297 0.87709-2.5838 0.88301-0.96006 2.3764-0.96006 1.3393 0 2.1157 0.86524 0.78227 0.85931 0.78227 2.3409zm-1.0904-0.32002q-0.0118-0.89487-0.50373-1.4282-0.48595-0.53337-1.2919-0.53337-0.91264 0-1.4638 0.51559-0.54521 0.51558-0.62818 1.4519z"/>
        <path d="m757.74 138.03v1.0312q-0.46225-0.23705-0.96006-0.35557-0.49781-0.11853-1.0312-0.11853-0.8119 0-1.2208 0.2489-0.40299 0.24891-0.40299 0.74671 0 0.37928 0.29039 0.59856 0.29039 0.21334 1.1675 0.40891l0.37336 0.083q1.1616 0.2489 1.6475 0.70522 0.49188 0.4504 0.49188 1.2623 0 0.9245-0.73486 1.4638-0.72893 0.53929-2.009 0.53929-0.53336 0-1.1141-0.10668-0.57485-0.10074-1.2149-0.30816v-1.126q0.60447 0.31409 1.1912 0.4741 0.5867 0.15408 1.1615 0.15408 0.77042 0 1.1853-0.26075 0.41484-0.26669 0.41484-0.74671 0-0.44447-0.30224-0.68153-0.29632-0.23705-1.3097-0.45632l-0.37928-0.0889q-1.0134-0.21335-1.4638-0.65189-0.45039-0.44447-0.45039-1.2149 0-0.93635 0.66374-1.446t1.8846-0.50966q0.60448 0 1.1378 0.0889 0.53336 0.0889 0.98376 0.26668z"/>
        <path d="m766.71 141.13q-1.3216 0-1.8312 0.30224-0.50966 0.30224-0.50966 1.0312 0 0.58077 0.37928 0.92449 0.3852 0.3378 1.043 0.3378 0.90672 0 1.4519-0.64004 0.55114-0.64596 0.55114-1.7127v-0.24297zm2.1749-0.4504v3.7869h-1.0904v-1.0075q-0.37336 0.60448-0.93042 0.89487-0.55707 0.28446-1.363 0.28446-1.0193 0-1.6238-0.56892-0.59856-0.57485-0.59856-1.5349 0-1.1201 0.74671-1.689 0.75264-0.56892 2.2401-0.56892h1.529v-0.10667q0-0.75264-0.49781-1.1616-0.49188-0.41484-1.3867-0.41484-0.56893 0-1.1082 0.13631-0.53929 0.1363-1.0371 0.40891v-1.0075q0.59855-0.23112 1.1616-0.34372 0.56299-0.11853 1.0964-0.11853 1.4401 0 2.1512 0.74671t0.71115 2.2638z"/>
        <path d="m776.64 140.47v4.0062h-1.0904v-3.9706q0-0.94227-0.36743-1.4104-0.36743-0.46817-1.1023-0.46817-0.88302 0-1.3927 0.56299-0.50966 0.563-0.50966 1.5349v3.7513h-1.0964v-6.6374h1.0964v1.0312q0.39114-0.59855 0.91857-0.89486 0.53337-0.29632 1.2267-0.29632 1.1438 0 1.7305 0.71116 0.5867 0.70522 0.5867 2.0801z"/>
        <path d="m783.19 138.84v-3.5913h1.0904v9.2213h-1.0904v-0.99562q-0.34373 0.59263-0.87117 0.88302-0.52151 0.28446-1.2564 0.28446-1.203 0-1.9616-0.96006-0.75264-0.96005-0.75264-2.5246 0-1.5645 0.75264-2.5246 0.75856-0.96006 1.9616-0.96006 0.73485 0 1.2564 0.29039 0.52744 0.28446 0.87117 0.87709zm-3.7158 2.3172q0 1.203 0.49188 1.8905 0.4978 0.68152 1.363 0.68152 0.86523 0 1.363-0.68152 0.49781-0.68745 0.49781-1.8905t-0.49781-1.8846q-0.49781-0.68745-1.363-0.68745-0.86524 0-1.363 0.68745-0.49188 0.68152-0.49188 1.8846z"/>
        <path d="m731.9 150.74q-0.87708 0-1.3867 0.68744-0.50966 0.68152-0.50966 1.8727t0.50373 1.8786q0.50966 0.68152 1.3927 0.68152 0.87117 0 1.3808-0.68744 0.50965-0.68745 0.50965-1.8727 0-1.1793-0.50965-1.8668-0.50966-0.69337-1.3808-0.69337zm0-0.9245q1.4223 0 2.2342 0.9245 0.8119 0.92449 0.8119 2.5601 0 1.6297-0.8119 2.5602-0.8119 0.9245-2.2342 0.9245-1.4282 0-2.2401-0.9245-0.80597-0.93042-0.80597-2.5602 0-1.6356 0.80597-2.5601 0.8119-0.9245 2.2401-0.9245z"/>
        <path d="m744.2 147.39v0.90672h-1.043q-0.5867 0-0.81783 0.23705-0.2252 0.23705-0.2252 0.85339v0.5867h1.7957v0.84745h-1.7957v5.79h-1.0964v-5.79h-2.9928v5.79h-1.0964v-5.79h-1.043v-0.84745h1.043v-0.46225q0-1.1082 0.51558-1.612 0.51559-0.50966 1.6356-0.50966h1.0312v0.90672h-1.043q-0.5867 0-0.81782 0.23705-0.2252 0.23705-0.2252 0.85339v0.5867h2.9928v-0.46225q0-1.1082 0.51559-1.612 0.51558-0.50966 1.6356-0.50966z"/>
        <path d="m750.79 153.02v0.53336h-5.0136q0.0711 1.126 0.67559 1.7186 0.61041 0.5867 1.6949 0.5867 0.62818 0 1.2149-0.15408 0.59263-0.15408 1.1734-0.46225v1.0312q-0.5867 0.2489-1.203 0.37928t-1.2504 0.13038q-1.5882 0-2.5187-0.9245-0.9245-0.9245-0.9245-2.5009 0-1.6297 0.87709-2.5839 0.88302-0.96005 2.3764-0.96005 1.3393 0 2.1157 0.86523 0.78227 0.85931 0.78227 2.3409zm-1.0904-0.32002q-0.0118-0.89487-0.50373-1.4282-0.48596-0.53336-1.2919-0.53336-0.91265 0-1.4638 0.51558-0.54522 0.51559-0.62818 1.4519z"/>
        <path d="m756.42 150.99q-0.18371-0.10668-0.40298-0.15409-0.21335-0.0533-0.47411-0.0533-0.92449 0-1.4223 0.60448-0.49188 0.59855-0.49188 1.7245v3.4965h-1.0964v-6.6374h1.0964v1.0312q0.34372-0.60448 0.89487-0.89487 0.55114-0.29631 1.3393-0.29631 0.1126 0 0.24891 0.0178 0.1363 0.0119 0.30224 0.0415z"/>
        <path d="m757.57 149.97h1.0904v6.6374h-1.0904zm0-2.5839h1.0904v1.3808h-1.0904z"/>
        <path d="m766.46 152.6v4.0062h-1.0904v-3.9706q0-0.94228-0.36742-1.4104-0.36743-0.46818-1.1023-0.46818-0.88301 0-1.3927 0.563-0.50966 0.56299-0.50966 1.5349v3.7513h-1.0964v-6.6374h1.0964v1.0312q0.39113-0.59856 0.91857-0.89487 0.53336-0.29631 1.2267-0.29631 1.1438 0 1.7305 0.71115 0.5867 0.70523 0.5867 2.0801z"/>
        <path d="m773 153.21q0-1.1853-0.49188-1.8372-0.48596-0.65189-1.369-0.65189-0.87709 0-1.369 0.65189-0.48595 0.65189-0.48595 1.8372 0 1.1793 0.48595 1.8312 0.49188 0.65189 1.369 0.65189 0.88301 0 1.369-0.65189 0.49188-0.65189 0.49188-1.8312zm1.0904 2.572q0 1.6949-0.75263 2.5187-0.75264 0.82968-2.3053 0.82968-0.57485 0-1.0845-0.0889-0.50966-0.083-0.98969-0.26076v-1.0608q0.48003 0.26075 0.94821 0.38521 0.46817 0.12445 0.95413 0.12445 1.0726 0 1.606-0.563 0.53337-0.55707 0.53337-1.689v-0.53929q-0.3378 0.5867-0.86524 0.87709-0.52743 0.29039-1.2623 0.29039-1.2208 0-1.9675-0.93043-0.74671-0.93042-0.74671-2.4653 0-1.5408 0.74671-2.4713 0.74671-0.93042 1.9675-0.93042 0.73486 0 1.2623 0.29038 0.52744 0.29039 0.86524 0.87709v-1.0075h1.0904z"/>
        <path d="m780.57 150.17v1.0312q-0.46225-0.23705-0.96006-0.35557-0.49781-0.11853-1.0312-0.11853-0.8119 0-1.2208 0.24891-0.40299 0.2489-0.40299 0.74671 0 0.37928 0.29039 0.59855 0.29039 0.21335 1.1675 0.40891l0.37336 0.083q1.1616 0.2489 1.6475 0.70523 0.49188 0.45039 0.49188 1.2623 0 0.9245-0.73486 1.4638-0.72893 0.53929-2.009 0.53929-0.53337 0-1.1141-0.10667-0.57485-0.10075-1.2149-0.30817v-1.126q0.60448 0.31409 1.1912 0.4741 0.5867 0.15409 1.1615 0.15409 0.77042 0 1.1853-0.26076 0.41484-0.26668 0.41484-0.74671 0-0.44447-0.30224-0.68152-0.29632-0.23705-1.3097-0.45632l-0.37928-0.0889q-1.0134-0.21334-1.4638-0.65189-0.45039-0.44447-0.45039-1.2149 0-0.93635 0.66374-1.446t1.8846-0.50966q0.60448 0 1.1378 0.0889 0.53337 0.0889 0.98377 0.26668z"/>
      </g>
      <g transform="translate(386.57,692.05)" aria-label="tithes and offerings">
        <path d="m726.54 135.95v1.8846h2.246v0.84746h-2.246v3.6032q0 0.8119 0.21927 1.043 0.2252 0.23112 0.90672 0.23112h1.1201v0.91265h-1.1201q-1.2623 0-1.7423-0.46818-0.48002-0.4741-0.48002-1.7186v-3.6032h-0.80005v-0.84746h0.80005v-1.8846z"/>
        <path d="m730.22 137.83h1.0904v6.6374h-1.0904zm0-2.5838h1.0904v1.3808h-1.0904z"/>
        <path d="m734.67 135.95v1.8846h2.246v0.84746h-2.246v3.6032q0 0.8119 0.21927 1.043 0.2252 0.23112 0.90672 0.23112h1.1201v0.91265h-1.1201q-1.2623 0-1.7423-0.46818-0.48003-0.4741-0.48003-1.7186v-3.6032h-0.80005v-0.84746h0.80005v-1.8846z"/>
        <path d="m743.87 140.47v4.0062h-1.0904v-3.9706q0-0.94227-0.36742-1.4104-0.36743-0.46817-1.1023-0.46817-0.88301 0-1.3927 0.56299-0.50966 0.563-0.50966 1.5349v3.7513h-1.0964v-9.2213h1.0964v3.615q0.39113-0.59855 0.91857-0.89486 0.53336-0.29632 1.2267-0.29632 1.1438 0 1.7305 0.71116 0.5867 0.70522 0.5867 2.0801z"/>
        <path d="m751.72 140.88v0.53336h-5.0136q0.0711 1.126 0.6756 1.7186 0.6104 0.5867 1.6949 0.5867 0.62818 0 1.2149-0.15408 0.59263-0.15409 1.1734-0.46225v1.0312q-0.5867 0.2489-1.203 0.37928-0.61633 0.13038-1.2504 0.13038-1.5882 0-2.5187-0.9245-0.9245-0.9245-0.9245-2.5009 0-1.6297 0.87709-2.5838 0.88301-0.96006 2.3764-0.96006 1.3393 0 2.1157 0.86524 0.78227 0.85931 0.78227 2.3409zm-1.0904-0.32002q-0.0118-0.89487-0.50373-1.4282-0.48595-0.53337-1.2919-0.53337-0.91264 0-1.4638 0.51559-0.54521 0.51558-0.62818 1.4519z"/>
        <path d="m757.74 138.03v1.0312q-0.46225-0.23705-0.96006-0.35557-0.49781-0.11853-1.0312-0.11853-0.8119 0-1.2208 0.2489-0.40299 0.24891-0.40299 0.74671 0 0.37928 0.29039 0.59856 0.29039 0.21334 1.1675 0.40891l0.37336 0.083q1.1616 0.2489 1.6475 0.70522 0.49188 0.4504 0.49188 1.2623 0 0.9245-0.73486 1.4638-0.72893 0.53929-2.009 0.53929-0.53336 0-1.1141-0.10668-0.57485-0.10074-1.2149-0.30816v-1.126q0.60447 0.31409 1.1912 0.4741 0.5867 0.15408 1.1615 0.15408 0.77042 0 1.1853-0.26075 0.41484-0.26669 0.41484-0.74671 0-0.44447-0.30224-0.68153-0.29632-0.23705-1.3097-0.45632l-0.37928-0.0889q-1.0134-0.21335-1.4638-0.65189-0.45039-0.44447-0.45039-1.2149 0-0.93635 0.66374-1.446t1.8846-0.50966q0.60448 0 1.1378 0.0889 0.53336 0.0889 0.98376 0.26668z"/>
        <path d="m766.71 141.13q-1.3216 0-1.8312 0.30224-0.50966 0.30224-0.50966 1.0312 0 0.58077 0.37928 0.92449 0.3852 0.3378 1.043 0.3378 0.90672 0 1.4519-0.64004 0.55114-0.64596 0.55114-1.7127v-0.24297zm2.1749-0.4504v3.7869h-1.0904v-1.0075q-0.37336 0.60448-0.93042 0.89487-0.55707 0.28446-1.363 0.28446-1.0193 0-1.6238-0.56892-0.59856-0.57485-0.59856-1.5349 0-1.1201 0.74671-1.689 0.75264-0.56892 2.2401-0.56892h1.529v-0.10667q0-0.75264-0.49781-1.1616-0.49188-0.41484-1.3867-0.41484-0.56893 0-1.1082 0.13631-0.53929 0.1363-1.0371 0.40891v-1.0075q0.59855-0.23112 1.1616-0.34372 0.56299-0.11853 1.0964-0.11853 1.4401 0 2.1512 0.74671t0.71115 2.2638z"/>
        <path d="m776.64 140.47v4.0062h-1.0904v-3.9706q0-0.94227-0.36743-1.4104-0.36743-0.46817-1.1023-0.46817-0.88302 0-1.3927 0.56299-0.50966 0.563-0.50966 1.5349v3.7513h-1.0964v-6.6374h1.0964v1.0312q0.39114-0.59855 0.91857-0.89486 0.53337-0.29632 1.2267-0.29632 1.1438 0 1.7305 0.71116 0.5867 0.70522 0.5867 2.0801z"/>
        <path d="m783.19 138.84v-3.5913h1.0904v9.2213h-1.0904v-0.99562q-0.34373 0.59263-0.87117 0.88302-0.52151 0.28446-1.2564 0.28446-1.203 0-1.9616-0.96006-0.75264-0.96005-0.75264-2.5246 0-1.5645 0.75264-2.5246 0.75856-0.96006 1.9616-0.96006 0.73485 0 1.2564 0.29039 0.52744 0.28446 0.87117 0.87709zm-3.7158 2.3172q0 1.203 0.49188 1.8905 0.4978 0.68152 1.363 0.68152 0.86523 0 1.363-0.68152 0.49781-0.68745 0.49781-1.8905t-0.49781-1.8846q-0.49781-0.68745-1.363-0.68745-0.86524 0-1.363 0.68745-0.49188 0.68152-0.49188 1.8846z"/>
        <path d="m731.9 150.74q-0.87708 0-1.3867 0.68744-0.50966 0.68152-0.50966 1.8727t0.50373 1.8786q0.50966 0.68152 1.3927 0.68152 0.87117 0 1.3808-0.68744 0.50965-0.68745 0.50965-1.8727 0-1.1793-0.50965-1.8668-0.50966-0.69337-1.3808-0.69337zm0-0.9245q1.4223 0 2.2342 0.9245 0.8119 0.92449 0.8119 2.5601 0 1.6297-0.8119 2.5602-0.8119 0.9245-2.2342 0.9245-1.4282 0-2.2401-0.9245-0.80597-0.93042-0.80597-2.5602 0-1.6356 0.80597-2.5601 0.8119-0.9245 2.2401-0.9245z"/>
        <path d="m744.2 147.39v0.90672h-1.043q-0.5867 0-0.81783 0.23705-0.2252 0.23705-0.2252 0.85339v0.5867h1.7957v0.84745h-1.7957v5.79h-1.0964v-5.79h-2.9928v5.79h-1.0964v-5.79h-1.043v-0.84745h1.043v-0.46225q0-1.1082 0.51558-1.612 0.51559-0.50966 1.6356-0.50966h1.0312v0.90672h-1.043q-0.5867 0-0.81782 0.23705-0.2252 0.23705-0.2252 0.85339v0.5867h2.9928v-0.46225q0-1.1082 0.51559-1.612 0.51558-0.50966 1.6356-0.50966z"/>
        <path d="m750.79 153.02v0.53336h-5.0136q0.0711 1.126 0.67559 1.7186 0.61041 0.5867 1.6949 0.5867 0.62818 0 1.2149-0.15408 0.59263-0.15408 1.1734-0.46225v1.0312q-0.5867 0.2489-1.203 0.37928t-1.2504 0.13038q-1.5882 0-2.5187-0.9245-0.9245-0.9245-0.9245-2.5009 0-1.6297 0.87709-2.5839 0.88302-0.96005 2.3764-0.96005 1.3393 0 2.1157 0.86523 0.78227 0.85931 0.78227 2.3409zm-1.0904-0.32002q-0.0118-0.89487-0.50373-1.4282-0.48596-0.53336-1.2919-0.53336-0.91265 0-1.4638 0.51558-0.54522 0.51559-0.62818 1.4519z"/>
        <path d="m756.42 150.99q-0.18371-0.10668-0.40298-0.15409-0.21335-0.0533-0.47411-0.0533-0.92449 0-1.4223 0.60448-0.49188 0.59855-0.49188 1.7245v3.4965h-1.0964v-6.6374h1.0964v1.0312q0.34372-0.60448 0.89487-0.89487 0.55114-0.29631 1.3393-0.29631 0.1126 0 0.24891 0.0178 0.1363 0.0119 0.30224 0.0415z"/>
        <path d="m757.57 149.97h1.0904v6.6374h-1.0904zm0-2.5839h1.0904v1.3808h-1.0904z"/>
        <path d="m766.46 152.6v4.0062h-1.0904v-3.9706q0-0.94228-0.36742-1.4104-0.36743-0.46818-1.1023-0.46818-0.88301 0-1.3927 0.563-0.50966 0.56299-0.50966 1.5349v3.7513h-1.0964v-6.6374h1.0964v1.0312q0.39113-0.59856 0.91857-0.89487 0.53336-0.29631 1.2267-0.29631 1.1438 0 1.7305 0.71115 0.5867 0.70523 0.5867 2.0801z"/>
        <path d="m773 153.21q0-1.1853-0.49188-1.8372-0.48596-0.65189-1.369-0.65189-0.87709 0-1.369 0.65189-0.48595 0.65189-0.48595 1.8372 0 1.1793 0.48595 1.8312 0.49188 0.65189 1.369 0.65189 0.88301 0 1.369-0.65189 0.49188-0.65189 0.49188-1.8312zm1.0904 2.572q0 1.6949-0.75263 2.5187-0.75264 0.82968-2.3053 0.82968-0.57485 0-1.0845-0.0889-0.50966-0.083-0.98969-0.26076v-1.0608q0.48003 0.26075 0.94821 0.38521 0.46817 0.12445 0.95413 0.12445 1.0726 0 1.606-0.563 0.53337-0.55707 0.53337-1.689v-0.53929q-0.3378 0.5867-0.86524 0.87709-0.52743 0.29039-1.2623 0.29039-1.2208 0-1.9675-0.93043-0.74671-0.93042-0.74671-2.4653 0-1.5408 0.74671-2.4713 0.74671-0.93042 1.9675-0.93042 0.73486 0 1.2623 0.29038 0.52744 0.29039 0.86524 0.87709v-1.0075h1.0904z"/>
        <path d="m780.57 150.17v1.0312q-0.46225-0.23705-0.96006-0.35557-0.49781-0.11853-1.0312-0.11853-0.8119 0-1.2208 0.24891-0.40299 0.2489-0.40299 0.74671 0 0.37928 0.29039 0.59855 0.29039 0.21335 1.1675 0.40891l0.37336 0.083q1.1616 0.2489 1.6475 0.70523 0.49188 0.45039 0.49188 1.2623 0 0.9245-0.73486 1.4638-0.72893 0.53929-2.009 0.53929-0.53337 0-1.1141-0.10667-0.57485-0.10075-1.2149-0.30817v-1.126q0.60448 0.31409 1.1912 0.4741 0.5867 0.15409 1.1615 0.15409 0.77042 0 1.1853-0.26076 0.41484-0.26668 0.41484-0.74671 0-0.44447-0.30224-0.68152-0.29632-0.23705-1.3097-0.45632l-0.37928-0.0889q-1.0134-0.21334-1.4638-0.65189-0.45039-0.44447-0.45039-1.2149 0-0.93635 0.66374-1.446t1.8846-0.50966q0.60448 0 1.1378 0.0889 0.53337 0.0889 0.98377 0.26668z"/>
      </g>
    </g>
  </g>
</svg>
