<svg version="1.1" viewBox="0 0 309.52 150" xmlns="http://www.w3.org/2000/svg">
  <defs>
    <marker id="marker1523-36" overflow="visible" orient="auto">
      <path transform="scale(-.6)" d="m8.7186 4.0337-10.926-4.0177 10.926-4.0177c-1.7455 2.3721-1.7354 5.6175 0 8.0354z" fill-rule="evenodd" stroke="#000" stroke-linejoin="round" stroke-width=".625"/>
    </marker>
    <marker id="marker1527-5" overflow="visible" orient="auto">
      <path transform="scale(-.6)" d="m8.7186 4.0337-10.926-4.0177 10.926-4.0177c-1.7455 2.3721-1.7354 5.6175 0 8.0354z" fill-rule="evenodd" stroke="#000" stroke-linejoin="round" stroke-width=".625"/>
    </marker>
    <marker id="marker1497-6-9" overflow="visible" orient="auto">
      <path transform="scale(-.6)" d="m8.7186 4.0337-10.926-4.0177 10.926-4.0177c-1.7455 2.3721-1.7354 5.6175 0 8.0354z" fill-rule="evenodd" stroke="#000" stroke-linejoin="round" stroke-width=".625"/>
    </marker>
  </defs>
  <rect x="-16.394" y="-11.434" width="344.99" height="221.56" fill="#bfbfbf" fill-opacity=".5" stop-color="#000000" stroke="#000" stroke-linejoin="bevel" stroke-opacity=".4"/>
  <g transform="translate(.40814 -22.177)">
    <g transform="matrix(2.5189 0 0 2.5189 125.89 -1400.9)">
      <g transform="translate(-30.817,-2.6458)">
        <g transform="translate(100.52,59.945)" fill="none" stroke="#000" stroke-width=".4">
          <path d="m-46.266 539.22 10.521-18.222" marker-end="url(#marker1523-36)"/>
          <path d="m-32.93 520.83 10.036 17.383" marker-end="url(#marker1527-5)"/>
        </g>
        <g font-family="sans-serif" font-size="4.5861px" letter-spacing="0px" stroke-width=".18344" word-spacing="0px">
          <g transform="matrix(.7056 0 0 .7056 19.449 169.8)" stroke="#000" aria-label="mediator">
            <path d="m57.853 576.44q0.15451-0.27767 0.36949-0.40979 0.21497-0.13212 0.50608-0.13212 0.39188 0 0.60461 0.27544 0.21273 0.27319 0.21273 0.77927v1.5138h-0.41427v-1.5003q0-0.36053-0.12764-0.53519-0.12764-0.17467-0.38964-0.17467-0.32022 0-0.50608 0.21273-0.18586 0.21274-0.18586 0.57998v1.4175h-0.41427v-1.5003q0-0.36277-0.12764-0.53519-0.12764-0.17467-0.39412-0.17467-0.31574 0-0.5016 0.21497-0.18586 0.21274-0.18586 0.57774v1.4175h-0.41427v-2.508h0.41427v0.38964q0.14108-0.23065 0.33814-0.34037 0.19706-0.10973 0.46802-0.10973 0.2732 0 0.46354 0.13884 0.19258 0.13883 0.28439 0.40307z"/>
            <path d="m62.513 577.11v0.20153h-1.8945q0.02687 0.42547 0.25528 0.6494 0.23065 0.22169 0.64044 0.22169 0.23737 0 0.45906-0.0582 0.22393-0.0582 0.44338-0.17466v0.38963q-0.22169 0.0941-0.45458 0.14332-0.23289 0.0493-0.47249 0.0493-0.60013 0-0.9517-0.34934-0.34933-0.34933-0.34933-0.94498 0-0.61581 0.33142-0.97634 0.33366-0.36277 0.89796-0.36277 0.50608 0 0.79943 0.32694 0.29559 0.3247 0.29559 0.88453zm-0.41203-0.12093q-0.0045-0.33813-0.19034-0.53967-0.18362-0.20154-0.48817-0.20154-0.34485 0-0.55311 0.19482-0.20602 0.19482-0.23737 0.54863z"/>
            <path d="m64.84 576.34v-1.357h0.41203v3.4844h-0.41203v-0.37621q-0.12988 0.22393-0.32918 0.33366-0.19706 0.10749-0.47473 0.10749-0.45458 0-0.74121-0.36277-0.28439-0.36277-0.28439-0.95395 0-0.59117 0.28439-0.95394 0.28663-0.36277 0.74121-0.36277 0.27767 0 0.47473 0.10973 0.1993 0.10748 0.32918 0.33141zm-1.404 0.87557q0 0.45458 0.18586 0.71434 0.1881 0.25752 0.51504 0.25752t0.51504-0.25752q0.1881-0.25976 0.1881-0.71434t-0.1881-0.7121q-0.1881-0.25976-0.51504-0.25976t-0.51504 0.25976q-0.18586 0.25752-0.18586 0.7121z"/>
            <path d="m66.1 575.96h0.41203v2.508h-0.41203zm0-0.97634h0.41203v0.52176h-0.41203z"/>
            <path d="m68.514 577.2q-0.49936 0-0.69194 0.1142-0.19258 0.11421-0.19258 0.38964 0 0.21945 0.14332 0.34933 0.14556 0.12764 0.39412 0.12764 0.34261 0 0.54863-0.24184 0.20826-0.24409 0.20826-0.64716v-0.0918zm0.82183-0.17019v1.4309h-0.41203v-0.38069q-0.14108 0.22841-0.35157 0.33814-0.21049 0.10749-0.51504 0.10749-0.38516 0-0.61357-0.21498-0.22617-0.21721-0.22617-0.57998 0-0.42323 0.28215-0.6382 0.28439-0.21497 0.84646-0.21497h0.57774v-0.0403q0-0.28439-0.1881-0.43891-0.18586-0.15675-0.524-0.15675-0.21497 0-0.41875 0.0515t-0.39188 0.15451v-0.38068q0.22617-0.0873 0.4389-0.12988 0.21273-0.0448 0.41427-0.0448 0.54415 0 0.81287 0.28215 0.26872 0.28216 0.26872 0.85542z"/>
            <path d="m70.592 575.24v0.7121h0.8487v0.32022h-0.8487v1.3615q0 0.30679 0.08285 0.39412 0.08509 0.0873 0.34261 0.0873h0.42323v0.34486h-0.42323q-0.47697 0-0.65836-0.17691-0.18138-0.17914-0.18138-0.6494v-1.3615h-0.30231v-0.32022h0.30231v-0.7121z"/>
            <path d="m72.955 576.25q-0.33142 0-0.524 0.25976-0.19258 0.25752-0.19258 0.70762t0.19034 0.70986q0.19258 0.25752 0.52624 0.25752 0.32918 0 0.52176-0.25976t0.19258-0.70762q0-0.44562-0.19258-0.70538-0.19258-0.262-0.52176-0.262zm0-0.34933q0.53743 0 0.84422 0.34933t0.30678 0.96738q0 0.61581-0.30678 0.96738-0.30678 0.34934-0.84422 0.34934-0.53967 0-0.84646-0.34934-0.30454-0.35157-0.30454-0.96738 0-0.61805 0.30454-0.96738 0.30678-0.34933 0.84646-0.34933z"/>
            <path d="m76.242 576.34q-0.06942-0.0403-0.15227-0.0582-0.08061-0.0202-0.17914-0.0202-0.34933 0-0.53743 0.22841-0.18586 0.22617-0.18586 0.65163v1.3212h-0.41427v-2.508h0.41427v0.38964q0.12988-0.22841 0.33814-0.33813 0.20826-0.11197 0.50608-0.11197 0.04255 0 0.09405 7e-3 0.0515 4e-3 0.1142 0.0157z"/>
          </g>
          <g aria-label="A">
            <path d="m52.576 601.21-0.61357 1.6638h1.2294zm-0.25528-0.44562h0.5128l1.2742 3.3433h-0.47026l-0.30455-0.85766h-1.5071l-0.30455 0.85766h-0.47697z"/>
          </g>
          <g aria-label="B">
            <path d="m78.211 602.53v1.2249h0.72554q0.36501 0 0.53967-0.15003 0.17691-0.15227 0.17691-0.46354 0-0.3135-0.17691-0.46129-0.17467-0.15004-0.53967-0.15004zm0-1.3749v1.0077h0.66955q0.33142 0 0.49265-0.12317 0.16347-0.1254 0.16347-0.38068 0-0.25304-0.16347-0.37844-0.16123-0.1254-0.49265-0.1254zm-0.45234-0.37173h1.1555q0.51728 0 0.79719 0.21498 0.27991 0.21497 0.27991 0.61133 0 0.30678-0.14332 0.48817-0.14332 0.18138-0.42099 0.22617 0.33366 0.0716 0.51728 0.30006 0.18586 0.22617 0.18586 0.56655 0 0.44786-0.30455 0.69194-0.30455 0.24409-0.86661 0.24409h-1.2003z"/>
          </g>
        </g>
      </g>
      <g stroke-width=".18344" aria-label="mediatedobligation">
        <path d="m29.8 610.72-0.22566 1.1644h-0.31695l0.22221-1.1541q0.01378-0.0741 0.02067-0.12746 0.0069-0.0534 0.0069-0.0913 0-0.15503-0.08613-0.24116-0.08613-0.0861-0.24116-0.0861-0.23082 0-0.41169 0.17398-0.18087 0.17226-0.23427 0.44959l-0.21187 1.0766h-0.31695l0.22566-1.1541q0.01378-0.0637 0.02067-0.11713 0.0069-0.0551 0.0069-0.0982 0-0.15675-0.08613-0.24288-0.08613-0.0879-0.23771-0.0879-0.23427 0-0.41514 0.17398-0.18087 0.17226-0.23427 0.44959l-0.21187 1.0766h-0.31695l0.37724-1.9293h0.31695l-0.06029 0.29973q0.12919-0.16881 0.30145-0.25666 0.17398-0.0896 0.37207-0.0896 0.21015 0 0.34451 0.11025 0.13608 0.11024 0.16364 0.30661 0.1447-0.20326 0.33418-0.31006 0.1912-0.1068 0.40308-0.1068 0.24805 0 0.38241 0.14298 0.13608 0.14297 0.13608 0.4048 0 0.0568-0.0069 0.12574-0.0069 0.0672-0.02067 0.13781z"/>
        <path d="m31.765 610.75q0.0052-0.0276 0.0069-0.0568 0.0034-0.0293 0.0034-0.0586 0-0.21015-0.12402-0.33245-0.1223-0.12231-0.33418-0.12231-0.23599 0-0.41686 0.14987-0.18087 0.14814-0.27389 0.42202zm0.27561 0.24805h-1.4745q-0.01034 0.0655-0.01378 0.10335-0.0034 0.0379-0.0034 0.0655 0 0.23944 0.14642 0.37035 0.14814 0.13091 0.41686 0.13091 0.20671 0 0.39102-0.0465t0.34279-0.13609l-0.06029 0.31351q-0.17053 0.0689-0.35312 0.10335-0.18087 0.0344-0.36863 0.0344-0.40136 0-0.6184-0.1912-0.21532-0.19293-0.21532-0.54605 0-0.30145 0.1068-0.55983 0.10852-0.26011 0.31695-0.46337 0.13436-0.12747 0.31867-0.19637 0.18604-0.0689 0.39447-0.0689 0.32729 0 0.52021 0.19638 0.19465 0.19637 0.19465 0.5271 0 0.0792-0.01033 0.17053-0.01034 0.0896-0.03101 0.19293z"/>
        <path d="m33.714 611.6q-0.12747 0.16709-0.30145 0.25322-0.17398 0.0861-0.38585 0.0861-0.28939 0-0.4582-0.19637-0.16709-0.19809-0.16709-0.54088 0-0.28595 0.10163-0.54433 0.10163-0.26011 0.29456-0.46509 0.12747-0.13608 0.28767-0.20671 0.1602-0.0723 0.3359-0.0723 0.18604 0 0.32729 0.0896 0.14297 0.0896 0.22049 0.25666l0.20671-1.0508h0.31867l-0.52194 2.6803h-0.31867zm-0.98358-0.45476q0 0.24977 0.11197 0.3893 0.11369 0.13953 0.31351 0.13953 0.14814 0 0.27389-0.0706 0.12747-0.0723 0.22393-0.21187 0.10163-0.1447 0.1602-0.33418t0.05857-0.37379q0-0.23944-0.11369-0.3738-0.11197-0.13436-0.31006-0.13436-0.14986 0-0.27905 0.0706t-0.22049 0.20326q-0.09991 0.14297-0.1602 0.33245-0.05857 0.18949-0.05857 0.36346z"/>
        <path d="m35.124 609.21h0.31695l-0.07751 0.40135h-0.31696zm-0.1447 0.75103h0.31695l-0.37724 1.9293h-0.31695z"/>
        <path d="m37.353 610.79-0.21532 1.1007h-0.31695l0.05857-0.29284q-0.13953 0.17226-0.31867 0.25839-0.17742 0.0844-0.39619 0.0844-0.24633 0-0.4048-0.14986-0.15675-0.15158-0.15675-0.38757 0-0.33763 0.26872-0.534 0.27044-0.19637 0.74414-0.19637h0.44098l0.01723-0.0844q0.0034-0.0138 0.0052-0.0293 0.0017-0.0172 0.0017-0.0517 0-0.1533-0.12575-0.23771-0.12402-0.0861-0.34968-0.0861-0.15503 0-0.31867 0.0396-0.16192 0.0396-0.33418 0.11886l0.05512-0.29284q0.17915-0.0672 0.34968-0.0999 0.17226-0.0345 0.33245-0.0345 0.34107 0 0.51849 0.14814 0.17915 0.14814 0.17915 0.43064 0 0.0569-0.0086 0.13436-0.0086 0.0758-0.02584 0.16192zm-0.34279 0.13092h-0.31695q-0.3893 0-0.57706 0.10507-0.18604 0.10336-0.18604 0.32212 0 0.15159 0.09474 0.23772 0.09646 0.0861 0.26527 0.0861 0.25838 0 0.45131-0.18431 0.19293-0.18604 0.25494-0.4961z"/>
        <path d="m39.112 609.96-0.04823 0.24633h-0.63218l-0.20498 1.0473q-0.01033 0.0586-0.0155 0.0982-0.0052 0.0396-0.0052 0.062 0 0.11025 0.06546 0.1602 0.06718 0.05 0.2136 0.05h0.3204l-0.0534 0.26527h-0.30317q-0.2825 0-0.42203-0.11024-0.1378-0.11025-0.1378-0.33418 0-0.0396 0.0052-0.0861 0.0052-0.0482 0.0155-0.10508l0.20498-1.0473h-0.26872l0.04995-0.24633h0.26355l0.1068-0.54777h0.31695l-0.10508 0.54777z"/>
        <path d="m40.7 610.75q0.0052-0.0276 0.0069-0.0568 0.0034-0.0293 0.0034-0.0586 0-0.21015-0.12402-0.33245-0.1223-0.12231-0.33418-0.12231-0.23599 0-0.41686 0.14987-0.18087 0.14814-0.27389 0.42202zm0.27561 0.24805h-1.4745q-0.01033 0.0655-0.01378 0.10335-0.0034 0.0379-0.0034 0.0655 0 0.23944 0.14642 0.37035 0.14814 0.13091 0.41686 0.13091 0.20671 0 0.39102-0.0465t0.34279-0.13609l-0.06029 0.31351q-0.17053 0.0689-0.35312 0.10335-0.18087 0.0344-0.36863 0.0344-0.40136 0-0.6184-0.1912-0.21532-0.19293-0.21532-0.54605 0-0.30145 0.1068-0.55983 0.10852-0.26011 0.31695-0.46337 0.13436-0.12747 0.31867-0.19637 0.18604-0.0689 0.39447-0.0689 0.32729 0 0.52021 0.19638 0.19465 0.19637 0.19465 0.5271 0 0.0792-0.01034 0.17053-0.01033 0.0896-0.03101 0.19293z"/>
        <path d="m42.649 611.6q-0.12747 0.16709-0.30145 0.25322-0.17398 0.0861-0.38585 0.0861-0.28939 0-0.4582-0.19637-0.16709-0.19809-0.16709-0.54088 0-0.28595 0.10163-0.54433 0.10163-0.26011 0.29456-0.46509 0.12747-0.13608 0.28767-0.20671 0.1602-0.0723 0.3359-0.0723 0.18604 0 0.32729 0.0896 0.14297 0.0896 0.22049 0.25666l0.20671-1.0508h0.31867l-0.52194 2.6803h-0.31867zm-0.98358-0.45476q0 0.24977 0.11197 0.3893 0.11369 0.13953 0.3135 0.13953 0.14814 0 0.27389-0.0706 0.12747-0.0723 0.22393-0.21187 0.10163-0.1447 0.1602-0.33418t0.05857-0.37379q0-0.23944-0.11369-0.3738-0.11197-0.13436-0.31006-0.13436-0.14986 0-0.27905 0.0706t-0.22049 0.20326q-0.09991 0.14297-0.1602 0.33245-0.05857 0.18949-0.05857 0.36346z"/>
        <path d="m27.16 616.43q-0.33934 0-0.53744-0.20843-0.19637-0.21015-0.19637-0.57188 0-0.21016 0.06718-0.4272 0.0689-0.21876 0.17742-0.3669 0.17053-0.23083 0.38069-0.34107 0.21015-0.11024 0.47543-0.11024 0.32901 0 0.53055 0.20498 0.20326 0.20498 0.20326 0.53572 0 0.2291-0.06718 0.45647-0.06718 0.22738-0.1757 0.37724-0.16881 0.23083-0.37896 0.34107t-0.47887 0.11024zm-0.4048-0.79065q0 0.26183 0.10852 0.39274 0.11024 0.1292 0.33245 0.1292 0.31867 0 0.5271-0.27734 0.21015-0.27905 0.21015-0.70625 0-0.24977-0.11197-0.37724t-0.32901-0.12747q-0.17915 0-0.31867 0.0844-0.13953 0.0827-0.24977 0.25322-0.08096 0.12747-0.12575 0.29111-0.04306 0.16364-0.04306 0.33762z"/>
        <path d="m30.169 615.2q0-0.24977-0.11541-0.39102-0.11369-0.14125-0.31523-0.14125-0.14642 0-0.27561 0.0724-0.12747 0.0706-0.22221 0.2067-0.09991 0.14298-0.15848 0.33246-0.05684 0.18776-0.05684 0.37552 0 0.23771 0.11197 0.37379 0.11369 0.13436 0.31178 0.13436 0.14986 0 0.27733-0.0689 0.12747-0.0706 0.22393-0.20671 0.09819-0.14125 0.15848-0.32901t0.06029-0.35829zm-0.9853-0.4582q0.11713-0.15848 0.29284-0.24805 0.17742-0.0913 0.37035-0.0913 0.29628 0 0.47026 0.19981 0.1757 0.19982 0.1757 0.54089 0 0.27905-0.10335 0.54088-0.10163 0.26183-0.29111 0.46509-0.12402 0.13436-0.28594 0.20671-0.16192 0.0723-0.33934 0.0723-0.18776 0-0.32556-0.0861t-0.22393-0.25666l-0.05685 0.29283h-0.31695l0.52194-2.6803h0.31695z"/>
        <path d="m31.308 613.7h0.31695l-0.52194 2.6803h-0.31695z"/>
        <path d="m32.288 613.7h0.31695l-0.07752 0.40136h-0.31695zm-0.1447 0.75103h0.31695l-0.37724 1.9293h-0.31695z"/>
        <path d="m34.726 614.45-0.32901 1.6898q-0.09474 0.49093-0.36346 0.73209-0.267 0.24116-0.72003 0.24116-0.16709 0-0.31006-0.0258-0.14297-0.0241-0.267-0.0758l0.05857-0.30834q0.11713 0.0758 0.24805 0.11197 0.13091 0.0362 0.27905 0.0362 0.30145 0 0.49437-0.16536 0.19465-0.16365 0.25666-0.47199l0.02756-0.14469q-0.13264 0.15158-0.30834 0.23082-0.1757 0.0792-0.37896 0.0792-0.29284 0-0.46165-0.19293-0.16709-0.19465-0.16709-0.53399 0-0.267 0.10163-0.52193 0.10163-0.25667 0.28594-0.45476 0.1223-0.13091 0.28422-0.20154 0.16364-0.0706 0.34107-0.0706 0.19465 0 0.33934 0.0913 0.1447 0.0896 0.21532 0.25494l0.05512-0.29973zm-0.47715 0.70798q0-0.23427-0.11024-0.36174t-0.31351-0.12747q-0.12575 0-0.23944 0.0499-0.11369 0.05-0.19465 0.13953-0.13091 0.14814-0.20498 0.34968-0.07235 0.19982-0.07235 0.41341 0 0.23772 0.11024 0.36519 0.11197 0.12747 0.3204 0.12747 0.30145 0 0.50299-0.27217 0.20154-0.27388 0.20154-0.68385z"/>
        <path d="m36.757 615.28-0.21532 1.1007h-0.31695l0.05857-0.29283q-0.13953 0.17225-0.31867 0.25838-0.17742 0.0844-0.39619 0.0844-0.24633 0-0.4048-0.14986-0.15675-0.15158-0.15675-0.38757 0-0.33763 0.26872-0.534 0.27044-0.19637 0.74415-0.19637h0.44098l0.01722-0.0844q0.0034-0.0138 0.0052-0.0293 0.0017-0.0172 0.0017-0.0517 0-0.15331-0.12575-0.23772-0.12402-0.0861-0.34968-0.0861-0.15503 0-0.31867 0.0396-0.16192 0.0396-0.33418 0.11886l0.05512-0.29283q0.17915-0.0672 0.34968-0.0999 0.17226-0.0344 0.33245-0.0344 0.34107 0 0.51849 0.14814 0.17915 0.14814 0.17915 0.43064 0 0.0568-0.0086 0.13435-0.0086 0.0758-0.02584 0.16193zm-0.34279 0.13091h-0.31695q-0.3893 0-0.57706 0.10508-0.18604 0.10335-0.18604 0.32211 0 0.15159 0.09474 0.23772 0.09646 0.0861 0.26527 0.0861 0.25838 0 0.45131-0.18432 0.19293-0.18603 0.25494-0.4961z"/>
        <path d="m38.515 614.45-0.04823 0.24633h-0.63218l-0.20498 1.0473q-0.01034 0.0586-0.0155 0.0982-0.0052 0.0396-0.0052 0.062 0 0.11025 0.06546 0.1602 0.06718 0.05 0.2136 0.05h0.3204l-0.0534 0.26527h-0.30317q-0.2825 0-0.42203-0.11024-0.1378-0.11025-0.1378-0.33418 0-0.0396 0.0052-0.0861 0.0052-0.0482 0.0155-0.10507l0.20498-1.0473h-0.26872l0.04995-0.24633h0.26355l0.1068-0.54777h0.31695l-0.10508 0.54777z"/>
        <path d="m39.053 613.7h0.31695l-0.07751 0.40136h-0.31695zm-0.1447 0.75103h0.31695l-0.37724 1.9293h-0.31695z"/>
        <path d="m40.283 616.43q-0.33934 0-0.53744-0.20843-0.19637-0.21015-0.19637-0.57188 0-0.21016 0.06718-0.4272 0.0689-0.21876 0.17742-0.3669 0.17053-0.23083 0.38068-0.34107t0.47543-0.11024q0.32901 0 0.53055 0.20498 0.20326 0.20498 0.20326 0.53572 0 0.2291-0.06718 0.45647-0.06718 0.22738-0.1757 0.37724-0.16881 0.23083-0.37896 0.34107t-0.47887 0.11024zm-0.4048-0.79065q0 0.26183 0.10852 0.39274 0.11024 0.1292 0.33245 0.1292 0.31867 0 0.5271-0.27734 0.21015-0.27905 0.21015-0.70625 0-0.24977-0.11197-0.37724t-0.32901-0.12747q-0.17915 0-0.31867 0.0844-0.13953 0.0827-0.24977 0.25322-0.08096 0.12747-0.12575 0.29111-0.04306 0.16364-0.04306 0.33762z"/>
        <path d="m43.511 615.21-0.22566 1.1644h-0.31867l0.22566-1.1524q0.0155-0.081 0.02412-0.14297 0.0086-0.062 0.0086-0.0982 0-0.14469-0.0913-0.22565-0.0913-0.081-0.25494-0.081-0.25494 0-0.43925 0.17054-0.18431 0.16881-0.24116 0.45992l-0.21188 1.0697h-0.31695l0.3738-1.9293h0.31695l-0.06374 0.30318q0.13264-0.16709 0.31867-0.25839 0.18604-0.0913 0.39102-0.0913 0.25494 0 0.39447 0.1378 0.14125 0.1378 0.14125 0.38758 0 0.062-0.0086 0.13263-0.0069 0.0706-0.02239 0.15331z"/>
      </g>
    </g>
    <g transform="matrix(2.5189 0 0 2.5189 114.24 -1400.9)">
      <g transform="translate(138.43,67.15)">
        <path d="m-157 532.44h19.979" fill="none" marker-end="url(#marker1497-6-9)" stroke="#000" stroke-width=".4"/>
        <g stroke-width=".18344" aria-label="A">
          <path d="m-159.73 531.42-0.61357 1.6638h1.2294zm-0.25528-0.44563h0.5128l1.2742 3.3433h-0.47025l-0.30455-0.85766h-1.507l-0.30455 0.85766h-0.47697z"/>
        </g>
        <g stroke-width=".18344" aria-label="B">
          <path d="m-134.25 532.74v1.2249h0.72554q0.365 0 0.53967-0.15003 0.1769-0.15227 0.1769-0.46354 0-0.3135-0.1769-0.46129-0.17467-0.15004-0.53967-0.15004zm0-1.3749v1.0077h0.66955q0.33142 0 0.49265-0.12316 0.16347-0.12541 0.16347-0.38069 0-0.25304-0.16347-0.37844-0.16123-0.1254-0.49265-0.1254zm-0.45234-0.37173h1.1555q0.51728 0 0.7972 0.21498 0.27991 0.21497 0.27991 0.61133 0 0.30678-0.14332 0.48817-0.14331 0.18138-0.42099 0.22617 0.33366 0.0717 0.51728 0.30006 0.18587 0.22617 0.18587 0.56655 0 0.44786-0.30455 0.69195-0.30455 0.24408-0.86661 0.24408h-1.2003z"/>
        </g>
      </g>
      <g stroke-width=".18344" aria-label="immediateobligation">
        <path d="m-16.551 608.84h0.31695l-0.07752 0.40136h-0.31695zm-0.1447 0.75104h0.31695l-0.37724 1.9293h-0.31695z"/>
        <path d="m-13.049 610.36-0.22566 1.1644h-0.31695l0.22221-1.1541q0.01378-0.0741 0.02067-0.12747 0.0069-0.0534 0.0069-0.0913 0-0.15504-0.08613-0.24116-0.08613-0.0861-0.24116-0.0861-0.23082 0-0.41169 0.17398-0.18087 0.17225-0.23427 0.44959l-0.21188 1.0766h-0.31695l0.22566-1.1541q0.01378-0.0637 0.02067-0.11713 0.0069-0.0551 0.0069-0.0982 0-0.15675-0.08613-0.24288-0.08613-0.0879-0.23771-0.0879-0.23427 0-0.41514 0.17398-0.18087 0.17225-0.23427 0.44959l-0.21188 1.0766h-0.31695l0.37724-1.9293h0.31695l-0.06029 0.29972q0.12919-0.16881 0.30145-0.25666 0.17398-0.0896 0.37207-0.0896 0.21015 0 0.34451 0.11024 0.13608 0.11025 0.16364 0.30662 0.1447-0.20326 0.33418-0.31006 0.1912-0.1068 0.40308-0.1068 0.24805 0 0.38241 0.14297 0.13608 0.14297 0.13608 0.4048 0 0.0568-0.0069 0.12575-0.0069 0.0672-0.02067 0.1378z"/>
        <path d="m-9.6129 610.36-0.22566 1.1644h-0.31695l0.22221-1.1541q0.013781-0.0741 0.020671-0.12747 0.00689-0.0534 0.00689-0.0913 0-0.15504-0.086128-0.24116-0.086128-0.0861-0.24116-0.0861-0.23082 0-0.41169 0.17398-0.18087 0.17225-0.23427 0.44959l-0.21188 1.0766h-0.31695l0.22566-1.1541q0.01378-0.0637 0.02067-0.11713 0.0069-0.0551 0.0069-0.0982 0-0.15675-0.08613-0.24288-0.08613-0.0879-0.23771-0.0879-0.23427 0-0.41514 0.17398-0.18087 0.17225-0.23427 0.44959l-0.21188 1.0766h-0.31695l0.37724-1.9293h0.31695l-0.06029 0.29972q0.12919-0.16881 0.30145-0.25666 0.17398-0.0896 0.37207-0.0896 0.21015 0 0.34451 0.11024 0.13608 0.11025 0.16364 0.30662 0.1447-0.20326 0.33418-0.31006 0.1912-0.1068 0.40308-0.1068 0.24805 0 0.38241 0.14297 0.13608 0.14297 0.13608 0.4048 0 0.0568-0.00689 0.12575-0.00689 0.0672-0.020671 0.1378z"/>
        <path d="m-7.6475 610.39q0.00517-0.0276 0.00689-0.0569 0.00345-0.0293 0.00345-0.0586 0-0.21015-0.12402-0.33245-0.1223-0.1223-0.33418-0.1223-0.23599 0-0.41686 0.14986-0.18087 0.14814-0.27389 0.42203zm0.27561 0.24804h-1.4745q-0.010335 0.0655-0.01378 0.10336-0.00345 0.0379-0.00345 0.0654 0 0.23944 0.14642 0.37036 0.14814 0.13091 0.41686 0.13091 0.20671 0 0.39102-0.0465t0.34279-0.13608l-0.06029 0.3135q-0.17053 0.0689-0.35312 0.10336-0.18087 0.0344-0.36863 0.0344-0.40136 0-0.6184-0.19121-0.21532-0.19292-0.21532-0.54605 0-0.30144 0.1068-0.55983 0.10852-0.2601 0.31695-0.46337 0.13436-0.12747 0.31867-0.19637 0.18604-0.0689 0.39447-0.0689 0.32729 0 0.52021 0.19637 0.19465 0.19637 0.19465 0.5271 0 0.0792-0.010335 0.17054-0.010335 0.0896-0.031006 0.19292z"/>
        <path d="m-5.6993 611.24q-0.12747 0.16709-0.30145 0.25322-0.17398 0.0861-0.38585 0.0861-0.28939 0-0.4582-0.19637-0.16709-0.1981-0.16709-0.54089 0-0.28594 0.10163-0.54433 0.10163-0.2601 0.29456-0.46509 0.12747-0.13608 0.28767-0.2067 0.1602-0.0723 0.3359-0.0723 0.18604 0 0.32729 0.0896 0.14297 0.0896 0.22049 0.25666l0.20671-1.0508h0.31867l-0.52194 2.6803h-0.31867zm-0.98358-0.45475q0 0.24977 0.11197 0.3893 0.11369 0.13952 0.31351 0.13952 0.14814 0 0.27389-0.0706 0.12747-0.0723 0.22393-0.21188 0.10163-0.14469 0.1602-0.33417t0.058567-0.3738q0-0.23943-0.11369-0.37379-0.11197-0.13436-0.31006-0.13436-0.14986 0-0.27905 0.0706t-0.22049 0.20327q-0.099908 0.14297-0.1602 0.33245-0.058567 0.18948-0.058567 0.36346z"/>
        <path d="m-4.2885 608.84h0.31695l-0.077515 0.40136h-0.31695zm-0.14469 0.75104h0.31695l-0.37724 1.9293h-0.31695z"/>
        <path d="m-2.0595 610.42-0.21532 1.1007h-0.31695l0.058567-0.29283q-0.13953 0.17226-0.31867 0.25838-0.17742 0.0844-0.39619 0.0844-0.24633 0-0.4048-0.14986-0.15675-0.15159-0.15675-0.38758 0-0.33762 0.26872-0.53399 0.27044-0.19637 0.74415-0.19637h0.44098l0.017226-0.0844q0.00345-0.0138 0.00517-0.0293 0.00172-0.0172 0.00172-0.0517 0-0.15331-0.12575-0.23771-0.12402-0.0861-0.34968-0.0861-0.15503 0-0.31867 0.0396-0.16192 0.0396-0.33418 0.11885l0.055122-0.29283q0.17915-0.0672 0.34968-0.0999 0.17226-0.0344 0.33245-0.0344 0.34107 0 0.51849 0.14814 0.17915 0.14814 0.17915 0.43064 0 0.0568-0.00861 0.13436-0.00861 0.0758-0.025838 0.16192zm-0.34279 0.13091h-0.31695q-0.3893 0-0.57706 0.10508-0.18604 0.10335-0.18604 0.32212 0 0.15158 0.094741 0.23771 0.096463 0.0861 0.26527 0.0861 0.25838 0 0.45131-0.18431 0.19293-0.18604 0.25494-0.4961z"/>
        <path d="m-0.30076 609.6-0.048232 0.24632h-0.63218l-0.20498 1.0473q-0.010335 0.0586-0.015503 0.0982-0.00517 0.0396-0.00517 0.062 0 0.11024 0.065457 0.1602 0.06718 0.05 0.2136 0.05h0.3204l-0.053399 0.26527h-0.30317q-0.2825 0-0.42203-0.11024-0.1378-0.11024-0.1378-0.33418 0-0.0396 0.00517-0.0861 0.00517-0.0482 0.015503-0.10508l0.20498-1.0473h-0.26872l0.049954-0.24632h0.26355l0.1068-0.54777h0.31695l-0.10508 0.54777z"/>
        <path d="m1.2874 610.39q0.00517-0.0276 0.00689-0.0569 0.00345-0.0293 0.00345-0.0586 0-0.21015-0.12402-0.33245-0.1223-0.1223-0.33418-0.1223-0.23599 0-0.41686 0.14986-0.18087 0.14814-0.27389 0.42203zm0.27561 0.24804h-1.4745q-0.010335 0.0655-0.01378 0.10336-0.0034451 0.0379-0.0034451 0.0654 0 0.23944 0.14642 0.37036 0.14814 0.13091 0.41686 0.13091 0.20671 0 0.39102-0.0465t0.34279-0.13608l-0.060289 0.3135q-0.17053 0.0689-0.35312 0.10336-0.18087 0.0344-0.36863 0.0344-0.40136 0-0.6184-0.19121-0.21532-0.19292-0.21532-0.54605 0-0.30144 0.1068-0.55983 0.10852-0.2601 0.31695-0.46337 0.13436-0.12747 0.31867-0.19637 0.18604-0.0689 0.39447-0.0689 0.32729 0 0.52021 0.19637 0.19465 0.19637 0.19465 0.5271 0 0.0792-0.010335 0.17054-0.010335 0.0896-0.031006 0.19292z"/>
        <path d="m-15.581 616.07q-0.33934 0-0.53744-0.20843-0.19637-0.21015-0.19637-0.57189 0-0.21015 0.06718-0.42719 0.0689-0.21877 0.17742-0.36691 0.17053-0.23082 0.38069-0.34107 0.21015-0.11024 0.47543-0.11024 0.32901 0 0.53055 0.20499 0.20326 0.20498 0.20326 0.53571 0 0.2291-0.06718 0.45648t-0.1757 0.37724q-0.16881 0.23082-0.37896 0.34107-0.21015 0.11024-0.47887 0.11024zm-0.4048-0.79065q0 0.26182 0.10852 0.39274 0.11024 0.12919 0.33245 0.12919 0.31867 0 0.5271-0.27733 0.21015-0.27906 0.21015-0.70625 0-0.24977-0.11197-0.37724t-0.32901-0.12747q-0.17915 0-0.31867 0.0844-0.13953 0.0827-0.24977 0.25321-0.08096 0.12747-0.12575 0.29111-0.04306 0.16365-0.04306 0.33763z"/>
        <path d="m-12.571 614.84q0-0.24978-0.11541-0.39103-0.11369-0.14125-0.31523-0.14125-0.14642 0-0.27561 0.0724-0.12747 0.0706-0.22221 0.20671-0.09991 0.14297-0.15848 0.33245-0.05684 0.18776-0.05684 0.37552 0 0.23771 0.11197 0.3738 0.11369 0.13436 0.31178 0.13436 0.14986 0 0.27733-0.0689 0.12747-0.0706 0.22393-0.2067 0.09819-0.14125 0.15848-0.32901t0.06029-0.35829zm-0.9853-0.45821q0.11713-0.15847 0.29284-0.24804 0.17742-0.0913 0.37035-0.0913 0.29628 0 0.47026 0.19982 0.1757 0.19981 0.1757 0.54088 0 0.27906-0.10335 0.54088-0.10163 0.26183-0.29111 0.4651-0.12402 0.13435-0.28594 0.2067-0.16192 0.0724-0.33934 0.0724-0.18776 0-0.32556-0.0861t-0.22393-0.25666l-0.05684 0.29284h-0.31695l0.52194-2.6803h0.31695z"/>
        <path d="m-11.433 613.33h0.31695l-0.52194 2.6803h-0.31695z"/>
        <path d="m-10.453 613.33h0.31695l-0.07752 0.40136h-0.31695zm-0.1447 0.75104h0.31695l-0.37724 1.9293h-0.31695z"/>
        <path d="m-8.0152 614.09-0.32901 1.6898q-0.094741 0.49093-0.36346 0.73209-0.267 0.24116-0.72003 0.24116-0.16709 0-0.31006-0.0258-0.14297-0.0241-0.267-0.0758l0.058567-0.30833q0.11713 0.0758 0.24805 0.11196 0.13091 0.0362 0.27905 0.0362 0.30145 0 0.49437-0.16537 0.19465-0.16364 0.25666-0.47198l0.027561-0.14469q-0.13264 0.15158-0.30834 0.23082-0.1757 0.0792-0.37896 0.0792-0.29284 0-0.46165-0.19293-0.16709-0.19465-0.16709-0.53399 0-0.267 0.10163-0.52194 0.10163-0.25666 0.28594-0.45475 0.1223-0.13092 0.28422-0.20154 0.16364-0.0706 0.34107-0.0706 0.19465 0 0.33934 0.0913 0.1447 0.0896 0.21532 0.25494l0.055122-0.29973zm-0.47715 0.70797q0-0.23427-0.11024-0.36174t-0.31351-0.12747q-0.12575 0-0.23944 0.05t-0.19465 0.13953q-0.13091 0.14814-0.20498 0.34968-0.072347 0.19981-0.072347 0.41341 0 0.23771 0.11024 0.36518 0.11197 0.12747 0.3204 0.12747 0.30145 0 0.50299-0.27216 0.20154-0.27389 0.20154-0.68386z"/>
        <path d="m-5.9843 614.91-0.21532 1.1007h-0.31695l0.058567-0.29284q-0.13953 0.17226-0.31867 0.25838-0.17742 0.0844-0.39619 0.0844-0.24633 0-0.4048-0.14986-0.15675-0.15159-0.15675-0.38758 0-0.33762 0.26872-0.53399 0.27044-0.19637 0.74415-0.19637h0.44098l0.017226-0.0844q0.00345-0.0138 0.00517-0.0293 0.00172-0.0172 0.00172-0.0517 0-0.15331-0.12575-0.23771-0.12402-0.0861-0.34968-0.0861-0.15503 0-0.31867 0.0396-0.16192 0.0396-0.33418 0.11886l0.055122-0.29284q0.17915-0.0672 0.34968-0.0999 0.17226-0.0344 0.33245-0.0344 0.34107 0 0.51849 0.14814 0.17915 0.14814 0.17915 0.43064 0 0.0569-0.00861 0.13436-0.00861 0.0758-0.025838 0.16192zm-0.34279 0.13092h-0.31695q-0.3893 0-0.57706 0.10507-0.18604 0.10335-0.18604 0.32212 0 0.15158 0.094741 0.23771 0.096463 0.0861 0.26527 0.0861 0.25838 0 0.45131-0.18431 0.19293-0.18604 0.25494-0.4961z"/>
        <path d="m-4.2256 614.09-0.048232 0.24633h-0.63218l-0.20498 1.0473q-0.010335 0.0586-0.015503 0.0982-0.00517 0.0396-0.00517 0.062 0 0.11024 0.065457 0.1602 0.06718 0.05 0.2136 0.05h0.3204l-0.053399 0.26528h-0.30317q-0.2825 0-0.42203-0.11025-0.1378-0.11024-0.1378-0.33417 0-0.0396 0.00517-0.0861 0.00517-0.0482 0.015503-0.10508l0.20498-1.0473h-0.26872l0.049954-0.24633h0.26355l0.1068-0.54777h0.31695l-0.10508 0.54777z"/>
        <path d="m-3.6882 613.33h0.31695l-0.077515 0.40136h-0.31695zm-0.14469 0.75104h0.31695l-0.37724 1.9293h-0.31695z"/>
        <path d="m-2.4583 616.07q-0.33934 0-0.53744-0.20843-0.19637-0.21015-0.19637-0.57189 0-0.21015 0.06718-0.42719 0.068902-0.21877 0.17742-0.36691 0.17053-0.23082 0.38069-0.34107 0.21015-0.11024 0.47543-0.11024 0.32901 0 0.53055 0.20499 0.20326 0.20498 0.20326 0.53571 0 0.2291-0.06718 0.45648t-0.1757 0.37724q-0.16881 0.23082-0.37896 0.34107-0.21015 0.11024-0.47887 0.11024zm-0.4048-0.79065q0 0.26182 0.10852 0.39274 0.11024 0.12919 0.33245 0.12919 0.31867 0 0.5271-0.27733 0.21015-0.27906 0.21015-0.70625 0-0.24977-0.11197-0.37724t-0.32901-0.12747q-0.17915 0-0.31867 0.0844-0.13953 0.0827-0.24977 0.25321-0.08096 0.12747-0.12575 0.29111-0.043064 0.16365-0.043064 0.33763z"/>
        <path d="m0.76981 614.85-0.22566 1.1644h-0.31867l0.22566-1.1524q0.015503-0.081 0.024116-0.14297 0.008613-0.062 0.008613-0.0982 0-0.1447-0.091296-0.22566-0.091296-0.081-0.25494-0.081-0.25494 0-0.43925 0.17053-0.18431 0.16881-0.24116 0.45993l-0.21187 1.0697h-0.31695l0.3738-1.9293h0.31695l-0.063735 0.30317q0.13264-0.16709 0.31867-0.25838 0.18604-0.0913 0.39102-0.0913 0.25494 0 0.39447 0.13781 0.14125 0.1378 0.14125 0.38757 0 0.062-0.008613 0.13264-0.00689 0.0706-0.022393 0.15331z"/>
      </g>
    </g>
    <g stroke-width=".16749">
      <g transform="matrix(1.3794 -2.3891 2.3891 1.3794 3276.4 -1516.2)" aria-label="obligation">
        <path d="m-1067.1-681.05q-0.2327 0-0.368 0.18244-0.1352 0.18087-0.1352 0.49699 0 0.31613 0.1336 0.49857 0.1353 0.18086 0.3696 0.18086 0.2312 0 0.3665-0.18244 0.1352-0.18243 0.1352-0.49699 0-0.31297-0.1352-0.49541-0.1353-0.18402-0.3665-0.18402zm0-0.24534q0.3775 0 0.593 0.24534 0.2154 0.24535 0.2154 0.67943 0 0.43251-0.2154 0.67943-0.2155 0.24535-0.593 0.24535-0.379 0-0.5945-0.24535-0.2139-0.24692-0.2139-0.67943 0-0.43408 0.2139-0.67943 0.2155-0.24534 0.5945-0.24534z"/>
        <path d="m-1064.6-680.37q0-0.31926-0.1321-0.50013-0.1305-0.18244-0.3602-0.18244-0.2296 0-0.3617 0.18244-0.1305 0.18087-0.1305 0.50013 0 0.31927 0.1305 0.50171 0.1321 0.18087 0.3617 0.18087 0.2297 0 0.3602-0.18087 0.1321-0.18244 0.1321-0.50171zm-0.9845-0.61494q0.091-0.15728 0.2296-0.23277 0.14-0.0771 0.3334-0.0771 0.3209 0 0.5206 0.25478 0.2013 0.25479 0.2013 0.66999 0 0.41521-0.2013 0.67-0.1997 0.25478-0.5206 0.25478-0.1934 0-0.3334-0.0755-0.1384-0.0771-0.2296-0.23434v0.26422h-0.291v-2.4472h0.291z"/>
        <path d="m-1063.8-681.94h0.2894v2.4472h-0.2894z"/>
        <path d="m-1062.9-681.25h0.2894v1.7615h-0.2894zm0-0.68572h0.2894v0.36645h-0.2894z"/>
        <path d="m-1060.8-680.39q0-0.31455-0.1305-0.48756-0.129-0.173-0.3633-0.173-0.2328 0-0.3633 0.173-0.129 0.17301-0.129 0.48756 0 0.31297 0.129 0.48598 0.1305 0.173 0.3633 0.173 0.2343 0 0.3633-0.173 0.1305-0.17301 0.1305-0.48598zm0.2894 0.68257q0 0.44981-0.1997 0.66842-0.1998 0.22019-0.6118 0.22019-0.1526 0-0.2879-0.0236-0.1352-0.022-0.2626-0.0692v-0.28152q0.1274 0.0692 0.2516 0.10223 0.1243 0.033 0.2533 0.033 0.2846 0 0.4262-0.14941 0.1415-0.14784 0.1415-0.44824v-0.14312q-0.09 0.1557-0.2296 0.23277-0.14 0.0771-0.335 0.0771-0.324 0-0.5222-0.24692-0.1981-0.24692-0.1981-0.65426 0-0.40892 0.1981-0.65584 0.1982-0.24692 0.5222-0.24692 0.195 0 0.335 0.0771t0.2296 0.23277v-0.26737h0.2894z"/>
        <path d="m-1059.2-680.38q-0.3507 0-0.486 0.0802-0.1352 0.0802-0.1352 0.27366 0 0.15413 0.1006 0.24535 0.1023 0.0897 0.2768 0.0897 0.2407 0 0.3854-0.16986 0.1462-0.17143 0.1462-0.45452v-0.0645zm0.5772-0.11953v1.005h-0.2894v-0.26736q-0.099 0.16042-0.2469 0.23748-0.1478 0.0755-0.3617 0.0755-0.2705 0-0.431-0.15098-0.1588-0.15256-0.1588-0.40734 0-0.29725 0.1982-0.44824 0.1997-0.15098 0.5945-0.15098h0.4057v-0.0283q0-0.19974-0.1321-0.30826-0.1305-0.1101-0.368-0.1101-0.151 0-0.2941 0.0362t-0.2752 0.10852v-0.26737q0.1588-0.0613 0.3082-0.0912 0.1494-0.0315 0.291-0.0315 0.3821 0 0.5709 0.19816 0.1887 0.19817 0.1887 0.60079z"/>
        <path d="m-1057.7-681.75v0.50014h0.5961v0.2249h-0.5961v0.95624q0 0.21546 0.058 0.2768 0.06 0.0613 0.2406 0.0613h0.2973v0.2422h-0.2973q-0.3349 0-0.4623-0.12424-0.1274-0.12582-0.1274-0.4561v-0.95624h-0.2124v-0.2249h0.2124v-0.50014z"/>
        <path d="m-1056.7-681.25h0.2894v1.7615h-0.2894zm0-0.68572h0.2894v0.36645h-0.2894z"/>
        <path d="m-1055.1-681.05q-0.2328 0-0.368 0.18244-0.1353 0.18087-0.1353 0.49699 0 0.31613 0.1337 0.49857 0.1352 0.18086 0.3696 0.18086 0.2312 0 0.3664-0.18244 0.1353-0.18243 0.1353-0.49699 0-0.31297-0.1353-0.49541-0.1352-0.18402-0.3664-0.18402zm0-0.24534q0.3774 0 0.5929 0.24534 0.2155 0.24535 0.2155 0.67943 0 0.43251-0.2155 0.67943-0.2155 0.24535-0.5929 0.24535-0.3791 0-0.5945-0.24535-0.2139-0.24692-0.2139-0.67943 0-0.43408 0.2139-0.67943 0.2154-0.24534 0.5945-0.24534z"/>
        <path d="m-1052.4-680.56v1.0632h-0.2894v-1.0537q0-0.25007-0.098-0.37432-0.098-0.12424-0.2925-0.12424-0.2344 0-0.3696 0.14941-0.1353 0.14941-0.1353 0.40734v0.99555h-0.2909v-1.7615h0.2909v0.27366q0.1038-0.15885 0.2438-0.23749 0.1415-0.0786 0.3256-0.0786 0.3035 0 0.4592 0.18873 0.1557 0.18715 0.1557 0.55203z"/>
      </g>
      <g transform="matrix(1.3794 2.3891 -2.3891 1.3794 3278.4 -1522.2)" aria-label="obligation">
        <path d="m-56.221 1242.8q-0.23277 0-0.36802 0.1824-0.13526 0.1809-0.13526 0.497t0.13368 0.4986q0.13526 0.1808 0.3696 0.1808 0.23119 0 0.36645-0.1824t0.13526-0.497q0-0.313-0.13526-0.4954-0.13526-0.184-0.36645-0.184zm0-0.2454q0.37746 0 0.59293 0.2454 0.21547 0.2453 0.21547 0.6794 0 0.4325-0.21547 0.6794-0.21547 0.2454-0.59293 0.2454-0.37903 0-0.5945-0.2454-0.2139-0.2469-0.2139-0.6794 0-0.4341 0.2139-0.6794 0.21547-0.2454 0.5945-0.2454z"/>
        <path d="m-53.669 1243.5q0-0.3193-0.13211-0.5001-0.13054-0.1825-0.36016-0.1825t-0.36173 0.1825q-0.13054 0.1808-0.13054 0.5001t0.13054 0.5017q0.13211 0.1809 0.36173 0.1809t0.36016-0.1809q0.13211-0.1824 0.13211-0.5017zm-0.98454-0.6149q0.09122-0.1573 0.22962-0.2328 0.13998-0.077 0.33342-0.077 0.32084 0 0.52058 0.2548 0.20131 0.2548 0.20131 0.67t-0.20131 0.67q-0.19974 0.2548-0.52058 0.2548-0.19345 0-0.33342-0.076-0.1384-0.077-0.22962-0.2343v0.2642h-0.29096v-2.4472h0.29096z"/>
        <path d="m-52.889 1241.9h0.28939v2.4472h-0.28939z"/>
        <path d="m-51.994 1242.6h0.28939v1.7615h-0.28939zm0-0.6857h0.28939v0.3664h-0.28939z"/>
        <path d="m-49.94 1243.5q0-0.3146-0.13054-0.4876-0.12897-0.173-0.36331-0.173-0.23277 0-0.36331 0.173-0.12897 0.173-0.12897 0.4876 0 0.313 0.12897 0.486 0.13054 0.173 0.36331 0.173 0.23434 0 0.36331-0.173 0.13054-0.173 0.13054-0.486zm0.28939 0.6826q0 0.4498-0.19974 0.6684-0.19974 0.2202-0.6118 0.2202-0.15256 0-0.28781-0.024-0.13526-0.022-0.26265-0.069v-0.2815q0.12739 0.069 0.25164 0.1022 0.12425 0.033 0.25321 0.033 0.28467 0 0.42622-0.1494 0.14155-0.1478 0.14155-0.4482v-0.1432q-0.08965 0.1558-0.22962 0.2328-0.13998 0.077-0.335 0.077-0.32399 0-0.52215-0.2469-0.19817-0.247-0.19817-0.6543 0-0.4089 0.19817-0.6558 0.19817-0.247 0.52215-0.247 0.19502 0 0.335 0.077t0.22962 0.2328v-0.2674h0.28939z"/>
        <path d="m-48.254 1243.5q-0.35072 0-0.48598 0.08t-0.13526 0.2737q0 0.1541 0.10066 0.2453 0.10223 0.09 0.2768 0.09 0.24063 0 0.38532-0.1699 0.14627-0.1714 0.14627-0.4545v-0.064zm0.5772-0.1195v1.005h-0.28939v-0.2674q-0.09908 0.1604-0.24692 0.2375-0.14784 0.076-0.36173 0.076-0.27051 0-0.43094-0.151-0.15885-0.1525-0.15885-0.4073 0-0.2973 0.19817-0.4483 0.19974-0.151 0.5945-0.151h0.40577v-0.028q0-0.1997-0.13211-0.3082-0.13054-0.1101-0.36802-0.1101-0.15098 0-0.2941 0.036t-0.27523 0.1085v-0.2674q0.15885-0.061 0.30826-0.091 0.14941-0.031 0.29096-0.031 0.38218 0 0.57091 0.1982t0.18873 0.6008z"/>
        <path d="m-46.794 1242.1v0.5001h0.59607v0.2249h-0.59607v0.9562q0 0.2155 0.05819 0.2768 0.05976 0.061 0.24063 0.061h0.29725v0.2422h-0.29725q-0.335 0-0.46239-0.1243-0.12739-0.1258-0.12739-0.4561v-0.9562h-0.21232v-0.2249h0.21232v-0.5001z"/>
        <path d="m-45.818 1242.6h0.28939v1.7615h-0.28939zm0-0.6857h0.28939v0.3664h-0.28939z"/>
        <path d="m-44.24 1242.8q-0.23277 0-0.36802 0.1824-0.13526 0.1809-0.13526 0.497t0.13368 0.4986q0.13526 0.1808 0.3696 0.1808 0.2312 0 0.36645-0.1824 0.13526-0.1824 0.13526-0.497 0-0.313-0.13526-0.4954-0.13526-0.184-0.36645-0.184zm0-0.2454q0.37746 0 0.59293 0.2454 0.21547 0.2453 0.21547 0.6794 0 0.4325-0.21547 0.6794-0.21547 0.2454-0.59293 0.2454-0.37903 0-0.5945-0.2454-0.2139-0.2469-0.2139-0.6794 0-0.4341 0.2139-0.6794 0.21547-0.2454 0.5945-0.2454z"/>
        <path d="m-41.488 1243.3v1.0632h-0.28939v-1.0538q0-0.25-0.09751-0.3743-0.09751-0.1242-0.29253-0.1242-0.23434 0-0.3696 0.1494t-0.13526 0.4073v0.9956h-0.29096v-1.7615h0.29096v0.2737q0.1038-0.1589 0.24378-0.2375 0.14155-0.079 0.32556-0.079 0.30354 0 0.45924 0.1888 0.1557 0.1871 0.1557 0.552z"/>
      </g>
      <g transform="matrix(2.7588 0 0 2.7588 3279.4 -1522.2)" aria-label="obligation">
        <path d="m-1161.6 588.12q-0.2328 0-0.368 0.18244-0.1353 0.18087-0.1353 0.49699 0 0.31613 0.1337 0.49856 0.1353 0.18087 0.3696 0.18087 0.2312 0 0.3664-0.18244 0.1353-0.18244 0.1353-0.49699 0-0.31298-0.1353-0.49542-0.1352-0.18401-0.3664-0.18401zm0-0.24535q0.3775 0 0.5929 0.24535 0.2155 0.24535 0.2155 0.67943 0 0.43251-0.2155 0.67943-0.2154 0.24535-0.5929 0.24535-0.379 0-0.5945-0.24535-0.2139-0.24692-0.2139-0.67943 0-0.43408 0.2139-0.67943 0.2155-0.24535 0.5945-0.24535z"/>
        <path d="m-1159 588.8q0-0.31927-0.1321-0.50013-0.1306-0.18244-0.3602-0.18244t-0.3617 0.18244q-0.1306 0.18086-0.1306 0.50013t0.1306 0.50171q0.1321 0.18087 0.3617 0.18087t0.3602-0.18087q0.1321-0.18244 0.1321-0.50171zm-0.9846-0.61494q0.091-0.15728 0.2297-0.23277 0.1399-0.0771 0.3334-0.0771 0.3208 0 0.5206 0.25479 0.2013 0.25478 0.2013 0.66999t-0.2013 0.66999q-0.1998 0.25479-0.5206 0.25479-0.1935 0-0.3334-0.0755-0.1384-0.0771-0.2297-0.23434v0.26422h-0.2909v-2.4472h0.2909z"/>
        <path d="m-1158.2 587.23h0.2893v2.4472h-0.2893z"/>
        <path d="m-1157.3 587.91h0.2893v1.7615h-0.2893zm0-0.68572h0.2893v0.36645h-0.2893z"/>
        <path d="m-1155.3 588.77q0-0.31455-0.1306-0.48755-0.1289-0.173-0.3633-0.173-0.2327 0-0.3633 0.173-0.1289 0.173-0.1289 0.48755 0 0.31298 0.1289 0.48598 0.1306 0.17301 0.3633 0.17301 0.2344 0 0.3633-0.17301 0.1306-0.173 0.1306-0.48598zm0.2894 0.68258q0 0.44981-0.1998 0.66842-0.1997 0.22018-0.6118 0.22018-0.1525 0-0.2878-0.0236-0.1353-0.022-0.2626-0.0692v-0.28152q0.1273 0.0692 0.2516 0.10223 0.1242 0.033 0.2532 0.033 0.2847 0 0.4262-0.14942 0.1416-0.14783 0.1416-0.44823v-0.14312q-0.09 0.1557-0.2296 0.23277-0.14 0.0771-0.335 0.0771-0.324 0-0.5222-0.24692t-0.1982-0.65427q0-0.40891 0.1982-0.65584 0.1982-0.24692 0.5222-0.24692 0.195 0 0.335 0.0771 0.1399 0.0771 0.2296 0.23277v-0.26737h0.2894z"/>
        <path d="m-1153.6 588.79q-0.3508 0-0.486 0.0802-0.1353 0.0802-0.1353 0.27366 0 0.15413 0.1007 0.24535 0.1022 0.0897 0.2768 0.0897 0.2406 0 0.3853-0.16986 0.1463-0.17143 0.1463-0.45453v-0.0645zm0.5772-0.11953v1.005h-0.2894v-0.26737q-0.099 0.16042-0.2469 0.23749-0.1479 0.0755-0.3618 0.0755-0.2705 0-0.4309-0.15098-0.1589-0.15256-0.1589-0.40735 0-0.29725 0.1982-0.44823 0.1997-0.15099 0.5945-0.15099h0.4058v-0.0283q0-0.19974-0.1321-0.30826-0.1306-0.11009-0.3681-0.11009-0.1509 0-0.2941 0.0362-0.1431 0.0362-0.2752 0.10852v-0.26737q0.1589-0.0613 0.3083-0.0912 0.1494-0.0315 0.2909-0.0315 0.3822 0 0.5709 0.19817 0.1888 0.19817 0.1888 0.60079z"/>
        <path d="m-1152.1 587.41v0.50014h0.5961v0.2249h-0.5961v0.95624q0 0.21546 0.058 0.2768 0.06 0.0613 0.2406 0.0613h0.2973v0.2422h-0.2973q-0.335 0-0.4624-0.12425-0.1274-0.12582-0.1274-0.45609v-0.95624h-0.2123v-0.2249h0.2123v-0.50014z"/>
        <path d="m-1151.2 587.91h0.2893v1.7615h-0.2893zm0-0.68572h0.2893v0.36645h-0.2893z"/>
        <path d="m-1149.6 588.12q-0.2327 0-0.368 0.18244-0.1352 0.18087-0.1352 0.49699 0 0.31613 0.1336 0.49856 0.1353 0.18087 0.3696 0.18087 0.2312 0 0.3665-0.18244 0.1352-0.18244 0.1352-0.49699 0-0.31298-0.1352-0.49542-0.1353-0.18401-0.3665-0.18401zm0-0.24535q0.3775 0 0.593 0.24535 0.2154 0.24535 0.2154 0.67943 0 0.43251-0.2154 0.67943-0.2155 0.24535-0.593 0.24535-0.379 0-0.5945-0.24535-0.2139-0.24692-0.2139-0.67943 0-0.43408 0.2139-0.67943 0.2155-0.24535 0.5945-0.24535z"/>
        <path d="m-1146.8 588.61v1.0632h-0.2894v-1.0537q0-0.25007-0.098-0.37432t-0.2926-0.12425q-0.2343 0-0.3696 0.14941-0.1352 0.14942-0.1352 0.40735v0.99555h-0.291v-1.7615h0.291v0.27366q0.1038-0.15885 0.2437-0.23749 0.1416-0.0786 0.3256-0.0786 0.3035 0 0.4593 0.18873 0.1557 0.18716 0.1557 0.55204z"/>
      </g>
    </g>
  </g>
</svg>
